<svg id="Capa_1" enable-background="new 0 0 512 512" height="512" viewBox="0 0 512 512" width="512" xmlns="http://www.w3.org/2000/svg"><g><path d="m512 15c0-8.291-6.709-15-15-15h-46l-15 30-15-30h-90l-15 30-15-30h-45-165l-15 30-15-30h-46c-8.291 0-15 6.709-15 15v166l30 15-30 15v286c0 8.291 6.709 15 15 15h166l15-30 15 30h30l15-30 15 30h150l15-30 15 30h46c8.291 0 15-6.709 15-15v-166l-30-15 30-15z" fill="#90e36a"/><path d="m421 512 15-30 15 30h46c8.291 0 15-6.709 15-15v-166l-30-15 30-15v-286c0-8.291-6.709-15-15-15h-46l-15 30-15-30h-90l-15 30-15-30h-45v482l15 30z" fill="#00aa63"/><path d="m76 181h-76v30h76c8.291 0 15-6.709 15-15s-6.709-15-15-15z" fill="#f0f7ff"/><path d="m136 421h45v91h30v-106c0-8.291-6.709-15-15-15h-60c-8.291 0-15 6.709-15 15s6.709 15 15 15z" fill="#f0f7ff"/><g fill="#dfe7f4"><path d="m451 512v-136c0-8.291-6.709-15-15-15s-15 6.709-15 15v136z"/><path d="m512 301h-166c-8.291 0-15 6.709-15 15v60c0 8.291 6.709 15 15 15s15-6.709 15-15v-45h151z"/><path d="m421 0v61h-45c-8.291 0-15 6.709-15 15s6.709 15 15 15h45v120h-105c-8.291 0-15 6.709-15 15s6.709 15 15 15h120c8.291 0 15-6.709 15-15v-226z"/><path d="m376 121h-45v-121h-30v136c0 8.291 6.709 15 15 15h60c8.291 0 15-6.709 15-15s-6.709-15-15-15z"/></g><path d="m196 91h-105v-91h-30v106c0 8.291 6.709 15 15 15h120c8.291 0 15-6.709 15-15s-6.709-15-15-15z" fill="#f0f7ff"/><path d="m256 301h-45v-105c0-8.291-6.709-15-15-15s-15 6.709-15 15v105h-60v-75c0-8.291-6.709-15-15-15s-15 6.709-15 15v90c0 8.291 6.709 15 15 15h135v181h15 15v-196c0-8.291-6.709-15-15-15z" fill="#f0f7ff"/><path d="m271 316c0-8.291-6.709-15-15-15v211h15z" fill="#dfe7f4"/><path d="m226 151c-24.814 0-45-20.186-45-45s20.186-45 45-45 45 20.186 45 45-20.186 45-45 45z" fill="#f0f7ff"/><path d="m106 241c-24.814 0-45-20.186-45-45s20.186-45 45-45 45 20.186 45 45-20.186 45-45 45z" fill="#f0f7ff"/><path d="m286 271c-24.814 0-45-20.186-45-45s20.186-45 45-45 45 20.186 45 45-20.186 45-45 45z" fill="#dfe7f4"/><path d="m346 451c-24.814 0-45-20.186-45-45s20.186-45 45-45 45 20.186 45 45-20.186 45-45 45z" fill="#dfe7f4"/><path d="m106 451c-24.814 0-45-20.186-45-45s20.186-45 45-45 45 20.186 45 45-20.186 45-45 45z" fill="#f0f7ff"/></g></svg>