<svg xmlns="http://www.w3.org/2000/svg" viewBox="0 0 563.23 382.84"><title>Recurso 13</title><g id="Capa_2" data-name="Capa 2"><g id="Capa_1-2" data-name="Capa 1"><path d="M562.31,225.88c-2.81-4.92-17.27-1.1-21.48-.74a189.68,189.68,0,0,0-30.71,5.65c-19.19,4.85-38.21,10.22-57.19,15.86-40.79,12.12-81.29,25.18-121.92,37.81s-80.95,26.36-121.56,39.11C169.06,336.24,127.88,346,87,357c-20,5.36-40,10.91-60.28,15-7,1.42-15.49-.54-22.1,1.68-4.64,1.56-6.57,5.2-2.15,7.86,6.69,4,27.09-2.31,33.44-3.63,21.09-4.39,42-10,62.89-15.26,82.45-20.85,162.8-48.08,243.87-73.55,45.64-14.34,91.18-29,137.26-41.9,19.41-5.45,41-13.65,61.29-13.83C545.56,233.32,568,235.88,562.31,225.88Z"/><path d="M473.3,206.58c-4,.89-8.56,2.14-11.3,5.36-3.1,3.65-3.78,6.76-7.27,10.06-5.71,5.41-4.7-10-4.66-13.17.06-4.35,2.27-11.68,3.7-15.85a43.41,43.41,0,0,1,2-4.74,80.64,80.64,0,0,0,7-22.34c2.54-15.45,3.69-24.08,3.14-39.49-.15-4.3.49-16.82-5.34-17.63-5.52-.77-5.82,6.14-6.78,9.86-6,23.25-9.1,30.71-12.36,54.52A181.28,181.28,0,0,0,440.27,202c.08,1.5-3.11-2-11-.63-5.07.9-10.79,4.54-14.75,9.5-4.34,5.43-4.78,12.38-9.31,17.38-6.48,7.15-2.82-8.77-4.27-11.89-2.58-5.58-7.95-5.64-13.1-4.78-5.56.93-9.39,1.09-14-2.06-5.07-3.48-10.41-3.85-15.22.51-3.34,3-4.18,8.49-8.24,10.74-9.26,5.12-3.15-8.83-4-13-3.4-17.05-24.2-6-31.46,1.62-5.05,5.28-9.95,11-15.42,15.83-6.9,6.11-8.25-1.52-6.13-7.29,1.91-5.17,6.62-13.18,3.06-18.46-3.39-5-9.8-2.53-14.24-.42-4.79,2.28-8.26,6.73-13,8.88-5,2.31-7.79-4-13.56-3.42-6.23.67-11.75,5.11-15.86,9.5-2,2.15-13.22,17.19-14.27,11.54s6.61-14.18-1.09-18.58c-5.52-3.16-12.92,4.39-16.19,8.09-2.34,2.64-7.17,12.24-11.74,11.76a1.71,1.71,0,0,1-1.42-2.16c1.16-4.56,4.88-7.67,7.63-11.25,3.73-4.88,8.12-11.17,1.41-15.61-7.15-4.72-15-.56-19.45,5.39-4.12,5.48-4.82,11-5.84,17.57-1.13,7.33-4,11-11.37,12.87-8.92,2.23-14.66-4.54-9.93-12.13,4.62-7.42,9.53-14.66,14.41-21.9,13.23-19.63,26.73-38.9,39.5-58.86q28.43-44.4,56.34-89.13c4.28-6.87,10.21-14.13,13.23-21.69,1.54-3.88-.33-9.79-5.27-7-2.67,1.51-4.83,6.73-6.39,9.35-4.91,8.23-9.79,16.47-14.93,24.56-2.8,4.43-6.73,13.4-11.71,15.87C237.64,51.28,227,34.87,209.89,20.78,197.14,10.28,161.26.47,137.82,0,108.05-.55,80.69,11.29,58.69,30,36.08,49.23,20.5,75.32,13,104a185.74,185.74,0,0,0-5.67,34.6c-1.44,21.43-.45,45.44,10.44,64.53,17.11,30,54.68,40.49,87.24,35.26,2-.32,16-4,17.09-2.35,1,1.42-7.82,11.36-8.82,12.65-9,11.54-18.4,22.67-27.71,33.91S66.69,305.44,57.3,316.87q-7.12,8.67-14.23,17.36c-3.52,4.31-9.13,9.33-11.12,14.6-1.17,3.07-.81,6.09,3,5.74,4.36-.4,8.51-6.26,10.94-9.32,7.75-9.76,15.89-19.19,23.72-28.9,14.39-17.82,29-35.48,44.16-52.64,5-5.62,9.82-11.35,14.9-16.87,3.49-3.79,7.28-9,11.71-11.65,5-3,4.29,2.14,7.31,4.95,3.4,3.15,10.7,4.54,15.17,4,8.27-.92,15.07-9.75,23.78-7.8,5.63,1.26,7.67,2.28,12.56-1.76A143.26,143.26,0,0,0,212,222.75c3.23-3.42,6.09-5.26,4.52,1.2-1.05,4.38-4.52,9-3.7,13.73,2.54,14.59,20-5.11,23.61-8.74,3-3.07,17.71-22.15,22.06-15.05,2.32,3.79-4,10.73-5.87,13.76-1.54,2.49-4.86,11.73,1.87,8.46,3.8-1.84,7.62-9.4,10.6-12.43a150.54,150.54,0,0,1,13.63-12.62c2.42-1.91,7.62-6.13,9.17-.94,1.09,3.66-3.49,10.53-4.17,14.18-1.73,9.27,7.1,17,15.94,12.17,1.93-1.06,3.69-3.5,5.81-4.21,2.75-.91,1.62-.78,3.94,1.09,3.16,2.55,5,6.53,9.74,5.91,3.82-.5,7.06-4.11,9.85-6.4,3.21-2.65,6.89-8.36,9.53-3.81,1.6,2.78,1.57,6.09,5.85,6.16,4.89.07,9.45-8,12.33-11.27,1.48-1.66,7.1-10.33,10-6.21,2.1,3-1.92,9.91-2.9,12.88-.93,2.81-2.95,8.09,1.65,8.45,4.06.32,6.82-6.38,8.25-9.26,2.44-4.92,10.55-13.88,17.12-8.66,5.17,4.11-2.46,19.83,8.09,20.67,4.35.35,9.13-2.54,13.81-2.47,3.89.06,7.49.49,11.36-.5a22.93,22.93,0,0,0,12.58-8.41,6.56,6.56,0,0,1,4.84-2.67,16.9,16.9,0,0,1,13.64,6.66c1.75,2.23,8.53,2.79,15.06,2.78A20.47,20.47,0,0,0,490.18,222c.13-.5.22-1,.29-1.41C491.64,212.53,485.28,203.94,473.3,206.58ZM58.6,226c-4.38-.49-9.62-3.8-13.17-6.33-9.91-7-9.23-20.54-9.44-31.52-.35-17.85,2.87-34.19,8-51.1,8.6-24.43,28.58-46.69,48.58-62.81,12.65-10.2,29.1-24.56,46.06-15C146,63.37,150.68,74,153.2,81.64c3.53,10.76,3.37,21.72,2.05,32.86-2.42,20.42-8.43,40.79-20.66,57.45-5,6.85-9.85,14.25-16.53,19.6-3.57,2.86-21.63,14.19-20.81,3.46.34-4.34,3.73-9.37,5.11-13.52,1.9-5.71,3.54-11.52,5.18-17.31.85-3,4.13-9.41.35-11.76-4.29-2.67-7.76,3.8-8.81,6.87-3.26,9.54-6.39,19.21-9.58,28.82a83.34,83.34,0,0,1-19.81,32.45C66.64,223.64,63.28,226.51,58.6,226Zm34.21,3.7c-4.22.94-8.69,1.38-12.9.09-5.81-1.78-4.18-2.2-.88-6.16,3.69-4.42,7.71-12.32,13.35-13.16,3.77-.56,10.41-.49,12.31,3.31C108.17,220.72,98.69,228.38,92.81,229.69Zm50.37-22.26c-4.26,2.32-8.41,4.68-12.52,7.28-2.74,1.74-6.34,5.38-9.87,4.15-9.3-3.27-1.56-16.84,1.75-21.44,5.59-7.76,13-13.87,18.46-21.92a133.28,133.28,0,0,0,12.68-22.4c13.75-32.52,24.15-81.49-9.19-106.25-18-13.33-42.67,2.26-57.22,14.22S59.91,88.88,49.66,104.52C31.36,132.45,25,166.88,26.27,199.78c-.48-2-1.76-3.8-2.59-5.68-2.59-5.78-4-12.11-5.21-18.28a138.73,138.73,0,0,1,1.41-61.32A149.54,149.54,0,0,1,76.64,30.44c15.78-11.61,34-19.89,53.74-21.06,17.35-1,36,2.36,52.09,8.78C208.13,28.37,231.17,51.6,234.55,80c1.15,9.67-6.82,18.42-11.64,26.28q-9.56,15.59-19.2,31.12c-5.4,8.7-11.42,16.28-17.94,24.26-6.75,8.27-13.43,16.59-20.32,24.74S152.56,202.32,143.18,207.43Zm44.57,7.38a.7.7,0,0,1-.11-.18c-.31-2.58,3.62-11.78,7.12-7.7,1.78,2.07.89,3.7-.64,5.22A7.74,7.74,0,0,1,187.75,214.81Zm144.33,5.8c-1.6,1.69-11.07,9.86-13.88,7s4-12.15,5.79-14,10.51-9.12,13.69-6.47C339,212,335.19,217.32,332.08,220.61Zm86.86,9.6c-6.48-4.85,7.7-23.93,17.08-18.92C443,215,424.74,233.84,418.94,230.21Zm26.9-48C447,174,449,165.16,450.54,157c2.11-10.91,5.49-25.18,8.52-35.85,3.8,11.36-.61,29.33-2.69,40.75-1.62,8.9-4.48,25-7.6,29.23C444,197.5,445.77,182.77,445.84,182.25Zm34.8,43.28c-5.23,10.09-23,4.08-13.87-7.13C472.8,211,486.18,214.83,480.64,225.53Z"/></g></g></svg>