<?xml version="1.0" encoding="utf-8"?>
<!-- Generator: Adobe Illustrator 21.0.0, SVG Export Plug-In . SVG Version: 6.00 Build 0)  -->
<svg version="1.1" id="Capa_1" xmlns="http://www.w3.org/2000/svg" xmlns:xlink="http://www.w3.org/1999/xlink" x="0px" y="0px"
	 viewBox="0 0 555 555" style="enable-background:new 0 0 555 555;" xml:space="preserve">
<style type="text/css">
	.st0{fill:#42E8E0;}
	.st1{fill:url(#SVGID_1_);}
	.st2{fill:url(#SVGID_2_);}
	.st3{fill:#24126A;}
	.st4{opacity:0.51;}
	.st5{fill:#453C9E;}
	.st6{fill:url(#SVGID_3_);}
	.st7{fill:url(#SVGID_4_);}
	.st8{fill:#FFFFFF;}
	.st9{opacity:0.15;}
	.st10{clip-path:url(#SVGID_6_);}
	.st11{fill:url(#SVGID_7_);}
	.st12{fill:url(#SVGID_8_);}
	.st13{opacity:0.5;}
	.st14{opacity:0.8;}
	.st15{opacity:0.5;fill:url(#SVGID_9_);}
</style>
<g>
	<g>
		<path class="st0" d="M313.1,547.1c-2.3,0-4.6-0.6-6.5-1.6L20.1,380.1c-2-1.1-3.1-2.7-3.1-4.3c0-1.4,0.8-2.7,2.3-3.5l170.9-98.7
			c3-1.8,8.1-1.6,11.6,0.4l286.5,165.4c2,1.1,3.1,2.7,3.1,4.3c0,1.4-0.8,2.7-2.3,3.5l-170.9,98.7C316.8,546.7,315,547.1,313.1,547.1
			z M21.2,378.3l286.5,165.4c2.8,1.6,7.2,1.8,9.6,0.4l171-98.7c0.6-0.3,1.3-0.9,1.3-1.8c0-0.9-0.8-1.8-2.1-2.6L200.9,275.7
			c-2.8-1.6-7.2-1.8-9.6-0.4l-171,98.7c-0.6,0.3-1.3,0.9-1.3,1.8C19.1,376.6,19.9,377.5,21.2,378.3L21.2,378.3z"/>
		<g>
			<g>
				<g>
					<g>
						<g>
							
								<linearGradient id="SVGID_1_" gradientUnits="userSpaceOnUse" x1="-63.3964" y1="202.4429" x2="270.9398" y2="202.4429" gradientTransform="matrix(-1 0 0 1 472.7101 0)">
								<stop  offset="0" style="stop-color:#C0BFF6"/>
								<stop  offset="0.2938" style="stop-color:#C5C4F7"/>
								<stop  offset="0.6399" style="stop-color:#D3D2F9"/>
								<stop  offset="1" style="stop-color:#E9E9FD"/>
							</linearGradient>
							<path class="st1" d="M201.8,223.2L238,8.4l-2.9-1.2l4.4-2.5l0,0c0.8-0.6,2-0.5,3.4,0.2L532.3,172c2.4,1.4,4.2,4.9,3.8,7.4
								l-36.5,216.6c-0.2,1.1-0.7,1.9-1.5,2.2l0,0l-4.3,2.5l-0.7-4l0.2,0.1L205.6,230.6C203.2,229.2,201.4,225.7,201.8,223.2z"/>
							
								<linearGradient id="SVGID_2_" gradientUnits="userSpaceOnUse" x1="-63.3943" y1="288.185" x2="-5.9855" y2="288.185" gradientTransform="matrix(-1 0 0 1 472.7101 0)">
								<stop  offset="0" style="stop-color:#5761D7"/>
								<stop  offset="0.1779" style="stop-color:#5C66D9"/>
								<stop  offset="0.3876" style="stop-color:#6A73DF"/>
								<stop  offset="0.6134" style="stop-color:#8289E8"/>
								<stop  offset="0.849" style="stop-color:#A3A7F5"/>
								<stop  offset="1" style="stop-color:#BCBEFF"/>
							</linearGradient>
							<path class="st2" d="M530.7,177.9l4.8-2.1c0.5,1.2,0.8,2.5,0.6,3.6l-36.5,216.6c-0.2,1.1-0.7,1.9-1.5,2.2l0,0l-4.3,2.5
								l-0.7-4l0.2,0.1l-14.6-8.4L530.7,177.9z"/>
							<path class="st3" d="M201,233.2l289.4,167.1c2.2,1.3,4.1,0.5,4.5-1.8L531.5,182c0.4-2.5-1.4-6-3.8-7.4L238.3,7.5
								c-2.2-1.3-4.1-0.5-4.5,1.8l-36.5,216.6C196.9,228.3,198.7,231.8,201,233.2z"/>
							<g class="st4">
								<polygon class="st5" points="237.4,11.5 528.1,179.3 491.4,396.5 200.8,228.8 								"/>
							</g>
						</g>
						<g>
							
								<linearGradient id="SVGID_3_" gradientUnits="userSpaceOnUse" x1="-18.6031" y1="381.7357" x2="453.5891" y2="381.7357" gradientTransform="matrix(-1 0 0 1 472.7101 0)">
								<stop  offset="0" style="stop-color:#5761D7"/>
								<stop  offset="0.1779" style="stop-color:#5C66D9"/>
								<stop  offset="0.3876" style="stop-color:#6A73DF"/>
								<stop  offset="0.6134" style="stop-color:#8289E8"/>
								<stop  offset="0.849" style="stop-color:#A3A7F5"/>
								<stop  offset="1" style="stop-color:#BCBEFF"/>
							</linearGradient>
							<path class="st6" d="M19.1,335.7l15.8,8.2l158.4-91.4c2.6-1.5,7.3-1.3,10.3,0.4l273.2,157.7c2.6-1.5,14.5-7.2,14.5-7.2
								l-5.8,9.4c0,0,0,0,0,0c-0.2,0.7-0.8,1.3-1.6,1.8l-166.8,96.3c-2.6,1.5-7.3,1.3-10.3-0.4L27.2,349.1c-1.3-0.7-2-1.6-2.3-2.5
								l0,0L19.1,335.7z"/>
							
								<linearGradient id="SVGID_4_" gradientUnits="userSpaceOnUse" x1="-228.3797" y1="368.8245" x2="467.4118" y2="368.8245" gradientTransform="matrix(-1 0 0 1 472.7101 0)">
								<stop  offset="0" style="stop-color:#C0BFF6"/>
								<stop  offset="0.2938" style="stop-color:#C5C4F7"/>
								<stop  offset="0.6399" style="stop-color:#D3D2F9"/>
								<stop  offset="1" style="stop-color:#E9E9FD"/>
							</linearGradient>
							<path class="st7" d="M21.6,338.3L308,503.7c3.1,1.8,7.9,2,10.6,0.4l170.9-98.7c2.7-1.6,2.4-4.3-0.8-6.1L202.3,233.9
								c-3.1-1.8-7.9-2-10.6-0.4L20.8,332.2C18.1,333.8,18.4,336.5,21.6,338.3z"/>
							<path class="st8" d="M21.6,337L308,502.4c3.1,1.8,7.9,2,10.6,0.4l170.9-98.7c1-0.6,1.5-1.3,1.7-2c0.3,1.2-0.2,2.4-1.7,3.3
								l-170.9,98.7c-2.7,1.6-7.5,1.4-10.6-0.4L21.6,338.3c-2-1.2-2.9-2.7-2.5-4.1C19.3,335.2,20.1,336.2,21.6,337z"/>
						</g>
					</g>
					<g class="st9">
						<defs>
							<polygon id="SVGID_5_" class="st9" points="528.1,179.3 237.4,11.5 200.8,228.8 491.4,396.5 							"/>
						</defs>
						<clipPath id="SVGID_6_">
							<use xlink:href="#SVGID_5_"  style="overflow:visible;"/>
						</clipPath>
						<g class="st10">
							<g>
								
									<linearGradient id="SVGID_7_" gradientUnits="userSpaceOnUse" x1="-200.1758" y1="277.816" x2="272.0163" y2="277.816" gradientTransform="matrix(-1 0 0 1 472.7101 0)">
									<stop  offset="0" style="stop-color:#5761D7"/>
									<stop  offset="0.1779" style="stop-color:#5C66D9"/>
									<stop  offset="0.3876" style="stop-color:#6A73DF"/>
									<stop  offset="0.6134" style="stop-color:#8289E8"/>
									<stop  offset="0.849" style="stop-color:#A3A7F5"/>
									<stop  offset="1" style="stop-color:#BCBEFF"/>
								</linearGradient>
								<path class="st11" d="M200.7,231.8l15.8,8.2l158.4-91.4c2.6-1.5,7.3-1.3,10.3,0.4l273.2,157.7c2.6-1.5,14.5-7.2,14.5-7.2
									l-5.8,9.4c0,0,0,0,0,0c-0.2,0.7-0.8,1.3-1.6,1.8L498.7,407c-2.6,1.5-7.3,1.3-10.3-0.4L208.8,245.2c-1.3-0.7-2-1.6-2.3-2.5
									l0,0L200.7,231.8z"/>
								
									<linearGradient id="SVGID_8_" gradientUnits="userSpaceOnUse" x1="-41.5177" y1="264.9047" x2="430.9262" y2="264.9047" gradientTransform="matrix(-1 0 0 1 472.7101 0)">
									<stop  offset="0" style="stop-color:#C0BFF6"/>
									<stop  offset="0.2938" style="stop-color:#C5C4F7"/>
									<stop  offset="0.6399" style="stop-color:#D3D2F9"/>
									<stop  offset="1" style="stop-color:#E9E9FD"/>
								</linearGradient>
								<path class="st12" d="M203.1,234.4l286.5,165.4c3.1,1.8,7.9,2,10.6,0.4l170.9-98.7c2.7-1.6,2.4-4.3-0.8-6.1L383.9,130
									c-3.1-1.8-7.9-2-10.6-0.4l-170.9,98.7C199.7,229.8,200,232.6,203.1,234.4z"/>
								<path class="st8" d="M670.4,295.4L383.9,130c-2-1.2-4.7-1.7-7.1-1.4c1.8,0.1,3.5,0.6,5,1.4l286.5,165.4
									c3.1,1.8,3.5,4.5,0.8,6.1l-170.9,98.7c-1,0.6-2.2,0.9-3.5,1c2.1,0.2,4.2-0.2,5.6-1l170.9-98.7
									C673.9,300,673.5,297.2,670.4,295.4z"/>
							</g>
							<g class="st13">
								<path class="st3" d="M353.2,205.9l-9.2-5.3c-0.7-0.4-2-0.4-2.8,0.1l-10.2,6c-0.8,0.5-0.9,1.2-0.1,1.6l9.2,5.3
									c0.7,0.4,2,0.4,2.8-0.1l10.2-6C353.9,207.1,353.9,206.3,353.2,205.9z"/>
								<path class="st3" d="M367.4,214.1l-9.2-5.3c-0.7-0.4-2-0.4-2.8,0.1l-10.2,6c-0.8,0.5-0.9,1.2-0.1,1.6l9.2,5.3
									c0.7,0.4,2,0.4,2.8-0.1l10.2-6C368.1,215.3,368.1,214.5,367.4,214.1z"/>
								<path class="st3" d="M381.6,222.3l-9.2-5.3c-0.7-0.4-2-0.4-2.8,0.1l-10.2,6c-0.8,0.5-0.9,1.2-0.1,1.6l9.2,5.3
									c0.7,0.4,2,0.4,2.8-0.1l10.2-6C382.2,223.4,382.3,222.7,381.6,222.3z"/>
								<path class="st3" d="M370.8,233.2l-9.2-5.3c-0.7-0.4-2-0.4-2.8,0.1l-8.6,5c-0.8,0.5-0.9,1.2-0.1,1.6l9.2,5.3
									c0.7,0.4,2,0.4,2.8-0.1l8.6-5C371.4,234.3,371.5,233.6,370.8,233.2z"/>
								<path class="st3" d="M384.9,241.4l-9.2-5.3c-0.7-0.4-2-0.4-2.8,0.1l-8.6,5c-0.8,0.5-0.9,1.2-0.1,1.6l9.2,5.3
									c0.7,0.4,2,0.4,2.8-0.1l8.6-5C385.6,242.5,385.7,241.8,384.9,241.4z"/>
								<path class="st3" d="M399.1,249.6l-9.2-5.3c-0.7-0.4-2-0.4-2.8,0.1l-8.6,5c-0.8,0.5-0.9,1.2-0.1,1.6l9.2,5.3
									c0.7,0.4,2,0.4,2.8-0.1l8.6-5C399.8,250.7,399.9,250,399.1,249.6z"/>
								<path class="st3" d="M413.3,257.8l-9.2-5.3c-0.7-0.4-2-0.4-2.8,0.1l-8.6,5c-0.8,0.5-0.9,1.2-0.1,1.6l9.2,5.3
									c0.7,0.4,2,0.4,2.8-0.1l8.6-5C414,258.9,414,258.2,413.3,257.8z"/>
								<path class="st3" d="M427.5,265.9l-9.2-5.3c-0.7-0.4-2-0.4-2.8,0.1l-8.6,5c-0.8,0.5-0.9,1.2-0.1,1.6l9.2,5.3
									c0.7,0.4,2,0.4,2.8-0.1l8.6-5C428.2,267.1,428.2,266.4,427.5,265.9z"/>
								<path class="st3" d="M441.7,274.1l-9.2-5.3c-0.7-0.4-2-0.4-2.8,0.1l-8.6,5c-0.8,0.5-0.9,1.2-0.1,1.6l9.2,5.3
									c0.7,0.4,2,0.4,2.8-0.1l8.6-5C442.3,275.3,442.4,274.6,441.7,274.1z"/>
								<path class="st3" d="M455.8,282.3l-9.2-5.3c-0.7-0.4-2-0.4-2.8,0.1l-8.6,5c-0.8,0.5-0.9,1.2-0.1,1.6l9.2,5.3
									c0.7,0.4,2,0.4,2.8-0.1l8.6-5C456.5,283.5,456.6,282.7,455.8,282.3z"/>
								<path class="st3" d="M470,290.5l-9.2-5.3c-0.7-0.4-2-0.4-2.8,0.1l-8.6,5c-0.8,0.5-0.9,1.2-0.1,1.6l9.2,5.3
									c0.7,0.4,2,0.4,2.8-0.1l8.6-5C470.7,291.7,470.8,290.9,470,290.5z"/>
								<path class="st3" d="M484.2,298.7l-9.2-5.3c-0.7-0.4-2-0.4-2.8,0.1l-8.6,5c-0.8,0.5-0.9,1.2-0.1,1.6l9.2,5.3
									c0.7,0.4,2,0.4,2.8-0.1l8.6-5C484.9,299.8,484.9,299.1,484.2,298.7z"/>
								<path class="st3" d="M498.4,306.9l-9.2-5.3c-0.7-0.4-2-0.4-2.8,0.1l-8.6,5c-0.8,0.5-0.9,1.2-0.1,1.6l9.2,5.3
									c0.7,0.4,2,0.4,2.8-0.1l8.6-5C499.1,308,499.1,307.3,498.4,306.9z"/>
								<path class="st3" d="M364.8,244.9l-9.2-5.3c-0.7-0.4-2-0.4-2.8,0.1l-8.6,5c-0.8,0.5-0.9,1.2-0.1,1.6l9.2,5.3
									c0.7,0.4,2,0.4,2.8-0.1l8.6-5C365.5,246,365.6,245.3,364.8,244.9z"/>
								<path class="st3" d="M350.5,236.6l-9.2-5.3c-0.7-0.4-2-0.4-2.8,0.1l-8.6,5c-0.8,0.5-0.9,1.2-0.1,1.6l9.2,5.3
									c0.7,0.4,2,0.4,2.8-0.1l8.6-5C351.1,237.7,351.2,237,350.5,236.6z"/>
								<path class="st3" d="M336,228.2l-19.8-11.4c-0.7-0.4-2-0.4-2.8,0.1l-8.6,5c-0.8,0.5-0.9,1.2-0.1,1.6l19.8,11.4
									c0.7,0.4,2,0.4,2.8-0.1l8.6-5C336.7,229.4,336.8,228.7,336,228.2z"/>
								<path class="st3" d="M319.3,233.7l-16-9.3c-0.7-0.4-2-0.4-2.8,0.1l-8.6,5c-0.8,0.5-0.9,1.2-0.1,1.6l16,9.3
									c0.7,0.4,2,0.4,2.8-0.1l8.6-5C320,234.8,320.1,234.1,319.3,233.7z"/>
								<path class="st3" d="M379,253.1l-9.2-5.3c-0.7-0.4-2-0.4-2.8,0.1l-8.6,5c-0.8,0.5-0.9,1.2-0.1,1.6l9.2,5.3
									c0.7,0.4,2,0.4,2.8-0.1l8.6-5C379.7,254.2,379.8,253.5,379,253.1z"/>
								<path class="st3" d="M393.2,261.3L384,256c-0.7-0.4-2-0.4-2.8,0.1l-8.6,5c-0.8,0.5-0.9,1.2-0.1,1.6l9.2,5.3
									c0.7,0.4,2,0.4,2.8-0.1l8.6-5C393.9,262.4,393.9,261.7,393.2,261.3z"/>
								<path class="st3" d="M407.4,269.4l-9.2-5.3c-0.7-0.4-2-0.4-2.8,0.1l-8.6,5c-0.8,0.5-0.9,1.2-0.1,1.6l9.2,5.3
									c0.7,0.4,2,0.4,2.8-0.1l8.6-5C408.1,270.6,408.1,269.9,407.4,269.4z"/>
								<path class="st3" d="M421.6,277.6l-9.2-5.3c-0.7-0.4-2-0.4-2.8,0.1l-8.6,5c-0.8,0.5-0.9,1.2-0.1,1.6l9.2,5.3
									c0.7,0.4,2,0.4,2.8-0.1l8.6-5C422.3,278.8,422.3,278.1,421.6,277.6z"/>
								<path class="st3" d="M435.8,285.8l-9.2-5.3c-0.7-0.4-2-0.4-2.8,0.1l-8.6,5c-0.8,0.5-0.9,1.2-0.1,1.6l9.2,5.3
									c0.7,0.4,2,0.4,2.8-0.1l8.6-5C436.4,287,436.5,286.2,435.8,285.8z"/>
								<path class="st3" d="M449.9,294l-9.2-5.3c-0.7-0.4-2-0.4-2.8,0.1l-8.6,5c-0.8,0.5-0.9,1.2-0.1,1.6l9.2,5.3
									c0.7,0.4,2,0.4,2.8-0.1l8.6-5C450.6,295.2,450.7,294.4,449.9,294z"/>
								<path class="st3" d="M464.1,302.2l-9.2-5.3c-0.7-0.4-2-0.4-2.8,0.1l-8.6,5c-0.8,0.5-0.9,1.2-0.1,1.6l9.2,5.3
									c0.7,0.4,2,0.4,2.8-0.1l8.6-5C464.8,303.3,464.9,302.6,464.1,302.2z"/>
								<path class="st3" d="M478.3,310.4l-9.2-5.3c-0.7-0.4-2-0.4-2.8,0.1l-8.6,5c-0.8,0.5-0.9,1.2-0.1,1.6l9.2,5.3
									c0.7,0.4,2,0.4,2.8-0.1l8.6-5C479,311.5,479,310.8,478.3,310.4z"/>
								<path class="st3" d="M492.5,318.6l-9.2-5.3c-0.7-0.4-2-0.4-2.8,0.1l-8.6,5c-0.8,0.5-0.9,1.2-0.1,1.6l9.2,5.3
									c0.7,0.4,2,0.4,2.8-0.1l8.6-5C493.2,319.7,493.2,319,492.5,318.6z"/>
								<path class="st3" d="M517.7,333.1l-20-11.6c-0.7-0.4-2-0.4-2.8,0.1l-8.6,5c-0.8,0.5-0.9,1.2-0.1,1.6l20,11.6
									c0.7,0.4,2,0.4,2.8-0.1l8.6-5C518.4,334.3,518.4,333.5,517.7,333.1z"/>
								<path class="st3" d="M491.7,348.3l-16.9-9.8c-0.7-0.4-2-0.4-2.8,0.1l-8.6,5c-0.8,0.5-0.9,1.2-0.1,1.6l16.9,9.8
									c0.7,0.4,2,0.4,2.8-0.1l8.6-5C492.4,349.5,492.4,348.7,491.7,348.3z"/>
								<path class="st3" d="M377.1,267l-9.2-5.3c-0.7-0.4-2-0.4-2.8,0.1l-8.6,5c-0.8,0.5-0.9,1.2-0.1,1.6l9.2,5.3
									c0.7,0.4,2,0.4,2.8-0.1l8.6-5C377.7,268.2,377.8,267.5,377.1,267z"/>
								<path class="st3" d="M362.5,258.6l-9.2-5.3c-0.7-0.4-2-0.4-2.8,0.1l-8.6,5c-0.8,0.5-0.9,1.2-0.1,1.6l9.2,5.3
									c0.7,0.4,2,0.4,2.8-0.1l8.6-5C363.2,259.8,363.3,259.1,362.5,258.6z"/>
								<path class="st3" d="M348,250.2l-9.2-5.3c-0.7-0.4-2-0.4-2.8,0.1l-8.6,5c-0.8,0.5-0.9,1.2-0.1,1.6l9.2,5.3
									c0.7,0.4,2,0.4,2.8-0.1l8.6-5C348.7,251.4,348.7,250.7,348,250.2z"/>
								<path class="st3" d="M333.5,241.9l-9.2-5.3c-0.7-0.4-2-0.4-2.8,0.1l-8.6,5c-0.8,0.5-0.9,1.2-0.1,1.6l9.2,5.3
									c0.7,0.4,2,0.4,2.8-0.1l8.6-5C334.1,243,334.2,242.3,333.5,241.9z"/>
								<path class="st3" d="M391.2,275.2l-9.2-5.3c-0.7-0.4-2-0.4-2.8,0.1l-8.6,5c-0.8,0.5-0.9,1.2-0.1,1.6l9.2,5.3
									c0.7,0.4,2,0.4,2.8-0.1l8.6-5C391.9,276.4,392,275.6,391.2,275.2z"/>
								<path class="st3" d="M405.4,283.4l-9.2-5.3c-0.7-0.4-2-0.4-2.8,0.1l-8.6,5c-0.8,0.5-0.9,1.2-0.1,1.6l9.2,5.3
									c0.7,0.4,2,0.4,2.8-0.1l8.6-5C406.1,284.6,406.2,283.8,405.4,283.4z"/>
								<path class="st3" d="M419.6,291.6l-9.2-5.3c-0.7-0.4-2-0.4-2.8,0.1l-8.6,5c-0.8,0.5-0.9,1.2-0.1,1.6l9.2,5.3
									c0.7,0.4,2,0.4,2.8-0.1l8.6-5C420.3,292.7,420.3,292,419.6,291.6z"/>
								<path class="st3" d="M433.8,299.8l-9.2-5.3c-0.7-0.4-2-0.4-2.8,0.1l-8.6,5c-0.8,0.5-0.9,1.2-0.1,1.6l9.2,5.3
									c0.7,0.4,2,0.4,2.8-0.1l8.6-5C434.5,300.9,434.5,300.2,433.8,299.8z"/>
								<path class="st3" d="M448,308l-9.2-5.3c-0.7-0.4-2-0.4-2.8,0.1l-8.6,5c-0.8,0.5-0.9,1.2-0.1,1.6l9.2,5.3
									c0.7,0.4,2,0.4,2.8-0.1l8.6-5C448.7,309.1,448.7,308.4,448,308z"/>
								<path class="st3" d="M462.1,316.2l-9.2-5.3c-0.7-0.4-2-0.4-2.8,0.1l-8.6,5c-0.8,0.5-0.9,1.2-0.1,1.6l9.2,5.3
									c0.7,0.4,2,0.4,2.8-0.1l8.6-5C462.8,317.3,462.9,316.6,462.1,316.2z"/>
								<path class="st3" d="M476.3,324.3l-9.2-5.3c-0.7-0.4-2-0.4-2.8,0.1l-8.6,5c-0.8,0.5-0.9,1.2-0.1,1.6l9.2,5.3
									c0.7,0.4,2,0.4,2.8-0.1l8.6-5C477,325.5,477.1,324.8,476.3,324.3z"/>
								<path class="st3" d="M490.5,332.5l-9.2-5.3c-0.7-0.4-2-0.4-2.8,0.1l-8.6,5c-0.8,0.5-0.9,1.2-0.1,1.6l9.2,5.3
									c0.7,0.4,2,0.4,2.8-0.1l8.6-5C491.2,333.7,491.2,333,490.5,332.5z"/>
								<path class="st3" d="M504.7,340.7l-9.2-5.3c-0.7-0.4-2-0.4-2.8,0.1l-8.6,5c-0.8,0.5-0.9,1.2-0.1,1.6l9.2,5.3
									c0.7,0.4,2,0.4,2.8-0.1l8.6-5C505.4,341.9,505.4,341.1,504.7,340.7z"/>
								<path class="st3" d="M342.8,262.3l-9.2-5.3c-0.7-0.4-2-0.4-2.8,0.1l-8.6,5c-0.8,0.5-0.9,1.2-0.1,1.6l9.2,5.3
									c0.7,0.4,2,0.4,2.8-0.1l8.6-5C343.5,263.5,343.5,262.8,342.8,262.3z"/>
								<path class="st3" d="M328.7,254.2l-9.2-5.3c-0.7-0.4-2-0.4-2.8,0.1l-8.6,5c-0.8,0.5-0.9,1.2-0.1,1.6l9.2,5.3
									c0.7,0.4,2,0.4,2.8-0.1l8.6-5C329.4,255.3,329.4,254.6,328.7,254.2z"/>
								<path class="st3" d="M314.6,246l-9.2-5.3c-0.7-0.4-2-0.4-2.8,0.1l-8.6,5c-0.8,0.5-0.9,1.2-0.1,1.6l9.2,5.3
									c0.7,0.4,2,0.4,2.8-0.1l8.6-5C315.3,247.2,315.3,246.5,314.6,246z"/>
								<path class="st3" d="M300.5,237.9l-9.2-5.3c-0.7-0.4-2-0.4-2.8,0.1l-8.6,5c-0.8,0.5-0.9,1.2-0.1,1.6l9.2,5.3
									c0.7,0.4,2,0.4,2.8-0.1l8.6-5C301.1,239.1,301.2,238.3,300.5,237.9z"/>
								<path class="st3" d="M286.8,245.9l-9.2-5.3c-0.7-0.4-2-0.4-2.8,0.1l-2.8,1.7c-0.8,0.5-0.9,1.2-0.1,1.6l9.2,5.3
									c0.7,0.4,2,0.4,2.8-0.1l2.8-1.7C287.5,247,287.5,246.3,286.8,245.9z"/>
								<path class="st3" d="M305.2,256.5l-9.2-5.3c-0.7-0.4-2-0.4-2.8,0.1l-2.8,1.7c-0.8,0.5-0.9,1.2-0.1,1.6l9.2,5.3
									c0.7,0.4,2,0.4,2.8-0.1l2.8-1.7C305.9,257.7,305.9,256.9,305.2,256.5z"/>
								<path class="st3" d="M319.3,264.6l-9.2-5.3c-0.7-0.4-2-0.4-2.8,0.1l-2.8,1.7c-0.8,0.5-0.9,1.2-0.1,1.6l9.2,5.3
									c0.7,0.4,2,0.4,2.8-0.1l2.8-1.7C319.9,265.8,320,265.1,319.3,264.6z"/>
								<path class="st3" d="M333.3,272.7l-9.2-5.3c-0.7-0.4-2-0.4-2.8,0.1l-2.8,1.7c-0.8,0.5-0.9,1.2-0.1,1.6l9.2,5.3
									c0.7,0.4,2,0.4,2.8-0.1l2.8-1.7C334,273.9,334.1,273.2,333.3,272.7z"/>
								<path class="st3" d="M347.4,280.9l-9.2-5.3c-0.7-0.4-2-0.4-2.8,0.1l-2.8,1.7c-0.8,0.5-0.9,1.2-0.1,1.6l9.2,5.3
									c0.7,0.4,2,0.4,2.8-0.1l2.8-1.7C348.1,282,348.1,281.3,347.4,280.9z"/>
								<path class="st3" d="M425.8,326.1l-9.2-5.3c-0.7-0.4-2-0.4-2.8,0.1l-2.8,1.7c-0.8,0.5-0.9,1.2-0.1,1.6l9.2,5.3
									c0.7,0.4,2,0.4,2.8-0.1l2.8-1.7C426.5,327.3,426.6,326.6,425.8,326.1z"/>
								<path class="st3" d="M439.9,334.3l-9.2-5.3c-0.7-0.4-2-0.4-2.8,0.1l-2.8,1.7c-0.8,0.5-0.9,1.2-0.1,1.6l9.2,5.3
									c0.7,0.4,2,0.4,2.8-0.1l2.8-1.7C440.6,335.4,440.6,334.7,439.9,334.3z"/>
								<path class="st3" d="M453.9,342.4l-9.2-5.3c-0.7-0.4-2-0.4-2.8,0.1l-2.8,1.7c-0.8,0.5-0.9,1.2-0.1,1.6l9.2,5.3
									c0.7,0.4,2,0.4,2.8-0.1l2.8-1.7C454.6,343.5,454.7,342.8,453.9,342.4z"/>
								<path class="st3" d="M468,350.5l-9.2-5.3c-0.7-0.4-2-0.4-2.8,0.1l-2.8,1.7c-0.8,0.5-0.9,1.2-0.1,1.6l9.2,5.3
									c0.7,0.4,2,0.4,2.8-0.1l2.8-1.7C468.7,351.6,468.7,350.9,468,350.5z"/>
								<path class="st3" d="M357,270.5l-9.2-5.3c-0.7-0.4-2-0.4-2.8,0.1l-8.6,5c-0.8,0.5-0.9,1.2-0.1,1.6l9.2,5.3
									c0.7,0.4,2,0.4,2.8-0.1l8.6-5C357.7,271.7,357.7,271,357,270.5z"/>
								<path class="st3" d="M371.2,278.7l-9.2-5.3c-0.7-0.4-2-0.4-2.8,0.1l-8.6,5c-0.8,0.5-0.9,1.2-0.1,1.6l9.2,5.3
									c0.7,0.4,2,0.4,2.8-0.1l8.6-5C371.8,279.9,371.9,279.1,371.2,278.7z"/>
								<path class="st3" d="M385.3,286.9l-9.2-5.3c-0.7-0.4-2-0.4-2.8,0.1l-8.6,5c-0.8,0.5-0.9,1.2-0.1,1.6l9.2,5.3
									c0.7,0.4,2,0.4,2.8-0.1l8.6-5C386,288.1,386.1,287.3,385.3,286.9z"/>
								<path class="st3" d="M399.5,295.1l-9.2-5.3c-0.7-0.4-2-0.4-2.8,0.1l-8.6,5c-0.8,0.5-0.9,1.2-0.1,1.6l9.2,5.3
									c0.7,0.4,2,0.4,2.8-0.1l8.6-5C400.2,296.2,400.3,295.5,399.5,295.1z"/>
								<path class="st3" d="M413.7,303.3l-9.2-5.3c-0.7-0.4-2-0.4-2.8,0.1l-8.6,5c-0.8,0.5-0.9,1.2-0.1,1.6l9.2,5.3
									c0.7,0.4,2,0.4,2.8-0.1l8.6-5C414.4,304.4,414.4,303.7,413.7,303.3z"/>
								<path class="st3" d="M427.9,311.5l-9.2-5.3c-0.7-0.4-2-0.4-2.8,0.1l-8.6,5c-0.8,0.5-0.9,1.2-0.1,1.6l9.2,5.3
									c0.7,0.4,2,0.4,2.8-0.1l8.6-5C428.6,312.6,428.6,311.9,427.9,311.5z"/>
								<path class="st3" d="M442.1,319.7l-9.2-5.3c-0.7-0.4-2-0.4-2.8,0.1l-8.6,5c-0.8,0.5-0.9,1.2-0.1,1.6l9.2,5.3
									c0.7,0.4,2,0.4,2.8-0.1l8.6-5C442.7,320.8,442.8,320.1,442.1,319.7z"/>
								<path class="st3" d="M456.2,327.8l-9.2-5.3c-0.7-0.4-2-0.4-2.8,0.1l-8.6,5c-0.8,0.5-0.9,1.2-0.1,1.6l9.2,5.3
									c0.7,0.4,2,0.4,2.8-0.1l8.6-5C456.9,329,457,328.3,456.2,327.8z"/>
								<path class="st3" d="M470.4,336l-9.2-5.3c-0.7-0.4-2-0.4-2.8,0.1l-8.6,5c-0.8,0.5-0.9,1.2-0.1,1.6l9.2,5.3
									c0.7,0.4,2,0.4,2.8-0.1l8.6-5C471.1,337.2,471.2,336.5,470.4,336z"/>
								<path class="st3" d="M356.3,224.8l-27-15.6c-0.7-0.4-2-0.4-2.8,0.1l-8.6,5c-0.8,0.5-0.9,1.2-0.1,1.6l27,15.6
									c0.7,0.4,2,0.4,2.8-0.1l8.6-5C357,226,357,225.3,356.3,224.8z"/>
								<path class="st3" d="M530.5,325.4l-27-15.6c-0.7-0.4-2-0.4-2.8,0.1l-8.6,5c-0.8,0.5-0.9,1.2-0.1,1.6l27,15.6
									c0.7,0.4,2,0.4,2.8-0.1l8.6-5C531.2,326.6,531.3,325.9,530.5,325.4z"/>
								<path class="st3" d="M504.2,293.1l-9.2-5.3c-0.7-0.4-2-0.4-2.8,0.1l-10.2,6c-0.8,0.5-0.9,1.2-0.1,1.6l9.2,5.3
									c0.7,0.4,2,0.4,2.8-0.1l10.2-6C504.9,294.3,505,293.5,504.2,293.1z"/>
								<path class="st3" d="M401.2,233.7l-14.7-8.5c-0.7-0.4-2-0.4-2.8,0.1l-10.2,6c-0.8,0.5-0.9,1.2-0.1,1.6l14.7,8.5
									c0.7,0.4,2,0.4,2.8-0.1l10.2-6C401.9,234.8,402,234.1,401.2,233.7z"/>
								<path class="st3" d="M490.6,285.2l-14.7-8.5c-0.7-0.4-2-0.4-2.8,0.1l-10.2,6c-0.8,0.5-0.9,1.2-0.1,1.6l14.7,8.5
									c0.7,0.4,2,0.4,2.8-0.1l10.2-6C491.2,286.4,491.3,285.7,490.6,285.2z"/>
								<path class="st3" d="M421.7,245.5L407,237c-0.7-0.4-2-0.4-2.8,0.1l-10.2,6c-0.8,0.5-0.9,1.2-0.1,1.6l14.7,8.5
									c0.7,0.4,2,0.4,2.8-0.1l10.2-6C422.4,246.6,422.4,245.9,421.7,245.5z"/>
								<path class="st3" d="M394,244.7l63.8,36.9c0.8,0.5,2,0.5,2.8,0l10.4-6.1c0.7-0.4,0.7-1.2-0.1-1.6l-63.8-36.9L394,244.7z"/>
								<path class="st3" d="M530.3,315.8l10.2,5.9c0.6,0.3,1.6,0.3,2.3-0.1l4.2-2.4c0.7-0.4,0.7-1,0.1-1.3l-10.2-5.9
									c-0.6-0.3-1.6-0.3-2.3,0.1l-4.2,2.4C529.8,314.9,529.7,315.5,530.3,315.8z"/>
								<path class="st3" d="M516,307.6l10.2,5.9c0.6,0.3,1.6,0.3,2.3-0.1l4.2-2.4c0.7-0.4,0.7-1,0.1-1.3l-10.2-5.9
									c-0.6-0.3-1.6-0.3-2.3,0.1l-4.2,2.4C515.5,306.6,515.4,307.2,516,307.6z"/>
								<path class="st3" d="M501.9,299.4l10.2,5.9c0.6,0.3,1.6,0.3,2.3-0.1l4.2-2.4c0.7-0.4,0.7-1,0.1-1.3l-10.2-5.9
									c-0.6-0.3-1.6-0.3-2.3,0.1L502,298C501.3,298.4,501.3,299,501.9,299.4z"/>
								<path class="st3" d="M508.7,311.9l10.2,5.9c0.6,0.3,1.6,0.3,2.3-0.1l4.2-2.4c0.7-0.4,0.7-1,0.1-1.3l-10.2-5.9
									c-0.6-0.3-1.6-0.3-2.3,0.1l-4.2,2.4C508.1,310.9,508.1,311.5,508.7,311.9z"/>
							</g>
						</g>
					</g>
				</g>
				<g class="st14">
					<path class="st3" d="M153.3,320l-9.1-5.3c-0.7-0.4-0.6-1.2,0.2-1.6l10.7-6.2c0.8-0.5,2.1-0.5,2.8-0.1l9.1,5.3
						c0.7,0.4,0.6,1.2-0.2,1.6l-10.7,6.2C155.3,320.4,154.1,320.4,153.3,320z"/>
					<path class="st3" d="M167.4,328.1l-9.1-5.3c-0.7-0.4-0.6-1.2,0.2-1.6l10.7-6.2c0.8-0.5,2.1-0.5,2.8-0.1l9.1,5.3
						c0.7,0.4,0.6,1.2-0.2,1.6l-10.7,6.2C169.4,328.5,168.1,328.5,167.4,328.1z"/>
					<path class="st3" d="M181.4,336.2l-9.1-5.3c-0.7-0.4-0.6-1.2,0.2-1.6l10.7-6.2c0.8-0.5,2.1-0.5,2.8-0.1l9.1,5.3
						c0.7,0.4,0.6,1.2-0.2,1.6l-10.7,6.2C183.4,336.6,182.2,336.6,181.4,336.2z"/>
					<path class="st3" d="M200.8,329.5l-9.1-5.3c-0.7-0.4-0.6-1.2,0.2-1.6l9-5.2c0.8-0.5,2.1-0.5,2.8-0.1l9.1,5.3
						c0.7,0.4,0.6,1.2-0.2,1.6l-9,5.2C202.9,329.9,201.6,329.9,200.8,329.5z"/>
					<path class="st3" d="M214.9,337.6l-9.1-5.3c-0.7-0.4-0.6-1.2,0.2-1.6l9-5.2c0.8-0.5,2.1-0.5,2.8-0.1l9.1,5.3
						c0.7,0.4,0.6,1.2-0.2,1.6l-9,5.2C216.9,338,215.6,338,214.9,337.6z"/>
					<path class="st3" d="M228.9,345.7l-9.1-5.3c-0.7-0.4-0.6-1.2,0.2-1.6l9-5.2c0.8-0.5,2.1-0.5,2.8-0.1l9.1,5.3
						c0.7,0.4,0.6,1.2-0.2,1.6l-9,5.2C230.9,346.1,229.7,346.2,228.9,345.7z"/>
					<path class="st3" d="M243,353.8l-9.1-5.3c-0.7-0.4-0.6-1.2,0.2-1.6l9-5.2c0.8-0.5,2.1-0.5,2.8-0.1l9.1,5.3
						c0.7,0.4,0.6,1.2-0.2,1.6l-9,5.2C245,354.2,243.7,354.3,243,353.8z"/>
					<path class="st3" d="M257,362l-9.1-5.3c-0.7-0.4-0.6-1.2,0.2-1.6l9-5.2c0.8-0.5,2.1-0.5,2.8-0.1l9.1,5.3
						c0.7,0.4,0.6,1.2-0.2,1.6l-9,5.2C259,362.3,257.8,362.4,257,362z"/>
					<path class="st3" d="M271.1,370.1l-9.1-5.3c-0.7-0.4-0.6-1.2,0.2-1.6l9-5.2c0.8-0.5,2.1-0.5,2.8-0.1l9.1,5.3
						c0.7,0.4,0.6,1.2-0.2,1.6l-9,5.2C273.1,370.4,271.8,370.5,271.1,370.1z"/>
					<path class="st3" d="M285.1,378.2l-9.1-5.3c-0.7-0.4-0.6-1.2,0.2-1.6l9-5.2c0.8-0.5,2.1-0.5,2.8-0.1l9.1,5.3
						c0.7,0.4,0.6,1.2-0.2,1.6l-9,5.2C287.1,378.5,285.8,378.6,285.1,378.2z"/>
					<path class="st3" d="M299.2,386.3l-9.1-5.3c-0.7-0.4-0.6-1.2,0.2-1.6l9-5.2c0.8-0.5,2.1-0.5,2.8-0.1l9.1,5.3
						c0.7,0.4,0.6,1.2-0.2,1.6l-9,5.2C301.2,386.6,299.9,386.7,299.2,386.3z"/>
					<path class="st3" d="M313.2,394.4l-9.1-5.3c-0.7-0.4-0.6-1.2,0.2-1.6l9-5.2c0.8-0.5,2.1-0.5,2.8-0.1l9.1,5.3
						c0.7,0.4,0.6,1.2-0.2,1.6l-9,5.2C315.2,394.8,313.9,394.8,313.2,394.4z"/>
					<path class="st3" d="M327.2,402.5l-9.1-5.3c-0.7-0.4-0.6-1.2,0.2-1.6l9-5.2c0.8-0.5,2.1-0.5,2.8-0.1l9.1,5.3
						c0.7,0.4,0.6,1.2-0.2,1.6l-9,5.2C329.3,402.9,328,402.9,327.2,402.5z"/>
					<path class="st3" d="M221.5,325.7l-9.1-5.3c-0.7-0.4-0.6-1.2,0.2-1.6l9-5.2c0.8-0.5,2.1-0.5,2.8-0.1l9.1,5.3
						c0.7,0.4,0.6,1.2-0.2,1.6l-9,5.2C223.5,326,222.3,326.1,221.5,325.7z"/>
					<path class="st3" d="M207.3,317.5l-9.1-5.3c-0.7-0.4-0.6-1.2,0.2-1.6l9-5.2c0.8-0.5,2.1-0.5,2.8-0.1l9.1,5.3
						c0.7,0.4,0.6,1.2-0.2,1.6l-9,5.2C209.3,317.8,208,317.9,207.3,317.5z"/>
					<path class="st3" d="M193,309.2l-19.6-11.3c-0.7-0.4-0.6-1.2,0.2-1.6l9-5.2c0.8-0.5,2.1-0.5,2.8-0.1l19.6,11.3
						c0.7,0.4,0.6,1.2-0.2,1.6l-9,5.2C195,309.6,193.7,309.6,193,309.2z"/>
					<path class="st3" d="M203,299.2l-15.9-9.2c-0.7-0.4-0.6-1.2,0.2-1.6l9-5.2c0.8-0.5,2.1-0.5,2.8-0.1l15.9,9.2
						c0.7,0.4,0.6,1.2-0.2,1.6l-9,5.2C205,299.6,203.7,299.6,203,299.2z"/>
					<path class="st3" d="M235.6,333.8l-9.1-5.3c-0.7-0.4-0.6-1.2,0.2-1.6l9-5.2c0.8-0.5,2.1-0.5,2.8-0.1l9.1,5.3
						c0.7,0.4,0.6,1.2-0.2,1.6l-9,5.2C237.6,334.2,236.3,334.2,235.6,333.8z"/>
					<path class="st3" d="M249.6,341.9l-9.1-5.3c-0.7-0.4-0.6-1.2,0.2-1.6l9-5.2c0.8-0.5,2.1-0.5,2.8-0.1l9.1,5.3
						c0.7,0.4,0.6,1.2-0.2,1.6l-9,5.2C251.6,342.3,250.4,342.3,249.6,341.9z"/>
					<path class="st3" d="M263.7,350l-9.1-5.3c-0.7-0.4-0.6-1.2,0.2-1.6l9-5.2c0.8-0.5,2.1-0.5,2.8-0.1l9.1,5.3
						c0.7,0.4,0.6,1.2-0.2,1.6l-9,5.2C265.7,350.4,264.4,350.4,263.7,350z"/>
					<path class="st3" d="M277.7,358.1l-9.1-5.3c-0.7-0.4-0.6-1.2,0.2-1.6l9-5.2c0.8-0.5,2.1-0.5,2.8-0.1l9.1,5.3
						c0.7,0.4,0.6,1.2-0.2,1.6l-9,5.2C279.7,358.5,278.5,358.5,277.7,358.1z"/>
					<path class="st3" d="M291.8,366.2l-9.1-5.3c-0.7-0.4-0.6-1.2,0.2-1.6l9-5.2c0.8-0.5,2.1-0.5,2.8-0.1l9.1,5.3
						c0.7,0.4,0.6,1.2-0.2,1.6l-9,5.2C293.8,366.6,292.5,366.6,291.8,366.2z"/>
					<path class="st3" d="M305.8,374.3l-9.1-5.3c-0.7-0.4-0.6-1.2,0.2-1.6l9-5.2c0.8-0.5,2.1-0.5,2.8-0.1l9.1,5.3
						c0.7,0.4,0.6,1.2-0.2,1.6l-9,5.2C307.8,374.7,306.5,374.8,305.8,374.3z"/>
					<path class="st3" d="M319.9,382.4l-9.1-5.3c-0.7-0.4-0.6-1.2,0.2-1.6l9-5.2c0.8-0.5,2.1-0.5,2.8-0.1l9.1,5.3
						c0.7,0.4,0.6,1.2-0.2,1.6l-9,5.2C321.9,382.8,320.6,382.9,319.9,382.4z"/>
					<path class="st3" d="M333.9,390.5l-9.1-5.3c-0.7-0.4-0.6-1.2,0.2-1.6l9-5.2c0.8-0.5,2.1-0.5,2.8-0.1l9.1,5.3
						c0.7,0.4,0.6,1.2-0.2,1.6l-9,5.2C335.9,390.9,334.6,391,333.9,390.5z"/>
					<path class="st3" d="M347.9,398.7l-9.1-5.3c-0.7-0.4-0.6-1.2,0.2-1.6l9-5.2c0.8-0.5,2.1-0.5,2.8-0.1l9.1,5.3
						c0.7,0.4,0.6,1.2-0.2,1.6l-9,5.2C349.9,399,348.7,399.1,347.9,398.7z"/>
					<path class="st3" d="M372.9,413.1l-19.8-11.5c-0.7-0.4-0.6-1.2,0.2-1.6l9-5.2c0.8-0.5,2.1-0.5,2.8-0.1l19.8,11.5
						c0.7,0.4,0.6,1.2-0.2,1.6l-9,5.2C374.9,413.4,373.6,413.5,372.9,413.1z"/>
					<path class="st3" d="M400.3,397.3l-16.7-9.7c-0.7-0.4-0.6-1.2,0.2-1.6l9-5.2c0.8-0.5,2.1-0.5,2.8-0.1l16.7,9.7
						c0.7,0.4,0.6,1.2-0.2,1.6l-9,5.2C402.3,397.7,401,397.7,400.3,397.3z"/>
					<path class="st3" d="M260.2,332.2l-9.1-5.3c-0.7-0.4-0.6-1.2,0.2-1.6l9-5.2c0.8-0.5,2.1-0.5,2.8-0.1l9.1,5.3
						c0.7,0.4,0.6,1.2-0.2,1.6l-9,5.2C262.2,332.6,260.9,332.6,260.2,332.2z"/>
					<path class="st3" d="M245.8,323.9l-9.1-5.3c-0.7-0.4-0.6-1.2,0.2-1.6l9-5.2c0.8-0.5,2.1-0.5,2.8-0.1l9.1,5.3
						c0.7,0.4,0.6,1.2-0.2,1.6l-9,5.2C247.8,324.3,246.5,324.3,245.8,323.9z"/>
					<path class="st3" d="M231.4,315.6l-9.1-5.3c-0.7-0.4-0.6-1.2,0.2-1.6l9-5.2c0.8-0.5,2.1-0.5,2.8-0.1l9.1,5.3
						c0.7,0.4,0.6,1.2-0.2,1.6l-9,5.2C233.4,316,232.1,316,231.4,315.6z"/>
					<path class="st3" d="M217,307.3l-9.1-5.3c-0.7-0.4-0.6-1.2,0.2-1.6l9-5.2c0.8-0.5,2.1-0.5,2.8-0.1l9.1,5.3
						c0.7,0.4,0.6,1.2-0.2,1.6l-9,5.2C219,307.6,217.7,307.7,217,307.3z"/>
					<path class="st3" d="M274.2,340.3l-9.1-5.3c-0.7-0.4-0.6-1.2,0.2-1.6l9-5.2c0.8-0.5,2.1-0.5,2.8-0.1l9.1,5.3
						c0.7,0.4,0.6,1.2-0.2,1.6l-9,5.2C276.2,340.7,275,340.7,274.2,340.3z"/>
					<path class="st3" d="M288.3,348.4l-9.1-5.3c-0.7-0.4-0.6-1.2,0.2-1.6l9-5.2c0.8-0.5,2.1-0.5,2.8-0.1l9.1,5.3
						c0.7,0.4,0.6,1.2-0.2,1.6l-9,5.2C290.3,348.8,289,348.8,288.3,348.4z"/>
					<path class="st3" d="M302.3,356.5l-9.1-5.3c-0.7-0.4-0.6-1.2,0.2-1.6l9-5.2c0.8-0.5,2.1-0.5,2.8-0.1l9.1,5.3
						c0.7,0.4,0.6,1.2-0.2,1.6l-9,5.2C304.3,356.9,303,356.9,302.3,356.5z"/>
					<path class="st3" d="M316.4,364.6l-9.1-5.3c-0.7-0.4-0.6-1.2,0.2-1.6l9-5.2c0.8-0.5,2.1-0.5,2.8-0.1l9.1,5.3
						c0.7,0.4,0.6,1.2-0.2,1.6l-9,5.2C318.4,365,317.1,365.1,316.4,364.6z"/>
					<path class="st3" d="M330.4,372.7l-9.1-5.3c-0.7-0.4-0.6-1.2,0.2-1.6l9-5.2c0.8-0.5,2.1-0.5,2.8-0.1l9.1,5.3
						c0.7,0.4,0.6,1.2-0.2,1.6l-9,5.2C332.4,373.1,331.1,373.2,330.4,372.7z"/>
					<path class="st3" d="M344.4,380.9l-9.1-5.3c-0.7-0.4-0.6-1.2,0.2-1.6l9-5.2c0.8-0.5,2.1-0.5,2.8-0.1l9.1,5.3
						c0.7,0.4,0.6,1.2-0.2,1.6l-9,5.2C346.5,381.2,345.2,381.3,344.4,380.9z"/>
					<path class="st3" d="M358.5,389l-9.1-5.3c-0.7-0.4-0.6-1.2,0.2-1.6l9-5.2c0.8-0.5,2.1-0.5,2.8-0.1l9.1,5.3
						c0.7,0.4,0.6,1.2-0.2,1.6l-9,5.2C360.5,389.3,359.2,389.4,358.5,389z"/>
					<path class="st3" d="M372.5,397.1l-9.1-5.3c-0.7-0.4-0.6-1.2,0.2-1.6l9-5.2c0.8-0.5,2.1-0.5,2.8-0.1l9.1,5.3
						c0.7,0.4,0.6,1.2-0.2,1.6l-9,5.2C374.5,397.4,373.3,397.5,372.5,397.1z"/>
					<path class="st3" d="M386.6,405.2l-9.1-5.3c-0.7-0.4-0.6-1.2,0.2-1.6l9-5.2c0.8-0.5,2.1-0.5,2.8-0.1l9.1,5.3
						c0.7,0.4,0.6,1.2-0.2,1.6l-9,5.2C388.6,405.5,387.3,405.6,386.6,405.2z"/>
					<path class="st3" d="M252.8,312.1l-9.1-5.3c-0.7-0.4-0.6-1.2,0.2-1.6l9-5.2c0.8-0.5,2.1-0.5,2.8-0.1l9.1,5.3
						c0.7,0.4,0.6,1.2-0.2,1.6l-9,5.2C254.8,312.5,253.5,312.6,252.8,312.1z"/>
					<path class="st3" d="M238.8,304.1l-9.1-5.3c-0.7-0.4-0.6-1.2,0.2-1.6l9-5.2c0.8-0.5,2.1-0.5,2.8-0.1l9.1,5.3
						c0.7,0.4,0.6,1.2-0.2,1.6l-9,5.2C240.8,304.4,239.5,304.5,238.8,304.1z"/>
					<path class="st3" d="M224.8,296l-9.1-5.3c-0.7-0.4-0.6-1.2,0.2-1.6l9-5.2c0.8-0.5,2.1-0.5,2.8-0.1l9.1,5.3
						c0.7,0.4,0.6,1.2-0.2,1.6l-9,5.2C226.8,296.4,225.6,296.4,224.8,296z"/>
					<path class="st3" d="M210.9,287.9l-9.1-5.3c-0.7-0.4-0.6-1.2,0.2-1.6l9-5.2c0.8-0.5,2.1-0.5,2.8-0.1l9.1,5.3
						c0.7,0.4,0.6,1.2-0.2,1.6l-9,5.2C212.9,288.3,211.6,288.4,210.9,287.9z"/>
					<path class="st3" d="M225.2,279.6l-9.1-5.3c-0.7-0.4-0.6-1.2,0.2-1.6l3-1.7c0.8-0.5,2.1-0.5,2.8-0.1l9.1,5.3
						c0.7,0.4,0.6,1.2-0.2,1.6l-3,1.7C227.2,280,226,280.1,225.2,279.6z"/>
					<path class="st3" d="M243.5,290.2l-9.1-5.3c-0.7-0.4-0.6-1.2,0.2-1.6l3-1.7c0.8-0.5,2.1-0.5,2.8-0.1l9.1,5.3
						c0.7,0.4,0.6,1.2-0.2,1.6l-3,1.7C245.5,290.5,244.2,290.6,243.5,290.2z"/>
					<path class="st3" d="M257.4,298.2l-9.1-5.3c-0.7-0.4-0.6-1.2,0.2-1.6l3-1.7c0.8-0.5,2.1-0.5,2.8-0.1l9.1,5.3
						c0.7,0.4,0.6,1.2-0.2,1.6l-3,1.7C259.4,298.6,258.1,298.6,257.4,298.2z"/>
					<path class="st3" d="M271.3,306.2l-9.1-5.3c-0.7-0.4-0.6-1.2,0.2-1.6l3-1.7c0.8-0.5,2.1-0.5,2.8-0.1l9.1,5.3
						c0.7,0.4,0.6,1.2-0.2,1.6l-3,1.7C273.3,306.6,272,306.7,271.3,306.2z"/>
					<path class="st3" d="M285.2,314.3l-9.1-5.3c-0.7-0.4-0.6-1.2,0.2-1.6l3-1.7c0.8-0.5,2.1-0.5,2.8-0.1l9.1,5.3
						c0.7,0.4,0.6,1.2-0.2,1.6l-3,1.7C287.2,314.6,285.9,314.7,285.2,314.3z"/>
					<path class="st3" d="M362.9,359.1l-9.1-5.3c-0.7-0.4-0.6-1.2,0.2-1.6l3-1.7c0.8-0.5,2.1-0.5,2.8-0.1l9.1,5.3
						c0.7,0.4,0.6,1.2-0.2,1.6l-3,1.7C364.9,359.5,363.6,359.6,362.9,359.1z"/>
					<path class="st3" d="M376.8,367.2l-9.1-5.3c-0.7-0.4-0.6-1.2,0.2-1.6l3-1.7c0.8-0.5,2.1-0.5,2.8-0.1l9.1,5.3
						c0.7,0.4,0.6,1.2-0.2,1.6l-3,1.7C378.8,367.5,377.6,367.6,376.8,367.2z"/>
					<path class="st3" d="M390.7,375.2l-9.1-5.3c-0.7-0.4-0.6-1.2,0.2-1.6l3-1.7c0.8-0.5,2.1-0.5,2.8-0.1l9.1,5.3
						c0.7,0.4,0.6,1.2-0.2,1.6l-3,1.7C392.7,375.6,391.5,375.6,390.7,375.2z"/>
					<path class="st3" d="M404.7,383.2l-9.1-5.3c-0.7-0.4-0.6-1.2,0.2-1.6l3-1.7c0.8-0.5,2.1-0.5,2.8-0.1l9.1,5.3
						c0.7,0.4,0.6,1.2-0.2,1.6l-3,1.7C406.7,383.6,405.4,383.7,404.7,383.2z"/>
					<path class="st3" d="M266.8,320.3l-9.1-5.3c-0.7-0.4-0.6-1.2,0.2-1.6l9-5.2c0.8-0.5,2.1-0.5,2.8-0.1l9.1,5.3
						c0.7,0.4,0.6,1.2-0.2,1.6l-9,5.2C268.8,320.6,267.6,320.7,266.8,320.3z"/>
					<path class="st3" d="M280.9,328.4l-9.1-5.3c-0.7-0.4-0.6-1.2,0.2-1.6l9-5.2c0.8-0.5,2.1-0.5,2.8-0.1l9.1,5.3
						c0.7,0.4,0.6,1.2-0.2,1.6l-9,5.2C282.9,328.7,281.6,328.8,280.9,328.4z"/>
					<path class="st3" d="M294.9,336.5l-9.1-5.3c-0.7-0.4-0.6-1.2,0.2-1.6l9-5.2c0.8-0.5,2.1-0.5,2.8-0.1l9.1,5.3
						c0.7,0.4,0.6,1.2-0.2,1.6l-9,5.2C296.9,336.8,295.6,336.9,294.9,336.5z"/>
					<path class="st3" d="M309,344.6l-9.1-5.3c-0.7-0.4-0.6-1.2,0.2-1.6l9-5.2c0.8-0.5,2.1-0.5,2.8-0.1l9.1,5.3
						c0.7,0.4,0.6,1.2-0.2,1.6l-9,5.2C311,344.9,309.7,345,309,344.6z"/>
					<path class="st3" d="M323,352.7l-9.1-5.3c-0.7-0.4-0.6-1.2,0.2-1.6l9-5.2c0.8-0.5,2.1-0.5,2.8-0.1l9.1,5.3
						c0.7,0.4,0.6,1.2-0.2,1.6l-9,5.2C325,353.1,323.7,353.1,323,352.7z"/>
					<path class="st3" d="M337.1,360.8l-9.1-5.3c-0.7-0.4-0.6-1.2,0.2-1.6l9-5.2c0.8-0.5,2.1-0.5,2.8-0.1l9.1,5.3
						c0.7,0.4,0.6,1.2-0.2,1.6l-9,5.2C339.1,361.2,337.8,361.2,337.1,360.8z"/>
					<path class="st3" d="M351.1,368.9l-9.1-5.3c-0.7-0.4-0.6-1.2,0.2-1.6l9-5.2c0.8-0.5,2.1-0.5,2.8-0.1l9.1,5.3
						c0.7,0.4,0.6,1.2-0.2,1.6l-9,5.2C353.1,369.3,351.8,369.3,351.1,368.9z"/>
					<path class="st3" d="M365.1,377l-9.1-5.3c-0.7-0.4-0.6-1.2,0.2-1.6l9-5.2c0.8-0.5,2.1-0.5,2.8-0.1l9.1,5.3
						c0.7,0.4,0.6,1.2-0.2,1.6l-9,5.2C367.1,377.4,365.9,377.4,365.1,377z"/>
					<path class="st3" d="M379.2,385.1l-9.1-5.3c-0.7-0.4-0.6-1.2,0.2-1.6l9-5.2c0.8-0.5,2.1-0.5,2.8-0.1l9.1,5.3
						c0.7,0.4,0.6,1.2-0.2,1.6l-9,5.2C381.2,385.5,379.9,385.5,379.2,385.1z"/>
					<path class="st3" d="M186.5,321.3l-26.8-15.5c-0.7-0.4-0.6-1.2,0.2-1.6l9-5.2c0.8-0.5,2.1-0.5,2.8-0.1l26.8,15.5
						c0.7,0.4,0.6,1.2-0.2,1.6l-9,5.2C188.5,321.6,187.3,321.7,186.5,321.3z"/>
					<path class="st3" d="M359.1,420.9l-26.8-15.5c-0.7-0.4-0.6-1.2,0.2-1.6l9-5.2c0.8-0.5,2.1-0.5,2.8-0.1l26.8,15.5
						c0.7,0.4,0.6,1.2-0.2,1.6l-9,5.2C361.1,421.2,359.8,421.3,359.1,420.9z"/>
					<path class="st3" d="M302.9,406.4l-9.1-5.3c-0.7-0.4-0.6-1.2,0.2-1.6l10.7-6.2c0.8-0.5,2.1-0.5,2.8-0.1l9.1,5.3
						c0.7,0.4,0.6,1.2-0.2,1.6l-10.7,6.2C304.9,406.7,303.6,406.8,302.9,406.4z"/>
					<path class="st3" d="M200.9,347.5l-14.5-8.4c-0.7-0.4-0.6-1.2,0.2-1.6l10.7-6.2c0.8-0.5,2.1-0.5,2.8-0.1l14.5,8.4
						c0.7,0.4,0.6,1.2-0.2,1.6l-10.7,6.2C202.9,347.8,201.7,347.9,200.9,347.5z"/>
					<path class="st3" d="M289.4,398.5l-14.5-8.4c-0.7-0.4-0.6-1.2,0.2-1.6l10.7-6.2c0.8-0.5,2.1-0.5,2.8-0.1l14.5,8.4
						c0.7,0.4,0.6,1.2-0.2,1.6l-10.7,6.2C291.4,398.9,290.1,399,289.4,398.5z"/>
					<path class="st3" d="M221.2,359.2l-14.5-8.4c-0.7-0.4-0.6-1.2,0.2-1.6l10.7-6.2c0.8-0.5,2.1-0.5,2.8-0.1l14.5,8.4
						c0.7,0.4,0.6,1.2-0.2,1.6l-10.7,6.2C223.2,359.5,221.9,359.6,221.2,359.2z"/>
					<path class="st3" d="M220.5,342.9l63.2,36.5c0.8,0.5,0.8,1.2,0,1.6l-10.9,6.3c-0.8,0.5-2.1,0.5-2.8,0l-63.2-36.5L220.5,342.9z"
						/>
					<path class="st3" d="M342.2,421.1l10.1,5.8c0.6,0.3,0.5,0.9-0.2,1.3l-4.4,2.5c-0.7,0.4-1.7,0.4-2.3,0.1l-10.1-5.8
						c-0.6-0.3-0.5-0.9,0.2-1.3l4.4-2.5C340.5,420.8,341.6,420.7,342.2,421.1z"/>
					<path class="st3" d="M328,412.9l10.1,5.8c0.6,0.3,0.5,0.9-0.2,1.3l-4.4,2.5c-0.7,0.4-1.7,0.4-2.3,0.1l-10.1-5.8
						c-0.6-0.3-0.5-0.9,0.2-1.3l4.4-2.5C326.4,412.6,327.4,412.5,328,412.9z"/>
					<path class="st3" d="M314,404.8l10.1,5.8c0.6,0.3,0.5,0.9-0.2,1.3l-4.4,2.5c-0.7,0.4-1.7,0.4-2.3,0.1l-10.1-5.8
						c-0.6-0.3-0.5-0.9,0.2-1.3l4.4-2.5C312.3,404.5,313.4,404.4,314,404.8z"/>
					<path class="st3" d="M335.8,408.4l10.1,5.8c0.6,0.3,0.5,0.9-0.2,1.3l-4.4,2.5c-0.7,0.4-1.7,0.4-2.3,0.1l-10.1-5.8
						c-0.6-0.3-0.5-0.9,0.2-1.3l4.4-2.5C334.1,408.1,335.2,408.1,335.8,408.4z"/>
				</g>
			</g>
			<g>
				<path class="st0" d="M479,189.9c-0.7,0-1.4-0.2-2.1-0.6c-2.1-1.2-3.5-4-3-6.3c0.2-1.1,0.9-1.9,1.8-2.3c1-0.4,2.2-0.3,3.4,0.4
					c2.1,1.2,3.5,4.1,3,6.3c-0.2,1.1-0.9,1.9-1.8,2.3C479.9,189.8,479.5,189.9,479,189.9z M477,181.5c-0.3,0-0.6,0.1-0.9,0.2
					c-0.6,0.3-1,0.8-1.2,1.6c-0.4,1.8,0.7,4.2,2.5,5.2c0.9,0.5,1.8,0.6,2.5,0.3c0.6-0.3,1-0.8,1.2-1.6c0.4-1.8-0.7-4.2-2.5-5.2
					C478.1,181.6,477.5,181.5,477,181.5z"/>
				<path class="st0" d="M490.6,196.6c-0.7,0-1.4-0.2-2.1-0.6c-2.1-1.2-3.5-4-3-6.3c0.2-1.1,0.9-1.9,1.8-2.3c1-0.4,2.2-0.3,3.4,0.4
					c2.1,1.2,3.5,4.1,3,6.3c-0.2,1.1-0.9,1.9-1.8,2.3C491.5,196.5,491.1,196.6,490.6,196.6z M488.6,188.2c-0.3,0-0.6,0.1-0.9,0.2
					c-0.6,0.3-1,0.8-1.2,1.6c-0.4,1.8,0.7,4.2,2.5,5.2c0.9,0.5,1.8,0.6,2.5,0.3c0.6-0.3,1-0.8,1.2-1.6c0.4-1.8-0.7-4.2-2.5-5.2
					C489.6,188.3,489.1,188.2,488.6,188.2z"/>
				<path class="st0" d="M504.8,200.6c-0.5,2-2.5,2.7-4.4,1.6c-2-1.1-3.2-3.7-2.7-5.7c0.5-2,2.5-2.7,4.4-1.6
					C504,196,505.2,198.6,504.8,200.6z"/>
			</g>
			<polygon class="st0" points="282.7,72.9 276.5,69.3 277,66.4 283.2,70 			"/>
			<polygon class="st0" points="291.7,78.1 285.5,74.5 286,71.6 292.2,75.2 			"/>
			<polygon class="st0" points="273.8,67.7 260.2,59.9 260.7,57 274.3,64.9 			"/>
		</g>
		<g>
			<g>
				<polygon class="st0" points="275.5,121.8 265.2,115.8 265.6,113.4 275.9,119.4 				"/>
				<polygon class="st0" points="284.4,126.9 279.2,123.9 279.6,121.5 284.8,124.5 				"/>
				<polygon class="st0" points="277.6,129.1 273.2,126.6 273.6,124.2 278,126.7 				"/>
				<polygon class="st0" points="285,133.4 279.8,130.4 280.3,128 285.4,131 				"/>
				<polygon class="st0" points="292.6,144 272.3,132.2 272.7,129.8 293,141.6 				"/>
				<polygon class="st0" points="275,191 254.6,179.2 255,176.8 275.4,188.6 				"/>
				<polygon class="st0" points="282.8,195.5 277.6,192.5 278,190.1 283.2,193.1 				"/>
				<polygon class="st0" points="275.8,140.4 271.3,137.8 271.7,135.4 276.2,138 				"/>
				<polygon class="st0" points="283.1,144.6 278,141.7 278.4,139.3 283.5,142.2 				"/>
				<polygon class="st0" points="281.6,149.9 270.4,143.4 270.8,141 282,147.5 				"/>
				<polygon class="st0" points="289.1,154.2 283.9,151.2 284.3,148.8 289.5,151.8 				"/>
				<polygon class="st0" points="296.6,158.6 291.4,155.6 291.8,153.2 297,156.2 				"/>
				<polygon class="st0" points="308.8,165.6 299,159.9 299.4,157.5 309.2,163.2 				"/>
				<polygon class="st0" points="301,173.4 295.8,170.5 296.2,168.1 301.4,171 				"/>
				<polygon class="st0" points="313.2,180.5 303.4,174.8 303.8,172.4 313.6,178.1 				"/>
				<polygon class="st0" points="273.7,157.7 268.5,154.7 268.9,152.3 274.1,155.3 				"/>
				<polygon class="st0" points="281.2,162 276,159 276.4,156.6 281.6,159.6 				"/>
				<polygon class="st0" points="293.4,169 283.6,163.4 284,161 293.8,166.6 				"/>
				<polygon class="st0" points="309.3,172.1 304.1,169.1 304.5,166.7 309.7,169.7 				"/>
				<polygon class="st0" points="316.8,176.4 311.7,173.4 312.1,171 317.3,174 				"/>
				<polygon class="st0" points="329,183.4 319.2,177.8 319.6,175.4 329.4,181 				"/>
				<polygon class="st0" points="290.9,200.2 285.7,197.2 286.1,194.8 291.3,197.8 				"/>
				<polygon class="st0" points="303.1,207.2 293.3,201.6 293.7,199.2 303.5,204.8 				"/>
				<polygon class="st0" points="271.8,168.9 266.6,165.9 267,163.5 272.2,166.5 				"/>
				<polygon class="st0" points="284,175.9 274.2,170.3 274.6,167.9 284.4,173.5 				"/>
				<polygon class="st0" points="296.6,209.6 291.4,206.6 291.8,204.2 297,207.2 				"/>
				<polygon class="st0" points="308.7,216.6 298.9,211 299.3,208.6 309.1,214.2 				"/>
				<polygon class="st0" points="308.1,152.9 303,149.9 303.4,147.5 308.5,150.5 				"/>
				<polygon class="st0" points="300.3,148.4 295.1,145.4 295.5,143 300.7,146 				"/>
				<polygon class="st0" points="320.3,159.9 310.5,154.3 310.9,151.9 320.7,157.5 				"/>
				<polygon class="st0" points="274.1,151.8 269.4,149.1 269.9,146.7 274.5,149.4 				"/>
				<polygon class="st0" points="288,159.8 276.6,153.2 277,150.8 288.4,157.4 				"/>
				<polygon class="st0" points="301.9,167.8 290.5,161.2 290.9,158.8 302.3,165.4 				"/>
				<polygon class="st0" points="327.5,164.1 322.8,161.4 323.2,159 327.9,161.7 				"/>
				<polygon class="st0" points="341.4,172.1 330,165.5 330.4,163.1 341.8,169.7 				"/>
				<polygon class="st0" points="355.2,180.1 343.9,173.5 344.3,171.1 355.6,177.7 				"/>
				<polygon class="st0" points="279,166.9 267.7,160.4 268.1,158 279.4,164.5 				"/>
				<polygon class="st0" points="285,170.4 281.5,168.4 281.9,166 285.4,168 				"/>
				<polygon class="st0" points="291,173.8 287.5,171.8 287.9,169.4 291.4,171.4 				"/>
				<polygon class="st0" points="302.1,180.3 293.5,175.3 293.9,172.9 302.5,177.9 				"/>
				<polygon class="st0" points="314.6,168.9 311.1,166.9 311.5,164.5 315,166.6 				"/>
				<polygon class="st0" points="325.7,175.4 317.1,170.4 317.5,168 326.1,173 				"/>
				<polygon class="st0" points="328,176.7 319.4,171.7 319.8,169.4 328.4,174.3 				"/>
				<polygon class="st0" points="282.3,207.5 271.1,201.1 271.5,198.7 282.7,205.1 				"/>
				<polygon class="st0" points="289.8,211.9 284.6,208.9 285,206.5 290.2,209.5 				"/>
				<polygon class="st0" points="297.3,216.2 292.1,213.2 292.5,210.8 297.7,213.8 				"/>
				<polygon class="st0" points="309.5,223.2 299.7,217.6 300.1,215.2 309.9,220.8 				"/>
				<polygon class="st0" points="317.3,227.7 312.1,224.7 312.5,222.3 317.7,225.3 				"/>
				<polygon class="st0" points="329.4,234.7 319.6,229.1 320,226.7 329.8,232.3 				"/>
				<polygon class="st0" points="292.1,225.5 286.9,222.5 287.3,220.1 292.5,223.1 				"/>
				<polygon class="st0" points="304.3,232.6 294.5,226.9 294.9,224.5 304.7,230.2 				"/>
				<polygon class="st0" points="265,209.9 259.9,206.9 260.3,204.5 265.4,207.5 				"/>
				<polygon class="st0" points="272.6,214.3 267.4,211.3 267.8,208.9 273,211.9 				"/>
				<polygon class="st0" points="284.7,221.3 274.9,215.6 275.3,213.2 285.1,218.9 				"/>
				<polygon class="st0" points="274.8,209.4 270.1,206.7 270.6,204.3 275.2,207 				"/>
				<polygon class="st0" points="288.7,217.4 277.3,210.8 277.7,208.4 289.1,215 				"/>
				<polygon class="st0" points="302.6,225.4 291.2,218.8 291.6,216.4 303,223 				"/>
				<polygon class="st0" points="261.2,213.9 249.9,207.3 250.3,204.9 261.6,211.5 				"/>
				<polygon class="st0" points="267.2,217.3 263.7,215.3 264.1,212.9 267.6,214.9 				"/>
				<polygon class="st0" points="273.2,220.8 269.7,218.8 270.1,216.4 273.6,218.4 				"/>
				<polygon class="st0" points="284.3,227.2 275.7,222.2 276.1,219.8 284.7,224.8 				"/>
				<polygon class="st0" points="286.6,228.5 278.1,223.6 278.5,221.2 287,226.1 				"/>
				<polygon class="st0" points="266.3,192.2 262.8,190.1 263.2,187.8 266.7,189.8 				"/>
				<polygon class="st0" points="277.4,198.6 268.8,193.6 269.3,191.2 277.8,196.2 				"/>
				<polygon class="st0" points="288.8,205.1 280.2,200.2 280.6,197.8 289.2,202.7 				"/>
				<polygon class="st0" points="332.5,242.7 327.3,239.7 327.7,237.3 332.9,240.3 				"/>
				<polygon class="st0" points="344.6,249.7 334.8,244 335.2,241.6 345,247.3 				"/>
				<polygon class="st0" points="313.3,231.6 304.8,226.7 305.2,224.3 313.7,229.2 				"/>
				<polygon class="st0" points="324.7,238.2 316.1,233.2 316.5,230.8 325.1,235.8 				"/>
				<polygon class="st0" points="260.3,168.4 256.8,166.4 257.2,164 260.7,166 				"/>
				<polygon class="st0" points="271.4,174.8 262.8,169.9 263.2,167.5 271.8,172.4 				"/>
				<polygon class="st0" points="282.7,181.4 274.1,176.4 274.5,174 283.1,179 				"/>
			</g>
			<path class="st0" d="M454.1,268.7c-0.8,0-1.6-0.2-2.4-0.7l-69.4-40.1c-2.8-1.6-4.7-5.8-4.1-9.2l4.4-26.5c0.3-1.8,1.2-3.2,2.5-3.8
				c1.2-0.6,2.6-0.5,4,0.3l69.4,40.1c2.8,1.6,4.7,5.8,4.1,9.2l-4.4,26.5c-0.3,1.8-1.2,3.2-2.5,3.8
				C455.2,268.6,454.6,268.7,454.1,268.7z M386.8,189c-0.4,0-0.8,0.1-1.2,0.3c-1,0.5-1.8,1.6-2,3.1l-4.4,26.5
				c-0.5,3.1,1.1,6.8,3.6,8.2l69.4,40.1c1.1,0.6,2.2,0.7,3.1,0.3c1-0.5,1.8-1.6,2-3.1l4.4-26.5c0.5-3.1-1.1-6.8-3.6-8.2l-69.4-40.1
				C388,189.2,387.4,189,386.8,189z"/>
			<path class="st0" d="M446.4,314.2c-0.8,0-1.6-0.2-2.4-0.7l-69.4-40.1c-2.8-1.6-4.7-5.8-4.1-9.2l4.4-26.5c0.3-1.8,1.2-3.2,2.5-3.8
				c1.2-0.6,2.6-0.5,4,0.3l69.4,40.1c2.8,1.6,4.7,5.8,4.1,9.2l-4.4,26.5c-0.3,1.8-1.2,3.2-2.5,3.8
				C447.5,314.1,447,314.2,446.4,314.2z M444.5,312.7c1.1,0.6,2.2,0.7,3.1,0.3c1-0.5,1.8-1.6,2-3.1l4.4-26.5
				c0.5-3.1-1.1-6.8-3.6-8.2L381,235.1c-1.1-0.6-2.2-0.7-3.1-0.3c-1,0.5-1.8,1.6-2,3.1l-4.4,26.5c-0.5,3.1,1.1,6.8,3.6,8.2
				L444.5,312.7z"/>
			
				<linearGradient id="SVGID_9_" gradientUnits="userSpaceOnUse" x1="542.233" y1="217.3608" x2="641.9662" y2="260.0284" gradientTransform="matrix(1 0 0 1 -148.4279 0)">
				<stop  offset="0" style="stop-color:#42E8E0"/>
				<stop  offset="0.1055" style="stop-color:#37B6BF"/>
				<stop  offset="0.2197" style="stop-color:#2C87A1"/>
				<stop  offset="0.338" style="stop-color:#235F87"/>
				<stop  offset="0.4587" style="stop-color:#1C3F72"/>
				<stop  offset="0.5824" style="stop-color:#162561"/>
				<stop  offset="0.7105" style="stop-color:#121355"/>
				<stop  offset="0.8458" style="stop-color:#10084E"/>
				<stop  offset="1" style="stop-color:#0F054C"/>
			</linearGradient>
			<path class="st15" d="M388.5,225.1c1.2,0.7,2.3,0.4,2.7-0.7l8.1-22.1c0.9-2.5,4.7-0.2,5.5,3.3l5,22.3c0.4,1.6,1.5,3.2,2.8,4
				l1.2,0.7c1.2,0.7,2.2,0.5,2.7-0.5l1.6-3.5c1-2.2,4.4-0.1,5.4,3.2l0,0c0.4,1.5,1.5,3,2.7,3.7l1,0.6c1.3,0.7,2.4,0.4,2.8-0.7
				l1.5-4.6c0.8-2.6,4.6-0.4,5.5,3.2l5,20.6c0.4,1.6,1.5,3.2,2.8,3.9L388.5,225.1z"/>
			<path class="st0" d="M435.9,303.7c-1.4-0.8-2.6-2.5-3-4.2l-5-20.6c-0.5-2.2-2.3-3.9-3.5-3.9c-0.5,0-0.8,0.2-1,0.8l-1.5,4.6
				c-0.2,0.7-0.6,1.1-1.2,1.3c-0.7,0.3-1.5,0.1-2.3-0.3l-1-0.6c-1.3-0.8-2.5-2.3-2.9-4c-0.6-2.1-2.2-3.6-3.4-3.7
				c-0.5,0-0.8,0.2-1,0.6l-1.6,3.5c-0.3,0.5-0.7,0.9-1.2,1.1c-0.6,0.2-1.4,0.1-2.2-0.4l-1.2-0.7c-1.4-0.8-2.6-2.5-3-4.3l-5-22.3
				c-0.5-2.2-2.3-3.9-3.5-4c-0.5,0-0.8,0.2-1,0.7l-8.1,22.1c-0.2,0.6-0.6,1.1-1.2,1.3c-0.6,0.2-1.4,0.1-2.2-0.3l0.5-0.8
				c0.5,0.3,1,0.4,1.4,0.3c0.3-0.1,0.5-0.3,0.6-0.7l8.1-22.1c0.3-0.9,1.1-1.5,2-1.4c1.6,0.1,3.8,2.1,4.4,4.8l5,22.3
				c0.3,1.5,1.4,3,2.5,3.7l1.2,0.7c0.5,0.3,1,0.4,1.4,0.3c0.3-0.1,0.5-0.3,0.6-0.6l1.6-3.5c0.4-0.8,1.1-1.3,2-1.2
				c1.7,0.1,3.6,2.1,4.3,4.5c0.4,1.4,1.4,2.8,2.5,3.4l1,0.6c0.5,0.3,1.1,0.4,1.4,0.3c0.3-0.1,0.5-0.4,0.6-0.7l1.5-4.6
				c0.3-0.9,1-1.5,1.9-1.5c0,0,0.1,0,0.1,0c1.6,0.1,3.8,2,4.5,4.7l5,20.6c0.4,1.5,1.4,3,2.6,3.6L435.9,303.7z"/>
		</g>
		<path class="st0" d="M408.1,166.5c-1,0-2-0.3-3-0.9l-54.3-31.3c-3.3-1.9-5.2-6.6-4.2-10.4c0.5-1.9,1.7-3.3,3.3-4
			c1.6-0.6,3.3-0.5,5,0.5l54.3,31.3c3.4,1.9,5.2,6.6,4.2,10.4c-0.5,1.9-1.7,3.3-3.3,4C409.4,166.4,408.7,166.5,408.1,166.5z
			 M351.8,120.5c-0.5,0-1.1,0.1-1.6,0.3c-1.3,0.5-2.3,1.7-2.7,3.3c-0.9,3.4,0.7,7.6,3.7,9.3l54.3,31.3c1.4,0.8,2.8,1,4.1,0.4
			c1.3-0.5,2.3-1.7,2.7-3.3c0.9-3.4-0.7-7.6-3.7-9.3l-54.3-31.3C353.5,120.7,352.6,120.5,351.8,120.5z"/>
	</g>
</g>
</svg>
