<svg xmlns="http://www.w3.org/2000/svg" viewBox="0 0 17.42 17.42"><defs><style>.cls-1{fill:#0a66c2;}</style></defs><title>Recurso 2</title><g id="Capa_2" data-name="Capa 2"><g id="Capa_1-2" data-name="Capa 1"><path class="cls-1" d="M17.42,1.28V16.14a1.29,1.29,0,0,1-1.28,1.28H1.28A1.28,1.28,0,0,1,0,16.14V1.28A1.28,1.28,0,0,1,1.28,0H16.14A1.28,1.28,0,0,1,17.42,1.28ZM5.12,6.66H2.56v8.19H5.12Zm.23-2.82A1.47,1.47,0,0,0,3.89,2.36H3.84a1.49,1.49,0,0,0,0,3h0A1.48,1.48,0,0,0,5.35,3.89h0Zm9.5,6c0-2.47-1.56-3.43-3.12-3.43A2.93,2.93,0,0,0,9.14,7.78H9.07V6.66H6.66v8.19H9.22V10.5a1.71,1.71,0,0,1,1.54-1.84h.09c.82,0,1.42.51,1.42,1.8v4.39h2.56Z"/></g></g></svg>