<svg id="Capa_1" enable-background="new 0 0 497 497" height="512" viewBox="0 0 497 497" width="512" xmlns="http://www.w3.org/2000/svg"><g><g><path d="m497 85.671v215.48c0 21.851-17.718 39.581-39.581 39.581h-217.528c-21.863 0-39.581-17.729-39.581-39.581v-215.48c0-20.943 16.977-37.908 37.908-37.908h220.874c20.931 0 37.908 16.965 37.908 37.908z" fill="#00f2a6"/><path d="m459.092 47.763h-26.86c20.932 0 37.908 16.965 37.908 37.908v215.48c0 21.851-17.718 39.581-39.581 39.581h26.86c21.863 0 39.581-17.729 39.581-39.581v-215.48c0-20.943-16.977-37.908-37.908-37.908z" fill="#05e39c"/></g><g><path d="m426.925 204.485v214.48c0 21.851-17.718 39.581-39.581 39.581h-347.763c-21.863 0-39.581-17.73-39.581-39.581v-214.48c0-20.943 16.977-37.908 37.908-37.908h351.109c20.931 0 37.908 16.965 37.908 37.908z" fill="#edf5fa"/><path d="m389.017 166.577h-27.5c20.932 0 37.908 16.965 37.908 37.908v214.48c0 21.851-17.718 39.581-39.581 39.581h27.5c21.863 0 39.581-17.729 39.581-39.581v-214.48c0-20.943-16.977-37.908-37.908-37.908z" fill="#d0e7f2"/></g><path d="m426.925 186.683v17.407h-426.925v-17.407c0-20.943 16.977-37.908 37.908-37.908h351.109c20.931 0 37.908 16.965 37.908 37.908z" fill="#30dde5"/><path d="m389.017 148.775h-27.5c20.932 0 37.908 16.965 37.908 37.908v17.407h27.5v-17.407c0-20.943-16.977-37.908-37.908-37.908z" fill="#02c7dd"/><path d="m497 68.87v17.407h-296.69v-17.407c0-20.943 16.977-37.908 37.908-37.908h220.874c20.931-.001 37.908 16.964 37.908 37.908z" fill="#07b2cd"/><path d="m459.092 30.961h-26.895c20.931 0 37.908 16.965 37.908 37.908v17.407h26.895v-17.406c0-20.944-16.977-37.909-37.908-37.909z" fill="#0199b1"/><path d="m219.69 326.592c0 21.74-7.84 41.64-20.87 57.04-1.838 2.181-7.246 1.788-9.289 3.78-2.304 2.247-1.268 6.852-3.801 8.84-15.01 11.74-33.91 18.74-54.44 18.74-3.87.014-7.764-.246-11.645-.771-4.784-.648-5.184-4.566-9.857-6.006-2.973-.916-10.274.876-13.156-.351-1.064-.453-2.121-.927-3.17-1.422-2.568-1.212-2.423-6.391-4.878-7.848-1.734-1.03-6.099 1.723-7.766.573-1.015-.701-2.017-1.424-3.005-2.168-3.378-2.548-5.239-7.885-8.236-10.936-2.204-2.245-5.64-2.09-7.598-4.598-11.96-15.08-19.09-34.14-19.09-54.87 0-19.97 6.62-38.39 17.79-53.19 2.125-2.82 5.647-2.655 8.088-5.197s3.802-7.788 6.532-10.023c15.24-12.5 34.74-19.99 55.99-19.99 9.98 0 19.57 1.65 28.51 4.7 4.4 1.495 4.34 5.335 8.395 7.475s12.225 2.58 15.875 5.305c1.78 1.32 3.5 2.71 5.17 4.16 1.897 1.648 1.071 5.465 2.82 7.267 1.764 1.817 6.103 1.62 7.71 3.583 1.02 1.25 2.01 2.52 2.96 3.83.26.36.53.74.79 1.11 1.63 2.302.644 7.412 2.052 9.873 1.778 3.109 5.883 3.615 7.278 6.947 4.411 10.507 6.841 22.037 6.841 34.147z" fill="#fe5ca7"/><path d="m131.291 238.192c-4.227 0-8.383.303-12.452.877 42.924 6.052 75.947 42.927 75.947 87.521s-33.023 81.469-75.947 87.521c4.069.574 8.225.877 12.452.877 20.528 0 39.422-6.997 54.427-18.737 2.799-2.19.986-6.953 3.5-9.459 1.786-1.78 7.973-1.229 9.602-3.155 13.02-15.396 20.869-35.305 20.869-57.047 0-12.099-2.431-23.631-6.831-34.133-1.528-3.648-6.058-2.867-8.041-6.247-1.489-2.536-.337-9.296-2.063-11.662-.959-1.315-1.954-2.603-2.983-3.862-1.736-2.124-6.839-1.363-8.762-3.316-1.619-1.644-.032-6.027-1.774-7.541-1.668-1.449-3.39-2.836-5.164-4.158-3.573-2.663-13.325-3.198-17.285-5.305-4.134-2.2-2.492-5.946-6.984-7.476-8.945-3.045-18.535-4.698-28.511-4.698z" fill="#fe3d97"/><g><path d="m427.79 461.472c-3.73 3.6-8.32 4.89-12.63 4.5-2.674-.638-4.422.118-9.99-4.5l-5.23-5.23-57.97-57.97c-1.18-1.18-3.19-.34-3.19 1.32v23.12c0 9.09-7.59 16.41-16.77 15.98-8.61-.41-15.23-7.82-15.23-16.43v-65.81c-.19-9.48 8.23-16.03 16-16h66.25c9.1 0 16.42 7.59 15.98 16.78-.4 8.6-7.81 15.22-16.43 15.22h-22.66c-1.67 0-2.5 2.02-1.32 3.19l63.19 63.2c6.25 6.25 6.25 16.38 0 22.63z" fill="#017297"/><g fill="#025f80"><path d="m384.04 357.232c-.4 8.6-7.82 15.22-16.43 15.22h20.966c8.609 0 16.021-6.61 16.435-15.21.443-9.188-6.878-16.79-15.981-16.79h-20.97c9.09 0 16.41 7.59 15.98 16.78z"/><path d="m427.79 461.472c-3.73 3.6-8.32 4.89-12.63 4.5-2.674-.638-4.422.118-9.99-4.5l-4.35-4.35c2.35 2.33 6.13 2.57 8.66.43 3.213-4.724 2.44-13.425-2.66-18.71l-62.16-62.16c-1.56-1.56-.46-4.23 1.75-4.23l20.54-.27c.33 0 .66.09.95.27h-1.98c-1.67 0-2.5 2.02-1.32 3.19l63.19 63.2c6.25 6.25 6.25 16.38 0 22.63z"/></g></g><path d="m356.23 313.748h-78.675c-7.399 0-13.397-5.998-13.397-13.397v-10.873c0-7.399 5.998-13.397 13.397-13.397h78.675c7.399 0 13.397 5.998 13.397 13.397v10.873c.001 7.399-5.997 13.397-13.397 13.397z" fill="#00f2a6"/><path d="m356.23 276.081h-27.562c7.399 0 13.397 5.998 13.397 13.397v10.873c0 7.399-5.998 13.397-13.397 13.397h27.562c7.399 0 13.397-5.998 13.397-13.397v-10.873c.001-7.399-5.997-13.397-13.397-13.397z" fill="#05e39c"/><g><path d="m86.117 184.531h-35.718c-4.143 0-7.5-3.358-7.5-7.5s3.357-7.5 7.5-7.5h35.718c4.143 0 7.5 3.358 7.5 7.5s-3.357 7.5-7.5 7.5z" fill="#02c7dd"/></g><g><path d="m286.427 66.717h-35.718c-4.143 0-7.5-3.358-7.5-7.5s3.357-7.5 7.5-7.5h35.718c4.143 0 7.5 3.358 7.5 7.5s-3.358 7.5-7.5 7.5z" fill="#0199b1"/></g><g><path d="m199.77 270.682c-.16.15-6.57 4.57-16.19 12.81-5.06 4.32-11 9.69-17.39 16.05-2.94 2.92-7.69 2.9-10.61-.03-2.92-2.94-2.91-7.69.03-10.61 7.34-7.3 13.99-13.28 19.48-17.92 6.85-5.8 11.87-9.52 14.15-11.15.72.63 1.43 1.26 2.12 1.91.253.276 3.753 3.306 8.41 8.94z" fill="#017297"/><path d="m194.13 382.842 4.69.79c-.949.759.133.804-9.58 9.72-1.14.99-2.32 1.96-3.51 2.9-5.99-1.49-12.25-3.28-18.63-5.42-3.74-1.25-7.52-2.62-11.32-4.12-11.11 11.11-23.1 20.39-35.59 27.19-.19.11-.38.21-.57.31 0 .01-.01.01-.01.01-.26-.03-.51-.07-.77-.11-7.75-1.08-15.17-3.18-22.14-6.15.19-.14.33-.23.4-.25 16.91-5.63 31.64-15.75 44.08-27.42-8.93-4.34-17.75-9.5-26.13-15.6-7.78 13.03-15.87 28.59-21.61 41.8-4.42-2.09-8.64-4.54-12.62-7.32 6.25-15.01 13.78-29.78 22.45-44-7.54-6.75-14.51-14.44-20.61-23.19-5.03 16.84-6.8 36.1-5.27 57.69.05.69.28 3.89.45 7.33-4.86-3.67-10.94-9.33-15.86-15.54-.58-20.5 1.75-43.97 10.85-66.13-8.52-17.3-11.28-32.78-12.15-41.93 4.25-5.64 9.16-10.75 14.62-15.22.5 11.61-1.9 13.51 6.36 39.71 7.59-12.35 17.84-23.87 31.51-33.7 11.21-8.06 22.57-13.41 32.24-16.93 5.44-1.98 10.34-3.38 14.39-4.37 3.205 1.408 8.243 2.078 21.49 10.79.94.65 1.87 1.31 2.78 1.99h-11.49c-1.12.15-5.02.72-10.64 2.17-10.04 2.6-25.57 8.02-40.51 18.89-13.92 10.12-24.6 22.78-32.01 37.89 6.89 12.23 17.33 24.56 29.13 34.05 9.7 7.86 20.89 14.66 33.57 20.37h.01c11.09-12.46 19.83-25.56 26.12-36.3 5.96-10.5 10.42-19.9 13.81-28 6.19-14.74 8.86-25.2 10.67-30.22.27.36.53.73.79 1.1.113.219 5.15 6.878 9.33 16.82-2.95 8.99-8.8 24.64-18.42 42.16-.97 1.76-1.98 3.54-3.02 5.34-7.31 12.54-15.62 24.34-24.72 34.96 3.63 1.3 7.37 2.52 11.2 3.67 5.23 1.57 10.64 2.99 16.24 4.27z" fill="#017297"/><g fill="#025f80"><path d="m184.07 255.672h-11.49c-1.12.15-5.02.72-10.64 2.17-5.07-4.11-10.62-7.67-16.53-10.58 5.44-1.98 10.34-3.38 14.39-4.37 3.205 1.408 8.243 2.078 21.49 10.79.94.65 1.87 1.31 2.78 1.99z"/><path d="m199.77 270.682c-.16.15-6.57 4.57-16.19 12.81-2.47-4.42-5.31-8.6-8.49-12.51 6.85-5.8 11.87-9.52 14.15-11.15.72.63 1.43 1.26 2.12 1.91.253.276 3.753 3.306 8.41 8.94z"/><path d="m194.43 334.602c.24-2.64.36-5.31.36-8.01 0-7.54-.95-14.86-2.73-21.85 6.19-14.74 8.86-25.2 10.67-30.22.27.36.53.73.79 1.1.113.219 5.15 6.878 9.33 16.82-2.95 8.99-8.8 24.64-18.42 42.16z"/></g><path d="m118.84 414.112c.45-.06.9-.13 1.35-.21-.19.11-.38.21-.57.31-.26-.03-.52-.06-.78-.1z" fill="#fe3d97"/><path d="m198.82 383.632c-.949.759.133.804-9.58 9.72-1.14.99-2.32 1.96-3.51 2.9-5.99-1.49-12.25-3.28-18.63-5.42 3.96-3.74 7.58-7.84 10.79-12.26 5.23 1.57 10.64 2.99 16.24 4.27z" fill="#025f80"/></g><circle cx="134.977" cy="320.64" fill="#017297" r="8.816"/><circle cx="382.009" cy="177.442" fill="#bd80e1" r="7.379"/><circle cx="358.75" cy="177.442" fill="#02c7dd" r="7.379"/><circle cx="456.434" cy="59.217" fill="#0199b1" r="7.379"/></g></svg>