<svg xmlns="http://www.w3.org/2000/svg" viewBox="0 0 283.06 334.65"><defs><style>.cls-1{fill:#040006;}</style></defs><title>Recurso 21</title><g id="Capa_2" data-name="Capa 2"><g id="Capa_8" data-name="Capa 8"><path class="cls-1" d="M131.5,140.76c-1.57-2-2.61-4.31-4-6.32-2-2.79-1.84-6.54-4.15-9.1.35-5.8-2.66-11.58-.07-17.39.72-1.61-.22-2-1.51-2.07-.67,0-1.49-.22-2,.09-1.66,1-3.2.47-4.68-.21-1.89-.87-3.68-1.06-5.41.29a2.3,2.3,0,0,1-2.27.33c-1.17-.49-1.46,0-1.63,1a3.5,3.5,0,0,1-2.81,2.84c-3.22.64-3.58,1.18-3.79,4.42-.06,1,.23,2-.23,2.92-.37.77.66,1.59-.11,2.62-1.54-.31-1.54-2-2.27-3-1.13-1.57-2-1.66-3.31-.34-3.33,3.28-3.6,5.18-1.11,9.18.6,1,.82,1.71.13,2.67-.45.62-.17,1,.53,1.12,2.15.25,2.32,2,2.68,3.7.59,2.83.67,5.72,3.4,7.82,1.49,1.15,1.23,3.89,1.46,6s-.2,4.54,1.51,6.39a1,1,0,0,1-.37,1.43,1.4,1.4,0,0,1-1.11-.22,2,2,0,0,1-.85-.89c-1.07-2.79-3.5-3-5.85-3.79-3.71-1.17-6.16.82-8,3.4a13.45,13.45,0,0,1-4.78,4.44A8.6,8.6,0,0,0,76,166.22c0,2.44-.88,3.46-3.1,3.17-3.12-.41-5.54,1.32-7.93,2.87-2.13,1.38-4.17,2.54-6.79,2.38a9.12,9.12,0,0,0-3.17.73c-2,.65-2,.83-.32,2.54.54.55,1,1,.67,1.74s-1.07.77-1.75.6c-.4-.09-.76-.34-1.16-.42-4-.76-4.52-.39-5.71,3.67-1,0-.95-.73-.89-1.42.1-1.07.21-2.11-2.82-1a6.38,6.38,0,0,1-6.27-1.44c-1.09-.94-2.24,0-3.13.84l1.06.4c-.08.11-.14.29-.23.31a.91.91,0,0,1-1-.52c-2.15,1.09-4,2.28-4.11,5.26-.12,2.38-2.09,3.53-4,4.45-1,.47-1.55-.11-1.6-1.17s.39-2.39-.05-3c-.09-.13-.42-.13-.63-.21a3.86,3.86,0,0,0-2.28-.13c-.47.11-1.94-.27-2.06.23s1.55,1,.88,2.15a15.55,15.55,0,0,1-8-1.07,36.23,36.23,0,0,0-4.56-1.84c-2.2-.55-4.64-1.41-6.5.64-1.37,1.5-.42,4.25,2.05,7V193c-3.81,4.52-3.38,6,1.48,11,.29.29.6.58.92.85,2,1.62,2.83,1.56,5.18-.29,1.82-1.43,3.52-1,5.32-.11s1.9,2.4,1.47,4.31c-.58,2.62.13,3.54,2.66,4,.49.1,1.06-.22,1.8.59,0,.78-.06,1.56-.09,2.35a2.18,2.18,0,0,0,1,1.9,2.15,2.15,0,0,0,.46.25c2.35.5,2.35,2.86,3.75,3.89,1.64,1.2,2.05,4.25,5,3.45.21-.06.66.47.87.82,1.83,2.93,4.26,5.44,5.76,8.95-2.88-.1-5.53.65-8.16-.48a3.82,3.82,0,0,0-2-.11c-2.61.43-3.64,2.68-2.1,4.78a42,42,0,0,1,3,4.55c1.62,2.89,3.78,3.85,6.9,3,2-.58,4-.36,6.07-.45,1.18-.06,3.23.56,3.33-.57.15-1.63,1.57-2.88,1.15-4.51a7.36,7.36,0,0,1,0-3.43c.63-2.76.08-3.58-2.48-4.2a17.14,17.14,0,0,1-2.4-.37c-1.51-.63-1.33-1.88-.54-3.37,1.75-3.27,4.38-3.7,7.5-3.31,1.8.22,3.35-1.17,5.18-.94,1,.13,2,0,1.31,1.67-.45,1.14.64.91,1.22.91,1.7,0,3.08-1,4.57-1.7,1.06-.47,2.15-1.52,3.17.06a4.86,4.86,0,0,0,3.52-2.09c-1.92-1.47-3.84-.61-5.35.31-3.44,2.11-6.32,0-9.29-1a1.88,1.88,0,0,1-.81-3.24c-2-2-.61-5.22-2.3-7.36-.81-1-3.66-1.48-4-.43-1.18,3.63-4.31,2.11-6.45,2.81-1.74.56-3.62.29-5.12,1.9-1.1,1.17-2.35.72-2.79-.88a14.91,14.91,0,0,0-2-3.68,11.61,11.61,0,0,1,2.17-14.33,1.76,1.76,0,0,1-.05,1.61c-.49,1.5-1,3.15.24,4.39,1.44,1.4,3.4.84,5.09.65,1.48-.17,1.66-1.73,1.64-3a22.32,22.32,0,0,1,1.38-7.73c2.61.84,4.55,3,7.17,3.52a5.09,5.09,0,0,1-.21,1.06c-1,2-1.69,4.2.39,5.74,1.86,1.37,3.33-.82,4.67-1.61,3.66-2.13,5.81-8.86,4.54-13.05-.48-1.55-1.15-2.95.53-4.21a.7.7,0,0,0,0-1.12c-2.79-2-.63-2.79.86-3.65a48.91,48.91,0,0,0,4.69-2.51A46.27,46.27,0,0,1,67,175.44c1.87,1.95,1.6,4.37,1.65,6.72,0,1.32.3,2.59,1.67,3.13,1.21.48,2.27-.07,3.28-.78a1.46,1.46,0,0,0,.59-1.72c-.7-1.81,0-3.21,1-4.56.08-.11.22-.26.2-.36-.91-4.22,2.21-3.72,4.56-4.66,3.34-1.33,7.47-.82,9.93-4.37a.94.94,0,0,1,1.1-.29c2,.88,3.24-.74,4.76-1.57,3.94-2.15,7.69-4.93,12.48-4.68a3,3,0,0,0,1.9-.64c4.29-3.44,9.6-5.37,13.24-9.77.61-.73,1.38-1.66,2.37-.69,1.44,1.4,2.13.44,2.77-.79.85-1.63,1.66-3.18,3.54-3.9C133,146.14,132.68,142.24,131.5,140.76ZM20.6,208.82a12.29,12.29,0,0,0-9.69-8.44c-1.47-.21-1.78,1-2.49,1.73-1.57,1.75-2.18,1.77-3.55,0A26.83,26.83,0,0,1,3,199.33c-.74-1.2-.22-2.11.6-3a1.55,1.55,0,0,1,2.47-.26c.51.44,1.14,1,1.76.36s.23-1.56-.09-2.36a3.83,3.83,0,0,0-2.07-1.91,13.43,13.43,0,0,1-2.33-1.67,1.88,1.88,0,0,1-.63-1.91c.25-1.09,1.15-1,2-1.08,3.87-.24,8.27,3.15,9.31,7.25.76,3,2.28,5.86,4.66,7.26C21.88,203.89,20.9,206.29,20.6,208.82Zm22.61,30.85c1.08,2.29-.08,4.28-2.53,4.37a12.66,12.66,0,0,0-7.24.18,1.54,1.54,0,0,1-1.72-.85c-.61-.94-1.27-1.85-1.79-2.85s-1.45-2-.24-3c1-.89,1.95-.52,2.9.32,2.06,1.83,4.29.65,6.4.13S42.35,237.83,43.21,239.67Zm-7.62-18.22c1.5-2.09,2.74-3.31,5.5-3.49,2.33-.16,5.11-.43,7-3.18.84,3.18-.53,6.24,2,8.29a3.74,3.74,0,0,1-3.92.72c-3-1.32-5-.32-6.31,2.65a23.9,23.9,0,0,1-4.07-2.23C35.05,223.66,34.58,222.86,35.59,221.45Zm-10.11-6.7c-2.65-.65-2.65-.65-1.53-3.95a4.11,4.11,0,0,1,1.58,3.89l.33.36Zm2.27-14.49c-1,1.66-2.27,1.89-3.73.77s-1-2.46-.11-3.65c1.79-2.33,4.27-3.27,7.48-3.6C30.07,196.15,29,198.23,27.75,200.26Zm5-11.34c-1.11-4.18-.19-5.53,3.19-4.42,2.79.92,4.53-.92,7-1.39C40.15,186.27,36.15,187,32.71,188.92Zm12.47,6.15c-.13,0-.37-.47-.31-.63.45-1.33,1.63-.94,2.57-1.13C46.81,194.08,46.42,195.19,45.18,195.07Zm9.46-1.47A13.32,13.32,0,0,1,49,202c-.86-.94.07-1.55.4-2.12,2.58-4.52,2.6-4.53-1.91-6.59,1.56-1.17,3.13-2.38,2.49-4.76-.4-1.5,1.4-2.34.85-3.93-.29-.85.7-.57,1.13-.62.82-.1,2.06.06,2,.9C53.86,187.82,55.24,190.57,54.64,193.6Zm39.6-41.07a6.86,6.86,0,0,1-3.61.44C91.52,151.75,92.63,152.08,94.24,152.53Zm.29,10.74A3.14,3.14,0,0,1,90.4,163c-1.84-1.82-3.83-.93-5.72-.59-2.21.39-3.11,1.78-2.88,4.24.1,1.06.51,2.05-.89,2.22C79.74,169,77.72,167,78,166c.47-1.63,1-3.38,2.38-4.36,3.11-2.23,6.17-4.48,8.46-7.69.37-.51,1.16-.68,1.76-1-.31,7.48,1.73,7.11,7,5.38,2-.67,1.72.92,3,1.59C98.31,161.21,96.37,162.16,94.53,163.27Zm7.92-50c3.35,1.24,3.35,1.24,5-2,1.19-2.29,5.14-3.65,7.51-2.82,2.68.95,4,2.44,4.32,5.64s.1,6.52,1.26,9.61a2.91,2.91,0,0,1-.08,1.67,1.44,1.44,0,0,1-.8.84,1.08,1.08,0,0,1-1.33-.63,3.15,3.15,0,0,1-.37-2.83,2.6,2.6,0,0,0-.53-2.75c-.74-.86-2-1.32-2.14,0-.4,3.12-3.53,4-4.53,6.57-.26.67-1.94.7-3,1.09-1.87.73-1.31-1.09-1.84-1.81s-1.31-1.41-1.94-2.14A9.21,9.21,0,0,1,102.45,113.28Zm9.18,18.36c0,.09-.15.17-.24.25-.07-.1-.13-.2-.2-.29s0-.28.11-.31C111.54,131.17,111.68,131.31,111.63,131.64Zm-2.86,2.09a16.14,16.14,0,0,1-1.56-.64c-.68-.36-1.6-.57-1.63-1.56s.86-.82,1.44-1c1.23-.48,1.63.43,2,1.34A1.8,1.8,0,0,1,108.77,133.73Zm-9.47-9.45c.32-.28.88-.46,1.06-.11,1.07,2,3.93,2.88,3.73,6.16-2.71-.7-4.09-2.55-5-4.92A1,1,0,0,1,99.3,124.28Zm4.6,24.86c0,.13-.45.28-.67.25-1-.17-1-1-1-1.85a4.55,4.55,0,0,1,.14-.67c.28.14.44.17.5.27C103.22,147.78,104.05,148.2,103.9,149.14Zm1.92,9.41c-.46-.24-1-.53-.7-1.24.09-.21.42-.3.74-.51.22.52.42,1,.63,1.52C106.26,158.4,106,158.63,105.82,158.55Zm7.57-2.76a4.8,4.8,0,0,1,3.89-3C116.3,155,114.83,155.39,113.39,155.79Zm5.69-17.07a2.86,2.86,0,0,0-1.07,3.33c.58,1.8,1.26,3.48,0,5.58a10,10,0,0,1-4,3.71c-1.94,1.14-3,3.64-5.73,3.81,1.76-3.82-2.16-3.08-3.33-4.45,0-1.75,1.31-2.17,2.37-2.74a6.72,6.72,0,0,0,2.73-2.48c.81-1.35,1.05-2.61-.42-3.68-.45-.32-.87-.69-1.32-1-.93-.61-1.23-2.7-2.8-1.7-1.39.88-3.27,1.66-2.83,4.07a6.38,6.38,0,0,1-.3,1.7c-.76-2.78-1.37-5.08-3.56-6.44-1.44-.9-1.3-2.81-1.54-4.21a27.94,27.94,0,0,0-3.51-9.37c-1.46-2.52-1.35-2.86.93-5.36a2.86,2.86,0,0,1,1.29,2.44c.54,4.85,2.87,8.17,6.9,10.81,2.53,1.66,4.35,4.52,7.45,5.51,2.65.85,3,.69,4.54-2.34-.56-.18-1.33.25-1.63-.6,0-.09.31-.4.52-.51.84-.41,1.21,0,1.35.86,2-.09,3.81,1,5.73,1.29C120.72,138.32,119.67,138.22,119.08,138.72Zm5.47,8.73a6.05,6.05,0,0,1-1.13.4c-.17.63-.3,1.31-1.16,1.22a.39.39,0,0,1-.26-.27c-.09-.9.56-1,1.16-1.22a4.18,4.18,0,0,1,.36-1.18c.46-.67,1.11-1.56,1.86-.59C125.83,146.4,125.16,147.09,124.55,147.45Zm-.64-12.38c-1.75-.27-2.9-2-4.81-2-.52,0-.81-.66-.7-1.29.16-.88.9-1.25,1.49-.93,1.7.95,3.9,1.41,4.27,3.95,1.9.24,3.63.6,3.59,3.27a8,8,0,0,0,.73,2.42c.28.79.58,1.58.89,2.41C125.73,142.84,124.51,141.05,123.91,135.07Z"/><path class="cls-1" d="M44.66,293.16v0l0,0h0Z"/><path class="cls-1" d="M160.52,62.18h0v0h0Z"/><path class="cls-1" d="M115.69,279.2h.08l0,0Z"/><path class="cls-1" d="M53.62,284.55l0,0h0Z"/><path class="cls-1" d="M115.66,260.37l-.07,0v.05h0Z"/><path class="cls-1" d="M53.59,285.42v0l0,0Z"/><path class="cls-1" d="M148.15,227.82v.05l0,0c.28-.28.55-.57.83-.86v0h0Z"/><path class="cls-1" d="M44.72,296.53l-.07,0v0h0Z"/><path class="cls-1" d="M171.48,144.1h0l0,0-.05,0Z"/><path class="cls-1" d="M195.75,78.29a.09.09,0,0,1,0-.05l-.06,0a.19.19,0,0,1,0,.07Z"/><path class="cls-1" d="M170.66,144.1h0v-.05Z"/><path class="cls-1" d="M206.29,107.53c-.51-3.06-1.1-6.12-1.78-9.14a5.7,5.7,0,0,1-.13-3.32c1.52-4.41-1.41-8.24-1.57-12.44,0-.33-.45-.72-.78-.93-1.83-1.13-2.23-3.13-2.87-5-.5-1.47-.7-3.2-1.59-4.33a28.24,28.24,0,0,1-4.41-8.6C190.9,57.2,186.4,51.88,181,47.56c-1.94-1.55-3.66-3-4.42-5.77-1.09-4-4-4.5-6.48-1.24-2.07,2.71-4.6,3.09-7.45,2.56-.46-1,.06-1.55.18-2.22.57-3.08.17-3.74-2.82-4.2a32.61,32.61,0,0,0-4.08-.09c-.85,0-1.72-.14-1.93-1.16-.47-2.19-2-3.66-3.16-5.41-2.16-3.28-3.91-3.87-6.45-1.23-2.31,2.41-5.52,4.25-6,8.21a1,1,0,0,1-1.28.82c-1.23-1.57-1.86-3.74-3.69-4.92-2.57-1.64-5.06-3.24-5.27-7-.08-1.45-1.61-1.41-2.64-1.07-1.26.41-.68,1.15-.12,1.89.42.55.24,1.18-.52,1.09-1.89-.21-1.31,1.19-1.5,2.22-1.17,6.46.66,13.4-2.87,19.5-.39.67-.2,1.68-.4,2.5A16.25,16.25,0,0,1,119,55.71c-1.67,3.2-1.7,3.17-1.88,6.34a29.07,29.07,0,0,1-.49,3.35,20,20,0,0,0,.54,9.2c.86,3,2.81,6.65-1.06,9.28a.46.46,0,0,0-.19.36c.21,2.37-2.15,4.77.22,7.17.77.78.32,2.19.37,3.31.06,1.36-.36,2.78.51,4.29,2.37-1,4.23-2.71,6.52-3.25.5-1-2.45-.84-.45-2.4,1.28-1,1.36-3,1.6-4.68.56-4-1.66-8.13.57-12a.86.86,0,0,0-.19-.76c-2.4-1.18-.8-2.63-.06-3.68s1.88-1.65.44-3.07c-.78-.77.24-2.69-1.48-3.07-2.43-.54-2-2.44-1.55-4a41.37,41.37,0,0,1,2.86-6.56c1.1-2.14,2.62-3.45,4.77-3.24s2.28,2.55,2.81,4.26.46,3.52,1.31,4.84a37.6,37.6,0,0,0,9.5,10.17,3,3,0,0,0,2.65.79c1.3-.39,2.53-1.62,3.55.57.23.49,1.19-.3,1.54-.91,1.06-1.82,2.15-3.63,3.08-5.51,1.29-2.6,3.09-4.28,6-4.25v0h0c1.34-5.07,1.22-10-1.23-14.73a1.27,1.27,0,0,1,.36-1.53c.43-.4,1-.7,1.44-.22,3,3,5.53,6.24,5.55,10.91,0,2.54-.76,4.31-3.42,4.74a17.85,17.85,0,0,0-2.7.83v0h0c-.75,3.43-2.89,6.36-3.29,9.92-.05.45-.27.49-.51.15s.1-1.51-1.14-1.52c0,1,.06,2,0,2.92-.12,2.22.84,3.16,2.94,2.91a4.16,4.16,0,0,1,1.22,0c1.62.28,2,1.16,1.23,2.68C160,81,158.78,82.11,156.71,82s-3.72.59-4.06,2.73a58.59,58.59,0,0,0-.85,9.71c0,3.75,2.86,5.85,6.43,5.16,1.46-.28,2.9-.68,4.36-1,1.1-.23,2.16-1.77,3.3-.43,1,1.16.58,2.72.35,4.09a19.69,19.69,0,0,1-1,2.77c-1.3,3.93.24,6.32,4.26,6.69,1.3.12,2.72-.56,4.07.66-1.07,3.17.24,6.69-1.11,9.94a1.59,1.59,0,0,0,.19,1.6c2.61,3.53,1.07,6.85-.32,10.66-1.24-1.41-2.21-2.42-4-1.81-1.21.41-2.2-2.05-3.66-1-1.3,1-.3,2.71-.8,4s-1.25,2.26-2.64,2.32c-1.1,0-1.73-.73-1.93-1.82a2.33,2.33,0,0,0-1.75-2.11c-2.72-.66-7.22,1.49-8.67,4.1-1.25,2.27-1.94,5.1-5.1,5.52-.55.07-.7.79-.8,1.36-.45,2.74-1.58,5.54.78,8a3.19,3.19,0,0,1,.74,1.48c.34,1.57,2,7.06,2.7,7.31,3.09,1.12,2.93,4.15,3.77,6.58.32.94.52,2,1.39,2.52,1.45.9,1.36,2.32,1.37,3.75a76.64,76.64,0,0,0,.63,10.58,32.38,32.38,0,0,1-.4,11c-.36,1.86-1.73,3.17-1.76,5.12-.08,4.89-1.81,9.36-3.95,13.56-.69,1.37-.87,4.65-4,3.15-1.18,2.2-3.72,3.4-4.29,6-.38,1.76-.06,3.88-.53,5.34s-2.95,2.17-4.12,3.75a4.49,4.49,0,0,0-.5.67,2.3,2.3,0,0,1-3,1.37c-1.92-.38-3.59,1-5,2.1-1.22,1,.08,2.37.06,3.58-.08,4.78.4,9.58-.13,14.69-3-1.55-4.78,1.51-7.23,1.88-.33-1.42,2-2.38.89-2.89-2.31-1.08-.18-3.1-1.39-4.39s-1-3.46-1-5.3-1.06-2.82-2.64-3.21a2.88,2.88,0,0,0-3.71,1.74c-1.06,2.31-2.27,4.57-1.94,7.27a10.36,10.36,0,0,1-1,5.34c-.49,1.17-1.43,2.44-.22,4.21,2.23-2.67,3.8-5.4,3.27-8.75a7.77,7.77,0,0,1,1-4.84c.43-.92.92-1.77,2.1-1.65s1.36,1.19,1.36,2.19a10.18,10.18,0,0,0,.63,3.32,4.48,4.48,0,0,1-1,4.71,19.55,19.55,0,0,1-3.15,3.28,8.36,8.36,0,0,0-2.69,3.16,1.31,1.31,0,0,0,.15,1.57c.5.48,1,.26,1.45-.11,1.26-1,2.14-2.6,3.92-2.81v-.05l.07,0c.06-.11.12-.26.14-.25.22.07.16.16-.14.25l0,.06h0c0,1.3-.82,1.84-1.74,2.51-2.51,1.83-4.24,4.64-7,6.14-.65,4.29-3.24,4.66-6.58,3.59-.7-.22-1.55.75-2.14-.15.16-1.47.32-2.86.47-4.25l-.2-.21a1.71,1.71,0,0,0-1.34.84c-1.55,2.9-3,3.59-5.89,2.51a109.61,109.61,0,0,1-11-4.43,47.83,47.83,0,0,1-7-4.91,5,5,0,0,1-1.76-3.24c-.69-3.52-1-3.63-4.36-2.67s-3.37,1-5.32-2.11c-.21-.34-.25-.82-.71-.88-2.31-.34-2.57-2.2-2.8-4.08-.13-1-.46-2.21-1.6-2.09-2.92.29-4.6-1.62-6-3.7-2.37,2.17,1.09,2.94.47,4.88-1,.12-2.42.05-2.93,1.45-.73,2,1.17,2.29,2.1,3.09,1.64,1.43,1.66,2.92,1,4.93-1,2.92-2.67,5.56-2.68,8.85,0,3.63-.15,3.63-3.76,3.35-2.42-.18-3.24.46-3.47,2.9a21.57,21.57,0,0,0,0,3.41c.22,3.82,1.46,5.22,5.09,5.85,2.36.41,2.62.76,1.57,3a42.57,42.57,0,0,0-3.39,8.16l0,0v0c.51,0,1.05,0,1.28.6,0,.12-.22.51-.3.5-.58-.1-.81-.57-1-1.1h0c-2.06,2-2.06,2.44,0,3.41v0l.07,0,.27-.31c0,.07,0,.18-.06.22a.67.67,0,0,1-.21.09l0,.05h0a4.35,4.35,0,0,1-1.5,3.93c-1.18-.8,0-2.39-.42-2.31-1.77.36-3-1-4.51-1.19a1,1,0,0,0-.95,1.13c.09,1,.41,1.93.45,2.91.07,1.54,1.61,3.91-1.75,3.8a.59.59,0,0,0-.39.93c1.3,1.39.2,1.83-.75,2.49a5.48,5.48,0,0,0-2,6.85c1.08,2.9,3.08,3.61,5.73,2.18.64-.34.95-1.41,1.92-1.07.39.79-.09,2.35,1.44,2,.92-.21,1.16-1.15.74-2.05-.85-1.84,0-3.2,1-4.66s2-3,1.85-4.63c-.24-3.28,1.28-5.62,2.92-8.08s2.75-4.88,4.34-7.16a6.17,6.17,0,0,0,.9-6.22c-.49-.29-.62-.58,0-.87,0-1-.14-2.22.79-2.68,4.47-2.23,5.1-7,6.3-11.06A28.88,28.88,0,0,1,63,264.59a2,2,0,0,1,1.09,1.53c.8,2.88,1.51,3.39,4.29,3,1.33-.19,2.56-.95,4-.82l0,0h0c-.19-.64-1.25-.91-.91-1.66a1.75,1.75,0,0,1,2.47-.74,48.31,48.31,0,0,1,7.45,3.86l-9-1.46s0,0,0,0h0c2.93,2.68,6.75,3.08,10.26,4s3.85.85,1.79,4c-.46.7-1.05,1.29-1.56,2-3,3.86-6.24,7.53-8.49,11.91-4,7.77-9.11,14.77-13.78,22.07-1.86,2.89-2.52,3-5.38,1,3.42-1.4,3.79-2.15,2.53-5.59a19.91,19.91,0,0,0-1.66-3.41,3.17,3.17,0,0,0-4.55-1.29c-1.78.95-3.16,3.53-2.08,4.87,2.43,3,.56,4.72-1,6.92A27.19,27.19,0,0,1,45,318.94c-2.48,2.3-2.82,5-1.56,8.05.53,1.31,1,2.64,1.57,3.93.47,1,1.25,2.39,2.35,1.91,2.21-1,3.55.54,5.21,1.34,2.33,1.11,3.8.28,4.73-2.23a4.44,4.44,0,0,0-1.23-5.34c-1.08-1-2.07-2.13-1-3.65a15.13,15.13,0,0,1,6.64-5.82,6.61,6.61,0,0,0,3-2.44c1.69-2.16,1.68-5.21,3.45-7.17A62.71,62.71,0,0,0,77,295c1.64-3.06,4-5.67,5.76-8.73a8.13,8.13,0,0,1,3.6-3.61c-1.4,3.91-2.59,7.14-3,10.6a2.62,2.62,0,0,1-2.14,2.31c-.52.11-1.17.4-1,1.1,1.07,4.21-1.71,7.2-3,10.67-.26.68-1,1.41.18,2.26,1.42-2.25,2.89-4.21,5.57-5.21,1.92-.71,3.43-2.87,3.93-5.18.4-1.87.93-3.51,2.47-4.69,1.12-.86,1-1.86.14-2.9-.46-.56-.73-1.2,0-1.76a1.51,1.51,0,0,1,1.58,1.09c.89,2,2.58,2.84,4.34,3.66,3.17,1.47,4.93.6,5.51-3a26.16,26.16,0,0,0,.06-4.25,20.58,20.58,0,0,1,.29-5.08c.76-3.05,1.35-3.44,4.3-2.78,2,.44,3.9,1.49,6.15,1.21-.52-1.43-2.14-.93-2.54-2.37,2.26.4,3.94-.65,5.59-2a1.78,1.78,0,0,1,3,.83c.71,2-.92,1.82-2,2,1.78,1.07,3.92,1.52,5,3.82a1.47,1.47,0,0,0,2.69.23c1-1.65,2.44-1.57,3.93-1.52,2,.07,3.94.19,5.9.28-1.87-1.73-4.05-1-6.1-1.2-1.38-.13-3.18-.11-3-2,.21-2.13,2.13-1.37,3.28-1,5.93,1.83,12.17,1.81,18.13,3.41.9.25,1.14-.39,1.45-1.06.49-1.09-.12-1.81-.53-2.73-2.56-5.65-4.71-11.39-4-17.89.22-2.15.12-4.13,2.08-5.63a5.19,5.19,0,0,0,1.81-3.23c.21-2.22.44-4.06,2.81-5,.9-.35.89-1.74.72-2.72a4.88,4.88,0,0,1,2.26-5.38c2.47-1.68,3-4,2.21-7.06a114.68,114.68,0,0,1-2.16-11.67c-.88-6.24,2-11.65,4.12-17.08,3.11-8.16,5.38-16.28,4-25.14-.49-3.18-.17-3.82,2.7-5.61,3.69-2.3,3.85-5.17.45-8.09-.42-.36-.93-.6-1.33-1-1.35-1.3-1.29-2.07.45-2.54a5.61,5.61,0,0,0,4.13-4.22c.49-1.62,1.53-3,1.66-4.78a3,3,0,0,1,2.71-3.11c2.2-.4,3.49-2.09,3.62-4.52a3.5,3.5,0,0,1,.93-2.71c1.77-1.53,3.42-3.34,5.41-4.47,5.42-3.08,11.13-5.66,15.39-10.58a1.84,1.84,0,0,1,.66-.48c4.28-1.8,6.15-5.62,8-9.7A12.05,12.05,0,0,0,206.29,107.53ZM120.92,57.9a1,1,0,0,1,.06.32s-.2.11-.21.09C120.6,58,120.66,57.88,120.92,57.9ZM123,69c-4.44,1.14-4.48,1.14-4.16-1.72.14-1.32-.33-2.71.47-4.14C120.27,65.24,118,68.52,123,69Zm35-9.75c-2.8,2.67-4.9,6-7.81,8.53A13.16,13.16,0,0,1,147,69.61a2.12,2.12,0,0,1-2.61-.48c-2.68-2.78-5.19-5.77-7.63-8.72-1.52-1.84-1.93-5-2.13-7.63-.29-4-2.73-7.06-3.7-10.73-.32-1.22-1.5-1.46-3.13-1.94,2,5-.43,8.28-3.06,11.5-1.09,1.34-.75,3.66-3.06,4.63a10.32,10.32,0,0,1,1.8-8,6.21,6.21,0,0,0,1.27-5.79c-.84-4.09.76-8.14.5-12.68,2.81,2,5.08,4.3,7.87,5.86,2,1.12,2.47,3.9,3.68,6,2.54-1.78,3.57-4.46,4.87-6.86,1.14-2.09,3-3.25,4.62-4.69a1.72,1.72,0,0,1,1.89-.43c1.49.65,4.07,5.86,3.43,7.58-.73,2-.33,3.15,1.36,4.17a8.07,8.07,0,0,1,4,7.77,5.67,5.67,0,0,0,1.35,3.91A4.41,4.41,0,0,1,158,59.23ZM47.18,279c-.73.89-2.31.32-2.88-1.17a7,7,0,0,1-.18-4.53c2.44-.37,4.61,2.95,7.27.34C51,276.46,48.57,277.36,47.18,279Zm3.9-6.4c1.77-5.67.62-11.21,3.86-15.93C57.5,261.31,56,267.87,51.08,272.63Zm2.3-21.71c2.53.66,2.53.66,2.88,4.29C53.88,254.72,53.49,252.93,53.38,250.92Zm.24,69.17c-2.15,3.22-2.15,3.83.11,6.89a3.48,3.48,0,0,1,.87,1.86c0,1.07.53,2.42-.71,3a1.92,1.92,0,0,1-2.38-1.13c-1.29-2.38-2.9-2-4.56-.58-.25-.48-.42-.71-.51-1-2.12-5.9-1.86-7.32,3-11,1.49-1.12,1.89-3.08,3.77-4.09C55.43,317.38,55.43,317.38,53.62,320.09Zm45.21-38.95c-1.62,2.6.2,5.27-.26,7.86-.21,1.24.85,3.16-1.13,3.52s-3.92-2.13-3.72-4.39c.75-2.49,1.53-5.34,2.46-8.13.33-1,1.13-1.71,2.23-1.08A1.5,1.5,0,0,1,98.83,281.14Zm48.79-61.08c0,1.85.13,3.69-1.56,4.78a.62.62,0,0,1-.88-.51C145.12,222.36,146.72,221.45,147.62,220.06Zm-8.43,15.47.06-.05c.07-.34.15-.68.22-1,.75.58.1.75-.22,1l0,.09-.07,0c-.06.12-.13.29-.15.28-.25-.09-.19-.19.15-.28Zm.1,31.61c-.8-.36-1.35-.65-1.94-.85s-1.18-.62-1.08-1.45a1.09,1.09,0,0,1,1.11-1c.66-.06,1.45-.1,1.68.69A13,13,0,0,1,139.29,267.14Zm-8.88-27.67c2.07,1.84,0,3.45,0,5.05C129.43,242.8,129.06,241.14,130.41,239.47Zm.07,8.64c1,.56.49,2.83,2.34,2.28a3.22,3.22,0,0,0,2.38-3.51c0-1.57.05-3.09-1.06-4.42a11,11,0,0,1-1.22-2.48c.69-1.27,1.9-.11,2.65-1s1.32-2.14,2.64-1.16c1,.76.23,1.86.15,2.77-.22,2.31.92,4.7.62,6.64-.69,4.33.36,8.86-1.48,13.1-.88-.41-1-2-2.26-1.74v0l0,0a4.7,4.7,0,0,1,0,.75c0,.33.07.94-.39.83s-.28-.68-.11-1a2.31,2.31,0,0,1,.5-.54v-.08h0c-.15-4.87-.17-4.87-4.81-5.91C128.11,252.15,128.12,250.88,130.48,248.11Zm-3.63,20.59c-1.24,1.14-1.5-.4-2.18-.85-2-1.28-3-1-4.07,1.42-.59,1.33-1.1,3-2.66,2.7-1.94-.34-4.13,0-5.75-1.66-.17-.17-.2-.5-.29-.75a1.18,1.18,0,0,1,.14-.4c3.19-4,6.18-8.18,10.86-10.45,2.3-1.12,2.69-.9,3.36,1.65.47,1.77.83,3.56,1.36,5.3A2.66,2.66,0,0,1,126.85,268.7Zm1.22-8.7c-.64-3.12-.2-3.64,2.82-3.91.51,0,1-.39,1.59.09.56,1.29.18,2.73.29,4.12.09,1,.08,2,1,2.66s1.8,1.25,1.2,2.37c-.75,1.38-2.39,1.11-3.63,1.47-.91.26-1.4-.68-1.67-1.52A54.24,54.24,0,0,1,128.07,260Zm13.39,17.12c-2.38-1.78-4.82-.52-7.25-.6-1.08,0-2.17,0-3.25-.09-.76-.05-1.32-.46-1.24-1.33s.64-1.51,1.65-1.32l.39.11c3.13.92,5.78.21,8-3.08.69,2.07,1.19,3.54,1.66,5A7,7,0,0,1,141.46,277.12Zm11-46.61c1.11,2,.44,3.5-1.14,4.76-2.1,1.68-3.81,3.49-3.24,6.67.18,1-.45,2-1.79,1.27-1.53-.8-2,.19-2.08,1.48-.09,1,0,2-.06,3a4.43,4.43,0,0,1-1.8,4,24.25,24.25,0,0,1,.62-7.66,98,98,0,0,1,2.9-10.05c.29-.84.76-1.82,1.65-1.49,2.85,1.06,3.13-1.23,3.82-3a5.62,5.62,0,0,0,.14-1.61l0,0v-.06L149,227v0c-.28.29-.55.58-.83.86l0,0-.24,1c-.71-.56-.09-.76.24-1v-.05L149,227h0c1-1.6.64-3.54,1.08-5.73,2,2.19,1.15,4.48,1.32,6.55l0,0v.07C152.3,228.55,152,229.71,152.43,230.51Zm19.08-86.41h0c0,.43,0,1-.39,1s-.35-.61-.39-1h0c-1.25,1.09-3-.37-4.14.78-1.28,1.32.48,3-.1,4.46s-1.16,3.18-1.74,4.76c-.78,2.13-2,3.11-4.4,2.58-2.12-.47-3.13.79-2.46,2.85.55,1.68,1,3.64,2.92,4.36.86.32,1.22,1.1,1.72,1.75.8,1,1.59,2.15,0,3.14-1.28.78-2.31.52-2.85-1.08-.17-.51-.09-1.17-.7-1.49-.84.84.08,3.06-1.59,2.92s-1-2-1.17-3.13.12-2.62-1.19-2.87c-2.43-.48-2.93-2.13-3.06-4.28-.12-1.91-.79-3.12-2.83-1.82-.9.57-1.21-.07-1.53-.71-.56-1.13-1.09-2.29-1.65-3.42-2-4.14-1.85-5.24,1.69-8.23a7.22,7.22,0,0,0,2.16-3.5,6.49,6.49,0,0,1,4-4c1.64-.72,2.56-.55,3.66,1.17,2,3.09,5.32,3.21,8,.66.2-.2.37-.43.57-.61,1.08-1,2.06-2.8,3.65-2,1.24.61,1.11,2.47,1.16,3.89s0,2.55,0,3.83l0,0v.05h.78v0l.05,0a1.36,1.36,0,0,1,.14-.31c.27.08.21.2-.14.31Zm27.06-55.73c.28,2.08.57,4.18,2.13,6.16s1.71,4.92,2.34,7.49c.21.89-.28,1.84-1.38,1.29a8.49,8.49,0,0,0-5.9-.7c-.76.17-1.74-.65-2.6-1.06-.47-.22-.62-.43-.51-1.19.4-3,.56-6,.72-9a7.78,7.78,0,0,0-.36-2.49,1.63,1.63,0,0,0-1.52-1.22c-.79,0-1.23.49-1.45,1.22-.91,2.92-2.49,5.77-.55,8.92,1,1.68,0,3.56.15,5.36.11,1.48-1.6,1.92-2.75,1-1.65-1.38-2.53-1-3.42.83s-2.88,2.78-4.9,4.56a63.32,63.32,0,0,1,3.92-23.82c1,0,.88,1,1.32,1.46a1.51,1.51,0,0,0,1.85.45c1-.65-.25-1-.35-1.59a2.11,2.11,0,0,1,.86-2.2c1-.75,1.91-1.58,2.94-2.27,2.39-1.6,3.25-1.31,4.36,1.41.61,1.47,1.21,2.89,3,3C198,86.06,198.35,86.74,198.57,88.37Zm-26.45-44.8c0-.34.27-.52.54-.39a9.6,9.6,0,0,1,.93.64l-.85.62C172.08,44.37,172.08,44,172.12,43.57ZM159,70.48c.37-2.93,2.61-5.47,5.38-5.32,1.72.09,2.37-.78,3.33-1.8,2.55-2.7,3.07-6.14,3.44-9.65a16.28,16.28,0,0,0,0-1.71c0-1.87-.09-4.09,1.54-5s3.55.27,5.23,1.3c2.85,1.74,4.35,4.6,6,7.34.58.95.87,2.4,1.69,2.84,4.36,2.36,5.15,7.09,7,11.09,1.25,2.77,2.06,5.77,3.06,8.67l.06,0a.09.09,0,0,0,0,.05,2.64,2.64,0,0,1,1.61,2.5h0a.08.08,0,0,0,0,0c.35.17.69.71.54.77-.83.33-.42-.44-.54-.77l0,0v0a2.58,2.58,0,0,1-1.61-2.5l-.05,0a.19.19,0,0,0,0-.07c-1.68-1.3-4-.46-5.7-1.79-.67-.52-1.18.33-1.57.92s-.75,1.63-1.83,1-.08-1.6-.81-2.5a23.45,23.45,0,0,1-6.17,3.61c-1.4.62-2.17.63-2.75-1.1-1.39-4.12-4.82-5.45-8.5-5.94a17,17,0,0,0-6.87.55C159.47,73.57,158.7,72.61,159,70.48ZM174,80.11a12.46,12.46,0,0,1-11.29.78c1-3,2.83-3.45,5.17-2.42.38-3.94.83-4.22,3.71-2.44.69.43,1.36.91,2.67,1.79l-5.09,1.8C170.94,81,172.52,79.43,174,80.11ZM158.69,97.68c-3.11,1-4.05.23-4.93-3.64a35.09,35.09,0,0,0,9.18-1.36c1.84-.48,1.88-.32,4.23,2.28C164,95.34,161.45,96.8,158.69,97.68Zm9.87,11.92c-1.05-.31-2.18-1.29-1.74-2.5,1.2-3.31,1.17-6.81,1.8-10.28a8,8,0,0,1,1.19,6.08c-.8,4-.42,4.46,3.78,5.9A4.94,4.94,0,0,1,168.56,109.6Zm6.14-6.82a9.08,9.08,0,0,1-.22,1.68c-.36,1-1.15,1.71-2.18,1.33s-.73-1.29-.48-2.15c1.16-4.1-.33-7.51-2.66-10.64a6.16,6.16,0,0,0-5.45-2.67c-1.56-.15-2.92,1-4.47,1.43-2.05.57-2.89-.24-2.44-2.41a30.21,30.21,0,0,1,1.42-4.87,2.27,2.27,0,0,1,3.88-1c.63.51,1.09,1.29,1.77,1.69,1.58.93,3.2,1.6,4.86,0s4-1.58,6.06-2.21c1.64-.52,3.5,1.58,3,3.22C176.2,91.6,175.61,97.22,174.7,102.78Zm27.44,12.58c-1.72,1.11-2.66,2.78-3.84,4.31a25.22,25.22,0,0,1-8.41,6.61c-4.59,2.44-9.21,4.84-13.24,8.66a2.85,2.85,0,0,1,.41-3.11,16.53,16.53,0,0,0,2.35-5.86,8,8,0,0,0-.21-5.55c-2.09-5.13,1.52-10.39,6.06-9.73,2.08.3,3.23-1.16,4.47-2.48,1-1,1.82-2.21,3.34-.64.67.71,1.51-.21,2.28-.36,1.06-.22,2.1-.62,3.17-.74,3-.35,3.33-.13,4.66,2.75C204,110.94,203.61,114.41,202.14,115.36Z"/><path class="cls-1" d="M197.39,80.84a.08.08,0,0,1,0,0h0v0Z"/><path class="cls-1" d="M139.25,235.48l-.06.05,0,.06.07,0Z"/><path class="cls-1" d="M72.34,268.27h0l0,0h0S72.34,268.28,72.34,268.27Z"/><path class="cls-1" d="M135.2,258.66l0,0v0h0Z"/><path class="cls-1" d="M151.41,227.78v.06l0,0v-.07Z"/><path class="cls-1" d="M190.64,165a1.18,1.18,0,0,1-1.14.21c-1.84-1-2.51.73-3.74,1.44-2.21,1.29-1.78,4.43-4,5.54-.14.07-.1.81,0,1.14a.64.64,0,0,0,1,.18,38.41,38.41,0,0,1,14.11-8.14c.82-2,2.55-2.11,4.18-2.45a11.75,11.75,0,0,0-1.27-2C196.62,162,193.16,162.34,190.64,165Z"/><path class="cls-1" d="M281.52,149.17A1.38,1.38,0,0,1,281,147c1.89-2.37-1.94-4.24-.5-6.56a1.11,1.11,0,0,0-.55-.56c-2.34-.55-4.85-1.85-7-1.38-3.2.69-6.56.39-9.65,1.77-2.67,1.2-5.68.59-8.43,1.25-3,.71-5.87,2.15-8.83,3.18s-5.94.69-8.91,1.68c-6.41,2.13-13.09,3.38-19.5,5.53-2.37.79-5.09,1.24-7.06,3.08s-4.78,2.71-7,4.27a12.86,12.86,0,0,1-3.73,1.71,11.75,11.75,0,0,1,1.27,2,6,6,0,0,0,1.78-.61c9-5.17,18.08-10.49,28.74-11.26,2.74-.2,2.83-.41,2.91,2.35.09,2.92,0,5.85.06,8.78a31.85,31.85,0,0,0,.56-9c-.2-2.5.84-3.67,3-4.19s4.2-1.13,6.31-1.65c7-1.73,14-3.42,21-5.14,1.06-.26,2.77-.81,2.89.34.24,2.42,1.78,4.28,1.9,6.8.19,3.71-.62,7.29-.57,10.94a8.18,8.18,0,0,1-3.56,7.18,24.41,24.41,0,0,1-5.08,2.67c-2.88,1.19-5.63,2.83-8.59,3.68-2.2.63-3.58,2.62-5.74,3-3.55.7-6.45-.41-9.41-2.77-2.42-1.94-1.92-4.11-2.07-6.42-.06-.83,0-1.66,0-2.92-1.67,1.05-1.37,2.14-1.38,3.07,0,3.41,0,6.82,0,10.24,0,4.2-3,7.59-6.87,6.54-3-.79-4.84.33-7.18,1.4-1.75.8-3.25,2.39-5.63,1.82-1.26-.3-2.75,1.37-2.74,2.65,0,1.62-1,2.12-1.65,3.12a15.56,15.56,0,0,0-1.76,3.82c-1.47,5.31-3.07,10.58-4.52,15.88-.93,3.38-2.17,6.67-2.88,10.11-1.38,6.63-3.08,13.18-4.46,19.82-1.25,6-3.21,11.76-3.73,18-.81,9.7-2.48,19.34-4.08,28.95a19,19,0,0,1-3.51,8c-4,5.5-9.71,8.49-14.78,12.43-.46.36-1,.71-1.5.43-1.46-.88-2.45-.08-3.7.66-2.05,1.23-3.17.6-3.25-1.76s-.28-4.81-1.8-6.82a1.87,1.87,0,0,1-.41-1.58c1-4.4-.27-8.75-.65-13a31.89,31.89,0,0,1,1.69-12.8c.3-.95.47-2,1.36-2.54,1.42-.87,1.86-2.4,2.51-3.79a51.74,51.74,0,0,0,3.37-9.47c1.82-6.38,1.31-2.75-1.21-5.18-1.08,3.5-2.53,6.53-3.55,9.75-1.18,3.77-2.31,7.73-4.39,11-2.43,3.77-4.17,7.13-2.81,11.89.66,2.34,0,5.05.71,7.57,1.67,5.63,1.36,11.77,4,17.16.64,1.32.39,2.8.44,4.21s0,3,0,4.5c1.74-.15,2.26-1.61,3.71-1.56,6.13.25,11.34-2.54,16.53-5.57,2.39-1.4,3.8-4.38,6.59-4.78a5.36,5.36,0,0,0,4.34-4,23,23,0,0,1,3-6.6c1.72-2.42,1.08-5.49,2.19-8,2.57-5.76,3-12.08,3.93-18.14,1.35-8.54,3.48-16.86,5.29-25.26.32-1.51,1.37-2.92,1.44-4.41.12-2.64,2.84,1.34,3.06-1.57.09-1.27,2.39-1.42,3.88-1.54a12,12,0,0,0,2.41-.29c2.36-.68,4.68-1.47,7-2.15s5-2.31,6.6-1.52c3.13,1.51,3.73-2.26,5.9-2a2.67,2.67,0,0,0,1.2-.25c3.63-1.52,7.48-2.38,11-4.32,1.91-1.06,3-2.17,2.87-4.53-.18-5,1.88-9.3,4.36-13.42.53-.88,2.46-.72,1.86-2.32s-2.17-.69-3.26-1.09a2.82,2.82,0,0,0-1.17-.36c-2.7.27-5.13-2.06-7.86-1-3.16,1.22-6.67,1.09-9.7,2.8-.93.53-1.51,0-2-.79s0-2-1-3.2c.75,4-1.67,5.3-4.25,6.16-3.38,1.13-6.87,1.93-10.64,3,1.63-5.07,4.39-9.22,5.47-14.07.14-.64.58-1.6,1.36-1.17,1.1.59,1.36.39,1.4-.81a2,2,0,0,1,1.74-2.08c4.06-.59,7.44-3,11.13-4.53,8.14-3.42,16.31-6.71,24.66-9.55,2.44-.83,4.65-2.39,7.07-3.28,5.93-2.18,8.68-7.08,9.78-12.94.8-4.27,2-8.49,2.13-12.94C283.07,151,283.35,149.89,281.52,149.17Zm-46.91,30.27c.14-2,1.38-2.5,3-2.43.81,0,1.66.12,1.58,1.32a3.77,3.77,0,0,1-3.41,2.92C234.8,181.09,234.55,180.35,234.61,179.44Zm-19.14,11.49c.21,0,.41.19.62.3-.21.1-.41.29-.62.29s-.41-.18-.61-.28C215.06,191.12,215.27,190.93,215.47,190.93ZM210,196.72c.24-.24.54-.26.64,0,.35.94-.54,1.35-.79,2A1.45,1.45,0,0,1,210,196.72ZM190.69,301.4a5.82,5.82,0,0,1-2.59,3.67,62.28,62.28,0,0,0-10.3,8.19c-1.4,1.41-3.11,1.53-4.9,1.51s-2.31,2.84-4.4,2.64a3.57,3.57,0,0,1-2.48-.64,3.21,3.21,0,0,1,2.1-2.65,49.63,49.63,0,0,0,15.65-11.47c1.5-1.64,3.64-1.7,5.33-2.89C189.92,299.18,191,300.16,190.69,301.4ZM208,235.09c-.7,2.33-1.37,3.95-4,3.7a1.32,1.32,0,0,0-1.57,1c-.17.8.37,1.31,1,1.68,1.91,1.15,1.68,2.64,1.25,4.69a117,117,0,0,1-3.87,15.58,1,1,0,0,0-.06.42c.35,7.33-2.73,14.05-3.51,21.21-.4,3.73-2.32,7.21-3.29,10.91-.54,2.1-2.49,1.59-4.27,1.29,1.24-8.72,2.08-17.27,3.9-25.66a26.88,26.88,0,0,0,.52-5.05,15.07,15.07,0,0,1,2-7.67,22.82,22.82,0,0,0,2.37-7.21c.09-.41.33-1,.16-1.21-2.51-2.75-.35-5.22.3-7.81,1.14-4.52,2.13-9.07,3.21-13.6.55-2.26,1-4.39,4.24-3.62,1.28.31,2.82-.6,4.25-1l.57.61C209.09,227,209.17,231.22,208,235.09ZM251.93,211c-.9,3.22-1.69,6-2.74,9.77-.68-2.43-.79-3.92-1.13-5.33C247.26,212.17,247.78,211.64,251.93,211Zm-25.06,4.3A41.1,41.1,0,0,0,238,211.14c2.55-1.33,6.76,1.21,7.36,4.08.68,3.31,1.49,6.58,2,9.94.25,1.7-.21,2.67-1.56,2.76-2.8.19-5.12,1.77-7.71,2.39-1.28.31-2.89,2.18-4.26-.1-.37-.6-.59,0-.73.37-.8,1.75-2.46,2.24-4,2.59-6.3,1.44-12.79,2-19.15,4.48,0-5.79,2.5-10.14,3.62-14.9a3.06,3.06,0,0,1,1.81-2.13C219.21,218.75,222.87,216.06,226.87,215.26Zm-7.7-9.81a14.51,14.51,0,0,0-3.53,6.55c-1.28,5.81-6.46,6.66-10.35,9.13-.58.37-1.91.1-1.55-1.16,1-3.47.76-7.35,3.19-10.33a8.42,8.42,0,0,1,1.6-5.91v-.08l0,0a8.67,8.67,0,0,1,0-1.14,1.77,1.77,0,0,1,.27-.68c.5.13.53.59.38,1a3.59,3.59,0,0,1-.65.87v.07l0,0c.09,2.15.24,4.32-1.59,5.92.26,1.13.85,2.24,1.52.43,1-2.76,1.63-5.69,2.43-8.55.52-1.91,1-3.84,1.62-5.7.9-2.63,1.2-2.7,3.38-1.32.69.44,1.38.9,2.06,1.38C222.06,198.8,222.61,201.55,219.17,205.45Zm50.92-29.24c-8.21,2.79-15.89,7-24.19,9.6a10,10,0,0,0-2.85,1.6,16.58,16.58,0,0,1-7.9,3.16,16.3,16.3,0,0,0-8.18,3.34c-2.7,2-5.44,1.9-8.2.06-1.67-1.11-1.75-2.54.11-3.42a108.22,108.22,0,0,1,12.82-5.36c1.53-.48,3.21,0,4.15-1.92a2.12,2.12,0,0,1,1.41-.77c7.25-1.48,13.57-5.48,20.36-8.19,3.62-1.44,7.55-1.93,10.91-4.33,1.8-1.29,3.36-.4,6.5,2.18C274.08,174.43,272.13,175.51,270.09,176.21Zm8.59-13.6a11.52,11.52,0,0,0,0,2.12c-.24,3.76-1.86,4.78-5,3.14a12.18,12.18,0,0,1-1.42-1c1.2-3.12,2.23-6.21.08-9.26,1-3.06-.23-6.05-.27-9.07,0-.83,0-1.78,1-2.11a2,2,0,0,1,2.79,1c1,2.49,2.91,3.33,6.28,3.15C278.2,154.36,279.74,158.81,278.68,162.61Z"/><path class="cls-1" d="M208.56,203.61l0,0v.08l0,0Z"/><path class="cls-1" d="M219.28,8.18c2-3.49-1.34-5.27-1.42-8.18,3.35,1.05,4,3.83,4.4,6.52a71.43,71.43,0,0,1,.38,7.17c.1,3.29-2.36,5.67-4.35,7.81-1.06,1.14-1.75,2-1.64,3.46a29.32,29.32,0,0,1-1.53,12.5,5.82,5.82,0,0,0-.25,3.71c.37,1.35-1.55,3.18-2.32,2.45-1.4-1.31-3.07-1.24-4.6-1.84a2.42,2.42,0,0,1-1.67-2.21A2,2,0,0,1,208,37.45,3.53,3.53,0,0,0,211,35a1.62,1.62,0,0,1,.84-.79c3.24-1.28,3.79-1.67,3.15-3.81-.91-3,0-5.8.09-8.7.16-5.19,1.52-10.59-1-15.63-.36-.71-1-1.66-.18-2.31s1.85,0,2.43.75A15.21,15.21,0,0,0,219.28,8.18Zm-1.57,2.52c.22,1,.44,1.89.67,2.82.13.52.18,1.19.9,1.16s1.16-.7,1.31-1.37c.22-1,.44-2.12-.26-2.81S218.62,10.15,217.71,10.7Z"/><path class="cls-1" d="M120.82,205.8a15.43,15.43,0,0,1,2,6.55c.19,2,1.55,2.54,3.17,1.45a5.7,5.7,0,0,0,2.31-5.56c-.25-2.34-1.55-4.46-1.56-7a60.9,60.9,0,0,0-1-7.4,5.82,5.82,0,0,0-3.77,5.24,6.73,6.73,0,0,1-1.71,4.59c-1.49,1.59-1.78,3.72-1.73,6.26-2.24-2.85-2.36-3.77-1-6.07,1-1.8,2.08-3.47,2.15-5.8.08-2.87,2.13-4.83,4.08-6.6,2.19-2,5-.83,5.36,2.19.11.83,0,1.7,0,2.55.2,3.66.06,7.32.79,11,1.07,5.41-.74,8.57-5.07,10.12-2.5.88-3.58.26-3.63-2.57S119.48,209.33,120.82,205.8Z"/><path class="cls-1" d="M116.09,63.15c-3.67-2-6.07-4.9-8.19-8.1-.69-1-.9-2.38-1.53-3.46-2.4-4.16,1.28-8.53,4.55-10.18,1.6-.8,2.26.41,2.66,1.68a25.22,25.22,0,0,1,1.17,11.31,7.6,7.6,0,0,0,1,5.88A3.14,3.14,0,0,1,116.09,63.15ZM111.2,55c.07-2.73-1-4.84-1.8-7a.86.86,0,0,0-1.32-.46,1.22,1.22,0,0,0-.43,1.06C108.36,50.87,108.59,53.48,111.2,55Z"/><path class="cls-1" d="M227.39,35.24c.34,5.36-2.25,9.35-5.51,13a2.26,2.26,0,0,1-2.58.73,2.22,2.22,0,0,1-1.59-2.22,18.51,18.51,0,0,0-1.1-5.77c-.11-.4-.32-1.13-.22-1.19,2.72-1.57,2.37-5.14,4.34-7.19,1.38-1.45,2.78-2.86,4.93-2.08S227.2,33.53,227.39,35.24Zm-7.56,9.88a11.47,11.47,0,0,0,5-10.94C222,37.28,219.53,40.12,219.83,45.12Z"/><path class="cls-1" d="M233.28,260.43c0-3.1-.06-6.2-.07-9.3-.3,3-.53,6-.73,9A7,7,0,0,1,233.28,260.43Z"/><path class="cls-1" d="M90.32,254.57c.62-2.72.7-6,3.86-7.64a5.07,5.07,0,0,0,1.49-1.36c.43-.57.77-1.26,1.57-.89a1.8,1.8,0,0,1,.92,2.13c-.21,1.1-.44,2.21-.75,3.28a9.31,9.31,0,0,0-.12,5,4.52,4.52,0,0,1-3.23,5.83,1.39,1.39,0,0,1-1.77-.59C91.37,258.6,90.23,257,90.32,254.57Zm4.37-4.23c-2.24,1.78-2,3.8-1.94,5.73,0,.56.1,1.18.75,1.33A1.21,1.21,0,0,0,95,256.31,15.43,15.43,0,0,0,94.69,250.34Z"/><path class="cls-1" d="M203.63,15.93c-2.74-2.88-3.07-4.19-1.67-6.47,1.27-2.07,2.9-2.39,4.75-.92,2.71,2.16,3.65,8.59,1.74,11.53-.89,1.36-2.15.92-3.31.9s-1.46-1-1.49-2.1,0-2,0-3c1.25-.15,1.62.64,1.78,1.74.07.53.14,1.18.89,1.15a1.19,1.19,0,0,0,1.1-1c.36-2.08.63-4.2-.21-6.21-.46-1.09-1-2.6-2.59-1.85a2.44,2.44,0,0,0-1.44,3.41A4,4,0,0,1,203.63,15.93Z"/><path class="cls-1" d="M193.45,51.49c2,.21,2.25,2.63,4.06,3.35.93-2,0-3.22-1.24-4.41-.91-.84-2.21-1.15-2.85-2.33a1.41,1.41,0,0,1,0-1.57.9.9,0,0,1,1.43-.14c1.61,1.29,3.23,2.58,4.73,4,1.06,1,1.49,5.16.8,6.43a1.5,1.5,0,0,1-1.72.79C196.62,57.27,193.85,54,193.45,51.49Z"/><path class="cls-1" d="M209.55,67.11c0-.56.08-1.35.67-1.32,1.11.06,3.32,2.87,3.1,4a5.05,5.05,0,0,1-2.78,3.92,1.73,1.73,0,0,1-1.88-.49c-1.18-1.16-2.37-2.31-3.44-3.58a2.14,2.14,0,0,1-.2-2.73c.57-.8,1.43-.65,2.23-.45s1.56.42,2.34.63a6.17,6.17,0,0,1-.55,1.51c-.35.49-1.87.2-.93,1.54.4.55.88,1.12,1.64.95a1.79,1.79,0,0,0,1.37-1.8A2.27,2.27,0,0,0,209.55,67.11Z"/><path class="cls-1" d="M98.39,268.07c.11-.79.36-1.39,1.28-.94.23.11.58.4.55.51-.27.89-1.06.48-1.63.64Z"/><path class="cls-1" d="M115.72,279.16l-1.08-.28c.59-.77.77,0,1,.32Z"/><path class="cls-1" d="M53.59,284.58c.57.28.63.56,0,.84l0,0v-.9Z"/><path class="cls-1" d="M64,226.48l-.14.28.16-.26Z"/><path class="cls-1" d="M170.83,210.12a24,24,0,0,0,.2-2.94c.05-1.19.06-2.42,0-3.18a33.36,33.36,0,0,1,1-11c.75-2.82,1.7-5.19,2.59-8.29,1.63-5.6,3.28-7.62,4.85-9.6a40.2,40.2,0,0,0,2.47-3.27c.36-.36.75-.69,1.27-1.13l1-.77.66-.56a11.77,11.77,0,0,0,1-.92,2.2,2.2,0,0,1,.57-.49c.16-.07.27-.05.33.07a.92.92,0,0,1,0,.62c0,.16-.06.27-.11.42s-.12.3-.18.43a13.48,13.48,0,0,1-1.22,1.92,4.53,4.53,0,0,1-.78.89,2.69,2.69,0,0,0-.27.2l-.42.85c-.28.57-.56,1.16-.82,1.76-.54,1.19-1.06,2.43-1.56,3.69-1,2.54-1.92,5.19-2.78,7.91A118.18,118.18,0,0,0,174.51,204c-.9,6-1,12.44-1.19,18.93s-.39,13.14-1,19.78a42.73,42.73,0,0,0-2.51,8.78c-.79,3.5-1.85,7.44-3.6,10.14,0-.87.06-1.66.09-2.54,0-.49,0-1,0-1.46s0-1,0-1.55a50.2,50.2,0,0,0,2.21-11.19c.41-4,.63-8.1.78-12.14C169.54,224.65,169.69,216.82,170.83,210.12Z"/></g></g></svg>