<svg height="512" viewBox="0 0 60 60" width="512" xmlns="http://www.w3.org/2000/svg"><g id="Page-1" fill="none" fill-rule="evenodd"><g id="043---Gaming-PC-Speed" fill-rule="nonzero"><path id="Shape" d="m23 41c-.0056077 5.4390775 2.4546094 10.5875138 6.69 14h-26.69c-1.10320187-.0032948-1.9967052-.8967981-2-2v-50c.0032948-1.10320187.89679813-1.9967052 2-2h28c1.1032019.0032948 1.9967052.89679813 2 2v21.88c-6.1268355 3.035287-10.0022929 9.2825242-10 16.12z" fill="#7f8e94"/><path id="Shape" d="m33 24.88v-21.88c-.0032948-1.10320187-.8967981-1.9967052-2-2h-3c1.1032019.0032948 1.9967052.89679813 2 2v21.88c-5.4941688 2.7241625-9.2225758 8.0590013-9.892461 14.1547545-.6698852 6.0957531 1.8110033 12.1129547 6.582461 15.9652455h3c-4.7714577-3.8522908-7.2523462-9.8694924-6.582461-15.9652455.6698852-6.0957532 4.3982922-11.430592 9.892461-14.1547545z" fill="#545c60"/><path id="Shape" d="m29 5v22.6c-6.6858003 5.9694984-7.9487616 15.9537194-2.96 23.4h-21.04v-46z" fill="#607d8b"/><path id="Shape" d="m3 55h12l-2 4h-8z" fill="#607d8b"/><path id="Shape" d="m30.64 55.71-1.64 3.29h-8l-2-4h10.69c.31.25.62.49.95.71z" fill="#607d8b"/><circle id="Oval" cx="17" cy="18" fill="#02a9f4" r="7.988"/><path id="Shape" d="m17 10.012c-.5034323.0013583-1.005629.049904-1.5.145 3.7656986.7172527 6.4901436 4.0096024 6.4901436 7.843s-2.724445 7.1257473-6.4901436 7.843c2.9807313.5717489 6.0279542-.5953418 7.8641314-3.0119736s2.1439777-5.6651587.7943573-8.3836474c-1.3496203-2.7184887-4.1234182-4.4371259-7.1584887-4.435379z" fill="#0377bc"/><circle id="Oval" cx="17" cy="18" fill="#f5f5f5" r="3"/><path id="Shape" d="m24.2 34.54c-1.5368789-3.1895672-4.9907829-4.9860185-8.4846403-4.4130477-3.4938575.5729707-6.19306645 3.3784941-6.63070463 6.8918697-.43763817 3.5133756 1.49083613 6.8953391 4.73736693 8.3079159 3.2465308 1.4125767 7.0355969.5183347 9.307978-2.1967379z" fill="#02a9f4"/><circle id="Oval" cx="17" cy="38" fill="#f5f5f5" r="3"/><path id="Shape" d="m59 41c.0035692 6.7214802-3.7401437 12.8843373-9.706755 15.9791488-5.9666113 3.0948114-13.1608171 2.6053246-18.653245-1.2691488-.33-.22-.64-.46-.95-.71-1.4109781-1.1421083-2.6415025-2.4906282-3.65-4-4.9887616-7.4462806-3.7258003-17.4305016 2.96-23.4 1.2022161-1.0859036 2.5481809-2.0011597 4-2.72 5.5784923-2.7720707 12.1939434-2.4615311 17.4882267.8209246 5.2942834 3.2824557 8.5141193 9.069794 8.5117733 15.2990754z" fill="#02a9f4"/><path id="Shape" d="m41 23c-.522 0-1.035.03-1.545.073 9.3473492.7512175 16.5485547 8.5587481 16.5433238 17.9362337-.0052309 9.3774857-7.2151424 17.1769775-16.5633238 17.9177663.516.045 1.037.073 1.565.073 9.9411255 0 18-8.0588745 18-18s-8.0588745-18-18-18z" fill="#0377bc"/><circle id="Oval" cx="41" cy="41" fill="#f44335" r="3"/><g fill="#000"><path id="Shape" d="m17 9.012c-4.9639353 0-8.988 4.0240647-8.988 8.988s4.0240647 8.988 8.988 8.988 8.988-4.0240647 8.988-8.988c-.0066105-4.9611946-4.0268054-8.98138947-8.988-8.988zm3.964 8.629c-.0300657-.3663842-.1108363-.7268227-.24-1.071.9019908-.6218835 1.6164895-1.4788669 2.066-2.478.6052066.8962979.9928249 1.9215005 1.132 2.994-.8799949.5532836-1.9372953.7516615-2.958.555zm-3.964 2.359c-1.1045695 0-2-.8954305-2-2s.8954305-2 2-2 2 .8954305 2 2-.8954305 2-2 2zm2.542-5.063c-.2799365-.2377248-.5911736-.4359071-.925-.589.1975575-1.072671.0993808-2.1788872-.284-3.2 1.0608397.207177 2.0586569.6591738 2.914 1.32-.2417637 1.0062834-.8495924 1.8864764-1.705 2.469zm-2.9-.9c-.3670342.0300617-.7281337.1108296-1.073.24-.621664-.9020453-1.4782455-1.616843-2.477-2.067.8949235-.6039398 1.9183603-.990853 2.989-1.13.5529354.879388.7536401 1.935052.562 2.956zm-2.185 7.027c.2810494.2387377.5936563.4376082.929.591-.1944845 1.0747702-.0949785 2.1821204.288 3.205-1.0636325-.2071904-2.0641939-.6598742-2.922-1.322.2406568-1.0086424.8489977-1.8912003 1.706-2.475zm2.9.9c.3660592-.0300676.7261672-.1108395 1.07-.24.621664.9020453 1.4782455 1.616843 2.477 2.067-.8957209.6045386-1.9202741.9914855-2.992 1.13-.5437587-.8833283-.740451-1.9369859-.552-2.957zm-5.9-8.212c1.0081076.2406621 1.8900329.8490586 2.473 1.706-.2387321.2806879-.4376063.5929641-.591.928-1.0730202-.1932104-2.178249-.0944306-3.2.286.2082711-1.0632281.6619884-2.0631182 1.325-2.92zm-1.385 5.163c.8786409-.555779 1.9362395-.755353 2.957-.558.0300617.3670342.1108296.7281337.24 1.073-.9019908.6218835-1.6164895 1.4788669-2.066 2.478-.6028236-.8964243-.9877325-1.9213639-1.124-2.993zm12.457 3.333c-1.0081076-.2406621-1.8900329-.8490586-2.473-1.706.2381931-.2799566.4364142-.5915912.589-.926.3577721.0683352.7208022.1054747 1.085.111.7247423-.0013656 1.4431606-.134883 2.12-.394-.2056341 1.0605403-.6555256 2.0585874-1.314 2.915z"/><path id="Shape" d="m41 22c-2.3981137.0020534-4.773852.4612497-7 1.353v-20.353c0-1.65685425-1.3431458-3-3-3h-28c-1.65685425 0-3 1.34314575-3 3v50c.00241834 1.4017761.97524971 2.6150127 2.343 2.922l1.762 3.525c.16942458.3390516.51597404.5531766.895.553h8c.379026.0001766.7255754-.2139484.895-.553l1.723-3.447h2.764l1.723 3.447c.1694246.3390516.515974.5531766.895.553h8c.3792488-.0000125.725855-.2145598.895-.554l1.145-2.3c6.8525287 4.2313018 15.6288554 3.6797158 21.8976856-1.3762542 6.2688301-5.05597 8.6664381-13.5164447 5.9822368-21.109608-2.6842013-7.5931632-9.8662888-12.6671929-17.9199224-12.6601378zm-39-19c0-.55228475.44771525-1 1-1h28c.5522847 0 1 .44771525 1 1v21.273c-.6925156.3789723-1.3605017.8011396-2 1.264v-20.537c0-.55228475-.4477153-1-1-1h-24c-.55228475 0-1 .44771525-1 1v46c0 .5522847.44771525 1 1 1h20.537c.5025171.7030669 1.05211 1.3712649 1.645 2h-24.182c-.55228475 0-1-.4477153-1-1zm15 37c-1.1045695 0-2-.8954305-2-2s.8954305-2 2-2 2 .8954305 2 2-.8954305 2-2 2zm3.652-.384c.3588516.0674613.7228889.1035974 1.088.108.11 0 .217-.018.326-.024-.03.431-.066.861-.066 1.3 0 .372.035.734.056 1.1-.8115492-.2975097-1.5088421-.8429586-1.993-1.559.2381152-.2796483.4363333-.5909417.589-.925zm1.657-1.932c-.4474767.0608298-.901929.0473145-1.345-.04-.0294675-.3674489-.1102521-.7289601-.24-1.074.901783-.6221112 1.6162281-1.4790304 2.066-2.478.12.178.22.37.324.559-.3521874.986862-.621454 2.0013783-.805 3.033zm-2.767-2.747c-.2812074-.2385234-.5937835-.4373742-.929-.591.1945704-1.0694202.0967966-2.1715346-.283-3.19 1.0598269.2092026 2.0570522.6602468 2.914 1.318-.2414742 1.0040113-.8482494 1.8820884-1.702 2.463zm-3.46-3.86c.5496142.881799.7487128 1.9375922.558 2.959-.3660592.0300676-.7261672.1108395-1.07.24-.6215399-.9031814-1.4790069-1.6184867-2.479-2.068.8955742-.6042872 1.9196624-.9915301 2.991-1.131zm-4.62 2.675c1.0091623.239488 1.8921075.8480959 2.475 1.706-.2381801.2805307-.4367018.5924453-.59.927-1.0752482-.1935741-2.1827379-.0951536-3.207.285.2073924-1.0623523.6600872-2.0615682 1.322-2.918zm1.574 4.6c.0299576.3673747.1107272.7288186.24 1.074-.902641.6222924-1.6175218 1.480011-2.067 2.48-.6051937-.8959355-.992818-1.9208115-1.132-2.993.8793573-.555848 1.9377249-.7550743 2.959-.557zm1.422 2.707c.2806879.2387321.5929641.4376063.928.591-.1936651 1.0756201-.0934764 2.1835692.29 3.207-1.0640852-.2067237-2.0650753-.6594466-2.923-1.322.2406376-1.0075844.8486381-1.889096 1.705-2.472zm3.461 3.86c-.555954-.8793126-.756856-1.9370868-.562-2.959.3670342-.0300617.7281337-.1108296 1.073-.24.619291.9019709 1.473424 1.617437 2.47 2.069-.89263.6033863-1.9130242.9915537-2.981 1.134zm6.13-12.458c-3.0590763-3.8731868-8.6730325-4.5461414-12.5608583-1.5056918-3.88782574 3.0404497-4.58771967 8.6511111-1.56596664 12.5534863 3.02175304 3.9023752 8.62899024 4.6291923 12.54582494 1.6262055.3745029 1.6971258.9819241 3.3343026 1.805 4.865h-18.273v-44h22v21.182c-1.6138634 1.5181399-2.9508584 3.3058757-3.951 5.283zm-11.667 25.539h-6.764l-1-2h8.764zm16 0h-6.764l-1-2h8.76zm12.618 0c-9.3888407 0-17-7.6111593-17-17s7.6111593-17 17-17 17 7.6111593 17 17c-.010471 9.3845001-7.6154999 16.989529-17 17z"/><path id="Shape" d="m41 26c-6.0642888.0021017-11.5307285 3.6554854-13.8522035 9.2578382-2.3214749 5.6023528-1.0412279 12.0513948 3.2442035 16.3421618.1875737.1881613.4423149.2939437.708.294.2651948-.0000566.5195073-.1054506.707-.293l2.121-2.121c.3789722-.3923789.3735524-1.0160848-.0121814-1.4018186s-1.0094397-.3911536-1.4018186-.0121814l-1.387 1.387c-1.7969468-2.0915114-2.8773153-4.7032489-3.083-7.453h1.956c.5522847 0 1-.4477153 1-1s-.4477153-1-1-1h-1.949c.2091097-2.748059 1.291086-5.3573456 3.088-7.447l1.376 1.376c.3923789.3789722 1.0160848.3735524 1.4018186-.0121814s.3911536-1.0094397.0121814-1.4018186l-1.376-1.376c2.0893942-1.7973368 4.6988256-2.8793731 7.447-3.088v1.949c0 .5522847.4477153 1 1 1s1-.4477153 1-1v-1.949c2.7479588.2087583 5.3572534 1.2903875 7.447 3.087l-1.376 1.377c-.2599566.2510745-.3642126.6228779-.2726972.9725073.0915155.3496295.3645604.6226744.7141899.7141899.3496294.0915154.7214328-.0127406.9725073-.2726972l1.376-1.377c1.796748 2.0901469 2.8786855 4.6996905 3.088 7.448h-1.949c-.5522847 0-1 .4477153-1 1s.4477153 1 1 1h1.956c-.2051276 2.751864-1.2858765 5.3657765-3.084 7.459l-1.387-1.388c-.3923789-.3789722-1.0160848-.3735524-1.4018186.0121814s-.3911536 1.0094397-.0121814 1.4018186c0 0 2.057 2.057 2.117 2.119.1874528.1902946.4428906.2982261.71.3.2658877.0004746.5210175-.1049599.709-.293 4.2931683-4.2896078 5.5784811-10.7435154 3.2562645-16.3505948-2.3222167-5.6070793-7.7943251-9.2623469-13.8632645-9.2604052z"/><path id="Shape" d="m45.43 31.1c-.2394842-.1140855-.5144851-.1283426-.7644829-.0396337s-.4545056.2731142-.5685171.5126337l-2.607 5.477c-.1620669-.027344-.3257504-.0440464-.49-.05-1.9848082-.0163374-3.6864257 1.4139461-4.0116796 3.3719912-.3252539 1.958045.8225657 3.8616529 2.7060632 4.4878858 1.8834975.626233 3.9426399-.2111111 4.8545692-1.974096.9119292-1.7629848.4054953-3.9274102-1.1939528-5.102781l2.545-5.353c.2359653-.4971358.0259259-1.0915024-.47-1.33zm-4.43 11.9c-1.1045695 0-2-.8954305-2-2s.8954305-2 2-2 2 .8954305 2 2-.8954305 2-2 2z"/></g></g></g></svg>