<svg xmlns="http://www.w3.org/2000/svg" viewBox="0 0 99.49 99.49"><defs><style>.cls-1{fill:#f1f1f1;}.cls-2{fill:#008d78;}.cls-2,.cls-3{fill-rule:evenodd;}.cls-3{fill:#fff;}</style></defs><title>3</title><g id="Capa_2" data-name="Capa 2"><g id="Capa_1-2" data-name="Capa 1"><rect class="cls-1" x="6.03" y="10.38" width="87.43" height="78.73" rx="21.73" transform="translate(-20.6 49.74) rotate(-45)"/><path class="cls-2" d="M74.93,60,63.36,71.1l-6.47,6.27c-3,2.92-2,2.7-5.9,2.59l-7.44-.22a4.08,4.08,0,0,1-2.42-1.21L20.93,58.16c-1.33-1.7-1.94-2.1-1.66-4.47l1-7.92c.47-3.89.16-3,3.11-5.85l5.12-5,11.7-11.37,14.58,3.35,14.82,3.15.76,3.76,2.61,14.33Z"/><polygon class="cls-3" points="65.71 44.96 66.93 55.51 46.31 75.67 23.56 52.4 43.02 33.38 52.99 35.53 36.69 51.37 39.64 54.09 48.27 45.69 53.66 50.95 44.9 59.63 47.67 62.6 65.71 44.96"/><path class="cls-3" d="M47.23,43.37,55.62,42a1.67,1.67,0,0,1,1.5.27,1.65,1.65,0,0,1,.33,1.5l-1.11,8.35-2.1-2,.79-5.7-5.68,1Z"/></g></g></svg>