<svg xmlns="http://www.w3.org/2000/svg" viewBox="0 0 83.18 79.3"><defs><style>.cls-1{fill:#f1f1f1;}.cls-2{fill:#f6921a;}.cls-3{fill:#fff;}</style></defs><title>4</title><g id="Capa_2" data-name="Capa 2"><g id="Capa_1-2" data-name="Capa 1"><rect class="cls-1" x="4.41" y="6.17" width="74.36" height="66.96" rx="18.48" transform="matrix(0.92, 0.39, -0.39, 0.92, 19.04, -13.2)"/><path class="cls-2" d="M67.75,45.8A27.12,27.12,0,1,1,48,12.91,27.12,27.12,0,0,1,67.75,45.8Z"/><path class="cls-3" d="M53.4,35.37c.54-3.61-2.21-5.55-6-6.85l1.22-4.89-3-.74-1.18,4.76-2.39-.56,1.2-4.79-3-.74L39.1,26.44c-.65-.14-1.28-.29-1.9-.44v0l-4.1-1-.79,3.18s2.21.5,2.16.53a1.59,1.59,0,0,1,1.39,1.74L34.47,36a2.15,2.15,0,0,1,.31.1L34.46,36l-1.94,7.8a1.09,1.09,0,0,1-1.37.71S29,44,29,44l-1.48,3.41,3.87,1,2.13.55-1.24,4.94,3,.75,1.22-4.9c.81.22,1.6.43,2.37.62l-1.22,4.87,3,.74L41.83,51c5.08,1,8.9.58,10.5-4,1.3-3.7-.06-5.83-2.73-7.22a4.75,4.75,0,0,0,3.8-4.37ZM46.6,44.9c-.92,3.7-7.15,1.7-9.16,1.2l1.63-6.55C41.09,40.05,47.56,41.05,46.6,44.9Zm.92-9.59c-.84,3.37-6,1.66-7.7,1.24l1.48-5.94C43,31,48.39,31.81,47.52,35.31Z"/></g></g></svg>