<svg xmlns="http://www.w3.org/2000/svg" viewBox="0 0 58.43 58.26"><defs><style>.cls-1{fill:#008d78;}</style></defs><title>Recurso 2</title><g id="Capa_2" data-name="Capa 2"><g id="Capa_1-2" data-name="Capa 1"><g id="Capa_2-2" data-name="Capa 2"><g id="Capa_1-2-2" data-name="Capa 1-2"><path class="cls-1" d="M0,15.33c1.54-.81,3.1-1.6,4.64-2.42L21.87,3.77C24.12,2.58,26.37,1.4,28.6.18a1.13,1.13,0,0,1,1.21,0Q39.37,5.29,49,10.37l5.78,3.06c.11.06.25.09.32.26a.89.89,0,0,1-.58.08H36.26a1,1,0,0,1-1-.54,6.28,6.28,0,0,0-4.71-2.74,8.48,8.48,0,0,0-5.94,1.21,4.32,4.32,0,0,0,0,7.46,8.5,8.5,0,0,0,9.61-.34,4.86,4.86,0,0,0,1.13-1.34A.66.66,0,0,1,36,17.1H54.73a1,1,0,0,1,.25,0c-.11.24-.33.28-.5.37Q42.13,24.06,29.73,30.61a1.08,1.08,0,0,1-1.11,0l-27-14.23L0,15.56Z"/><path class="cls-1" d="M48.1,58.26V50.08c0-.47.15-.54.52-.29A8.06,8.06,0,0,0,53,51.24a8.17,8.17,0,0,0,4.44-1.17c.18-.1.35-.22.53-.33s.42-.12.42.22v8.3Z"/><path class="cls-1" d="M48.14,29.16V33a.78.78,0,0,1-.45.77L29.62,44.59a.71.71,0,0,1-.84,0l-18-10.77a.86.86,0,0,1-.46-.83q0-3.87,0-7.74c0-.46.09-.57.54-.33C16.71,28,22.57,31.11,28.4,34.23a1.46,1.46,0,0,0,1.57,0l17.62-9.3c.44-.23.52-.1.51.33C48.13,26.54,48.14,27.85,48.14,29.16Z"/><path class="cls-1" d="M55,29.59v7.68a.83.83,0,0,0,.52.88,5.16,5.16,0,1,1-4.93,9.05l-.16-.1a5.15,5.15,0,0,1,.55-8.93.86.86,0,0,0,.54-.92V23.6a1,1,0,0,1,.68-1.09c.77-.36,1.51-.79,2.27-1.18.5-.26.56-.23.56.36Z"/><path class="cls-1" d="M29.18,13.69a4.62,4.62,0,0,1,2.8.77c.88.61.89,1.32,0,2a5.36,5.36,0,0,1-5.64,0c-.83-.62-.83-1.32,0-1.92A4.53,4.53,0,0,1,29.18,13.69Z"/></g></g></g></g></svg>