<svg xmlns="http://www.w3.org/2000/svg" viewBox="0 0 60.2 60.5"><defs><style>.cls-1{fill:#fff;}</style></defs><title>Recurso 1</title><g id="Capa_2" data-name="Capa 2"><g id="Capa_1-2" data-name="Capa 1"><g id="Capa_2-2" data-name="Capa 2"><g id="Capa_1-2-2" data-name="Capa 1-2"><path class="cls-1" d="M43.4,0H59.6a1.3,1.3,0,0,1,.5,1.3V15.9a1.42,1.42,0,0,1-.8,1.4c-2.1,1.2-4.3,2.3-6.4,3.5a1.69,1.69,0,0,1-1,.3c-.6-.1-.7.2-.7.8v4.4c0,.8-.3,1.2-1.2,1.2H48.2c-.6,0-.6.2-.6.6v4.4a.53.53,0,0,0,.6.6h1.7c1,0,1.3.3,1.3,1.3v4.4c0,.5.1.7.6.7a1.69,1.69,0,0,1,1,.3l6.5,3.6a1.44,1.44,0,0,1,.8,1.3v8.4a.9.9,0,0,1-.9.9c-.2,0-.3,0-.4-.1a1,1,0,0,1-.5-1.1V46c0-.6-.2-.7-.7-.7h-12c-.6,0-.8.2-.8.7V58c0,.5.2.7.7.7H57.6c.4,0,.7-.1.7-.6V56.8a.92.92,0,0,1,.9-1h0a.91.91,0,0,1,1,.8v2.6c0,1.1-.3,1.3-1.4,1.3H44.3a2.3,2.3,0,0,1-1.4-.4c-1.8-1-3.6-2.1-5.5-3-1.1-.6-1.8-1.2-1.6-2.6v-.1c0-.4-.2-.5-.5-.5H33.4a1,1,0,0,1-1.2-.9V51c0-.5-.2-.6-.6-.6H28.2c-.5,0-.6.2-.6.6v1.7a1.11,1.11,0,0,1-.9,1.2H25.3c-1.3,0-1.3-.1-1.2,1.2a1.54,1.54,0,0,1-.9,1.6C21.1,57.8,19,59,17,60.1a2.66,2.66,0,0,1-1.2.3H1.2A1.15,1.15,0,0,1,0,59.9V43.8a1.56,1.56,0,0,1,.8-.6l6.4-3.5a1.69,1.69,0,0,1,1-.3c.5,0,.7-.2.7-.7V34.2c0-.8.3-1.1,1.1-1.1h1.9c.4,0,.5-.1.5-.5V28c0-.4-.2-.5-.5-.5H10.4c-1.3,0-1.5-.2-1.5-1.5V21.7q0-.75-.6-.6a2,2,0,0,1-1.1-.3L.8,17.3a1.34,1.34,0,0,1-.7-.6V.6C.1.1.2.1.7.1H4.4a1.19,1.19,0,0,1,.4,1.3A1.14,1.14,0,0,1,3.6,2H2.7c-.8,0-.8,0-.8.8v12c0,.7,0,.8.8.8H14.6c.8,0,.8,0,.8-.8V2.6c0-.8,0-.8-.8-.8H7.9c-.5,0-.9-.1-1.1-.6A.88.88,0,0,1,7.3,0h9.4c2,1.1,4,2.3,6,3.3,1.1.6,1.9,1.2,1.6,2.6-.1.4.2.6.6.6h1.8c.9,0,1.3.4,1.3,1.3V9.5c0,.6.2.6.6.6h3.5a.53.53,0,0,0,.6-.6V7.8c0-.9.4-1.3,1.3-1.3h1.2c1.1,0,1.2,0,1.1-1.2a1.62,1.62,0,0,1,1-1.7A65.72,65.72,0,0,1,43.4,0ZM20.3,39.4h2.2c1,0,1.3.3,1.3,1.3v3.7a.53.53,0,0,0,.6.6h1.8a1,1,0,0,1,1.2.9V48a.53.53,0,0,0,.6.6h3.5a.53.53,0,0,0,.6-.6V46.6c0-1.2.3-1.6,1.5-1.6h1.5c.5,0,.7-.2.7-.7V40.6c0-.9.3-1.2,1.2-1.2h4.4c.9,0,.9,0,.9-.9V34.1a1.09,1.09,0,0,1,.9-1.1h2a.53.53,0,0,0,.6-.6V28a.53.53,0,0,0-.6-.6H43.6c-1,0-1.3-.3-1.3-1.3V21.7c0-.5-.2-.7-.7-.7H37.1c-1,0-1.3-.3-1.3-1.3V16a.53.53,0,0,0-.6-.6H33.4a1.06,1.06,0,0,1-1.2-1.2V12.4a.53.53,0,0,0-.6-.6H28a.53.53,0,0,0-.6.6v1.3c0,1.4-.3,1.7-1.7,1.7H24.3c-.5,0-.7.2-.6.7v3.7c0,.9-.3,1.2-1.2,1.2H18.1c-.9,0-.9,0-.9.9v4.4a1.09,1.09,0,0,1-.9,1.1h-2a.53.53,0,0,0-.6.6v4.4a.53.53,0,0,0,.6.6h1.5c1.1,0,1.4.3,1.4,1.4v4.4a.53.53,0,0,0,.6.6Zm35-22.1v-.2H52.8a.9.9,0,1,1,0-1.8h4.9c.4,0,.6-.1.6-.6V2.4a.53.53,0,0,0-.6-.6H45.4c-.5,0-.6.2-.6.6V14.6c0,.5.2.7.7.7h3c.8,0,1.3.3,1.2.9s-.4.9-1.3.9H44.1c-1.2.6-2.3,1.3-3.5,1.9a2.77,2.77,0,0,0,.9.1c.5,0,.8,0,1-.6a.66.66,0,0,1,.8-.5.76.76,0,0,1,.8.6.64.64,0,0,0,.7.5h4c.3,0,.6,0,.7-.4a.8.8,0,0,1,1.1-.6.9.9,0,0,1,.6.6c.1.5.4.5.8.3,1.1-.5,2.2-1.1,3.3-1.7ZM1.4,51.8v6.1c0,.6.2.8.8.8h12c.5,0,.7-.2.7-.7V45.9c0-.6-.2-.7-.7-.7H2.2c-.6,0-.8.2-.8.7ZM16.8,9.1v6a.83.83,0,0,0,.3.8l4.5,2.5c.3.2.4.1.4-.2V16a.47.47,0,0,0-.5-.5H20.1a1,1,0,0,1-1.1-1,.9.9,0,0,1,1.1-.9h1.4c.4,0,.5-.2.5-.5V9c0-.4-.2-.5-.6-.5H20a1,1,0,0,1-1.1-1A.9.9,0,0,1,20,6.6h1.4c.5,0,.6-.1.6-.5a.89.89,0,0,0-.5-.8c-1.4-.7-2.8-1.5-4.1-2.3-.5-.3-.6-.3-.6.3Zm26.1,0V3.2c0-.8,0-.8-.7-.4s-1.3.7-2,1.1L38.1,5.1a.82.82,0,0,0-.4,1c.1.4.4.3.7.3h1.1a1,1,0,0,1,1.1,1c0,.6-.4.9-1.1,1H38.2c-.4,0-.6.1-.5.5V13c0,.4.2.6.6.5h1.1c.8,0,1.3.4,1.3,1s-.5,1-1.3,1H38.3c-.4,0-.6.1-.6.6V18c0,.6.2.5.5.3l4.2-2.4a1.05,1.05,0,0,0,.5-.9c0-1.9,0-3.9,0-5.9ZM16.8,51.3v6c0,.6,0,.6.6.3l1.9-1c.8-.4,1.6-.9,2.4-1.3.4-.2.4-.6.3-1s-.4-.3-.7-.3H20.2c-.7,0-1.2-.4-1.2-1s.4-1,1.2-1h1.2c.4,0,.6-.1.6-.6v-4a.53.53,0,0,0-.6-.6H20.1c-.7,0-1.1-.4-1.1-.9s.4-.9,1.1-1h1.3c.4,0,.6-.1.6-.6V42.4c0-.6-.2-.5-.5-.3-1.4.8-2.8,1.6-4.2,2.3a1.05,1.05,0,0,0-.5.9Zm26.1,0V45.4a.83.83,0,0,0-.3-.8c-1.5-.8-3-1.6-4.4-2.4-.3-.2-.4-.1-.4.3v2c0,.4.2.5.5.5h1.4a1,1,0,1,1,.5,1.9.64.64,0,0,1-.6,0H38.2c-.5,0-.5.2-.5.5v4.1c0,.4.2.5.5.5h1.4a1,1,0,0,1,1.1,1c0,.6-.4.9-1.1,1H38.2c-.5,0-.5.2-.5.5a.79.79,0,0,0,.5.8c1.4.8,2.8,1.5,4.2,2.3.5.3.6.1.6-.3-.1-2-.1-4-.1-6Zm-30-30.2H11c-.8,0-.8,0-.8.8v2.9c0,.3-.1.7.4.8.7.1,1.1,0,1.3-.5a1,1,0,0,1,.8-.7.62.62,0,0,1,.8.5c.2.8.7.7,1.3.7a.53.53,0,0,0,.6-.6V21.7a.53.53,0,0,0-.6-.6Zm33.9,0H44.7c-.4,0-.5.1-.5.5V25c0,.2,0,.4.2.5a1.06,1.06,0,0,0,1.5-.5.84.84,0,0,1,.8-.6.62.62,0,0,1,.8.5c.2.8.7.7,1.3.7s.6-.2.6-.6V21.7a.53.53,0,0,0-.6-.6Zm-34,18.3h2.1c.4,0,.5-.2.5-.5V35.5c0-.2,0-.4-.2-.5a1.19,1.19,0,0,0-1.6.5.84.84,0,0,1-.8.6.69.69,0,0,1-.8-.5c-.2-.8-.7-.7-1.3-.7a.53.53,0,0,0-.6.6v3.3a.53.53,0,0,0,.6.6Zm33.9,0h2.1c.4,0,.5-.2.5-.5V35.5c0-.2,0-.4-.2-.5a1.19,1.19,0,0,0-1.6.5.84.84,0,0,1-.8.6.69.69,0,0,1-.8-.5c-.2-.8-.7-.7-1.3-.7s-.6.2-.6.6v3.3a.53.53,0,0,0,.6.6ZM4.4,17.2v.1c1.1.6,2.1,1.2,3.3,1.8.3.2.7.3.8-.3a.93.93,0,0,1,1.8,0c0,.3.3.4.5.4H15a.55.55,0,0,0,.6-.4.93.93,0,0,1,1.8,0c.1.2.1.4.4.4h1.3c-1-.6-1.9-1.2-2.9-1.7a2.77,2.77,0,0,0-1.3-.3H4.4ZM19.1,41.4v-.1H17.9c-.3,0-.5.1-.5.4h0a.92.92,0,0,1-1.1.7,1,1,0,0,1-.7-.7c0-.3-.3-.4-.5-.4H10.9c-.3,0-.5.1-.5.4h0a.93.93,0,0,1-1.8,0c-.1-.4-.4-.5-.7-.3-1.1.6-2.3,1.2-3.5,1.9H15.3a.9.9,0,0,0,.5-.1Q17.3,42.3,19.1,41.4Zm21.5-.2v.1c1,.5,2,1.1,2.9,1.6a2.66,2.66,0,0,0,1.2.3h10c.2,0,.4.1.6-.1L52,41.3c-.3-.2-.7-.2-.8.3a.8.8,0,0,1-1.1.6.9.9,0,0,1-.6-.6c-.1-.4-.3-.4-.7-.4H44.9c-.4,0-.7,0-.8.5a.87.87,0,0,1-.9.6.76.76,0,0,1-.8-.6c-.1-.5-.4-.6-.9-.6S40.9,41.2,40.6,41.2ZM23.8,10.9v1.7c0,1,0,1,1,1,.2,0,.5,0,.6-.2a1.28,1.28,0,0,0-.5-1.5.81.81,0,0,1-.5-1.1,1,1,0,0,1,.4-.5c.7-.3.6-.7.6-1.2s-.1-.6-.6-.6h-.6a.53.53,0,0,0-.6.6A3.59,3.59,0,0,1,23.8,10.9Zm12,.1V9.4c0-1,0-1-1-1-.2,0-.5,0-.6.2a1.28,1.28,0,0,0,.5,1.5.81.81,0,0,1,.5,1.1,1,1,0,0,1-.4.5c-.7.3-.6.7-.6,1.2s.2.6.6.6h.5a.53.53,0,0,0,.6-.6,12.1,12.1,0,0,1-.1-1.9Zm-12,38.5v1.6c0,1,0,1,1,1,.2,0,.5,0,.6-.2a1.28,1.28,0,0,0-.5-1.5.81.81,0,0,1-.5-1.1,1,1,0,0,1,.4-.5c.7-.3.6-.7.6-1.2s-.2-.6-.6-.6h-.5a.53.53,0,0,0-.6.6A5.75,5.75,0,0,1,23.8,49.5Zm12,0V47.8c0-.9,0-.9-.9-.9-.3,0-.8-.1-.8.4s-.3,1,.4,1.3a.84.84,0,0,1,.6.8,1,1,0,0,1-.6.9,1,1,0,0,0-.5,1.3c.1.5.5.3.8.4h.3a.53.53,0,0,0,.6-.6,12.1,12.1,0,0,0,.1-1.9Z"/></g></g></g></g></svg>