<svg xmlns="http://www.w3.org/2000/svg" viewBox="0 0 64.55 56.21"><defs><style>.cls-1{fill:#008d78;}</style></defs><title>Recurso 1</title><g id="Capa_2" data-name="Capa 2"><g id="Capa_1-2" data-name="Capa 1"><g id="Capa_2-2" data-name="Capa 2"><g id="Capa_1-2-2" data-name="Capa 1-2"><path class="cls-1" d="M0,16.31a18.73,18.73,0,0,1,1.84-5.88,16.75,16.75,0,0,1,14-9.31c6.69-.54,12,2.17,15.83,7.6.43.6.41.61.77,0A17,17,0,0,1,45,.14a17.32,17.32,0,0,1,5.13,34.25h-.32c-.51,0-.69.22-.57.77a16.87,16.87,0,0,1,.43,4A17.34,17.34,0,0,1,15.31,42a15,15,0,0,1-.07-5.71c.09-.49.07-.79-.57-.88A17.3,17.3,0,0,1,.07,20.64,2.17,2.17,0,0,0,0,20.4Zm58.14,1A11.15,11.15,0,0,0,58,15.23a10.72,10.72,0,1,0-20.21,6.64,1.57,1.57,0,0,0,1,.91,15.21,15.21,0,0,1,6.11,4.14A3.17,3.17,0,0,0,47.58,28a7.3,7.3,0,0,0,.94-.09,10.58,10.58,0,0,0,9.62-10.65ZM6.58,18.36a10.63,10.63,0,0,0,10.56,10.7h.35a1.09,1.09,0,0,0,1-.48,17.16,17.16,0,0,1,8.2-6.06,1.17,1.17,0,0,0,.8-.8A10.7,10.7,0,1,0,6.58,18.36ZM32.34,53.85a15,15,0,1,0-15-15,15,15,0,0,0,15,15ZM2.27,18.47a21.62,21.62,0,0,0,.15,2.17A15.06,15.06,0,0,0,14.23,33.08c1.7.33,1.69.32,2.32-1.26.14-.34.07-.45-.27-.5-.62-.08-1.26-.14-1.87-.28a12.9,12.9,0,0,1-9.88-15.2A12.28,12.28,0,0,1,14.19,5.77a12.35,12.35,0,0,1,13.14,4.39,12.46,12.46,0,0,1,2.63,11c-.09.47,0,.63.48.53a3.21,3.21,0,0,1,.88,0,.64.64,0,0,0,.74-.63,16,16,0,0,0,0-5A15,15,0,0,0,2.24,18.55Zm32.18-2.35c.06-.32.1-.53.13-.73a13.08,13.08,0,0,1,26,2.49,12.72,12.72,0,0,1-7.17,11A11.89,11.89,0,0,1,48,30.27c-.18,0-.61-.19-.44.33.55,1.66.72,1.78,2.44,1.48A15,15,0,0,0,45.34,2.45a14.56,14.56,0,0,0-11.76,9,1.24,1.24,0,0,0,0,1A17.15,17.15,0,0,1,34.45,16.12Z"/><path class="cls-1" d="M50.51,15.2a.93.93,0,0,1-1.17-.6v0a.76.76,0,0,0-.79-.42H46.39a.91.91,0,0,0-1,.93,1,1,0,0,0,1,1h2.15a3.33,3.33,0,0,1,3.32,3,3.29,3.29,0,0,1-2.61,3.55c-.46.1-.75.25-.67.77a.17.17,0,0,1,0,.07c-.44.66-1.11.19-1.66.31-.27,0-.59,0-.56-.4s-.26-.64-.7-.75a3.19,3.19,0,0,1-2.5-2.56c-.14-.63-.05-.73.62-.75h.82c.43,0,.76.06.92.55a.88.88,0,0,0,.91.55h2.09a1,1,0,0,0,0-2,24.9,24.9,0,0,1-2.59-.08,3.28,3.28,0,0,1-.21-6.43c.47-.1.71-.26.65-.77,0-.29.16-.41.43-.42h.88c.57,0,1,0,.94.78,0,.37.3.33.53.38a3.23,3.23,0,0,1,2.57,2.39c.24.81.14.92-.69.92Z"/><path class="cls-1" d="M12.86,18.32V14.47c0-.68.14-1.26.86-1.52a.43.43,0,0,0,.26-.46v-.37c.51-.57,1.17-.17,1.76-.27.31,0,.47.13.45.45s0,.58.47.58.49-.25.49-.58v-.12c.51-.69,1.23-.2,1.84-.32.36-.08.5.19.46.51a1,1,0,0,0,.63,1.08,3.2,3.2,0,0,1,1,4.41h0a.81.81,0,0,0,0,1,3.18,3.18,0,0,1-1,4.39l-.16.1a.88.88,0,0,0-.54.94c.07.5-.18.69-.66.66a6.61,6.61,0,0,0-.89,0c-.5,0-.83-.09-.78-.68,0-.32-.15-.44-.46-.44s-.5.11-.47.43c.07.6-.26.72-.76.69a5.61,5.61,0,0,0-.82,0c-.47,0-.73-.14-.67-.65a.46.46,0,0,0-.33-.53,1.3,1.3,0,0,1-.79-1.32Q12.88,20.38,12.86,18.32Zm4.2-3.11h-.51c-1.51,0-1.35-.31-1.36,1.45,0,.38.15.54.53.54h2.65a.9.9,0,0,0,.94-1,.94.94,0,0,0-.88-1h-.05C17.94,15.19,17.5,15.21,17.06,15.21Zm0,6.29h1.32a.91.91,0,0,0,1-.94.94.94,0,0,0-.88-1H15.67a.37.37,0,0,0-.43.3v0c-.26,1.36,0,1.64,1.31,1.64Z"/><path class="cls-1" d="M32.31,51.86a13,13,0,1,1,.08,0Zm0-2.32A10.7,10.7,0,1,0,21.65,38.8v0A10.65,10.65,0,0,0,32.23,49.54h.08Z"/><path class="cls-1" d="M28,42a2.32,2.32,0,0,1,.16-.68l3-10a2.63,2.63,0,0,1,.09-.3,1.14,1.14,0,0,1,1.13-.85,1.11,1.11,0,0,1,1.1.88c.42,1.36.83,2.74,1.24,4.11.62,2,1.22,4.11,1.85,6.16a1.82,1.82,0,0,1-.33,1.83c-1,1.21-1.85,2.45-2.77,3.68-.72,1-1.49,1-2.2,0-1-1.27-1.93-2.56-2.89-3.84A1.53,1.53,0,0,1,28,42Zm4.31-.63a3.39,3.39,0,0,0-1.33.92c-.22.3.24.57.41.84s.48.64.72,1,.32.3.52,0c.36-.5.73-1,1.1-1.47.07-.1.17-.19.12-.34A5.69,5.69,0,0,0,32.3,41.41Zm1.28-2-1.15-3.82h-.15l-1,3.55.11.16c.67-.73,1.33-.57,2.19.08Z"/></g></g></g></g></svg>