<svg xmlns="http://www.w3.org/2000/svg" viewBox="0 0 59.21 59.03"><defs><style>.cls-1{fill:#008d78;}</style></defs><title>Recurso 1</title><g id="Capa_2" data-name="Capa 2"><g id="Capa_1-2" data-name="Capa 1"><g id="Capa_2-2" data-name="Capa 2"><g id="Capa_1-2-2" data-name="Capa 1-2"><path class="cls-1" d="M28.46,0h2.31a2.07,2.07,0,0,0,.33.1A12.2,12.2,0,0,1,39.67,19c-.63.9-1.4,1.71-2.13,2.58l.23.09a16.19,16.19,0,0,1,5.94,3.44.87.87,0,0,0,.62.12,55,55,0,0,1,9.41-.83,1.77,1.77,0,0,1,2,1.94v4.79a.64.64,0,0,0,.42.69,6,6,0,0,1,1.3.85,5.46,5.46,0,0,1,1.75,3.16v4.85c0,.11-.08.21-.11.32a5.21,5.21,0,0,1-3,3.76.74.74,0,0,0-.31.56v4.62c0,1.54-.59,2.16-2.16,2.18a49.3,49.3,0,0,0-9.39,1,35.78,35.78,0,0,0-12.72,5.24,3,3,0,0,1-3.82,0,33.75,33.75,0,0,0-8.93-4.24,45.71,45.71,0,0,0-13.3-2,1.77,1.77,0,0,1-2-2V45.36A.67.67,0,0,0,3,44.63,4.65,4.65,0,0,1,.13,40.86a26.72,26.72,0,0,1,0-5.29,4.62,4.62,0,0,1,2.92-3.8.64.64,0,0,0,.42-.69V26.34a1.78,1.78,0,0,1,2-2,56.32,56.32,0,0,1,9.35.83.9.9,0,0,0,.66-.17,16,16,0,0,1,4-2.63c.71-.32,1.44-.59,2.38-1a2.8,2.8,0,0,1-.53-.32,11.9,11.9,0,0,1-3.64-6.71A12.18,12.18,0,0,1,25.47.8,29.77,29.77,0,0,1,28.46,0ZM7,27.89v3.48a.64.64,0,0,0,.33.38,5.16,5.16,0,0,1,3.12,4.91v3a5.17,5.17,0,0,1-3.15,5.06c-.12.06-.29.19-.29.29v3.65a43.54,43.54,0,0,1,20.89,5.68V34.39a.84.84,0,0,0-.33-.57A39.35,39.35,0,0,0,7,27.89ZM52.23,48.67V45.09c0-.13-.19-.3-.34-.37a5.17,5.17,0,0,1-3.1-4.87v-3A5.2,5.2,0,0,1,52,31.73c.12,0,.28-.19.28-.29V27.88a45.52,45.52,0,0,0-8.55,1,36.78,36.78,0,0,0-12,4.94.89.89,0,0,0-.3.65V54.31a43.67,43.67,0,0,1,20.88-5.64ZM29.65,20.91A8.72,8.72,0,1,0,21,12.17s0,.05,0,.08A8.69,8.69,0,0,0,29.65,20.91Zm9.94,5.43c-.07-.09-.1-.14-.14-.16l-.6-.36a12,12,0,0,0-5.75-1.48c-2.31,0-4.62-.06-6.93,0a18,18,0,0,0-3.41.49,8.77,8.77,0,0,0-3.14,1.51l.28.13a41.22,41.22,0,0,1,9.39,4.33c.33.21.53.08.77-.08a40.86,40.86,0,0,1,8.82-4.09A7.62,7.62,0,0,0,39.59,26.34ZM7,38.28V36.55a1.73,1.73,0,1,0-3.45,0V40A1.73,1.73,0,1,0,7,40Zm45.28,0V40a1.73,1.73,0,1,0,3.45,0V36.55a1.73,1.73,0,1,0-3.45,0c0,.53,0,1.11,0,1.68Z"/></g></g></g></g></svg>