<svg width="1244" height="238" viewBox="0 0 1244 238" fill="none" xmlns="http://www.w3.org/2000/svg">
<path d="M631.74 118.84C631.56 121.14 631.48 123.46 631.48 125.84C631.48 128.22 631.56 130.51 631.74 132.84C629.988 161.27 617.459 187.961 596.708 207.471C575.956 226.982 548.543 237.843 520.06 237.84C505.353 237.839 490.791 234.939 477.205 229.306C463.62 223.674 451.278 215.419 440.885 205.013C430.491 194.608 422.251 182.256 416.634 168.664C411.017 155.072 408.134 140.507 408.15 125.8C408.15 124.02 408.15 122.23 407.98 120.45H427.52C427.61 122.23 427.66 124.02 427.66 125.8C427.675 149.689 436.942 172.645 453.517 189.849C470.091 207.053 492.685 217.17 516.557 218.075C540.43 218.981 563.725 210.605 581.555 194.706C599.386 178.807 610.365 156.62 612.19 132.8C612.37 130.51 612.46 128.18 612.46 125.8C612.46 123.42 612.37 121.14 612.19 118.8C612.25 117.94 612.31 117.08 612.39 116.22H632C631.89 117.12 631.8 118 631.74 118.84Z" fill="#37CCAF"/>
<path d="M427.52 120.45H408C406.657 97.0382 396.462 75.0131 379.482 58.8389C362.502 42.6648 340.008 33.5517 316.559 33.347C293.109 33.1422 270.459 41.8611 253.2 57.7363C235.94 73.6115 225.362 95.4552 223.61 118.84C223.43 121.14 223.35 123.46 223.35 125.84H204.35C204.35 123.5 204.27 121.18 204.09 118.84C204.905 105.264 208.217 91.9547 213.86 79.58C222.763 59.9509 237.146 43.3105 255.279 31.6587C273.412 20.0069 294.524 13.8394 316.078 13.8975C337.632 13.9556 358.71 20.2368 376.78 31.9861C394.85 43.7355 409.143 60.4532 417.94 80.13C423.644 92.8466 426.895 106.527 427.52 120.45V120.45Z" fill="#008489"/>
<path d="M223.59 132.76C222.77 146.329 219.458 159.631 213.82 172C204.851 191.773 190.323 208.51 172.007 220.17C153.691 231.831 132.379 237.91 110.668 237.669C88.9566 237.427 67.7847 230.874 49.7331 218.809C31.6814 206.744 17.5297 189.687 9.00316 169.719C0.476571 149.751 -2.05659 127.734 1.71247 106.351C5.48154 84.9681 15.39 65.1436 30.23 49.2942C45.07 33.4448 64.2005 22.2551 85.2895 17.0891C106.378 11.9231 128.515 13.004 149 20.2L137.7 37.07C119.367 31.7417 99.8329 32.2233 81.7843 38.4485C63.7358 44.6737 48.0587 56.3369 36.9084 71.8344C25.7582 87.332 19.6823 105.903 19.5161 124.994C19.3499 144.086 25.1016 162.76 35.9804 178.449C46.8591 194.138 62.3308 206.073 80.2682 212.611C98.2057 219.149 117.728 219.971 136.151 214.963C154.575 209.954 170.994 199.362 183.153 184.642C195.311 169.922 202.612 151.798 204.05 132.76C204.23 130.47 204.31 128.14 204.31 125.76H223.31C223.33 128.14 223.41 130.47 223.59 132.76Z" fill="#37CCAF"/>
<path d="M1243.59 112C1243.6 128.117 1240.12 144.044 1233.38 158.688C1226.65 173.331 1216.83 186.343 1204.59 196.83H1168.31C1183.35 190.337 1196.39 179.963 1206.1 166.772C1215.8 153.581 1221.83 138.046 1223.56 121.758C1225.29 105.471 1222.66 89.0169 1215.94 74.0809C1209.22 59.1449 1198.65 46.2641 1185.31 36.7577C1171.97 27.2514 1156.35 21.4611 1140.03 19.9801C1123.72 18.499 1107.31 21.3804 1092.48 28.3291C1077.65 35.2778 1064.93 46.0441 1055.63 59.5252C1046.32 73.0062 1040.77 88.7176 1039.54 105.05C1039.36 107.34 1039.8 109.67 1039.8 112H1020.26C1020.26 109.67 1020.18 107.34 1020 105.05C1020.82 91.471 1024.13 78.1587 1029.77 65.78C1040.33 42.4855 1058.55 23.5107 1081.39 12.0151C1104.24 0.519507 1130.33 -2.8031 1155.33 2.60056C1180.33 8.00422 1202.72 21.808 1218.78 41.7134C1234.84 61.6188 1243.6 86.4246 1243.59 112V112Z" fill="#008489"/>
<path d="M835.4 116.26H815.81C813.436 93.5345 802.729 72.4938 785.753 57.1993C768.778 41.9047 746.739 33.4405 723.89 33.4405C701.041 33.4405 679.002 41.9047 662.027 57.1993C645.051 72.4938 634.344 93.5345 631.97 116.26H612.39C613.459 103.571 616.71 91.1625 622 79.58C630.903 59.9509 645.286 43.3105 663.419 31.6587C681.552 20.0069 702.664 13.8394 724.218 13.8975C745.772 13.9556 766.85 20.2368 784.92 31.9861C802.99 43.7355 817.283 60.4532 826.08 80.13C831.216 91.5567 834.368 103.775 835.4 116.26V116.26Z" fill="#008489"/>
<path d="M1020.13 127C1020.14 126.964 1020.14 126.926 1020.13 126.89C1020.23 125.12 1020.28 123.33 1020.28 121.54C1020.28 120.62 1020.28 119.7 1020.28 118.78V112H1039.82L1039.53 127.43L1039.47 130.26V130.33C1038.48 143.28 1035.21 155.954 1029.82 167.77C1019.25 191.055 1001.03 210.02 978.19 221.508C955.347 232.996 929.258 236.315 904.265 230.913C879.273 225.51 856.884 211.712 840.825 191.815C824.766 171.917 816.005 147.12 816 121.55C816 119.77 816 117.98 815.84 116.2H835.38C835.46 117.98 835.51 119.77 835.51 121.55C835.491 145.462 844.743 168.451 861.321 185.684C877.899 202.916 900.512 213.051 924.408 213.957C948.303 214.864 971.619 206.471 989.455 190.544C1007.29 174.617 1018.26 152.395 1020.05 128.55L1020.13 127Z" fill="#37CCAF"/>
</svg>
