<?xml version="1.0" encoding="utf-8"?>
<!-- Generator: Adobe Illustrator 21.0.0, SVG Export Plug-In . SVG Version: 6.00 Build 0)  -->
<svg version="1.1" id="Capa_1" xmlns="http://www.w3.org/2000/svg" xmlns:xlink="http://www.w3.org/1999/xlink" x="0px" y="0px"
	 viewBox="0 0 1304 681" style="enable-background:new 0 0 1304 681;" xml:space="preserve">
<style type="text/css">
	.st0{opacity:0.25;}
	.st1{fill:#EF5350;stroke:#EF5350;stroke-width:0.81;}
	.st2{fill:#8DC647;stroke:#8DC647;stroke-width:0.81;}
</style>
<title>velas</title>
<g id="Capa_2">
	<g id="Capa_1-2">
		<g class="st0">
			<path class="st1" d="M3.9,668.3v-8.8h17.3v8.8H3.9z M12.5,659.5L12.5,659.5 M12.5,668.3v2.6"/>
			<path class="st2" d="M31.2,652.5v-5.2h17.3v5.3L31.2,652.5z M39.8,647.2L39.8,647.2 M39.8,652.5L39.8,652.5"/>
			<path class="st1" d="M58.5,652.5v-7h17.3v7H58.5z M67.1,645.5L67.1,645.5 M67.1,652.5v2.6"/>
			<path class="st2" d="M85.8,647.2V418.9h17.3v228.3H85.8z M94.4,418.9L94.4,418.9 M94.4,647.2L94.4,647.2"/>
			<path class="st1" d="M113.1,473.3V461h17.3v12.3H113.1z M121.7,461L121.7,461 M121.7,473.3v0.9"/>
			<path class="st1" d="M140.4,503.2v-68.5h17.3v68.5H140.4z M149,434.7L149,434.7 M149,503.2v16.7"/>
			<path class="st1" d="M167.7,545.3v-10.5H185v10.5L167.7,545.3z M176.4,534.8L176.4,534.8 M176.4,545.3v27.2"/>
			<path class="st2" d="M195,582.2v-10.5h17.3v10.5H195z M203.6,571.7L203.6,571.7 M203.6,582.2v29"/>
			<path class="st1" d="M222.3,575.2v-3.5h17.3v3.5H222.3z M230.9,571.7v-6.1 M230.9,575.2L230.9,575.2"/>
			<path class="st2" d="M249.5,577v-17.6h17.3V577H249.5z M258.2,559.4L258.2,559.4 M258.2,577v0.9"/>
			<path class="st1" d="M276.8,564.7v-10.5h17.3v10.5H276.8z M285.5,554.1L285.5,554.1 M285.5,564.7L285.5,564.7"/>
			<path class="st1" d="M304.1,548.9v-1.8h17.3v1.8H304.1z M312.8,547.1L312.8,547.1 M312.8,548.9v4.3"/>
			<path class="st2" d="M331.4,531.3v-15.8h17.3v15.8H331.4z M340.1,515.5L340.1,515.5 M340.1,531.3v20.2"/>
			<path class="st2" d="M358.7,513.7v-3.5H376v3.5H358.7z M367.4,510.2v-7.9 M367.4,513.7v11.4"/>
			<path class="st1" d="M386,540.1v-29.9h17.3v29.9H386z M394.6,510.2L394.6,510.2 M394.6,540.1v2.6"/>
			<path class="st2" d="M413.3,524.3v-35.1h17.3v35.1H413.3z M422,489.1L422,489.1 M422,524.3L422,524.3"/>
			<path class="st1" d="M440.6,480.4V440h17.3v40.4H440.6z M449.3,440L449.3,440 M449.3,480.4L449.3,480.4"/>
			<path class="st1" d="M467.9,455.8V454h17.3v1.8H467.9z M476.5,454v-6.1 M476.5,455.8L476.5,455.8"/>
			<path class="st2" d="M495.2,457.5v-21.1h17.3v21.1L495.2,457.5z M503.8,436.4v-14.9 M503.8,457.5L503.8,457.5"/>
			<path class="st2" d="M522.5,429.4v-22.8h17.3v22.8H522.5z M531.1,406.6L531.1,406.6 M531.1,429.4v11.4"/>
			<path class="st1" d="M549.8,527.8v-43.9h17.3v43.9H549.8z M558.4,483.9L558.4,483.9 M558.4,527.8L558.4,527.8"/>
			<path class="st2" d="M577.1,499.7v-5.3h17.3v5.3H577.1z M585.7,494.4L585.7,494.4 M585.7,499.7v6.1"/>
			<path class="st1" d="M604.4,504.9v-19.3h17.3v19.3H604.4z M613,485.6L613,485.6 M613,504.9v7.9"/>
			<path class="st1" d="M631.7,548.9v-38.7h17.3v38.7H631.7z M640.3,510.3L640.3,510.3 M640.3,548.9v34.3"/>
			<path class="st1" d="M658.9,541.8v-12.3h17.3v12.3H658.9z M667.6,529.5L667.6,529.5 M667.6,541.8L667.6,541.8"/>
			<path class="st1" d="M686.2,561.1v-7h17.3v7H686.2z M694.9,554.1L694.9,554.1 M694.9,561.1v7.9"/>
			<path class="st2" d="M713.5,561.1v-26.3h17.3v26.3L713.5,561.1z M722.2,534.8v-2.6 M722.2,561.1L722.2,561.1"/>
			<path class="st2" d="M740.8,534.9v-17.6h17.3v17.6H740.8z M749.5,517.3L749.5,517.3 M749.5,534.9v2.6"/>
			<path class="st2" d="M768.1,522.5V519h17.3v3.5H768.1z M776.8,519v-16.7 M776.8,522.5L776.8,522.5"/>
			<path class="st2" d="M795.4,510.2v-8.8h17.3v8.8H795.4z M804.1,501.4L804.1,501.4 M804.1,510.2v13.2"/>
			<path class="st2" d="M822.7,485.6v-14H840v14H822.7z M831.4,471.6v-14.9 M831.4,485.6L831.4,485.6"/>
			<path class="st2" d="M850,429.4v-21.1h17.3v21.1H850z M858.7,408.3v-9.6 M858.7,429.5L858.7,429.5"/>
			<path class="st2" d="M877.3,380.2v-31.6h17.3v31.6H877.3z M885.9,348.6v-44.8 M885.9,380.2L885.9,380.2"/>
			<path class="st2" d="M904.6,392.5V317h17.3v75.5H904.6z M913.3,317v-34.2 M913.3,392.5L913.3,392.5"/>
			<path class="st2" d="M931.9,301.2v-29.9h17.3v29.9H931.9z M940.5,271.4L940.5,271.4 M940.5,301.2L940.5,301.2"/>
			<path class="st1" d="M959.2,281.9v-22.8h17.3v22.8H959.2z M967.8,259.1L967.8,259.1 M967.8,281.9v6.1"/>
			<path class="st2" d="M986.5,243.2v-79h17.3v79L986.5,243.2z M995.1,164.2v-62.3 M995.1,243.2L995.1,243.2"/>
			<path class="st2" d="M1013.8,134.4V83.4h17.3v50.9H1013.8z M1022.4,83.4L1022.4,83.4 M1022.4,134.4v27.2"/>
			<path class="st1" d="M1041.1,190.6V32.5h17.3v158.1H1041.1z M1049.7,32.5L1049.7,32.5 M1049.7,190.6L1049.7,190.6"/>
			<path class="st1" d="M1068.4,158.9v-33.4h17.3v33.4H1068.4z M1077,125.6V63.2 M1077,158.9L1077,158.9"/>
			<path class="st1" d="M1095.7,141.4V115h17.3v26.3H1095.7z M1104.3,115V5.3 M1104.3,141.4L1104.3,141.4"/>
			<path class="st2" d="M1122.9,134.4v-65h17.3v65H1122.9z M1131.6,69.4L1131.6,69.4 M1131.6,134.4L1131.6,134.4"/>
			<path class="st1" d="M1150.2,60.6V27.2h17.3v33.4H1150.2z M1158.9,27.2V0 M1158.9,60.6L1158.9,60.6"/>
			<path class="st1" d="M1177.5,174.8V99.2h17.3v75.5H1177.5z M1186.2,99.2L1186.2,99.2 M1186.2,174.8L1186.2,174.8"/>
			<path class="st1" d="M1204.8,246.8v-63.2h17.3v63.2H1204.8z M1213.5,183.5v-22 M1213.5,246.8L1213.5,246.8"/>
			<path class="st2" d="M1232.1,216.9v-3.5h17.3v3.5H1232.1z M1240.8,213.4v-6.1 M1240.8,216.9v48.3"/>
			<path class="st1" d="M1259.4,195.8v-19.3h17.3v19.3H1259.4z M1268.1,176.5L1268.1,176.5 M1268.1,195.8v-0.9"/>
			<path class="st1" d="M1286.7,204.6v-1.8h17.3v1.8H1286.7z M1295.3,202.9L1295.3,202.9 M1295.3,204.6L1295.3,204.6"/>
		</g>
	</g>
</g>
</svg>
