<svg xmlns="http://www.w3.org/2000/svg" viewBox="0 0 55.73 56.46"><defs><style>.cls-1{fill:#008d78;}.cls-2{fill:#fff;}</style></defs><title>Recurso 1</title><g id="Capa_2" data-name="Capa 2"><g id="Capa_1-2" data-name="Capa 1"><g id="Capa_2-2" data-name="Capa 2"><g id="Capa_1-2-2" data-name="Capa 1-2"><path class="cls-1" d="M55.73,36.45,44.16,47.55l-6.47,6.27c-3,2.92-2,2.7-5.9,2.59l-7.44-.22A4.08,4.08,0,0,1,21.93,55L1.73,34.61C.4,32.91-.21,32.51.07,30.14l1-7.92c.47-3.89.16-3,3.11-5.85l5.12-5L21,0,35.58,3.35,50.4,6.5l.76,3.76,2.61,14.33Z"/><polygon class="cls-2" points="46.51 21.41 47.73 31.96 27.11 52.12 4.36 28.85 23.82 9.83 33.79 11.98 17.49 27.82 20.44 30.54 29.07 22.14 34.46 27.4 25.7 36.08 28.47 39.05 46.51 21.41"/><path class="cls-2" d="M28,19.82l8.39-1.37a1.67,1.67,0,0,1,1.5.27,1.65,1.65,0,0,1,.33,1.5l-1.11,8.35-2.1-2,.79-5.7-5.68,1Z"/></g></g></g></g></svg>