<svg xmlns="http://www.w3.org/2000/svg" viewBox="0 0 26.08 25.91"><defs><style>.cls-1{fill:#08907a;}</style></defs><title>facebook</title><g id="Capa_2" data-name="Capa 2"><g id="File_Info" data-name="File Info"><path class="cls-1" d="M14,25.89H13c-2.33,0-4.65,0-7,0A5.81,5.81,0,0,1,.14,21a6.11,6.11,0,0,1-.06-.86Q0,12.95,0,5.76A5.74,5.74,0,0,1,4.77.1,6.85,6.85,0,0,1,6,0H17.85c.81,0,1.63,0,2.45,0A5.79,5.79,0,0,1,26,4.74a5.12,5.12,0,0,1,.09,1q0,7.25,0,14.5a5.74,5.74,0,0,1-3.49,5.15,6,6,0,0,1-2.48.47c-.52,0-1,0-1.55,0l-.46,0V16h3.31l.51-4-3.85,0c0-.19,0-.33,0-.47,0-.69,0-1.38,0-2.07,0-.11,0-.23,0-.34a1.45,1.45,0,0,1,1.53-1.44c.57,0,1.14,0,1.72,0H22c0-1.19,0-2.33,0-3.53A10.48,10.48,0,0,0,20.93,4C20,4,19.06,4,18.14,4a4.35,4.35,0,0,0-2.32.85A4.43,4.43,0,0,0,14,8.06C14,8.87,14,9.69,14,10.51c0,.47,0,.94,0,1.46H10.68a23.56,23.56,0,0,0,0,4c.54,0,1.09,0,1.64,0H14C14,19.29,14,22.56,14,25.89Z"/></g></g></svg>