<svg xmlns="http://www.w3.org/2000/svg" viewBox="0 0 26.05 25.95"><defs><style>.cls-1{fill:#08907a;}</style></defs><title>Recurso 19</title><g id="Capa_2" data-name="Capa 2"><g id="File_Info" data-name="File Info"><path class="cls-1" d="M16.54,9.32c-.31.18-.6.38-.9.56L7.92,14.72a.24.24,0,0,0-.11.33c.41,1.24.81,2.49,1.22,3.73a2.34,2.34,0,0,0,.22.58c.12-1,.23-2,.33-3a.55.55,0,0,1,.2-.39c.27-.23.54-.48.81-.72l1.5-1.35L16.8,9.68c.11-.1.3-.22.16-.41S16.66,9.25,16.54,9.32Z"/><path class="cls-1" d="M20.43,0Q13.11,0,5.8.06A5.77,5.77,0,0,0,0,5.77Q0,13,0,20.32a5.46,5.46,0,0,0,2.16,4.36A6,6,0,0,0,6.07,26H13v0h.3c2.37,0,4.74,0,7.1,0A5.75,5.75,0,0,0,26,20.12c0-1.7,0-3.39,0-5.08,0-3.13,0-6.26,0-9.38A5.7,5.7,0,0,0,20.43,0Zm-.7,8.9c-.33,1.67-.67,3.34-1,5l-1.23,6a5.17,5.17,0,0,1-.11.54A.85.85,0,0,1,16,21c-.54-.37-1.07-.78-1.6-1.17l-2.13-1.57c-.3-.23-.3-.22-.57,0-.58.56-1.16,1.12-1.75,1.67a1,1,0,0,1-.64.34.51.51,0,0,1-.51-.29A5.28,5.28,0,0,1,8.37,19C8,17.73,7.56,16.5,7.16,15.27A.3.3,0,0,0,7,15.06l-3.16-1-.6-.2a.56.56,0,0,1-.4-.49.62.62,0,0,1,.29-.59,1.59,1.59,0,0,1,.37-.18l8-3,7.5-2.85.11,0c.59-.19,1,.1,1,.81C20,7.93,19.83,8.41,19.73,8.9Z"/></g></g></svg>