<svg xmlns="http://www.w3.org/2000/svg" viewBox="0 0 25.98 25.86"><defs><style>.cls-1{fill:#08907a;}</style></defs><title>twitter</title><g id="Capa_2" data-name="Capa 2"><g id="File_Info" data-name="File Info"><path class="cls-1" d="M13,25.86H5.74A5.74,5.74,0,0,1,0,20.26Q0,12.94,0,5.63A5.76,5.76,0,0,1,5.72,0C10.49,0,15.25,0,20,0a5.8,5.8,0,0,1,4.13,1.53A5.58,5.58,0,0,1,26,5.7c0,3.21,0,6.43,0,9.64,0,1.58,0,3.15,0,4.73a5.78,5.78,0,0,1-5.81,5.78c-2.39,0-4.79,0-7.18,0ZM21.58,6.34l-.42.2-1.37.52A.7.7,0,0,1,19,6.9,3.59,3.59,0,0,0,14,7.28a3.55,3.55,0,0,0-.87,2.63c0,.16,0,.33,0,.52a10.3,10.3,0,0,1-4-1.1A11.21,11.21,0,0,1,5.79,6.72a3.15,3.15,0,0,0-.5,1.76,3.66,3.66,0,0,0,1.44,3,3.89,3.89,0,0,1-1.48-.37,3.71,3.71,0,0,0,2.6,3.53l0,.08H6.53a3.41,3.41,0,0,0,1.2,1.74,4,4,0,0,0,2,.78,7.52,7.52,0,0,1-5.08,1.49.78.78,0,0,0,.21.17,10.18,10.18,0,0,0,6.76,1.29,9.6,9.6,0,0,0,6.4-3.67A10.46,10.46,0,0,0,20.32,10a.74.74,0,0,1,.29-.62c.44-.4.84-.85,1.26-1.29A1.94,1.94,0,0,0,22,7.76a6.7,6.7,0,0,1-1.8.45A3.64,3.64,0,0,0,21.58,6.34Z"/></g></g></svg>