<svg xmlns="http://www.w3.org/2000/svg" viewBox="0 0 26.05 25.95"><defs><style>.cls-1{fill:#08907a;}</style></defs><title>youtube</title><g id="Capa_2" data-name="Capa 2"><g id="File_Info" data-name="File Info"><path class="cls-1" d="M13,26H6.07a6,6,0,0,1-3.89-1.27A5.46,5.46,0,0,1,0,20.32Q0,13,0,5.77A5.77,5.77,0,0,1,5.8.06Q13.11,0,20.43,0a5.72,5.72,0,0,1,5.62,5.66c0,3.12,0,6.25,0,9.38,0,1.69,0,3.38,0,5.08a5.75,5.75,0,0,1-5.62,5.76c-2.36.06-4.73,0-7.1,0H13Zm0-6.86V19c.58,0,1.17,0,1.76,0,1.49-.06,3-.11,4.47-.19a2.19,2.19,0,0,0,2.12-1.7,4.91,4.91,0,0,0,.17-.76,30.89,30.89,0,0,0,0-6.52,8.22,8.22,0,0,0-.37-1.54,1.62,1.62,0,0,0-.69-.86A2.48,2.48,0,0,0,19.23,7c-.83,0-1.66-.11-2.49-.11-2.42,0-4.85,0-7.27,0-1,0-1.89.07-2.83.17a2.06,2.06,0,0,0-1.86,1.5,6.05,6.05,0,0,0-.24,1,30.89,30.89,0,0,0,0,6.66,5.6,5.6,0,0,0,.35,1.32,1.77,1.77,0,0,0,1.32,1.13,6.71,6.71,0,0,0,1.27.19C9.31,19,11.16,19,13,19.09Z"/><path class="cls-1" d="M15.77,12.86l-4.41,2.4a33,33,0,0,1,0-4.69Z"/></g></g></svg>