<svg xmlns="http://www.w3.org/2000/svg" viewBox="0 0 49.92 64.08"><defs><style>.cls-1{fill:#008d78;}.cls-2{fill:#30766c;}</style></defs><title>Recurso 9</title><g id="Capa_2" data-name="Capa 2"><g id="Capa_1-2" data-name="Capa 1"><g id="Capa_2-2" data-name="Capa 2"><g id="Capa_1-2-2" data-name="Capa 1-2"><path class="cls-1" d="M4.39,51.48a1.38,1.38,0,0,1-1.45-1.25V47.7a1.36,1.36,0,0,1,1.44-1.28h0a1.37,1.37,0,0,1,1.46,1.27V50.2A1.38,1.38,0,0,1,4.4,51.48h0m41.12-.19A1.38,1.38,0,0,1,44.06,50V47.5a1.47,1.47,0,0,1,2.91,0V50a1.38,1.38,0,0,1-1.45,1.25m-22,9.31a41.27,41.27,0,0,0-17.63-4V53.93c0-.07.15-.17.25-.21A3.77,3.77,0,0,0,8.77,50V47.81a3.8,3.8,0,0,0-2.65-3.58.39.39,0,0,1-.29-.28V41.41A37.11,37.11,0,0,1,23.2,45.64a.59.59,0,0,1,.29.41q.06,7.19.1,14.34v.24m3,0v-.36c0-4.71-.06-9.43-.08-14.13a.6.6,0,0,1,.26-.48A33.8,33.8,0,0,1,36.9,42a43.71,43.71,0,0,1,7.21-.75v2.6c0,.07-.14.18-.24.21a3.79,3.79,0,0,0-2.74,3.72V50a3.78,3.78,0,0,0,2.64,3.54.37.37,0,0,1,.28.27V56.4a41.29,41.29,0,0,0-17.53,4.18m.79-21.87h.52a11.34,11.34,0,0,1,4.86,1.07,4.66,4.66,0,0,1,.5.25l.13.12-.61.19a36.48,36.48,0,0,0-7.41,3,.82.82,0,0,1-.39.13.56.56,0,0,1-.26-.07,37.61,37.61,0,0,0-8-3.14l-.24-.08a8,8,0,0,1,2.65-1.08A18.47,18.47,0,0,1,22,38.73h5.31m-2.47-2.52c-4,0-7.28-2.82-7.31-6.28s3.24-6.43,7.25-6.46h.07c4,0,7.26,2.84,7.3,6.35s-3.23,6.36-7.25,6.39h-.06m.92-15.28h-2c-.85.19-1.72.32-2.53.58-4.65,1.49-7.39,5.7-6.5,9.92a8.55,8.55,0,0,0,3.16,5,2.29,2.29,0,0,0,.45.23c-.78.29-1.4.48-2,.72A13.9,13.9,0,0,0,13,39.32a.8.8,0,0,1-.45.13h0a54.83,54.83,0,0,0-7.9-.57q-1.71,0-1.71,1.47v3.46a.46.46,0,0,1-.36.5,3.49,3.49,0,0,0-2.44,2.8A16.61,16.61,0,0,0,.11,51a3.47,3.47,0,0,0,2.45,2.74.51.51,0,0,1,.38.54v3.46c0,.93.57,1.42,1.66,1.43a44.12,44.12,0,0,1,11.23,1.38,30.66,30.66,0,0,1,7.55,3.06,2.84,2.84,0,0,0,3.22,0A32.74,32.74,0,0,1,37.26,59.7,48.61,48.61,0,0,1,45.18,59c1.33,0,1.81-.46,1.81-1.6V54a.52.52,0,0,1,.26-.41,3.94,3.94,0,0,0,2.57-2.78c0-.08.07-.15.1-.23V47a4,4,0,0,0-1.49-2.3,5.62,5.62,0,0,0-1.1-.61C47,44,47,43.84,47,43.59V40.08c0-.91-.59-1.41-1.64-1.41h0a54,54,0,0,0-7.94.65h-.13a.7.7,0,0,1-.4-.1,14.5,14.5,0,0,0-5-2.49l-.19-.06c.6-.64,1.25-1.23,1.78-1.9A8.07,8.07,0,0,0,32,23.45l-.13-.1A11,11,0,0,0,26.12,21a.83.83,0,0,1-.27-.07"/><path class="cls-1" d="M25.79,0a.75.75,0,0,0-.3.08L22,1.68l-8.83,4.1c-.79.37-1.59.72-2.38,1.08V7l.84.37,13.85,6.28a.77.77,0,0,0,.28.07.87.87,0,0,0,.29-.07L38.8,7.78a.21.21,0,0,0,.25-.16H29.28a.34.34,0,0,0-.32.17,2.36,2.36,0,0,1-.58.6,4.44,4.44,0,0,1-2.54.74,5.1,5.1,0,0,1-2.4-.59,1.8,1.8,0,0,1,0-3.32,4.73,4.73,0,0,1,2.32-.58h.73a3.42,3.42,0,0,1,2.42,1.22.54.54,0,0,0,.52.24h9.46a.29.29,0,0,0,.16,0A.22.22,0,0,0,38.89,6l-3-1.36L26.11.09A.79.79,0,0,0,25.79,0"/><path class="cls-2" d="M40.7,22.07h-.13l-.27.15a4.71,4.71,0,0,1-2.16.52H38a4.64,4.64,0,0,1-2.27-.64.43.43,0,0,0-.17-.07c-.07,0-.1.07-.1.2v3.63h5.26V22.18c0-.1,0-.15-.08-.15"/><path class="cls-1" d="M35.43,11a.32.32,0,0,0-.16,0l-9,4.13a1,1,0,0,1-.43.11,1,1,0,0,1-.38-.09l-9-4.15h-.17c-.08,0-.11.07-.11.21v3.44a.38.38,0,0,0,.24.37l9.23,4.79a.42.42,0,0,0,.21.06.45.45,0,0,0,.21-.06L35.31,15a.36.36,0,0,0,.23-.35V11.21c0-.13,0-.19-.1-.19"/><path class="cls-2" d="M39,9.41a.55.55,0,0,0-.21.07c-.39.17-.77.37-1.16.53a.45.45,0,0,0-.35.48v6.07A.39.39,0,0,1,37,17a2.24,2.24,0,0,0-1.43,1.81,2.12,2.12,0,0,0,1.19,2.12,3,3,0,0,0,1.46.37,2.69,2.69,0,0,0,2.26-1.1,2.14,2.14,0,0,0-1.11-3.25.37.37,0,0,1-.27-.39V9.64c0-.16,0-.23-.08-.23"/><path class="cls-1" d="M25.88,6.09h-.14a2.6,2.6,0,0,0-1.38.34c-.44.28-.44.58,0,.86a3.08,3.08,0,0,0,2.89,0c.44-.27.44-.59,0-.87a2.56,2.56,0,0,0-1.34-.33"/></g></g></g></g></svg>