<svg xmlns="http://www.w3.org/2000/svg" viewBox="0 0 70.12 60.22"><defs><style>.cls-1{fill:#008d78;}.cls-2{fill:#fff;}</style></defs><title>Recurso 5</title><g id="Capa_2" data-name="Capa 2"><g id="Capa_1-2" data-name="Capa 1"><g id="Capa_2-2" data-name="Capa 2"><g id="Capa_1-2-2" data-name="Capa 1-2"><path class="cls-1" d="M29.21,35.79a23.87,23.87,0,0,0-10.64,2.78.93.93,0,0,0-.6.94V49.79c0,.48.14.7.5.7a1.53,1.53,0,0,0,.47-.08c1.35-.38,2.74-.68,4.08-1.1a5.46,5.46,0,0,1,1.66-.26,6.83,6.83,0,0,1,3,.75,32.46,32.46,0,0,0,7.16,2.71c3,.65,6,.9,9.06,1.32a5.16,5.16,0,0,0,.79,0,6,6,0,0,0,1.51-.19,86,86,0,0,0,9.25-2.83c4.68-1.82,8.87-4.39,13.22-6.72A3,3,0,0,0,69.82,43c.86-1.5-.24-3-2.17-3.12h-.17a8.27,8.27,0,0,0-2.58.57,1.36,1.36,0,0,1-.43.14.44.44,0,0,1-.34-.19,2.42,2.42,0,0,0-2-1,4.08,4.08,0,0,0-1.28.24,2.51,2.51,0,0,1-.74.17.8.8,0,0,1-.72-.48c-.19-.32-.65-.41-1.07-.5a3.53,3.53,0,0,0-.79-.08,5.46,5.46,0,0,0-2.07.45c-1.62.68-3.22,1.42-4.83,2.14-.16.08-.37.12-.34.31s.25.21.4.27a6.7,6.7,0,0,1,1.86.91,2.64,2.64,0,0,1,1,3.28,3,3,0,0,1-2.88,2c-2,0-3.93.19-5.91.19h-1.4A20.17,20.17,0,0,1,36.72,47a5.94,5.94,0,0,1-3.4-3.48L34.4,44a21.9,21.9,0,0,0,6.54,2.39,31.1,31.1,0,0,0,4.52.29c1.63,0,3.28-.08,4.91-.14a1.43,1.43,0,0,0,1.26-2.26,2.34,2.34,0,0,0-1.47-1.07,18.21,18.21,0,0,0-3.38-.66,12.15,12.15,0,0,1-6.86-2.65,18,18,0,0,0-4.08-2.6,15.2,15.2,0,0,0-6.56-1.53H29.2"/><path class="cls-1" d="M6.63,53.58h0a2,2,0,0,1-2-1.77A2.07,2.07,0,0,1,6.74,50a1.81,1.81,0,1,1,0,3.6m7.59-18.21a2.15,2.15,0,0,0-.43,0c-4.27.71-8.52,1.46-12.78,2.16C.27,37.66,0,38,0,38.66V59.44c0,.56.06.78.37.78A2.56,2.56,0,0,0,1,60.08c.79-.23,1.57-.49,2.35-.73L14.15,56c.78-.24,1.39-.57,1.39-1.39V36.56a1.14,1.14,0,0,0-1-1.23h-.23"/><path class="cls-1" d="M50.66,32.63l-.32-.53.59-1L49.59,31l-.33-.53,2,.26a.33.33,0,0,1,.31.14.3.3,0,0,1,0,.31l-.86,1.55m-3.94,3.93-3.39-5.93,5.72-2.45,2.07,1-4.79,2,.46.7,2.54-1.08.82,1.36-2.58,1.13.4.74,5.31-2.27L52.84,34l-6.07,2.6m1.35-11.05c-4.26,0-7.77,3-7.8,6.64s3.54,6.77,7.75,6.77h0c4.22,0,7.73-3,7.75-6.7s-3.46-6.71-7.7-6.71"/><path class="cls-1" d="M38.36,20.82l-.3-.47.53-1-1.2-.14-.29-.46,1.77.23a.33.33,0,0,1,.28.13v.28l-.76,1.38m-3.55,3.53-3-5.32L37,16.82l1.86.93-4.31,1.84.42.64,2.28-1L38,20.44l-2.33,1,.37.67,4.76-2L40.33,22l-5.49,2.34m1.42-9.76h0c-3.81,0-6.91,2.71-6.92,6s3.19,6,6.89,6h0c3.77,0,7-2.72,7-6s-3.12-6-7-6"/><path class="cls-1" d="M53.36,15l-.29-.46.53-1-1.2-.13-.3-.47,1.77.23c.16,0,.25,0,.29.13s0,.15,0,.28l-.77,1.38m-3.55,3.57-3-5.32L52,11l1.86.94-4.3,1.83.41.64,2.28-1L53,14.6l-2.32,1,.36.67,4.76-2-.43,1.9-5.5,2.39m.88-9.27c-3.49,0-6.36,2.45-6.41,5.48s2.89,5.53,6.36,5.54,6.41-2.45,6.45-5.53-2.92-5.49-6.4-5.49"/><path class="cls-1" d="M43,5l-.24-.39.44-.8-1-.12L42,3.27l1.5.18a.35.35,0,0,1,.25.12.27.27,0,0,1,0,.24L43.06,5m-3,3L37.44,3.51l4.34-1.87,1.58.8L39.72,4l.35.54L42,3.7l.63,1-2,.86.3.56,4-1.72L44.54,6l-4.6,2m1.2-8h0c-3,0-5.5,2.2-5.52,4.79s2.52,4.83,5.56,4.83,5.55-2.16,5.55-4.82S44.21,0,41.17,0"/><polyline class="cls-2" points="49.05 28.18 43.33 30.63 46.72 36.56 52.78 33.96 53.28 31.84 47.97 34.11 47.57 33.37 50.15 32.24 49.33 30.88 46.79 31.96 46.33 31.26 51.12 29.22 49.05 28.18"/><path class="cls-2" d="M49.26,30.37l.33.53,1.34.15-.59,1,.32.53L51.52,31a.3.3,0,0,0,0-.31c0-.08-.15-.13-.31-.14l-2-.26"/><polyline class="cls-2" points="36.9 16.82 31.76 19.03 34.81 24.35 40.25 22.01 40.7 20.11 35.93 22.16 35.56 21.49 37.89 20.47 37.15 19.26 34.87 20.23 34.45 19.59 38.76 17.76 36.9 16.82"/><path class="cls-2" d="M37.1,18.8l.29.46,1.2.14-.53,1,.3.47.76-1.38c.06-.13.08-.22,0-.28a.33.33,0,0,0-.28-.13l-1.77-.23"/><polyline class="cls-2" points="51.9 10.98 46.77 13.19 49.81 18.51 55.27 16.17 55.7 14.27 50.94 16.32 50.58 15.65 52.9 14.63 52.16 13.42 49.88 14.39 49.47 13.75 53.77 11.92 51.9 10.98"/><path class="cls-2" d="M52.1,13l.3.47,1.2.13-.53,1,.29.46.77-1.38c.07-.13.08-.22,0-.28a.44.44,0,0,0-.29-.13L52.07,13"/><polyline class="cls-2" points="41.78 1.59 37.44 3.46 40.01 7.96 44.61 5.98 44.99 4.38 40.96 6.1 40.66 5.54 42.62 4.68 41.99 3.65 40.07 4.48 39.72 3.94 43.36 2.39 41.78 1.59"/><path class="cls-2" d="M41.94,3.27l.25.39,1,.12-.44.8L43,5l.65-1.16a.27.27,0,0,0,0-.24.35.35,0,0,0-.25-.12l-1.5-.18"/></g></g></g></g></svg>