<svg xmlns="http://www.w3.org/2000/svg" viewBox="0 0 71.43 50.75"><defs><style>.cls-1{fill:#008d78;}</style></defs><title>Recurso 6</title><g id="Capa_2" data-name="Capa 2"><g id="Capa_1-2" data-name="Capa 1"><g id="Capa_2-2" data-name="Capa 2"><g id="Capa_1-2-2" data-name="Capa 1-2"><path class="cls-1" d="M24.89,45.54c-.37,0-.37,0-.37-.31v-6c0-.19,0-.26.26-.26H38.6c.24,0,.3.06.3.26v6.06c0,.22-.12.24-.33.24H24.89m32.64,4.23h-.24c-6.92-.1-12.59-5-12.52-11.06.06-6.23,5.94-11,12.72-11h.25c7.24.1,12.82,5.43,12.49,11.52-.33,5.94-6,10.49-12.7,10.49M6.82,33.35c-.42,0-.5-.07-.5-.44V6.13c0-.46.06-.51.59-.51H56.6c.23,0,.36.11.37.32V26.42c0,.35,0,.35-.4.38q-7.32.57-11.09,6a1.18,1.18,0,0,1-1.15.58H6.82M2.94,37.89a1.62,1.62,0,0,1-1.73-1.05,1,1,0,0,1,0-.33q0-17,0-34A1.52,1.52,0,0,1,2.75,1.08H60.28c1.17,0,1.83.58,1.83,1.59V27.09c0,.19,0,.26-.08.26l-.25-.05a13.94,13.94,0,0,0-3.29-.52c-.29,0-.34-.1-.34-.34V6.27c0-1.12-.65-1.68-1.93-1.68H6.54A1.37,1.37,0,0,0,5.15,5.87V33a1.33,1.33,0,0,0,1.2,1.36,1.93,1.93,0,0,0,.41,0H44.52c-.14.39-.28.76-.41,1.13a8.11,8.11,0,0,0-.45,2.11c0,.2-.1.26-.32.26H2.94M60.21,0H2.54A2.6,2.6,0,0,0,0,2.34V36.55a1.21,1.21,0,0,0,0,.19,2.75,2.75,0,0,0,3,2.13H23c.24,0,.34,0,.34.27v6.07c0,.2-.07.25-.29.25H15.48a.58.58,0,0,0-.57.31c-.16.32.19.72.65.72h28.2a.52.52,0,0,0,.58-.53c0-.32-.22-.48-.61-.48H40.32c-.2,0-.28,0-.28-.22V39.1c0-.15,0-.21.21-.21h3.13c.16,0,.24,0,.23.18a5.67,5.67,0,0,0,.09,1.16A10.3,10.3,0,0,0,45,44a12.17,12.17,0,0,0,3.21,3.68,13.93,13.93,0,0,0,3.45,2,15.39,15.39,0,0,0,5.83,1.12H58a16.82,16.82,0,0,0,3.26-.43,14.2,14.2,0,0,0,6.45-3.4,11.83,11.83,0,0,0,2.61-3.45,10.47,10.47,0,0,0,1.12-4.28,10.77,10.77,0,0,0-.09-1.88A10.64,10.64,0,0,0,70,33.44a12.36,12.36,0,0,0-3.22-3.6,14,14,0,0,0-3.33-1.91c-.17-.08-.22-.16-.21-.31V2.46A2.18,2.18,0,0,0,62.42.77a3.33,3.33,0,0,0-2.21-.7"/><path class="cls-1" d="M52.76,9.09a1.05,1.05,0,0,0-.33.06l-6.51,2.59-.32.1a.46.46,0,0,0-.19.59.59.59,0,0,0,.52.31H46l.35-.11,3.23-1.29,1.5-.59A.36.36,0,0,1,51,11c-1.37,1.89-2.74,3.76-4.11,5.64a.46.46,0,0,1-.45.21H40.16a1.05,1.05,0,0,0-.83.34c-1.54,1.63-3.09,3.24-4.63,4.86a.32.32,0,0,1-.23.14.37.37,0,0,1-.19-.07c-1.94-1.14-3.89-2.26-5.84-3.39a1.06,1.06,0,0,0-.5-.17.71.71,0,0,0-.55.34l-5.2,6.66c-.08.1-.13.2-.26.2a.41.41,0,0,1-.17,0L16,23.51a1.32,1.32,0,0,0-.45-.11.74.74,0,0,0-.56.33l-4,4.56L9.43,30a.47.47,0,0,0,0,.66l.07.06a.62.62,0,0,0,.35.1.73.73,0,0,0,.48-.19c.07-.08.13-.16.2-.23,1.69-1.91,3.38-3.81,5-5.72a.32.32,0,0,1,.24-.14.49.49,0,0,1,.19,0l5.75,2.23a1.52,1.52,0,0,0,.51.13c.22,0,.37-.13.59-.4L27.88,20c.12-.15.18-.22.26-.22a.77.77,0,0,1,.28.13l5.73,3.32a1,1,0,0,0,.48.17.73.73,0,0,0,.52-.3C36.77,21.42,38.4,19.72,40,18a.55.55,0,0,1,.42-.17h6.33a1,1,0,0,0,.89-.42l4.38-6c.06-.07.09-.16.22-.21,0,.36.05.69.07,1,.08,1.24.16,2.49.25,3.73a.54.54,0,0,0,.56.52h0a.52.52,0,0,0,.52-.58v-.75l-.36-5.59A.53.53,0,0,0,52.77,9h0"/><path class="cls-1" d="M18.51,10.25h-.62a.53.53,0,0,0-.57.49h0a.54.54,0,0,0,.54.49H33.75a.51.51,0,0,0,.44-.36.46.46,0,0,0-.19-.51.79.79,0,0,0-.5-.11h-15"/><path class="cls-1" d="M40.84,20h-.16a.51.51,0,0,0-.43.58h0v9.68a.54.54,0,0,0,.5.58h.09a.52.52,0,0,0,.56-.59V20.58a.54.54,0,0,0-.11-.42.57.57,0,0,0-.45-.21"/><path class="cls-1" d="M10.88,15.7H10.7a.5.5,0,0,0,0,1H21.49a.49.49,0,0,0,.4-.5.47.47,0,0,0-.42-.45,1.27,1.27,0,0,0-.34,0H10.88"/><path class="cls-1" d="M28.4,21.68a.56.56,0,0,0-.55.39,1.18,1.18,0,0,0,0,.27v7.84a1.1,1.1,0,0,0,0,.26.56.56,0,0,0,.56.39h.09a.51.51,0,0,0,.48-.54V22.15a.53.53,0,0,0-.54-.47h0"/><path class="cls-1" d="M47.05,20a.66.66,0,0,0-.23,0,.49.49,0,0,0-.35.53V28a.56.56,0,0,0,.57.44h.14a.51.51,0,0,0,.43-.56V20.43a.54.54,0,0,0-.56-.49"/><path class="cls-1" d="M34.6,25.16a.54.54,0,0,0-.57.51s0,0,0,.05v4.53a.53.53,0,0,0,.48.58h.09a.54.54,0,0,0,.58-.59v-4.5a.54.54,0,0,0-.5-.58h-.09"/><path class="cls-1" d="M16,26.47a.54.54,0,0,0-.57.57v3.22a.52.52,0,0,0,.46.57H16a.52.52,0,0,0,.55-.57V27a.54.54,0,0,0-.51-.57H16"/><path class="cls-1" d="M14.52,10.25H10.8c-.39,0-.64.19-.65.48s.25.51.63.51h3.75c.4,0,.64-.21.63-.51s-.25-.48-.64-.48"/><path class="cls-1" d="M22.2,28.28a.56.56,0,0,0-.58.54h0v1.5a.57.57,0,0,0,1.14,0V28.84a.53.53,0,0,0-.52-.54h-.05"/><path class="cls-1" d="M57.53,29.58h0a.56.56,0,0,0-.59.53s0,0,0,.05v1.15c0,.14-.05.19-.2.19H55.6A3.12,3.12,0,0,0,52.51,34a13.63,13.63,0,0,0,0,2.71,3,3,0,0,0,3.1,2.59h3.7a1.94,1.94,0,0,1,2,1.63,19.55,19.55,0,0,1,0,2.42A2,2,0,0,1,59.23,45H55.7a2,2,0,0,1-2.08-1.6,4.71,4.71,0,0,1,0-.75.55.55,0,0,0-.54-.56h0a.55.55,0,0,0-.59.51s0,0,0,0v.68A3,3,0,0,0,55.2,46a4.24,4.24,0,0,0,.71,0h.78c.17,0,.23,0,.23.19v1.09a.65.65,0,0,0,0,.31.61.61,0,0,0,.55.33h.1a.53.53,0,0,0,.5-.51V46.19c0-.14.05-.19.21-.19h1.11a3.12,3.12,0,0,0,3.1-2.51,14.44,14.44,0,0,0,0-2.63,3.08,3.08,0,0,0-3.31-2.65H55.9a2,2,0,0,1-2.24-1.72V34.25a2,2,0,0,1,2.08-1.79h3.58a2,2,0,0,1,2.06,1.65v.7a.55.55,0,0,0,.54.56h0a.55.55,0,0,0,.58-.52v0a4.69,4.69,0,0,0,0-.53A3,3,0,0,0,60,31.51a5.19,5.19,0,0,0-1.12-.08h-.62c-.23,0-.19,0-.19-.41V30.1a.57.57,0,0,0-.55-.59h0"/></g></g></g></g></svg>