<svg xmlns="http://www.w3.org/2000/svg" viewBox="0 0 57.99 50.2"><defs><style>.cls-1{fill:#008d78;}</style></defs><title>Recurso 7</title><g id="Capa_2" data-name="Capa 2"><g id="Capa_1-2" data-name="Capa 1"><g id="Capa_2-2" data-name="Capa 2"><g id="Capa_1-2-2" data-name="Capa 1-2"><path class="cls-1" d="M15.35,43.87c-.77,0-.77,0-.77-.69V19.53c0-.66,0-.67.75-.67H42.64c.8,0,.81,0,.81.72v23.6c0,.69,0,.69-.78.69H15.35M29,12.49h0a3.1,3.1,0,1,1,0-6.14h0a3.1,3.1,0,1,1,0,6.14M29,0a3,3,0,0,0-1.22.29Q14.59,6.41,1.35,12.51a1.9,1.9,0,0,0-1.34,2V17.2a1.7,1.7,0,0,0,1.73,1.67H6.6c.49,0,.65.15.65.59V43.3c0,.45-.17.59-.65.59h-3A3.41,3.41,0,0,0,0,47v1.32A1.72,1.72,0,0,0,1.3,50.2H57.82c.14,0,.18-.09.17-.26V46.36a3.45,3.45,0,0,0-3-2.43,10.2,10.2,0,0,0-1.24-.06h-2.3c-.77,0-.66-.09-.66-1.16V19.59c0-.73,0-.73.85-.73H56a2.07,2.07,0,0,0,2-1.12V13.62a2.66,2.66,0,0,0-1.34-1.14L30.21.3A3.09,3.09,0,0,0,29,0"/><path class="cls-1" d="M29,20.36A1.71,1.71,0,0,0,27.21,22a10.75,10.75,0,0,0,0,1.27.78.78,0,0,1-.59.82,4.55,4.55,0,0,0-3,5.14A5.32,5.32,0,0,0,28.69,33a4.72,4.72,0,0,1,.83.11A1.49,1.49,0,0,1,30.7,34.8c-.17.79-.88,1.25-1.94,1.27H25.37a1.62,1.62,0,1,0,0,3.21h1.25c.4,0,.54.18.52.53s0,.68,0,1A1.71,1.71,0,0,0,29,42.39h0a1.71,1.71,0,0,0,1.85-1.56V39.46c0-.44.13-.53.49-.68,2.33-1,3.54-3.06,3-5.18a5.3,5.3,0,0,0-5.13-3.82,2.91,2.91,0,0,1-1.13-.25,1.4,1.4,0,0,1-.8-1.6A1.7,1.7,0,0,1,29,26.73h3.67a1.61,1.61,0,1,0,0-3.2H31.32c-.39,0-.54-.18-.52-.53s0-.71,0-1.08A1.71,1.71,0,0,0,29,20.39h0"/></g></g></g></g></svg>