<svg xmlns="http://www.w3.org/2000/svg" viewBox="0 0 74.76 53.36"><defs><style>.cls-1{fill:#008d78;}.cls-2{fill:#fff;}</style></defs><title>Recurso 8</title><g id="Capa_2" data-name="Capa 2"><g id="Capa_1-2" data-name="Capa 1"><g id="Capa_2-2" data-name="Capa 2"><g id="Capa_1-2-2" data-name="Capa 1-2"><path class="cls-1" d="M22.94,32.64l-.79-1.26,1.43-2.54-3.24-.38-.79-1.26,4.77.61a1,1,0,0,1,.76.36.73.73,0,0,1-.08.75l-2.06,3.72m-9.53,9.49L5.24,27.83l13.82-5.94,5,2.52L12.5,29.34,13.62,31l6.11-2.61,2,3.27-6.24,2.72,1,1.81,12.81-5.5-1.19,5.11-14.7,6.28M74,16.21H0V43.38a2.42,2.42,0,0,0,2,.75H41.79c.94,0,1,0,1-.86V33.74c0-1.82,1.29-3.13,3.34-3.44.47-.07.6-.23.62-.61A17.39,17.39,0,0,1,47,27.3c.89-4.81,5.78-8.58,11.66-8.58h1a12.21,12.21,0,0,1,8.47,3.94,9,9,0,0,1,2.5,6.7c0,.56.11.85.86,1a3.55,3.55,0,0,1,2.84,2,6.4,6.4,0,0,1,.33,1h.14V17.08c0-.53-.18-.77-.7-.77"/><path class="cls-1" d="M74.13,7H0v7.14H74.17c.4,0,.59-.17.59-.56v-6c0-.4-.19-.56-.61-.56"/><path class="cls-1" d="M72.6,0H1.77A2,2,0,0,0,0,.81v4H74.15c.44,0,.61-.2.59-.61V1.68C74.74.44,74.25,0,72.82,0H72.6"/><path class="cls-1" d="M58.66,49.72H56.24c-1,0-1.49-.41-1.51-1.32V45.25a4,4,0,0,0-.67-2.58,3.73,3.73,0,0,1,.45-4.84,5.09,5.09,0,0,1,4-1.77,7.83,7.83,0,0,1,1.25.11,4.67,4.67,0,0,1,4,3.31A3.89,3.89,0,0,1,63,43.15a1.82,1.82,0,0,0-.44,1.24v4c0,1-.38,1.29-1.49,1.3H58.67M70,32.36H47.47c-1.73,0-2.24.42-2.24,1.9V51.44c0,1.49.51,1.91,2.24,1.91H69.86a5.36,5.36,0,0,0,.8,0c1-.12,1.39-.54,1.44-1.39V34.13c0-1.19-.51-1.64-1.88-1.68H70"/><path class="cls-1" d="M58.7,20.87a10.91,10.91,0,0,0-2,.18c-4.45.83-7.47,4.15-7.48,8.23,0,1,0,1,1.11,1H67.25c.6,0,.87-.19.81-.73s-.06-.8-.09-1.2c-.4-4.3-4.59-7.49-9.34-7.49"/><path class="cls-1" d="M58.68,38.21a3,3,0,0,0-1.89.66,2.13,2.13,0,0,0-.4,3l.19.21a2.1,2.1,0,0,1,.71,1.72v2.08c0,1.64-.27,1.73,1,1.73h1.12c.56,0,.75-.2.74-.68V43.77a2.15,2.15,0,0,1,.7-1.72,2.09,2.09,0,0,0-.31-3.23,2.94,2.94,0,0,0-1.82-.61"/><polyline class="cls-2" points="19.04 21.89 5.22 27.83 13.41 42.13 28.05 35.85 29.24 30.74 16.43 36.24 15.45 34.43 21.69 31.71 19.7 28.44 13.59 31.05 12.47 29.34 24.03 24.41 19.04 21.89"/><path class="cls-2" d="M19.55,27.2l.79,1.26,3.24.38-1.43,2.54.79,1.26L25,28.92a.73.73,0,0,0,.08-.75,1,1,0,0,0-.76-.36l-4.77-.61"/></g></g></g></g></svg>