<svg xmlns="http://www.w3.org/2000/svg" viewBox="0 0 74.1 45.9"><defs><style>.cls-1{fill:#008d78;}</style></defs><title>Recurso 10</title><g id="Capa_2" data-name="Capa 2"><g id="Capa_1-2" data-name="Capa 1"><g id="Capa_2-2" data-name="Capa 2"><g id="Capa_1-2-2" data-name="Capa 1-2"><path class="cls-1" d="M2.76,35.2H71.57c.46,0,.67.2.66.63s0,1,0,1.56S72,38,71.56,38h-69c-.44,0-.65-.19-.65-.57V35.78c0-.38.18-.58.63-.58h.17M37,33.5H37c-8.68,0-15.68-6.17-15.66-13.69S28.41,6.2,37.1,6.2h0c8.7,0,15.74,6.17,15.69,13.73S45.72,33.54,37.06,33.54M73.45,0H1.08A1.74,1.74,0,0,0,0,1.78V44c0,1.34.58,1.86,2.14,1.86H72A2.28,2.28,0,0,0,74.1,45V.54C74.1.08,74,0,73.46,0"/><path class="cls-1" d="M33.44,27.36c-.93,0-1.52-.64-1.52-1.79V13.94a1.51,1.51,0,0,1,1.37-1.64h.37a2.36,2.36,0,0,1,1,.31l11.72,5.8c1.58.79,1.56,2.06,0,2.85q-5.79,2.9-11.6,5.74a3.07,3.07,0,0,1-1.35.36M37,9.08c-6.41,0-12.37,4.39-12.35,10.76s6,10.71,12.36,10.75h.06c6.37,0,12.36-4.33,12.42-10.78,0-5.9-5.57-10.71-12.37-10.73H37"/><path class="cls-1" d="M35.47,16.42c-.18,0-.24.17-.25.57v5.75c0,.31.09.48.3.48a1,1,0,0,0,.4-.12l5.9-2.93c.59-.29.58-.39,0-.7-2-1-3.89-1.93-5.84-2.88a1.31,1.31,0,0,0-.5-.17"/></g></g></g></g></svg>