<svg xmlns="http://www.w3.org/2000/svg" viewBox="0 0 118.23 118.23"><defs><style>.cls-1{fill:#d7b04d;}.cls-2{fill:#252525;}.cls-3{fill:none;}</style></defs><title>Recurso 1</title><g id="Capa_2" data-name="Capa 2"><g id="Capa_1-2" data-name="Capa 1"><g id="Capa_2-2" data-name="Capa 2"><g id="Capa_1-2-2" data-name="Capa 1-2"><rect class="cls-1" width="118.23" height="118.23" rx="22.99" ry="22.99"/><path class="cls-2" d="M34.2,21.15A22.81,22.81,0,1,0,57,44,22.81,22.81,0,0,0,34.2,21.15Zm0,36.08A13.28,13.28,0,1,1,47.48,44v0A13.27,13.27,0,0,1,34.2,57.23Z"/><path class="cls-2" d="M53.51,73.93H45.43a10,10,0,0,1,.06,1.1A11.22,11.22,0,1,1,23,75a10,10,0,0,1,.06-1.1H15V75a19.27,19.27,0,0,0,38.54,0C53.54,74.66,53.53,74.3,53.51,73.93Z"/><path class="cls-2" d="M82.35,48.07a22.81,22.81,0,1,0,22.8,22.82h0A22.81,22.81,0,0,0,82.35,48.07Zm0,36.08A13.28,13.28,0,1,1,95.62,70.86s0,0,0,0A13.28,13.28,0,0,1,82.35,84.15Z"/><path class="cls-2" d="M81.79,20.86c-11.26,0-20.4,8.69-20.4,19.4A18.59,18.59,0,0,0,64.8,51a22.65,22.65,0,0,1,6.52-5.4A10.9,10.9,0,0,1,70,40.26,11.5,11.5,0,0,1,81.79,29c6.56,0,11.88,5,11.88,11.26a10.83,10.83,0,0,1-1.16,4.88,23,23,0,0,1,6.76,5.14,18.59,18.59,0,0,0,2.92-10C102.19,29.55,93.06,20.86,81.79,20.86Z"/><polyline class="cls-3" points="54.33 73.93 53.51 73.93 45.44 73.93 23.11 73.93 15.03 73.93 13.84 73.93"/></g></g></g></g></svg>