<svg xmlns="http://www.w3.org/2000/svg" viewBox="0 0 118.23 118.23"><defs><style>.cls-1{fill:#fff;}.cls-2{fill:#798ce5;}</style></defs><title>Recurso 1</title><g id="Capa_2" data-name="Capa 2"><g id="Capa_1-2" data-name="Capa 1"><g id="Capa_2-2" data-name="Capa 2"><g id="Capa_1-2-2" data-name="Capa 1-2"><rect class="cls-1" width="118.23" height="118.23" rx="22.99" ry="22.99"/><path class="cls-2" d="M101.43,21.53l-.33-2.64L60,9.3,59.12,9l-.87.27h0L17.13,18.89l-.33,2.64a110.28,110.28,0,0,0,2.13,33.79A86.5,86.5,0,0,0,30.57,83.91,69.63,69.63,0,0,0,57.18,108l.19.1,1.83.78,1.88-.88h0a69.56,69.56,0,0,0,26.6-24.09A86.08,86.08,0,0,0,99.3,55.32,109.55,109.55,0,0,0,101.43,21.53ZM91.8,53.91C87,75.42,76,91.05,59.12,100.4c-16.91-9.35-27.89-25-32.68-46.49a107.24,107.24,0,0,1-2.28-28.82l35-8.15,35,8.15A106.7,106.7,0,0,1,91.8,53.91Z"/><path class="cls-2" d="M59.34,30.59l-23.56,6S34,77.86,59.34,84.16c0,0,24.5-5.67,23.08-47.27Z"/></g></g></g></g></svg>