<svg xmlns="http://www.w3.org/2000/svg" viewBox="0 0 118.23 118.23"><defs><style>.cls-1{fill:#fff;}</style></defs><title>Recurso 1</title><g id="Capa_2" data-name="Capa 2"><g id="Capa_1-2" data-name="Capa 1"><g id="Capa_2-2" data-name="Capa 2"><g id="Capa_1-2-2" data-name="Capa 1-2"><rect class="cls-1" width="118.23" height="118.23" rx="22.99" ry="22.99"/><path d="M44.67,41.91a5.08,5.08,0,0,1-4.95,5.21h-.05a5.16,5.16,0,0,1-5.38-4.92q0-.1,0-.2a5.28,5.28,0,0,1,5.29-5.25A5.16,5.16,0,0,1,44.67,41.91Z"/><path d="M76.7,47.12a5.07,5.07,0,0,1-5.26-4.88s0-.08,0-.12a5.16,5.16,0,0,1,4.89-5.41h.17a5.28,5.28,0,0,1,5.32,5.24s0,0,0,.06A5.16,5.16,0,0,1,76.7,47.12Z"/><path d="M43.59,51.18A5.06,5.06,0,0,1,48.53,46h.15A5.18,5.18,0,0,1,54,51.06s0,.09,0,.14a5.33,5.33,0,0,1-5.14,5.19,5.19,5.19,0,0,1-5.25-5.13S43.59,51.21,43.59,51.18Z"/><path d="M72.51,51.18a5.19,5.19,0,0,1-5.13,5.25h-.12a5.32,5.32,0,0,1-5.14-5.19A5.18,5.18,0,0,1,67.28,46h.14a5.06,5.06,0,0,1,5.09,5S72.51,51.14,72.51,51.18Z"/><path d="M30.14,46a5.2,5.2,0,0,1,5.35,5s0,.07,0,.11a5.35,5.35,0,0,1-5.12,5.23A5.29,5.29,0,0,1,25,51.21,5.18,5.18,0,0,1,30.14,46Z"/><path d="M85.81,46a5.18,5.18,0,0,1,5.26,5.1q0,.08,0,.15A5.23,5.23,0,1,1,85.81,46Z"/><path d="M44.67,60.35a5.17,5.17,0,0,1-5,5.3h-.15a5.25,5.25,0,0,1-5.2-5.11,5.33,5.33,0,0,1,5.24-5.33A5.2,5.2,0,0,1,44.67,60.35Z"/><path d="M71.43,60.42a5.2,5.2,0,0,1,5.08-5.21,5.32,5.32,0,0,1,5.31,5.26,5.24,5.24,0,0,1-5.31,5.17h0a5.13,5.13,0,0,1-5-5.22Z"/><path d="M58.11,64.36a3.92,3.92,0,1,1,3.81-4s0,.08,0,.12A4,4,0,0,1,58.11,64.36Z"/><path d="M34.18,69.62a3.93,3.93,0,1,1,0-.06Z"/><path d="M89.78,69.75a3.93,3.93,0,1,1-3.94-3.92H86A3.92,3.92,0,0,1,89.78,69.75Z"/><path d="M20.94,56.52a3.92,3.92,0,1,1-3.85,4,3.92,3.92,0,0,1,3.85-4Z"/><path d="M95,56.52a3.93,3.93,0,1,1-.06,0Z"/><path d="M48.75,65.83a3.87,3.87,0,0,1,.39,7.73h-.39a3.87,3.87,0,0,1-.39-7.73Z"/><path d="M71.21,69.77a3.78,3.78,0,0,1-3.78,3.78h-.05a3.86,3.86,0,1,1-.23-7.72h.37a3.79,3.79,0,0,1,3.69,3.89Z"/><path d="M92.56,79.17c0-1.74.91-2.7,2.43-2.76a2.32,2.32,0,0,1,2.62,2.42,2.35,2.35,0,0,1-2,2.63l-.37,0a2.4,2.4,0,0,1-2.64-2.14Q92.56,79.26,92.56,79.17Z"/><path d="M18.46,78.94a2.4,2.4,0,0,1,2.25-2.54H21a2.55,2.55,0,0,1-.1,5.09,2.4,2.4,0,0,1-2.49-2.55Z"/><path d="M58,76.35c1.57.21,2.57,1.08,2.53,2.64A2.55,2.55,0,1,1,58,76.35Z"/><path d="M11.84,72.23A2.42,2.42,0,0,1,9.21,70q0-.12,0-.24a2.35,2.35,0,0,1,2.06-2.61h.37a2.32,2.32,0,0,1,2.64,2.41,2.38,2.38,0,0,1-2.1,2.63Z"/><path d="M104.37,72.23a2.39,2.39,0,0,1-2.55-2.58,2.32,2.32,0,0,1,2.58-2.47,2.35,2.35,0,0,1,2.5,2.56,2.39,2.39,0,0,1-2.28,2.49Z"/></g></g></g></g></svg>