<svg xmlns="http://www.w3.org/2000/svg" viewBox="0 0 118.23 118.23"><defs><style>.cls-1{fill:#fff;}.cls-2{fill:#e4761b;stroke:#e4761b;}.cls-10,.cls-11,.cls-2,.cls-3,.cls-4,.cls-5,.cls-6,.cls-7,.cls-8,.cls-9{stroke-miterlimit:23.8;stroke-width:0.23px;}.cls-3{fill:#f6851b;stroke:#f6851b;}.cls-4{fill:#763d16;stroke:#763d16;}.cls-5{fill:#e2761b;stroke:#e2761b;}.cls-6{fill:#c0ad9e;stroke:#c0ad9e;}.cls-7{fill:#cd6116;stroke:#cd6116;}.cls-8{fill:#e4751f;stroke:#e4751f;}.cls-9{fill:#233447;stroke:#233447;}.cls-10{fill:#d7c1b3;stroke:#d7c1b3;}.cls-11{fill:#161616;stroke:#161616;}</style></defs><title>Recurso 1</title><g id="Capa_2" data-name="Capa 2"><g id="Capa_1-2" data-name="Capa 1"><g id="Capa_2-2" data-name="Capa 2"><g id="Capa_1-2-2" data-name="Capa 1-2"><rect class="cls-1" width="118.23" height="118.23" rx="22.99" ry="22.99"/><path class="cls-2" d="M99.31,77.37,93.78,96.06l-10.85-3Z"/><path class="cls-2" d="M82.93,93.09,93.39,78.75l5.92-1.38Z"/><path class="cls-3" d="M91.17,63.28l8.14,14.09-5.92,1.38Zm0,0,5.24-3.62,2.9,17.71Z"/><path class="cls-4" d="M84.52,52.64l15-6.16-.74,3.37Zm13.81,1.27L84.52,52.64l14.29-2.79Z"/><path class="cls-4" d="M98.33,53.91l-1.92,5.75-11.89-7Zm3-6-2.53,2,.74-3.37Zm-3,6,.48-4.06,2,1.68Z"/><path class="cls-5" d="M71.27,88.54,75,89.74l7.9,3.35Z"/><path class="cls-4" d="M96.41,59.66l1.92-5.75L100,55.17Zm0,0L80.8,54.52l3.72-1.88Z"/><path class="cls-4" d="M88.23,35,84.52,52.64,80.8,54.52Z"/><path class="cls-4" d="M99.55,46.48l-15,6.16L88.23,35Z"/><path class="cls-4" d="M88.23,35l15.7-1.81-4.38,13.3Z"/><path class="cls-3" d="M96.41,59.66l-5.24,3.62L80.8,54.52Z"/><path class="cls-4" d="M103.25,20.48l.68,12.7L88.23,35Z"/><path class="cls-5" d="M103.25,20.48,71.88,43.28l-.41-15.47Z"/><path class="cls-3" d="M48.14,26l23.33,1.85.41,15.47Z"/><path class="cls-4" d="M80.8,54.52,71.88,43.28,88.23,35Z"/><path class="cls-2" d="M80.8,54.52l10.37,8.76L76.61,64.89Z"/><path class="cls-2" d="M76.61,64.89,71.88,43.28,80.8,54.52Z"/><path class="cls-4" d="M88.23,35,71.88,43.28l31.37-22.8Z"/><path class="cls-6" d="M48.34,92.73l7.41,7.72L45.67,91.28Z"/><path class="cls-7" d="M82.93,93.09l3.51-13.34,7-1Z"/><path class="cls-5" d="M18.31,55.56,31.13,42.08,20,54Z"/><path class="cls-3" d="M93.39,78.75l-7,1,4.73-16.47ZM71.88,43.28l-12.48-.4L48.14,26Z"/><path class="cls-8" d="M91.17,63.28,86.44,79.75l-.38-8Z"/><path class="cls-7" d="M76.61,64.89l14.56-1.61-5.11,8.43Z"/><path class="cls-3" d="M59.4,42.88l12.48.4,4.73,21.61Z"/><path class="cls-2" d="M59.4,42.88,25.72,11.71,48.14,26ZM48.12,97.46l-29.26,9.06L13,84.21Z"/><path class="cls-4" d="M22.66,61.13l11-8.67L43,54.61Z"/><path class="cls-4" d="M43,54.61l-9.27-2.15,5-20.48Z"/><path class="cls-4" d="M20,54l13.74-1.49-11,8.67Z"/><path class="cls-7" d="M86.06,71.71l-5.71-2.88-3.74-3.94Z"/><path class="cls-4" d="M20,54l-1-5.14,14.72,3.65Z"/><path class="cls-9" d="M79.17,75.31l1.18-6.48,5.71,2.88Z"/><path class="cls-3" d="M86.44,79.75l-7.27-4.44,6.89-3.6Z"/><path class="cls-4" d="M33.71,52.46,19,48.81l-1.2-4.33Zm5-20.48-5,20.48-15.92-8Zm0,0L59.4,42.88,43,54.61Z"/><path class="cls-2" d="M43,54.61,59.4,42.88l7.31,22.35ZM66.71,65.23,44,64.76,43,54.61Z"/><path class="cls-3" d="M22.66,61.13,43,54.61l1,10.15Zm54,3.76-9.9.34L59.4,42.88Z"/><path class="cls-7" d="M80.35,68.83l-1.18,6.48L76.61,64.89Z"/><path class="cls-4" d="M25.72,11.71,59.4,42.88,38.67,32Z"/><path class="cls-2" d="M13,84.21,41.41,83l6.71,14.43Z"/><path class="cls-7" d="M48.12,97.46,41.41,83l14-.68Z"/><path class="cls-3" d="M79.17,75.31l7.27,4.44,4,9.44ZM44,64.76,13,84.21l9.65-23.08ZM41.41,83,13,84.21,44,64.76Zm35.2-18.14,1.86,6.75-9,.52Zm-7.11,7.3-2.79-6.93,9.9-.34Z"/><path class="cls-6" d="M55.75,100.45l-7.63-3,26.54,4.46Z"/><path class="cls-4" d="M22.66,61.13l-4.35-5.57L20,54Z"/><path class="cls-10" d="M77.68,98.62l-3,3.3L48.12,97.46Z"/><path class="cls-2" d="M79.1,90.51l-31,6.95,7.25-15.11Z"/><path class="cls-10" d="M48.12,97.46l31-6.95L77.7,98.62Z"/><path class="cls-4" d="M17.79,44.48l-1-17.41L38.67,32ZM20,54l-3-3.06,2-2.08Z"/><path class="cls-7" d="M61.64,69.72l5.07-4.49-.72,11Z"/><path class="cls-7" d="M66.71,65.23l-5.07,4.49-7.38,3.82Z"/><path class="cls-3" d="M90.45,89.19l-1.38-1-9.9-12.86Z"/><path class="cls-7" d="M54.26,73.54,44,64.76l22.69.47Z"/><path class="cls-8" d="M66,76.19l.72-11,2.79,6.93Z"/><path class="cls-4" d="M16,46.21l1.83-1.73L19,48.81Z"/><path class="cls-9" d="M66,76.19,54.26,73.54l7.38-3.82Z"/><path class="cls-4" d="M38.67,32l-21.9-4.91,9-15.36Z"/><path class="cls-6" d="M74.66,101.92l1.25,3.4-20.16-4.87Z"/><path class="cls-3" d="M55.37,82.35l-1.11-8.81L66,76.19Z"/><path class="cls-8" d="M44,64.76l10.24,8.78,1.11,8.81Z"/><path class="cls-3" d="M69.5,72.16l9-.52L89.1,88.17ZM44,64.76,55.37,82.35l-14,.68Z"/><path class="cls-8" d="M69.5,72.16l11.14,17L66,76.19Z"/><path class="cls-3" d="M66,76.19,80.64,89.13,79.1,90.51Z"/><path class="cls-3" d="M79.1,90.51,55.37,82.35,66,76.19Zm10-2.34-8.43,1-11.14-17Z"/><path class="cls-6" d="M91.29,96.15l-3.63,7.27-11.75,1.9Zm-15.38,9.17-1.25-3.4,3-3.3Z"/><path class="cls-6" d="M77.68,98.62l2.22-.89-4,7.59Zm-1.77,6.7,4-7.59L91.3,96.15Z"/><path class="cls-11" d="M89.07,88.17l2.78,1.7-8.47,1Z"/><path class="cls-11" d="M83.38,90.89l-2.74-1.76,8.43-1Zm-1,1.34L92.71,91l-1.42,5.17Z"/><path class="cls-11" d="M91.29,96.15,79.9,97.73l2.51-5.5ZM79.9,97.73l-2.22.89,1.42-8.11Zm-.8-7.22,1.54-1.38,2.74,1.76Zm12.75-.64L92.71,91l-10.3,1.25Z"/><path class="cls-11" d="M82.41,92.23l1-1.34,8.47-1ZM79.1,90.51l3.31,1.72-2.51,5.5Z"/><path class="cls-11" d="M83.38,90.89l-1,1.34L79.1,90.51Z"/></g></g></g></g></svg>