<svg xmlns="http://www.w3.org/2000/svg" viewBox="0 0 118.23 118.23"><defs><style>.cls-1{fill:#fff;}.cls-2{fill:#08907a;}</style></defs><title>Recurso 2</title><g id="Capa_2" data-name="Capa 2"><g id="Capa_1-2" data-name="Capa 1"><g id="Capa_2-2" data-name="Capa 2"><g id="Capa_1-2-2" data-name="Capa 1-2"><rect class="cls-1" width="118.23" height="118.23" rx="22.99" ry="22.99"/><path class="cls-2" d="M60.92,6.5c2.85,1.56,6,2.11,9.09,3.1,1.43.46,2.2,1,2.12,2.67a88.86,88.86,0,0,0,0,8.94c.1,2-.7,2.06-2.26,1.53C67,21.74,64,21,61.11,20c-1.39-.48-1.93-.19-1.92,1.32v26.3c0,1.46.64,1.76,1.9,1.74,3.07-.06,6.14,0,9.21,0,1.36,0,1.86.48,1.82,1.84-.06,2.81-.08,5.62,0,8.42,0,1.49-.48,2-2,2-2.72-.08-5.45.15-8.15-.07-2.44-.2-2.87.77-2.86,3,.1,14.56,0,29.11,0,43.66,0,3.48,0,3.49-3.12,2.29-2.93-1.13-6.68-1.61-8.43-3.91s-.51-5.93-.51-9q0-42-.09-83.91c0-2.52.78-3.46,3.11-4.09a53.35,53.35,0,0,0,9.19-3Z"/><path class="cls-2" d="M63,111.73c0-3.76,0-7.53-.18-11.29-.06-1.53.83-1.91,1.94-2.33a81.66,81.66,0,0,0,16.38-8.25c1.16-.78,2.29-1.61,3.41-2.45,5.71-4.3,9.6-9.5,8.43-17.17-.32-2.12.36-3,2.65-2.8a66.78,66.78,0,0,0,7.62,0c1.28,0,1.74.29,1.88,1.72,1.08,11-3,19.62-11.43,26.53C85.5,102.51,76.06,107,66.13,110.6c-.88.32-1.89.37-2.58,1.13Z"/><path class="cls-2" d="M42.83,105.32C32.37,99.93,22.31,94.23,16.72,83.16c-2.3-4.56-2.16-9.49-2.11-14.41,0-1.13.61-1.27,1.51-1.26,3,0,6,.05,8.94,0,1.22,0,1.76.34,1.68,1.63s0,2.81,0,4.21c-.06,3.54,1.46,6.36,4,9.1a11.08,11.08,0,0,0,.35-4.28c0-4.64-.1-9.29.07-13.93.08-2.27-.72-2.83-2.85-2.74-3.85.15-7.71,0-11.57.06-1.46,0-2.19-.22-2.18-2,.07-12.36,0-24.72,0-37.08a2.06,2.06,0,0,1,1.69-2.37h.07q12.51-3.77,24.86-7.74c1.72-.55,2.11-.06,2,1.61-.1,3-.11,6,0,8.94.06,1.55-.6,2.15-2,2.55-4.27,1.26-8.51,2.66-12.79,3.92a2.07,2.07,0,0,0-1.81,2.3v.06c.08,5.17.09,10.35,0,15.52,0,1.59.44,2.14,2.06,2.1,4.12-.09,8.24,0,12.36,0,1.33,0,2.13.21,2.12,1.83q-.07,26.7-.07,53.39C43.16,104.68,43,104.84,42.83,105.32Z"/><path class="cls-2" d="M75.76,50V14.22c0-2.13.34-2.74,2.61-2,8.15,2.66,16.35,5.17,24.57,7.63,1.73.51,2.27,1.28,2.25,3.11q-.13,18,0,36c0,2.15-.67,2.66-2.67,2.59-3.94-.14-7.89.06-11.83-.08-2.12-.08-3,.47-2.86,2.74.17,4.38,0,8.77.08,13.15a4.42,4.42,0,0,1-1.42,3.49A49.78,49.78,0,0,1,78,87.42c-2,1.2-2.26.58-2.25-1.42C75.83,74,75.76,62,75.76,50ZM87.83,38.87c0,2.79.14,5.59,0,8.37-.14,2.25,1.2,2.06,2.65,2.09s2.68.13,2.6-2.08c-.17-4.71-.27-9.44,0-14.13.18-2.83-1-3.78-3.42-4.33-1.49-.33-1.86,0-1.84,1.43C87.89,33.1,87.83,36,87.83,38.87Z"/></g></g></g></g></svg>