<svg xmlns="http://www.w3.org/2000/svg" viewBox="0 0 118.23 118.23"><defs><style>.cls-1{fill:#fed210;}</style></defs><title>Recurso 1</title><g id="Capa_2" data-name="Capa 2"><g id="Capa_1-2" data-name="Capa 1"><g id="Capa_2-2" data-name="Capa 2"><g id="Capa_1-2-2" data-name="Capa 1-2"><rect class="cls-1" width="118.23" height="118.23" rx="22.99" ry="22.99"/><path d="M39,28.25V3.67c0-1.08.22-1.47,1.4-1.45,4.33.08,8.67.09,13,0,1.22,0,1.48.34,1.48,1.49V52.63a3.76,3.76,0,0,0,7.49.06V3.88c0-1.63,0-1.63,1.63-1.63H76.42c1.86,0,1.77-.41,1.78,1.83V52.42a19.67,19.67,0,0,1-39.22,2q-.11-1.61,0-3.23V28.25Z"/></g></g></g></g></svg>