<svg id="Capa_1" enable-background="new 0 0 512 512" height="512" viewBox="0 0 512 512" width="512" xmlns="http://www.w3.org/2000/svg"><g id="XMLID_1923_"><path id="XMLID_1883_" d="m402 502h-312c-22.091 0-40-17.909-40-40v-412c0-22.091 17.909-40 40-40h312c22.091 0 40 17.909 40 40v412c0 22.091-17.909 40-40 40z" fill="#ff9171"/><path id="XMLID_1886_" d="m482 10h-80c22.091 0 40 17.909 40 40v58.4h40c11.046 0 20-8.954 20-20v-58.4c0-11.046-8.954-20-20-20z" fill="#d5ea79"/><path id="XMLID_1824_" d="m442 108.4h40c11.046 0 20 8.954 20 20v58.4c0 11.046-8.954 20-20 20h-40z" fill="#66dff6"/><path id="XMLID_1822_" d="m442 206.8h40c11.046 0 20 8.954 20 20v58.4c0 11.046-8.954 20-20 20h-40z" fill="#c193dc"/><path id="XMLID_1821_" d="m442 305.2h40c11.046 0 20 8.954 20 20v58.4c0 11.046-8.954 20-20 20h-40z" fill="#ff7d97"/><path id="XMLID_1885_" d="m482 403.6h-40v58.4c0 22.091-17.909 40-40 40h80c11.046 0 20-8.954 20-20v-58.4c0-11.046-8.954-20-20-20z" fill="#ffcd69"/><g id="XMLID_1408_" fill="#e2e9ee"><path id="XMLID_1535_" d="m76 116h-44c-12.15 0-22-9.85-22-22 0-12.15 9.85-22 22-22h44c12.15 0 22 9.85 22 22 0 12.15-9.85 22-22 22z"/><path id="XMLID_1533_" d="m76 224h-44c-12.15 0-22-9.85-22-22 0-12.15 9.85-22 22-22h44c12.15 0 22 9.85 22 22 0 12.15-9.85 22-22 22z"/><path id="XMLID_1488_" d="m76 332h-44c-12.15 0-22-9.85-22-22 0-12.15 9.85-22 22-22h44c12.15 0 22 9.85 22 22 0 12.15-9.85 22-22 22z"/><path id="XMLID_1413_" d="m76 440h-44c-12.15 0-22-9.85-22-22 0-12.15 9.85-22 22-22h44c12.15 0 22 9.85 22 22 0 12.15-9.85 22-22 22z"/></g><g id="XMLID_1164_"><path id="XMLID_1166_" d="m268 256h-24c-39.764 0-72 32.236-72 72v16h168v-16c0-39.764-32.236-72-72-72z" fill="#66dff6"/><path id="XMLID_1165_" d="m256 168c-22.091 0-40 17.909-40 40v8c0 22.091 17.909 40 40 40 22.091 0 40-17.909 40-40v-8c0-22.091-17.909-40-40-40z" fill="#ffd0c7"/></g><g id="XMLID_1064_"><path id="XMLID_1105_" d="m512 30c0-16.542-13.458-30-30-30h-392c-27.57 0-50 22.43-50 50v12h-8c-17.644 0-32 14.355-32 32s14.356 32 32 32h8v44h-8c-17.645 0-32 14.355-32 32s14.356 32 32 32h8v44h-8c-17.645 0-32 14.355-32 32s14.356 32 32 32h8v44h-8c-17.645 0-32 14.355-32 32s14.356 32 32 32h8v12c0 27.57 22.43 50 50 50h392c16.542 0 30-13.458 30-30v-58.4c0-7.678-2.902-14.688-7.664-20 4.761-5.312 7.664-12.322 7.664-20v-58.4c0-7.678-2.902-14.688-7.664-20 4.761-5.312 7.664-12.322 7.664-20v-58.4c0-7.678-2.902-14.688-7.664-20 4.761-5.312 7.664-12.322 7.664-20v-58.4c0-7.678-2.902-14.688-7.664-20 4.761-5.312 7.664-12.322 7.664-20zm-20 0v58.4c0 5.514-4.486 10-10 10h-30v-48.4c0-11.247-3.735-21.638-10.027-30h40.027c5.514 0 10 4.486 10 10zm0 98.4v58.4c0 5.514-4.486 10-10 10h-30v-78.4h30c5.514 0 10 4.486 10 10zm0 98.4v58.4c0 5.514-4.486 10-10 10h-30v-78.4h30c5.514 0 10 4.486 10 10zm0 98.4v58.4c0 5.514-4.486 10-10 10h-30v-78.4h30c5.514 0 10 4.486 10 10zm-472-231.2c0-6.617 5.383-12 12-12h44c6.617 0 12 5.383 12 12s-5.383 12-12 12h-44c-6.617 0-12-5.383-12-12zm0 108c0-6.617 5.383-12 12-12h44c6.617 0 12 5.383 12 12s-5.383 12-12 12h-44c-6.617 0-12-5.383-12-12zm0 108c0-6.617 5.383-12 12-12h44c6.617 0 12 5.383 12 12s-5.383 12-12 12h-44c-6.617 0-12-5.383-12-12zm0 108c0-6.617 5.383-12 12-12h44c6.617 0 12 5.383 12 12s-5.383 12-12 12h-44c-6.617 0-12-5.383-12-12zm70 74c-16.542 0-30-13.458-30-30v-12h16c17.645 0 32-14.355 32-32s-14.355-32-32-32h-16v-44h16c17.645 0 32-14.355 32-32s-14.355-32-32-32h-16v-44h16c17.645 0 32-14.355 32-32s-14.355-32-32-32h-16v-44h16c17.645 0 32-14.355 32-32s-14.355-32-32-32h-16v-12c0-16.542 13.458-30 30-30h312c16.542 0 30 13.458 30 30v412c0 16.542-13.458 30-30 30zm402-10c0 5.514-4.486 10-10 10h-40.027c6.292-8.362 10.027-18.753 10.027-30v-48.4h30c5.514 0 10 4.486 10 10z"/><path id="XMLID_1654_" d="m292.774 249.834c8.204-8.911 13.226-20.795 13.226-33.834v-8c0-27.57-22.43-50-50-50s-50 22.43-50 50v8c0 13.039 5.021 24.923 13.226 33.834-33.142 10.528-57.226 41.584-57.226 78.166v16c0 5.523 4.477 10 10 10h39.127c5.522 0 10-4.477 10-10s-4.478-10-10-10h-29.127v-6c0-34.187 27.814-62 62-62h2v16.167c0 5.523 4.477 10 10 10 5.522 0 10-4.477 10-10v-16.167h2c34.186 0 62 27.813 62 62v6h-28.873c-5.523 0-10 4.477-10 10s4.477 10 10 10h38.873c5.522 0 10-4.477 10-10v-16c0-36.582-24.084-67.638-57.226-78.166zm-66.774-41.834c0-16.542 13.458-30 30-30s30 13.458 30 30v8c0 16.542-13.458 30-30 30s-30-13.458-30-30z"/><path id="XMLID_1656_" d="m256.13 334c-2.63 0-5.21 1.07-7.08 2.93-1.86 1.86-2.92 4.44-2.92 7.07s1.06 5.21 2.92 7.07c1.87 1.86 4.45 2.93 7.08 2.93s5.21-1.07 7.07-2.93c1.859-1.86 2.93-4.44 2.93-7.07s-1.07-5.21-2.93-7.07-4.44-2.93-7.07-2.93z"/></g></g></svg>