<svg xmlns="http://www.w3.org/2000/svg" viewBox="0 0 54.25 54.25"><defs><style>.cls-1{fill:#f6921a;}.cls-2{fill:#fff;}</style></defs><title>Recurso 1</title><g id="Capa_2" data-name="Capa 2"><g id="Capa_1-2" data-name="Capa 1"><g id="Capa_1-2-2" data-name="Capa 1-2"><path class="cls-1" d="M53.44,33.7A27.12,27.12,0,1,1,33.69.81,27.13,27.13,0,0,1,53.44,33.7Z"/><path class="cls-2" d="M39.09,23.27c.54-3.61-2.21-5.55-6-6.85l1.22-4.89-3-.74-1.18,4.76L27.74,15l1.2-4.79-3-.74-1.15,4.88c-.65-.14-1.28-.29-1.9-.44h0l-4.1-1L18,16.08s2.21.5,2.16.53a1.59,1.59,0,0,1,1.39,1.74L20.16,23.9l.31.1-.32-.1-1.94,7.8a1.09,1.09,0,0,1-1.37.71h0l-2.15-.51-1.48,3.41,3.87,1,2.13.55L18,41.8l3,.75,1.22-4.9c.81.22,1.6.43,2.37.62l-1.22,4.87,3,.74,1.18-5c5.08,1,8.9.58,10.5-4,1.3-3.7-.06-5.83-2.73-7.22a4.74,4.74,0,0,0,3.8-4.37Zm-6.8,9.53c-.92,3.7-7.15,1.7-9.16,1.2l1.63-6.55C26.78,28,33.25,29,32.29,32.8Zm.92-9.59c-.84,3.37-6,1.66-7.7,1.24L27,18.51C28.69,18.9,34.08,19.71,33.21,23.21Z"/></g></g></g></svg>