<svg xmlns="http://www.w3.org/2000/svg" viewBox="0 0 30.96 30.96"><defs><style>.cls-1{fill:#26a17b;}.cls-2{fill:#fff;}</style></defs><title>Recurso 1</title><g id="Capa_2" data-name="Capa 2"><g id="Capa_1-2" data-name="Capa 1"><g id="Capa_1-2-2" data-name="Capa 1-2"><circle class="cls-1" cx="15.48" cy="15.48" r="15.48"/><path class="cls-2" d="M17.13,16.88H13.32c-3.78-.16-6.6-.82-6.6-1.61s2.82-1.45,6.6-1.61v2.57c.25,0,1,.06,1.94.06,1.17,0,1.76-.05,1.87-.06V13.69c3.77.17,6.59.83,6.59,1.61s-2.82,1.45-6.59,1.62m0-3.5v-2.3h5.26V7.62H8.06v3.5h5.26v2.3c-4.28.2-7.49,1.05-7.49,2.06s3.22,1.86,7.49,2.06v7.34h3.81V17.54c4.27-.19,7.48-1,7.48-2.06s-3.21-1.86-7.48-2.05"/></g></g></g></svg>