<svg xmlns="http://www.w3.org/2000/svg" viewBox="0 0 157.14 47.5"><defs><style>.cls-1,.cls-4,.cls-5,.cls-6{fill:#fff;}.cls-2{fill:#008d79;}.cls-3,.cls-4,.cls-5,.cls-6{isolation:isolate;}.cls-4,.cls-5,.cls-6{font-size:12.83px;font-family:GalanoGrotesque-SemiBold, Galano Grotesque;font-weight:700;}.cls-4{letter-spacing:-0.01em;}.cls-5{letter-spacing:-0.01em;}</style></defs><title>Recurso 1</title><g id="Capa_2" data-name="Capa 2"><g id="Capa_1-2" data-name="Capa 1"><g id="Capa_2-2" data-name="Capa 2"><g id="Capa_1-2-2" data-name="Capa 1-2"><line class="cls-1" x1="92.59" y1="12.72" x2="92.59" y2="35.27"/><line class="cls-1" x1="92.71" y1="12.72" x2="92.71" y2="35.27"/><line class="cls-1" x1="92.89" y1="12.72" x2="92.89" y2="35.27"/><path class="cls-2" d="M23.26,45.09l6.48-3.17L41.3,36.31l1.39-9.49L33.23,14H43.39l.86,1.3.34-3L34.09,6.16,23.82,0,12.1,5.76,7,8.28C4,9.74,4.48,9.13,3.16,12c-.9,1.93-1.79,3.87-2.69,5.8-.8,1.7-.46,2.2.16,3.78L11,42.08a3.24,3.24,0,0,0,1.54,1.52l5.61,2c2.93,1,2.12,1,5.13-.52"/><path class="cls-1" d="M156.59,15.29l-3.48,4.52H140.8c-.66,0-1,.23-1,.7s.33.7,1,.7h8.86a8.71,8.71,0,0,1,5.28,1.54,5.07,5.07,0,0,1,2.2,4.25,4.92,4.92,0,0,1-2.22,4.18,8.69,8.69,0,0,1-5.26,1.52H133.72l3.48-4.49h12.46a3.89,3.89,0,0,0,1.52-.29q.87-.36.87-1t-.87-1a4.41,4.41,0,0,0-1.52-.24H140.8a8.55,8.55,0,0,1-4.93-1.35,4.55,4.55,0,0,1,0-7.71,8.55,8.55,0,0,1,4.93-1.35Z"/><path class="cls-1" d="M132.22,24.78q0,7.92-10.86,7.92h-1.14q-10.86,0-10.86-7.92V15.29h5.38v9.49a2.87,2.87,0,0,0,2.08,3,16.64,16.64,0,0,0,4.54.39,9.26,9.26,0,0,0,3.88-.58,2.85,2.85,0,0,0,1.57-2.85V15.29h5.41Z"/><path class="cls-1" d="M89.16,24.78q0,7.92-10.86,7.92H77.16q-10.86,0-10.86-7.92V15.29h5.38v9.49a2.87,2.87,0,0,0,2.08,3,16.64,16.64,0,0,0,4.54.39,9.26,9.26,0,0,0,3.88-.58,2.85,2.85,0,0,0,1.57-2.85V15.29h5.41Z"/><polygon class="cls-2" points="95.66 28.21 95.66 32.7 90.27 32.7 90.27 15.29 95.66 15.29 95.66 28.21"/><polygon class="cls-1" points="95.67 28.21 95.67 32.7 104.91 32.7 108.15 28.21 95.67 28.21"/><polygon class="cls-1" points="37.99 22.59 36.31 30.92 15.63 41.18 4.06 17.84 23.58 8.16 30.64 12.27 14.31 20.3 15.89 23.1 24.53 18.83 27.33 24.17 18.52 28.61 19.9 31.56 37.99 22.59"/><path class="cls-1" d="M24.32,16.81l6.72,1a1.39,1.39,0,0,1,1.09.58A1.39,1.39,0,0,1,32,19.62L29.1,25.69,28,23.64l2-4.14-4.57-.62Z"/><path class="cls-1" d="M65.09,15.29,53.36,31c-1,1.3-2,2-3,2s-2-.66-3-2L36,15.29h6.71l7.79,10.77,7.82-10.77Z"/><g class="cls-3"><text class="cls-4" transform="translate(108.15 44.78)">S</text><text class="cls-5" transform="translate(116.16 44.78)">t</text><text class="cls-6" transform="translate(121.32 44.78)">aking</text></g></g></g></g></g></svg>