<svg xmlns="http://www.w3.org/2000/svg" viewBox="0 0 177.7 52.37"><defs><style>.cls-1{fill:none;stroke:#081519;stroke-miterlimit:22.93;stroke-width:0.85px;}.cls-2,.cls-4{fill:#fff;}.cls-3{fill:#008e78;}.cls-3,.cls-4{fill-rule:evenodd;}</style></defs><title>Recurso 21</title><g id="Capa_2" data-name="Capa 2"><g id="File_Info" data-name="File Info"><line class="cls-1" x1="104.69" y1="14.39" x2="104.69" y2="39.89"/><line class="cls-1" x1="104.84" y1="14.39" x2="104.84" y2="39.89"/><rect class="cls-2" x="104.61" y="14.38" width="0.85" height="25.5"/><path class="cls-3" d="M26.3,51l7.33-3.59,13.06-6.34,1.58-10.73L37.57,15.8H49.06l1,1.46.39-3.45L38.54,7,26.92,0,13.67,6.52,7.87,9.37c-3.34,1.64-2.82,1-4.31,4.17-1,2.18-2,4.37-3,6.55-.9,2-.49,2.48.18,4.32L12.4,47.59a3.78,3.78,0,0,0,1.75,1.72l6.35,2.27C23.8,52.75,22.89,52.67,26.3,51Z"/><path class="cls-4" d="M177.07,17.29l-3.94,5.11H159.21c-.75,0-1.12.26-1.12.79s.37.79,1.12.79h10a9.87,9.87,0,0,1,6,1.75,5.74,5.74,0,0,1,2.49,4.8,5.56,5.56,0,0,1-2.52,4.73,9.78,9.78,0,0,1-6,1.72h-18l3.93-5.08h14.09a4.29,4.29,0,0,0,1.72-.33c.66-.27,1-.64,1-1.12s-.32-.86-1-1.12a5,5,0,0,0-1.72-.27h-10a9.64,9.64,0,0,1-5.57-1.53,5.15,5.15,0,0,1,0-8.71,9.64,9.64,0,0,1,5.57-1.53Z"/><path class="cls-4" d="M149.52,28q0,9-12.29,9h-1.29q-12.28,0-12.28-9V17.29h6.09V28a3.25,3.25,0,0,0,2.34,3.44,19.07,19.07,0,0,0,5.14.44,10.48,10.48,0,0,0,4.39-.66A3.21,3.21,0,0,0,143.4,28V17.29h6.12Z"/><path class="cls-4" d="M100.82,28q0,9-12.29,9H87.25Q75,37,75,28V17.29h6.09V28a3.24,3.24,0,0,0,2.35,3.44,19,19,0,0,0,5.13.44,10.56,10.56,0,0,0,4.4-.66A3.22,3.22,0,0,0,94.7,28V17.29h6.12Z"/><polygon class="cls-3" points="108.17 31.9 108.17 36.98 102.08 36.98 102.08 17.29 108.17 17.29 108.17 31.9"/><polygon class="cls-4" points="108.18 31.9 108.18 36.98 118.63 36.98 122.29 31.9 108.18 31.9"/><polygon class="cls-4" points="42.95 25.55 41.05 34.97 17.66 46.57 4.58 20.18 26.65 9.23 34.64 13.87 16.17 22.95 17.95 26.13 27.73 21.3 30.9 27.33 20.93 32.36 22.49 35.69 42.95 25.55"/><path class="cls-4" d="M27.49,19l7.61,1.13a1.55,1.55,0,0,1,1.22.66,1.5,1.5,0,0,1-.14,1.38l-3.29,6.87-1.25-2.31,2.28-4.69-5.18-.7Z"/><path class="cls-4" d="M73.6,17.29,60.33,35.07c-1.1,1.47-2.21,2.21-3.34,2.21s-2.24-.75-3.33-2.24L40.72,17.29h7.59L57.1,29.47,66,17.29Z"/></g></g></svg>