<svg id="Capa_1" data-name="Capa 1" xmlns="http://www.w3.org/2000/svg" xmlns:xlink="http://www.w3.org/1999/xlink" viewBox="0 0 280.16 244.8"><defs><style>.cls-1{fill:none;}.cls-2{clip-path:url(#clip-path);}.cls-3{fill:#f0f0f0;}.cls-4{clip-path:url(#clip-path-2);}.cls-5{fill:#00493e;}.cls-6{fill:#005d4f;}.cls-7{fill:#00473d;}.cls-8{clip-path:url(#clip-path-4);}.cls-9{fill:#005347;}.cls-10{clip-path:url(#clip-path-6);}.cls-11{fill:#005548;}.cls-12{fill:#005246;}.cls-13{fill:#004f43;}.cls-14{fill:#004c41;}.cls-15{fill:#008471;}</style><clipPath id="clip-path" transform="translate(-219.19 -3847.35)"><rect class="cls-1" width="1366" height="6088.12"/></clipPath><clipPath id="clip-path-2" transform="translate(-219.19 -3847.35)"><path class="cls-1" d="M219.35,3961.22c-.82,4.54,1.55,7.21,5.15,13.09l4.69-25.86c-3.6-5.88-6-8.55-5.15-13.09Z"/></clipPath><clipPath id="clip-path-4" transform="translate(-219.19 -3847.35)"><path class="cls-1" d="M302.5,4071.73c2.07,2.93,5.73,5.32,10.68,7.28l4.69-25.86c-4.95-2-8.61-4.34-10.68-7.28Z"/></clipPath><clipPath id="clip-path-6" transform="translate(-219.19 -3847.35)"><path class="cls-1" d="M369.51,4066.29c-3.06,0-6.75-1.19-15.14-3.43l-4.69,25.86c8.39,2.24,12.09,3.41,15.14,3.43,3.87,0,6.71-1.8,16.76-5.64l4.69-25.86c-10,3.84-12.89,5.66-16.76,5.64"/></clipPath></defs><title>icon-nosotros-evu</title><g class="cls-2"><path class="cls-3" d="M374.92,3926.91l42.9,5q5.33.6,7.17,2.78c1.23,1.44,1.23,3.37,0,5.79l-14.43,28.61-8.23-9.74,10-19.52-29.12-3.12Z" transform="translate(-219.19 -3847.35)"/></g><g class="cls-4"><path class="cls-5" d="M229.18,3948.45l-4.69,25.86c-3.6-5.88-6-8.55-5.15-13.09l4.69-25.86c-.82,4.54,1.55,7.21,5.15,13.09" transform="translate(-219.19 -3847.35)"/></g><g class="cls-2"><polygon class="cls-6" points="274.77 172.54 270.09 198.4 201.07 224.41 205.76 198.55 274.77 172.54"/><polygon class="cls-3" points="145.62 38.6 192.57 58.32 95.12 95.62 106.78 108.95 158.36 89.14 179.37 114.5 126.82 135.15 137.34 149.15 245.29 107.48 240.05 146.83 116.65 194.46 29.17 83.54 145.62 38.6"/><polygon class="cls-7" points="88 198.52 83.31 224.38 5.31 126.96 10 101.1 88 198.52"/><polygon class="cls-6" points="205.76 198.55 201.07 224.41 162.39 239.16 167.07 213.3 205.76 198.55"/></g><g class="cls-8"><path class="cls-5" d="M317.86,4053.15,313.18,4079c-4.95-2-8.61-4.34-10.68-7.27l4.69-25.86c2.06,2.93,5.73,5.32,10.68,7.27" transform="translate(-219.19 -3847.35)"/></g><g class="cls-2"><polygon class="cls-9" points="135.17 215.51 130.49 241.37 93.99 231.66 98.67 205.8 135.17 215.51"/></g><g class="cls-10"><path class="cls-11" d="M386.26,4060.65l-4.69,25.86c-8.51,3.25-11.85,5.06-15,5.52l4.69-25.86c3.17-.46,6.52-2.27,15-5.52" transform="translate(-219.19 -3847.35)"/><path class="cls-12" d="M371.24,4066.17,366.56,4092a11.48,11.48,0,0,1-1.74.12h-.42l4.69-25.86h.42a11.49,11.49,0,0,0,1.74-.12" transform="translate(-219.19 -3847.35)"/><path class="cls-13" d="M369.08,4066.28l-4.69,25.86a19.48,19.48,0,0,1-3-.39l4.69-25.86a19.38,19.38,0,0,0,3,.39" transform="translate(-219.19 -3847.35)"/><path class="cls-14" d="M366.08,4065.89l-4.69,25.86c-2.62-.52-6.13-1.54-11.71-3l4.69-25.86c5.59,1.49,9.09,2.51,11.72,3" transform="translate(-219.19 -3847.35)"/></g><g class="cls-2"><path class="cls-15" d="M429.55,3876.92l69.8,29.11-.22,14.41L496.71,3975,494,4019.89l-69,26-38.69,14.75c-10,3.84-12.89,5.66-16.76,5.64-3.06,0-6.75-1.19-15.15-3.43l-36.5-9.71c-4.95-2-8.61-4.34-10.68-7.28l-78-97.42c-4.72-7.72-7.33-9.9-3.39-18q6.58-13.65,13.19-27.32c6.48-13.4,4-10.52,21.6-17.28l30.6-11.7,69.94-26.76Zm29.69,117.26,5.24-39.35-108,41.67-10.52-14,52.55-20.65-21-25.36L326,3956.3,314.31,3943l97.45-37.31-46.95-19.72-116.45,44.94,87.48,110.92,123.4-47.63M425,3934.72q-1.84-2.18-7.17-2.78l-42.9-5,8.3,9.82,29.12,3.12-10,19.52,8.23,9.74L425,3940.51q1.83-3.62,0-5.79" transform="translate(-219.19 -3847.35)"/></g></svg>