<svg id="Capa_1" data-name="Capa 1" xmlns="http://www.w3.org/2000/svg" xmlns:xlink="http://www.w3.org/1999/xlink" viewBox="0 0 104.49 69.71"><defs><style>.cls-1{fill:none;}.cls-2{clip-path:url(#clip-path);}.cls-3{fill:#008d78;}</style><clipPath id="clip-path" transform="translate(-1080.93 -3516.9)"><rect class="cls-1" width="1366" height="6088.12"/></clipPath></defs><title>icon-afiliados</title><g class="cls-2"><path class="cls-3" d="M1133.18,3586.61h-20.25c-2.91,0-4.27-1.29-4.17-4.19a23.74,23.74,0,0,1,8.66-18,23.32,23.32,0,0,1,17.65-5.69,23.73,23.73,0,0,1,19,11.82,23.14,23.14,0,0,1,3.44,12.21,3.46,3.46,0,0,1-3.8,3.8q-10.29,0-20.57,0" transform="translate(-1080.93 -3516.9)"/><path class="cls-3" d="M1147.1,3541.3a14,14,0,1,1-13.88-14,13.94,13.94,0,0,1,13.88,14" transform="translate(-1080.93 -3516.9)"/><path class="cls-3" d="M1168,3562.2h-13.38c-2.75,0-4.06-1.35-4-4.11.07-7.85,6.16-14.94,14.19-16.48a17.39,17.39,0,0,1,20.65,16.71c.06,2.48-1.35,3.86-3.82,3.87-4.53,0-9.07,0-13.6,0" transform="translate(-1080.93 -3516.9)"/><path class="cls-3" d="M1098.29,3562.19h-13.18c-3.12,0-4.48-1.74-4.14-4.84a17.59,17.59,0,0,1,3.52-9.12,17.15,17.15,0,0,1,11.87-6.73,17.34,17.34,0,0,1,19,14.15c.14.78.24,1.58.31,2.37a3.6,3.6,0,0,1-3.79,4.17c-4.54,0-9.07,0-13.61,0" transform="translate(-1080.93 -3516.9)"/><path class="cls-3" d="M1168,3516.9a10.45,10.45,0,1,1-10.49,10.44A10.51,10.51,0,0,1,1168,3516.9" transform="translate(-1080.93 -3516.9)"/><path class="cls-3" d="M1098.35,3516.92c6,.29,10.36,4.51,10.33,10.48s-4.51,10.26-10.41,10.35a10.43,10.43,0,0,1-10.39-10.44,10.57,10.57,0,0,1,10.48-10.39" transform="translate(-1080.93 -3516.9)"/></g></svg>