<svg id="Capa_1" data-name="Capa 1" xmlns="http://www.w3.org/2000/svg" viewBox="0 0 88.88 20.46"><title>bitmart-color</title><g id="Capa_2" data-name="Capa 2"><g id="Capa_1-2" data-name="Capa 1-2"><path id="Fill-77" d="M15,1.66A8.49,8.49,0,0,0,9.42,0H3.56V.82H9.31A7.56,7.56,0,0,1,14.23,2.2a5.4,5.4,0,0,1,1.94,4.13,4.86,4.86,0,0,1-1.87,3.9c-1.14,1-3.21,1.37-5.26,1.37H2.43v.83H9.09a9.37,9.37,0,0,0,5.81-1.61A5.41,5.41,0,0,0,17,6.28a5.64,5.64,0,0,0-2-4.62" transform="translate(0 0.02)"/><path id="Fill-79" d="M14.47,2.84C13.63,2.2,12.68,1.69,10,1.69H5.43v.8H9.85c2.42,0,3.17.28,4,.86a3.48,3.48,0,0,1,1.62,2.92,3.41,3.41,0,0,1-1.63,2.84,6.06,6.06,0,0,1-3.23.78H7.2v.8H9.71c2.2,0,3.5-.18,4.72-1.09a4,4,0,0,0,1.74-3.37,4,4,0,0,0-1.7-3.39" transform="translate(0 0.02)"/><path id="Fill-80" d="M14.06,3.9c-.62-.39-1.17-.66-3.78-.66H7v.53h3.16c2.3,0,3.17.4,3.44.57a2.14,2.14,0,0,1,1.21,1.89,2.28,2.28,0,0,1-1,1.84,6.74,6.74,0,0,1-3.23.58H0v.52H10.65c2.08,0,2.79-.23,3.52-.64a2.56,2.56,0,0,0,1.23-2.3A2.63,2.63,0,0,0,14.06,3.9" transform="translate(0 0.02)"/><path id="Fill-81" d="M16.13,9.69A8.47,8.47,0,0,0,10.58,8H6.66v.83h3.81a7.71,7.71,0,0,1,4.92,1.37,5.42,5.42,0,0,1,1.94,4.13,4.82,4.82,0,0,1-1.87,3.9,8.66,8.66,0,0,1-5.26,1.38H3.6v.82h6.66a9.37,9.37,0,0,0,5.81-1.61,5.38,5.38,0,0,0,2.09-4.54,5.7,5.7,0,0,0-2-4.62" transform="translate(0 0.02)"/><path id="Fill-82" d="M15.63,10.87c-.83-.63-1.79-1.15-4.51-1.15H5v.8h6.05c2.4,0,3.16.29,4,.86a3.51,3.51,0,0,1,1.62,2.92A3.42,3.42,0,0,1,15,17.14a5.87,5.87,0,0,1-3.23.78H8.36v.8h2.51c2.2,0,3.51-.18,4.72-1.08a4,4,0,0,0,1.74-3.38,4,4,0,0,0-1.7-3.39" transform="translate(0 0.02)"/><polygon id="Fill-83" points="6.28 13.61 12.05 13.61 12.05 13.17 6.28 13.17 6.28 13.61"/><polygon id="Fill-84" points="8.66 15.17 12.01 15.17 12.01 14.79 8.66 14.79 8.66 15.17"/><polygon id="Fill-85" points="3.6 13.61 5.3 13.61 5.3 13.17 3.6 13.17 3.6 13.61"/><polygon id="Fill-86" points="2.52 15.2 7.72 15.2 7.72 14.75 2.52 14.75 2.52 15.2"/><polygon id="Fill-87" points="3.81 3.75 5.83 3.75 5.83 3.38 3.81 3.38 3.81 3.75"/><polygon id="Fill-88" points="2.41 6.73 7.03 6.73 7.03 6.31 2.41 6.31 2.41 6.73"/><polygon id="Fill-89" points="2.52 18.69 7.41 18.69 7.41 18.17 2.52 18.17 2.52 18.69"/><polygon id="Fill-90" points="1.32 20.43 2.54 20.43 2.54 19.66 1.32 19.66 1.32 20.43"/><polygon id="Fill-91" points="4.36 5.42 12.02 5.42 12.02 5 4.36 5 4.36 5.42"/><polygon id="Fill-92" points="8.19 6.73 11.88 6.73 11.88 6.31 8.19 6.31 8.19 6.73"/><path id="Fill-93" d="M15.23,12c-.63-.38-1.18-.64-3.78-.64H7.31v.51h4.06a7,7,0,0,1,3.44.55A2.06,2.06,0,0,1,16,14.25,2.16,2.16,0,0,1,15,16a7.16,7.16,0,0,1-3.23.55H1.16v.51H11.81a6.54,6.54,0,0,0,3.52-.62,2.41,2.41,0,0,0,1.22-2.22A2.53,2.53,0,0,0,15.23,12" transform="translate(0 0.02)"/><path id="Fill-94" d="M26.14,10.87v4.67h2.55a4.44,4.44,0,0,0,2.56-.63,2,2,0,0,0,.92-1.74c0-1.53-1.3-2.3-3.87-2.3Zm0-5.56V9.5h1.92a4.22,4.22,0,0,0,2.42-.6,1.92,1.92,0,0,0,.89-1.7c0-1.26-1-1.9-3.07-1.9ZM24.26,16.92v-13h4.56a5.8,5.8,0,0,1,3.3.82,2.5,2.5,0,0,1,1.21,2.15,2.7,2.7,0,0,1-.73,1.92,4.11,4.11,0,0,1-2,1.17h0a4.5,4.5,0,0,1,2.59,1,2.66,2.66,0,0,1,1,2.17,3.16,3.16,0,0,1-1.48,2.7,6.31,6.31,0,0,1-3.72,1H24.26Z" transform="translate(0 0.02)"/><path id="Fill-95" d="M36.23,16.92h1.83V7.65H36.23Zm.92-11.63A1.3,1.3,0,0,1,36.32,5,.77.77,0,0,1,36,4.33a.86.86,0,0,1,.34-.69,1.4,1.4,0,0,1,1.68,0,.84.84,0,0,1,.2,1.17A.64.64,0,0,1,38,5a1.22,1.22,0,0,1-.85.28Z" transform="translate(0 0.02)"/><path id="Fill-96" d="M46.16,16.82a4.19,4.19,0,0,1-1.72.29c-2,0-3-.9-3-2.72V8.91h-2V7.64h2V5.38l1.83-.49V7.64h2.88V8.91H43.26v5.22a1.84,1.84,0,0,0,.4,1.33,1.69,1.69,0,0,0,1.29.4,2.15,2.15,0,0,0,1.19-.32v1.28" transform="translate(0 0.02)"/><path id="Fill-97" d="M62.81,16.92H61.1v-8a22.76,22.76,0,0,1,.14-2.33h0a5.93,5.93,0,0,1-.44,1.15l-5,9.17H55l-5-9.1a6,6,0,0,1-.44-1.23h0a22.68,22.68,0,0,1,.08,2.34v8H47.78V5h2.29l4.52,8.32a8.6,8.6,0,0,1,.68,1.44h.07c.3-.65.54-1.14.71-1.46L60.66,5h2.16V17" transform="translate(0 0.02)"/><path id="Fill-98" d="M72.12,12.22l-2.76.31a5,5,0,0,0-1.92.51,1.38,1.38,0,0,0-.65,1.3,1.33,1.33,0,0,0,.6,1.11,2.63,2.63,0,0,0,1.59.43,3.28,3.28,0,0,0,2.25-.77,2.46,2.46,0,0,0,.89-2ZM74,16.92H72.12V15.46h0a4,4,0,0,1-3.51,1.67,4.41,4.41,0,0,1-2.69-.74,2.31,2.31,0,0,1-1-2c0-1.72,1.25-2.73,3.78-3L72.12,11a2.08,2.08,0,0,0-2.35-2.36A6.44,6.44,0,0,0,66,9.81V8.29a8.5,8.5,0,0,1,3.89-.86q4,0,4,3.45v6Z" transform="translate(0 0.02)"/><path id="Fill-99" d="M82.46,9.14a2.79,2.79,0,0,0-1.39-.3,2.48,2.48,0,0,0-2,.91,3.59,3.59,0,0,0-.78,2.44v4.73h-1.8V7.65h1.84V9.56h0A3.36,3.36,0,0,1,79.57,8a3.16,3.16,0,0,1,1.8-.55,3.69,3.69,0,0,1,1.1.13V9.14" transform="translate(0 0.02)"/><path id="Fill-100" d="M88.84,16.82a4.11,4.11,0,0,1-1.71.29c-2,0-3-.9-3-2.72V8.91h-2V7.64h2V5.38L86,4.89V7.64h2.88V8.91H86v5.22a1.89,1.89,0,0,0,.39,1.33,1.73,1.73,0,0,0,1.3.4,2.15,2.15,0,0,0,1.19-.32v1.28" transform="translate(0 0.02)"/></g></g></svg>