<svg xmlns="http://www.w3.org/2000/svg" viewBox="0 0 40.57 40.54"><title>conectar</title><g id="Capa_2" data-name="Capa 2"><g id="Capa_1-2" data-name="Capa 1"><path d="M18.65,0H22c.63.09,1.28.15,1.91.28C32,2,37.25,6.78,39.81,14.61a20.67,20.67,0,0,1,.76,4v3.32l-.12.9a19.68,19.68,0,0,1-6,11.94,19.87,19.87,0,0,1-16,5.71,19.56,19.56,0,0,1-8-2.41A20.07,20.07,0,0,1,.37,16.67C1.94,8.6,6.82,3.34,14.62.77A21.24,21.24,0,0,1,18.65,0ZM20.3,37.09A16.83,16.83,0,1,0,3.48,20.22,16.86,16.86,0,0,0,20.3,37.09Z"/><path d="M30.47,20.28a10.15,10.15,0,0,1-20.1,2,9.89,9.89,0,0,1,3.88-10.21,1.73,1.73,0,0,1,2.16,2.69,7.52,7.52,0,0,0-2.29,2.92A6.7,6.7,0,1,0,27,20.82a6.48,6.48,0,0,0-2.23-5.55c-.19-.18-.4-.34-.6-.52a1.73,1.73,0,0,1,2.18-2.67,9.81,9.81,0,0,1,3.07,3.66A9.66,9.66,0,0,1,30.47,20.28Z"/><path d="M22.07,15.19c0,1.82,0,3.64,0,5.46a5.12,5.12,0,0,1-.06.78,1.67,1.67,0,0,1-1.68,1.39,1.69,1.69,0,0,1-1.69-1.38,4.53,4.53,0,0,1-.07-.74V9.7A3.64,3.64,0,0,1,18.63,9a1.72,1.72,0,0,1,3.37,0,5.25,5.25,0,0,1,.06.79C22.07,11.55,22.07,13.37,22.07,15.19Z"/></g></g></svg>