<svg xmlns="http://www.w3.org/2000/svg" viewBox="0 0 39.93 39.86"><defs><style>.cls-1{fill-rule:evenodd;}</style></defs><title>icon evu</title><g id="Capa_2" data-name="Capa 2"><g id="Capa_1-2" data-name="Capa 1"><path d="M20,4.48A15.45,15.45,0,1,0,35.42,20,15.54,15.54,0,0,0,20,4.48M20,33.54A13.6,13.6,0,1,1,33.57,20,13.59,13.59,0,0,1,20,33.54"/><path d="M39.93,18v4a2.7,2.7,0,0,0-.08.39A20.11,20.11,0,0,1,27.32,38.51,25.77,25.77,0,0,1,22,39.86H18a23.45,23.45,0,0,1-5-1.21A19.76,19.76,0,0,1,.45,24.09a14.32,14.32,0,0,1-.26-1.43v0c0-.15,0-.3-.06-.45a1.37,1.37,0,0,0,0-.23A23.12,23.12,0,0,1,.08,18c0-.3.07-.6.12-.9C1.57,9.17,6.05,3.81,13.56,1L13.7.93A21.48,21.48,0,0,1,24.78.5,20.27,20.27,0,0,1,30,2.58c.41.25.45.45.21.85-.62,1-.61,1-1.68.47a18.12,18.12,0,0,0-22,3.83A17.37,17.37,0,0,0,2,17.9a17.79,17.79,0,0,0,4.2,13.8,17.12,17.12,0,0,0,11.33,6.17c7.28.85,13.12-1.74,17.42-7.66a16.16,16.16,0,0,0,3-7.79A17.75,17.75,0,0,0,31.62,6c-.31-.29-.41-.47-.1-.83C32.45,4.09,32.14,4,33.3,5A19.59,19.59,0,0,1,39.86,17.7a1.54,1.54,0,0,0,.07.27"/><polygon class="cls-1" points="28.85 18.84 27.97 23.2 17.14 28.57 11.08 16.36 21.3 11.29 25 13.44 16.45 17.64 17.27 19.11 21.8 16.88 23.27 19.67 18.65 22 19.37 23.54 28.85 18.84"/><path class="cls-1" d="M21.69,15.82l3.52.52a.57.57,0,0,1,.5.94l-1.52,3.18-.58-1.07,1.06-2.17-2.4-.32Z"/></g></g></svg>