<svg xmlns="http://www.w3.org/2000/svg" viewBox="0 0 87.24 24.94"><defs><style>.cls-1{fill:#e4761b;stroke:#e4761b;}.cls-1,.cls-10,.cls-2,.cls-3,.cls-4,.cls-5,.cls-6,.cls-7,.cls-8,.cls-9{stroke-miterlimit:23.8;stroke-width:0.06px;}.cls-2{fill:#f6851b;stroke:#f6851b;}.cls-3{fill:#763d16;stroke:#763d16;}.cls-4{fill:#e2761b;stroke:#e2761b;}.cls-5{fill:#c0ad9e;stroke:#c0ad9e;}.cls-6{fill:#cd6116;stroke:#cd6116;}.cls-7{fill:#e4751f;stroke:#e4751f;}.cls-8{fill:#233447;stroke:#233447;}.cls-9{fill:#d7c1b3;stroke:#d7c1b3;}.cls-10{fill:#161616;stroke:#161616;}.cls-11{fill:#fff;}</style></defs><title>met123</title><g id="Capa_2" data-name="Capa 2"><g id="Capa_1-2" data-name="Capa 1"><path class="cls-1" d="M22.63,17.31l-1.44,4.87-2.83-.78Z"/><path class="cls-1" d="M18.36,21.4l2.73-3.73,1.54-.36Z"/><path class="cls-2" d="M20.51,13.64l2.12,3.67-1.54.36Zm0,0,1.36-1,.76,4.62Z"/><path class="cls-3" d="M18.78,10.86l3.91-1.6-.19.88Zm3.6.33-3.6-.33,3.72-.72Z"/><path class="cls-3" d="M22.38,11.19l-.51,1.5-3.09-1.83Zm.78-1.56-.66.51.19-.88Zm-.78,1.56.12-1,.52.43Z"/><path class="cls-4" d="M15.32,20.22l1,.31,2.06.87Z"/><path class="cls-3" d="M21.87,12.69l.51-1.5.43.33Zm0,0-4.06-1.34,1-.49Z"/><path class="cls-3" d="M19.74,6.27l-1,4.59-1,.49Z"/><path class="cls-3" d="M22.69,9.26l-3.91,1.6,1-4.59Z"/><path class="cls-3" d="M19.74,6.27l4.09-.48L22.69,9.26Z"/><path class="cls-2" d="M21.87,12.69l-1.36,1-2.7-2.29Z"/><path class="cls-3" d="M23.66,2.48l.17,3.31-4.09.48Z"/><path class="cls-4" d="M23.66,2.48,15.48,8.43l-.1-4Z"/><path class="cls-2" d="M9.3,3.91l6.08.49.1,4Z"/><path class="cls-3" d="M17.81,11.35,15.48,8.43l4.26-2.16Z"/><path class="cls-1" d="M17.81,11.35l2.7,2.29-3.79.42Z"/><path class="cls-1" d="M16.72,14.06,15.48,8.43l2.33,2.92Z"/><path class="cls-3" d="M19.74,6.27,15.48,8.43l8.18-5.95Z"/><path class="cls-5" d="M9.35,21.31l1.93,2L8.66,20.93Z"/><path class="cls-6" d="M18.36,21.4l.92-3.47,1.81-.26Z"/><path class="cls-4" d="M1.53,11.62,4.87,8.11,2,11.21Z"/><path class="cls-2" d="M21.09,17.67l-1.81.26,1.23-4.29ZM15.48,8.43l-3.25-.11L9.3,3.91Z"/><path class="cls-7" d="M20.51,13.64l-1.23,4.29-.1-2.1Z"/><path class="cls-6" d="M16.72,14.06l3.79-.42-1.33,2.19Z"/><path class="cls-2" d="M12.23,8.32l3.25.11,1.24,5.63Z"/><path class="cls-1" d="M12.23,8.32,3.46.2,9.3,3.91ZM9.29,22.54,1.67,24.9.15,19.09Z"/><path class="cls-3" d="M2.66,13.08l2.88-2.26L8,11.38Z"/><path class="cls-3" d="M8,11.38l-2.41-.56L6.83,5.48Z"/><path class="cls-3" d="M2,11.21l3.58-.39L2.66,13.08Z"/><path class="cls-6" d="M19.18,15.83l-1.49-.75-1-1Z"/><path class="cls-3" d="M2,11.21,1.7,9.87l3.84,1Z"/><path class="cls-8" d="M17.38,16.77l.31-1.69,1.49.75Z"/><path class="cls-2" d="M19.28,17.93l-1.9-1.16,1.8-.94Z"/><path class="cls-3" d="M5.54,10.82l-3.84-1L1.39,8.74ZM6.83,5.48,5.54,10.82,1.39,8.74Zm0,0,5.4,2.84L8,11.38Z"/><path class="cls-1" d="M8,11.38l4.28-3.06,1.91,5.82Zm6.19,2.76L8.22,14,8,11.38Z"/><path class="cls-2" d="M2.66,13.08,8,11.38,8.22,14Zm14.06,1-2.58.08L12.23,8.32Z"/><path class="cls-6" d="M17.69,15.08l-.31,1.69-.66-2.71Z"/><path class="cls-3" d="M3.46.2l8.77,8.12L6.83,5.48Z"/><path class="cls-1" d="M.15,19.09l7.4-.31,1.74,3.76Z"/><path class="cls-6" d="M9.29,22.54,7.55,18.78l3.63-.17Z"/><path class="cls-2" d="M17.38,16.77l1.9,1.16,1,2.46ZM8.22,14,.15,19.09l2.51-6Zm-.67,4.76-7.4.31L8.22,14Zm9.17-4.72.48,1.75L14.86,16ZM14.86,16l-.72-1.81,2.58-.08Z"/><path class="cls-5" d="M11.28,23.32l-2-.78,6.92,1.16Z"/><path class="cls-3" d="M2.66,13.08,1.53,11.62,2,11.21Z"/><path class="cls-9" d="M17,22.84l-.78.86L9.29,22.54Z"/><path class="cls-1" d="M17.37,20.73,9.29,22.54l1.89-3.93Z"/><path class="cls-9" d="M9.29,22.54l8.08-1.81L17,22.84Z"/><path class="cls-3" d="M1.39,8.74,1.13,4.2l5.7,1.28ZM2,11.21l-.79-.8.53-.54Z"/><path class="cls-6" d="M12.82,15.31l1.32-1.17L14,17Z"/><path class="cls-6" d="M14.14,14.14l-1.32,1.17-1.93,1Z"/><path class="cls-2" d="M20.32,20.39,20,20.12l-2.58-3.35Z"/><path class="cls-6" d="M10.89,16.31,8.22,14l5.92.12Z"/><path class="cls-7" d="M14,17l.19-2.86L14.86,16Z"/><path class="cls-3" d="M.91,9.19l.48-.45L1.7,9.87Z"/><path class="cls-8" d="M14,17l-3.06-.69,1.93-1Z"/><path class="cls-3" d="M6.83,5.48,1.13,4.2,3.46.2Z"/><path class="cls-5" d="M16.21,23.7l.32.89-5.25-1.27Z"/><path class="cls-2" d="M11.18,18.61l-.29-2.3L14,17Z"/><path class="cls-7" d="M8.22,14l2.67,2.29.29,2.3Z"/><path class="cls-2" d="M14.86,16l2.34-.14L20,20.12ZM8.22,14l3,4.59-3.63.17Z"/><path class="cls-7" d="M14.86,16l2.91,4.42L14,17Z"/><path class="cls-2" d="M14,17l3.82,3.37-.4.36Z"/><path class="cls-2" d="M17.37,20.73l-6.19-2.12L14,17ZM20,20.12l-2.19.25L14.86,16Z"/><path class="cls-5" d="M20.54,22.2l-.94,1.89-3.07.5Zm-4,2.39-.32-.89.78-.86Z"/><path class="cls-5" d="M17,22.84l.58-.23-1,2Zm-.46,1.75,1-2,3-.41Z"/><path class="cls-10" d="M20,20.12l.73.44-2.21.27Z"/><path class="cls-10" d="M18.48,20.83l-.71-.46L20,20.12Zm-.25.35,2.68-.33-.37,1.35Z"/><path class="cls-10" d="M20.54,22.2l-3,.41.66-1.43Zm-3,.41-.58.23.38-2.11Zm-.2-1.88.4-.36.71.46Zm3.32-.17.22.29-2.68.33Z"/><path class="cls-10" d="M18.23,21.18l.25-.35,2.21-.27Zm-.86-.45.86.45-.66,1.43Z"/><path class="cls-10" d="M18.48,20.83l-.25.35-.86-.45Z"/><path class="cls-11" d="M35.71,18.66H33.85V14.5l-2.19,4.16h-.88l-2.2-4.18v4.18H26.71v-7.8H28.6l2.62,5,2.62-5h1.87Z"/><path class="cls-11" d="M42.79,16.21H38.51a1.35,1.35,0,0,0,2.5.46l1.65.34a2.9,2.9,0,0,1-2.9,1.82,3.1,3.1,0,0,1,0-6.19,3,3,0,0,1,3,3.1Zm-4.25-1.14H41a1.16,1.16,0,0,0-1.17-.92A1.29,1.29,0,0,0,38.54,15.07Z"/><path class="cls-11" d="M48.09,18.4a3.1,3.1,0,0,1-1.59.43,2.1,2.1,0,0,1-2.33-2.32V14.29H43.11V12.81h1.06V11.09H46v1.72h1.72v1.48H46v2c0,.61.29.85.78.85a1.87,1.87,0,0,0,.85-.23Z"/><path class="cls-11" d="M54.83,18.66H53v-.47a2.62,2.62,0,0,1-1.82.64,2.91,2.91,0,0,1-2.85-3.09,2.93,2.93,0,0,1,2.85-3.1,2.62,2.62,0,0,1,1.82.64v-.47h1.86ZM53,15.74a1.46,1.46,0,0,0-1.43-1.52,1.41,1.41,0,0,0-1.41,1.52,1.39,1.39,0,0,0,1.41,1.51A1.45,1.45,0,0,0,53,15.74Z"/><path class="cls-11" d="M66,15v3.66H64.14V15.4a1,1,0,0,0-1-1.08c-.69,0-1.14.5-1.14,1.48v2.86H60.16V15.4a1,1,0,0,0-1-1.08c-.67,0-1.11.5-1.11,1.48v2.86H56.18V12.81h1.87v.54a2.2,2.2,0,0,1,1.72-.71,2.17,2.17,0,0,1,1.91,1,2.51,2.51,0,0,1,2.07-1A2.22,2.22,0,0,1,66,15Z"/><path class="cls-11" d="M73.41,18.66H71.54v-.47a2.61,2.61,0,0,1-1.81.64,2.91,2.91,0,0,1-2.86-3.09,2.93,2.93,0,0,1,2.86-3.1,2.61,2.61,0,0,1,1.81.64v-.47h1.87Zm-1.87-2.92a1.46,1.46,0,0,0-1.43-1.52,1.41,1.41,0,0,0-1.41,1.52,1.4,1.4,0,0,0,1.41,1.51A1.44,1.44,0,0,0,71.54,15.74Z"/><path class="cls-11" d="M76.18,16.76c.08.5.53.69,1,.69S78,17.24,78,17s-.15-.35-.58-.43l-1.19-.23c-1.08-.2-1.7-.78-1.7-1.7,0-1.2,1-2,2.52-2s2.42.66,2.65,1.68l-1.7.33A.91.91,0,0,0,77,14c-.5,0-.66.24-.66.45s.07.33.44.41l1.38.28a1.76,1.76,0,0,1,1.61,1.76c0,1.29-1.11,2-2.65,2-1.37,0-2.55-.5-2.75-1.7Z"/><path class="cls-11" d="M84.85,18.66,83,16.55h-.34v2.11H80.75V10.28h1.87v4.53h.25l1.86-2H87L84.41,15.6l2.83,3.06Z"/></g></g></svg>