<svg xmlns="http://www.w3.org/2000/svg" viewBox="0 0 94.58 14.59"><defs><style>.cls-1{fill:#fff;}.cls-2,.cls-5{fill:#633001;}.cls-2,.cls-4{fill-rule:evenodd;}.cls-3{fill:#fedc90;}.cls-4{fill:#d1884f;}</style></defs><title>pancakeswap</title><g id="Capa_2" data-name="Capa 2"><g id="Capa_1-2" data-name="Capa 1"><path class="cls-1" d="M18.31,11.34a.92.92,0,0,1-.47-.12.8.8,0,0,1-.12-.41V4.19a.69.69,0,0,1,.12-.41.58.58,0,0,1,.47-.18h2.78a3.77,3.77,0,0,1,2.36.65,2.71,2.71,0,0,1,.77,2,2.47,2.47,0,0,1-.77,2,3.65,3.65,0,0,1-2.36.65H20v1.83a.7.7,0,0,1-.12.42c-.12.11-.24.11-.47.11H18.31Zm2.6-4.07A.92.92,0,0,0,21.62,7a1,1,0,0,0,.24-.77,1,1,0,0,0-.24-.77,1,1,0,0,0-.71-.23H20v2Z"/><path class="cls-1" d="M26.88,11.52a2.18,2.18,0,0,1-1.71-.71,2.83,2.83,0,0,1-.65-2,3,3,0,0,1,.41-1.65,3.21,3.21,0,0,1,1.24-1.12A4.55,4.55,0,0,1,28,5.67a6,6,0,0,1,1.54.18,4.55,4.55,0,0,1,1.24.53v4.55c0,.12,0,.24-.06.29a.43.43,0,0,1-.29.06H29.24c-.06,0-.17,0-.17-.06L29,11.11l-.18-.36a2.09,2.09,0,0,1-.77.53A2.21,2.21,0,0,1,26.88,11.52ZM27.71,10a.94.94,0,0,0,.71-.23.71.71,0,0,0,.23-.59V7.38a1.6,1.6,0,0,0-.53-.11,1.07,1.07,0,0,0-.94.41,1.75,1.75,0,0,0-.36,1.18C26.82,9.57,27.12,10,27.71,10Z"/><path class="cls-1" d="M32.37,11.34a.92.92,0,0,1-.47-.12c-.12-.11-.12-.23-.12-.41V6.2a.43.43,0,0,1,.06-.29.45.45,0,0,1,.3-.06h1.18c.12,0,.18,0,.18.06s.06.06.12.12l.05.35a1.94,1.94,0,0,1,.83-.47,3.53,3.53,0,0,1,1.18-.18,2.08,2.08,0,0,1,1.48.53,2.07,2.07,0,0,1,.59,1.54v3a.64.64,0,0,1-.12.41c-.06.12-.23.12-.47.12H36a.93.93,0,0,1-.48-.12.5.5,0,0,1-.11-.41V7.92c0-.24-.06-.42-.18-.48a.61.61,0,0,0-.47-.17.73.73,0,0,0-.53.17.68.68,0,0,0-.18.48v2.83a.7.7,0,0,1-.12.42c-.06.11-.24.11-.47.11H32.37Z"/><path class="cls-1" d="M41.77,11.52a3.56,3.56,0,0,1-2.48-.77,2.55,2.55,0,0,1-.89-2.12,2.76,2.76,0,0,1,.41-1.54,2.64,2.64,0,0,1,1.13-1,4.24,4.24,0,0,1,1.77-.36,4,4,0,0,1,1.3.18,2.31,2.31,0,0,1,.94.47c.06.06.12.12.12.18s-.06.12-.12.23l-.47.83q-.09.18-.18.18c-.06,0-.11-.06-.23-.12a3,3,0,0,0-.59-.3,2.52,2.52,0,0,0-.65-.11,1.33,1.33,0,0,0-.95.35,1.42,1.42,0,0,0-.35,1,1.42,1.42,0,0,0,.35,1,1.24,1.24,0,0,0,.95.35,2.15,2.15,0,0,0,.65-.11,3,3,0,0,0,.59-.3c.12-.06.17-.12.23-.12s.12.06.18.18l.53.89a.19.19,0,0,1,.06.17c0,.06-.06.12-.12.18a4.34,4.34,0,0,1-1.06.47A2.39,2.39,0,0,1,41.77,11.52Z"/><path class="cls-1" d="M47.14,11.52a2.2,2.2,0,0,1-1.71-.71,2.88,2.88,0,0,1-.65-2,3,3,0,0,1,.41-1.65,3.17,3.17,0,0,1,1.25-1.12,4.55,4.55,0,0,1,1.83-.42,6,6,0,0,1,1.53.18A4.42,4.42,0,0,1,51,6.38v4.55c0,.12,0,.24-.06.29s-.17.06-.29.06H49.51c-.06,0-.18,0-.18-.06l-.12-.11L49,10.75a2.06,2.06,0,0,1-.76.53A2.11,2.11,0,0,1,47.14,11.52ZM48,10a.93.93,0,0,0,.71-.23A.69.69,0,0,0,49,9.16V7.38a1.66,1.66,0,0,0-.54-.11,1.07,1.07,0,0,0-.94.41,1.75,1.75,0,0,0-.36,1.18C47.08,9.57,47.38,10,48,10Z"/><path class="cls-1" d="M58.25,10.93a.22.22,0,0,1,.06.18.2.2,0,0,1-.06.17.22.22,0,0,1-.18.06h-2c-.05,0-.11-.06-.17-.12L54.35,9.1v1.65a.7.7,0,0,1-.12.42c-.11.11-.23.11-.47.11H52.64a1,1,0,0,1-.47-.11.87.87,0,0,1-.12-.42V4.19a.69.69,0,0,1,.12-.41.56.56,0,0,1,.47-.18h1.12a.56.56,0,0,1,.47.18.49.49,0,0,1,.12.41V8L55.83,6c.06-.06.12-.12.18-.12s.11-.06.23-.06H58a.21.21,0,0,1,.24.24.21.21,0,0,1-.06.17L56.24,8.51Z"/><path class="cls-1" d="M61.91,11.52a5.1,5.1,0,0,1-1.71-.3A3,3,0,0,1,59,10.28a2.58,2.58,0,0,1-.41-1.54,2.84,2.84,0,0,1,.82-2.18,3.27,3.27,0,0,1,2.37-.77A2.88,2.88,0,0,1,64,6.56a2.64,2.64,0,0,1,.77,2.07c0,.35-.18.59-.47.59H60.79a.86.86,0,0,0,.36.76,1.94,1.94,0,0,0,1.12.24,2.89,2.89,0,0,0,.77-.06c.23-.06.41-.18.65-.23a.41.41,0,0,1,.17-.06c.06,0,.12.06.18.11l.41.71a.22.22,0,0,1,.06.18c0,.06-.06.12-.12.18a4.75,4.75,0,0,1-1.06.47A11.2,11.2,0,0,0,61.91,11.52ZM62.8,8a.72.72,0,0,0-.24-.65,1,1,0,0,0-.76-.24,1,1,0,0,0-.77.24.79.79,0,0,0-.24.65Z"/><path class="cls-1" d="M68.77,11.52a9,9,0,0,1-1.83-.18,3.51,3.51,0,0,1-1.36-.59.33.33,0,0,1-.18-.23.22.22,0,0,1,.06-.18L66,9.45c.06-.12.12-.12.18-.12a.19.19,0,0,1,.17.06,4.8,4.8,0,0,0,1,.42,3.26,3.26,0,0,0,1.06.17,1.33,1.33,0,0,0,.77-.17.58.58,0,0,0,.24-.53.63.63,0,0,0-.3-.54A5.48,5.48,0,0,0,68,8.27a6,6,0,0,1-1.77-.94,1.91,1.91,0,0,1-.65-1.48,2,2,0,0,1,.82-1.71,3.35,3.35,0,0,1,2.13-.6,5.93,5.93,0,0,1,1.6.18,4.38,4.38,0,0,1,1.12.47c.12.12.17.18.17.3a.25.25,0,0,1,0,.18l-.54.88c0,.12-.11.12-.17.12a.22.22,0,0,1-.18-.06,2.72,2.72,0,0,0-1.6-.41,1.29,1.29,0,0,0-.76.18.56.56,0,0,0-.24.53.83.83,0,0,0,.12.41c.12.12.23.18.35.3s.42.17.71.29L69.3,7a6.79,6.79,0,0,1,1.3.65,2,2,0,0,1,.77.77,2.08,2.08,0,0,1,.23,1.06,1.83,1.83,0,0,1-.77,1.6A4.11,4.11,0,0,1,68.77,11.52Z"/><path class="cls-1" d="M74.14,11.34c-.12,0-.17,0-.23-.06a.29.29,0,0,1-.12-.23L72.31,6.14V6c0-.12.06-.18.24-.18H74c.12,0,.18,0,.24.06a.46.46,0,0,1,.12.18L75,8.68l.77-2.06c.06-.12.06-.18.12-.18s.11-.06.23-.06h.71c.12,0,.18,0,.24.06s.06.12.12.18l.76,2.06.65-2.59c0-.06.06-.12.12-.18a.22.22,0,0,1,.18-.06H80.4c.18,0,.24.06.24.18v.11l-1.48,4.91c0,.12,0,.17-.11.23s-.12.06-.24.06H77.69c-.12,0-.18,0-.24-.06a.29.29,0,0,1-.12-.23L76.56,9l-.76,2.07c-.06.12-.06.17-.12.23s-.12.06-.24.06Z"/><path class="cls-1" d="M83.36,11.52a2.18,2.18,0,0,1-1.71-.71,2.83,2.83,0,0,1-.65-2,2.94,2.94,0,0,1,.41-1.65,3.14,3.14,0,0,1,1.24-1.12,4.55,4.55,0,0,1,1.83-.42A6.08,6.08,0,0,1,86,5.85a4.69,4.69,0,0,1,1.24.53v4.55c0,.12,0,.24-.06.29a.45.45,0,0,1-.3.06H85.72a.22.22,0,0,1-.18-.06l-.11-.11-.18-.36a2.09,2.09,0,0,1-.77.53A2.07,2.07,0,0,1,83.36,11.52ZM84.24,10A.91.91,0,0,0,85,9.75a.69.69,0,0,0,.24-.59V7.38a1.6,1.6,0,0,0-.53-.11,1.09,1.09,0,0,0-1,.41,1.8,1.8,0,0,0-.35,1.18C83.3,9.57,83.6,10,84.24,10Z"/><path class="cls-1" d="M88.85,13.65a.92.92,0,0,1-.47-.12.86.86,0,0,1-.12-.41V6.62A3.63,3.63,0,0,1,89.56,6a4.93,4.93,0,0,1,1.6-.24c2.3,0,3.42.94,3.42,2.89a3,3,0,0,1-.71,2.13,2.63,2.63,0,0,1-2.06.77,2.85,2.85,0,0,1-.71-.12,1.66,1.66,0,0,1-.59-.24v1.9a.69.69,0,0,1-.12.41c-.12.12-.24.12-.47.12ZM91.33,10A.7.7,0,0,0,92,9.63a1.67,1.67,0,0,0,.24-1A1.75,1.75,0,0,0,92,7.56a1.19,1.19,0,0,0-.88-.29,1.67,1.67,0,0,0-.59.11V9.16a.71.71,0,0,0,.23.59A.68.68,0,0,0,91.33,10Z"/><path class="cls-2" d="M2.66,2.3A2,2,0,0,1,4.55,0a2,2,0,0,1,2,2V4.31H8.09V2A2,2,0,0,1,10,0a2,2,0,0,1,1.89,2.3L11.4,5.08c1.77.77,3.13,2.13,3.13,3.84v1a4,4,0,0,1-2.24,3.36,9.42,9.42,0,0,1-5,1.3,9.46,9.46,0,0,1-5-1.3A4.07,4.07,0,0,1,0,9.93v-1C0,7.21,1.36,5.85,3.13,5.08Zm8.09,3.19.59-3.25A1.32,1.32,0,0,0,10,.65,1.34,1.34,0,0,0,8.68,2V5C8.51,5,8.27,5,8.09,5H7.33A3.82,3.82,0,0,0,6.5,5c-.18,0-.41.06-.59.06v-3a1.34,1.34,0,1,0-2.66.23l.59,3.31C2,6.32.65,7.62.65,9.1v1c0,2.25,3,4.08,6.62,4.08s6.61-1.83,6.61-4.08v-1C13.94,7.5,12.64,6.2,10.75,5.49Z"/><path class="cls-3" d="M13.94,10c0,2.25-2.95,4.08-6.61,4.08S.71,12.23.71,10V9H14v1Z"/><path class="cls-4" d="M3.25,2.19A1.34,1.34,0,1,1,5.91,2V5A11.18,11.18,0,0,1,7.33,4.9c.47,0,.94.06,1.35.06V2A1.34,1.34,0,0,1,10,.59a1.33,1.33,0,0,1,1.3,1.6l-.59,3.25c1.95.7,3.25,2,3.25,3.48C14,11.17,11.05,13,7.38,13S.77,11.17.77,8.92C.77,7.44,2.07,6.14,4,5.44Z"/><path class="cls-5" d="M5.49,8.68c0,.6-.35,1.13-.7,1.13s-.71-.48-.71-1.13.35-1.12.71-1.12S5.49,8,5.49,8.68Z"/><path class="cls-5" d="M10.57,8.68c0,.6-.35,1.13-.7,1.13s-.71-.48-.71-1.13.35-1.12.71-1.12S10.57,8,10.57,8.68Z"/></g></g></svg>