<?xml version="1.0" encoding="utf-8"?>
<!-- Generator: Adobe Illustrator 21.0.0, SVG Export Plug-In . SVG Version: 6.00 Build 0)  -->
<svg version="1.1" id="Capa_1" xmlns="http://www.w3.org/2000/svg" xmlns:xlink="http://www.w3.org/1999/xlink" x="0px" y="0px"
	 viewBox="0 0 94.6 14.6" style="enable-background:new 0 0 94.6 14.6;" xml:space="preserve">
<style type="text/css">
	.st0{fill:#633001;}
	.st1{fill:#FEDC90;}
	.st2{fill:#D1884F;}
</style>
<title>pancakeswap</title>
<g id="Capa_2">
	<g id="Capa_1-2">
		<path d="M18.3,11.3c-0.2,0-0.3,0-0.5-0.1c-0.1-0.1-0.1-0.3-0.1-0.4V4.2c0-0.1,0-0.3,0.1-0.4c0.1-0.1,0.3-0.2,0.5-0.2h2.8
			c0.8-0.1,1.7,0.2,2.4,0.7c0.5,0.5,0.8,1.3,0.8,2c0.1,0.7-0.2,1.5-0.8,2c-0.7,0.5-1.5,0.7-2.4,0.6H20v1.8c0,0.1,0,0.3-0.1,0.4
			c-0.1,0.1-0.2,0.1-0.5,0.1L18.3,11.3L18.3,11.3z M20.9,7.3c0.3,0,0.5-0.1,0.7-0.3c0.2-0.2,0.3-0.5,0.2-0.8c0-0.3-0.1-0.6-0.2-0.8
			c-0.2-0.2-0.5-0.2-0.7-0.2H20v2L20.9,7.3z"/>
		<path d="M26.9,11.5c-0.6,0-1.3-0.2-1.7-0.7c-0.5-0.6-0.7-1.3-0.6-2c0-0.6,0.1-1.2,0.4-1.7c0.3-0.5,0.7-0.9,1.2-1.1
			c0.6-0.2,1.2-0.4,1.8-0.4c0.5,0,1,0.1,1.5,0.2C30,6,30.4,6.1,30.8,6.4v4.6c0,0.1,0,0.2-0.1,0.3c-0.1,0.1-0.2,0.1-0.3,0.1h-1.2
			c-0.1,0-0.2,0-0.2-0.1L29,11.1l-0.2-0.4c-0.2,0.2-0.5,0.4-0.8,0.5C27.7,11.5,27.3,11.5,26.9,11.5z M27.7,10c0.3,0,0.5-0.1,0.7-0.2
			c0.2-0.1,0.3-0.4,0.2-0.6V7.4c-0.2-0.1-0.3-0.1-0.5-0.1c-0.4,0-0.7,0.1-0.9,0.4c-0.3,0.3-0.4,0.8-0.4,1.2
			C26.8,9.6,27.1,10,27.7,10z"/>
		<path d="M32.4,11.3c-0.2,0-0.3,0-0.5-0.1c-0.1-0.1-0.1-0.2-0.1-0.4V6.2c0-0.1,0-0.2,0.1-0.3c0.1-0.1,0.2-0.1,0.3-0.1h1.2
			c0.1,0,0.2,0,0.2,0.1S33.6,6,33.6,6l0,0.3c0.2-0.2,0.5-0.4,0.8-0.5c0.4-0.1,0.8-0.2,1.2-0.2c0.5,0,1.1,0.2,1.5,0.5
			c0.4,0.4,0.6,1,0.6,1.5v3c0,0.1,0,0.3-0.1,0.4c-0.1,0.1-0.2,0.1-0.5,0.1H36c-0.2,0-0.3,0-0.5-0.1c-0.1-0.1-0.1-0.3-0.1-0.4V7.9
			c0-0.2-0.1-0.4-0.2-0.5c-0.1-0.1-0.3-0.2-0.5-0.2c-0.2,0-0.4,0-0.5,0.2C34.1,7.6,34,7.7,34,7.9v2.8c0,0.1,0,0.3-0.1,0.4
			c-0.1,0.1-0.2,0.1-0.5,0.1L32.4,11.3L32.4,11.3z"/>
		<path d="M41.8,11.5c-0.9,0.1-1.8-0.2-2.5-0.8c-0.6-0.5-0.9-1.3-0.9-2.1c0-0.5,0.1-1.1,0.4-1.5c0.3-0.4,0.7-0.8,1.1-1
			c0.6-0.2,1.2-0.4,1.8-0.4c0.4,0,0.9,0,1.3,0.2C43.4,6,43.7,6.2,44,6.4c0.1,0.1,0.1,0.1,0.1,0.2S44,6.7,44,6.8l-0.5,0.8
			c-0.1,0.1-0.1,0.2-0.2,0.2s-0.1-0.1-0.2-0.1c-0.2-0.1-0.4-0.2-0.6-0.3c-0.2-0.1-0.4-0.1-0.7-0.1c-0.4,0-0.7,0.1-1,0.3
			c-0.2,0.3-0.4,0.6-0.3,1c0,0.4,0.1,0.7,0.3,1c0.3,0.2,0.6,0.4,1,0.4c0.2,0,0.4,0,0.7-0.1c0.2-0.1,0.4-0.2,0.6-0.3
			c0.1-0.1,0.2-0.1,0.2-0.1s0.1,0.1,0.2,0.2l0.5,0.9c0,0,0.1,0.1,0.1,0.2c0,0.1-0.1,0.1-0.1,0.2c-0.3,0.2-0.7,0.4-1.1,0.5
			C42.5,11.5,42.2,11.5,41.8,11.5z"/>
		<path d="M47.1,11.5c-0.6,0-1.3-0.2-1.7-0.7c-0.5-0.6-0.7-1.3-0.7-2c0-0.6,0.1-1.2,0.4-1.7c0.3-0.5,0.7-0.9,1.3-1.1
			c0.6-0.3,1.2-0.4,1.8-0.4c0.5,0,1,0.1,1.5,0.2c0.4,0.1,0.8,0.3,1.2,0.6v4.6c0,0.1,0,0.2-0.1,0.3s-0.2,0.1-0.3,0.1h-1.1
			c-0.1,0-0.2,0-0.2-0.1l-0.1-0.1L49,10.8c-0.2,0.2-0.5,0.4-0.8,0.5C47.9,11.5,47.5,11.5,47.1,11.5z M48,10c0.3,0,0.5-0.1,0.7-0.2
			C48.9,9.6,49,9.4,49,9.2V7.4c-0.2-0.1-0.4-0.1-0.5-0.1c-0.4,0-0.7,0.1-0.9,0.4c-0.3,0.3-0.4,0.8-0.4,1.2C47.1,9.6,47.4,10,48,10z"
			/>
		<path d="M58.3,10.9c0,0,0.1,0.1,0.1,0.2c0,0.1,0,0.1-0.1,0.2c0,0-0.1,0.1-0.2,0.1h-2c0,0-0.1-0.1-0.2-0.1l-1.6-2.1v1.6
			c0,0.1,0,0.3-0.1,0.4c-0.1,0.1-0.2,0.1-0.5,0.1h-1.1c-0.2,0-0.3,0-0.5-0.1c-0.1-0.1-0.1-0.3-0.1-0.4V4.2c0-0.1,0-0.3,0.1-0.4
			c0.1-0.1,0.3-0.2,0.5-0.2h1.1c0.2,0,0.4,0,0.5,0.2c0.1,0.1,0.1,0.3,0.1,0.4V8l1.5-2C55.9,5.9,56,5.9,56,5.9s0.1-0.1,0.2-0.1H58
			c0.1,0,0.2,0.1,0.2,0.2c0,0,0,0,0,0.1c0,0.1,0,0.1-0.1,0.2l-1.9,2.3L58.3,10.9z"/>
		<path d="M61.9,11.5c-0.6,0-1.2-0.1-1.7-0.3c-0.5-0.2-0.9-0.5-1.2-0.9c-0.3-0.5-0.4-1-0.4-1.5c-0.1-0.8,0.2-1.6,0.8-2.2
			c0.7-0.6,1.5-0.8,2.4-0.8C62.6,5.7,63.4,6,64,6.6c0.5,0.5,0.8,1.3,0.8,2.1c0,0.4-0.2,0.6-0.5,0.6h-3.5c0,0.3,0.1,0.6,0.4,0.8
			c0.3,0.2,0.7,0.3,1.1,0.2c0.3,0,0.5,0,0.8-0.1c0.2-0.1,0.4-0.2,0.7-0.2c0.1,0,0.1-0.1,0.2-0.1c0.1,0,0.1,0.1,0.2,0.1l0.4,0.7
			c0,0,0.1,0.1,0.1,0.2c0,0.1-0.1,0.1-0.1,0.2c-0.3,0.2-0.7,0.4-1.1,0.5C62.9,11.5,62.4,11.5,61.9,11.5z M62.8,8
			c0-0.2-0.1-0.5-0.2-0.7c-0.2-0.2-0.5-0.3-0.8-0.2c-0.3,0-0.6,0.1-0.8,0.2c-0.2,0.2-0.3,0.4-0.2,0.7H62.8z"/>
		<path d="M68.8,11.5c-0.6,0-1.2-0.1-1.8-0.2c-0.5-0.1-1-0.3-1.4-0.6c-0.1,0-0.2-0.1-0.2-0.2c0-0.1,0-0.1,0.1-0.2L66,9.4
			c0.1-0.1,0.1-0.1,0.2-0.1c0.1,0,0.1,0,0.2,0.1c0.3,0.2,0.7,0.3,1,0.4C67.7,9.9,68,10,68.4,10c0.3,0,0.5,0,0.8-0.2
			c0.2-0.1,0.3-0.3,0.2-0.5c0-0.2-0.1-0.4-0.3-0.5c-0.4-0.2-0.7-0.4-1.1-0.5c-0.6-0.2-1.2-0.5-1.8-0.9c-0.4-0.4-0.7-0.9-0.7-1.5
			c0-0.7,0.3-1.3,0.8-1.7c0.6-0.4,1.4-0.6,2.1-0.6c0.5,0,1.1,0,1.6,0.2c0.4,0.1,0.8,0.3,1.1,0.5c0.1,0.1,0.2,0.2,0.2,0.3
			c0,0.1,0,0.1,0,0.2l-0.5,0.9c0,0.1-0.1,0.1-0.2,0.1c-0.1,0-0.1,0-0.2-0.1c-0.5-0.3-1-0.4-1.6-0.4c-0.3,0-0.5,0-0.8,0.2
			c-0.2,0.1-0.3,0.3-0.2,0.5c0,0.1,0,0.3,0.1,0.4c0.1,0.1,0.2,0.2,0.3,0.3s0.4,0.2,0.7,0.3L69.3,7c0.5,0.2,0.9,0.4,1.3,0.7
			c0.3,0.2,0.6,0.4,0.8,0.8c0.2,0.3,0.2,0.7,0.2,1.1c0,0.6-0.3,1.2-0.8,1.6C70.2,11.4,69.5,11.6,68.8,11.5z"/>
		<path d="M74.1,11.3c-0.1,0-0.2,0-0.2-0.1c-0.1-0.1-0.1-0.1-0.1-0.2l-1.5-4.9V6c0-0.1,0.1-0.2,0.2-0.2H74c0.1,0,0.2,0,0.2,0.1
			c0.1,0,0.1,0.1,0.1,0.2L75,8.7l0.8-2.1c0.1-0.1,0.1-0.2,0.1-0.2s0.1-0.1,0.2-0.1h0.7c0.1,0,0.2,0,0.2,0.1s0.1,0.1,0.1,0.2L78,8.7
			l0.7-2.6c0-0.1,0.1-0.1,0.1-0.2c0,0,0.1-0.1,0.2-0.1h1.5c0.2,0,0.2,0.1,0.2,0.2v0.1l-1.5,4.9c0,0.1,0,0.2-0.1,0.2
			s-0.1,0.1-0.2,0.1h-1.1c-0.1,0-0.2,0-0.2-0.1c-0.1-0.1-0.1-0.1-0.1-0.2L76.6,9l-0.8,2.1c-0.1,0.1-0.1,0.2-0.1,0.2
			s-0.1,0.1-0.2,0.1L74.1,11.3z"/>
		<path d="M83.4,11.5c-0.6,0-1.3-0.2-1.7-0.7c-0.5-0.6-0.7-1.3-0.7-2c0-0.6,0.1-1.2,0.4-1.7c0.3-0.5,0.7-0.9,1.2-1.1
			c0.6-0.3,1.2-0.4,1.8-0.4c0.5,0,1,0.1,1.5,0.2c0.4,0.1,0.9,0.3,1.2,0.5v4.6c0,0.1,0,0.2-0.1,0.3c-0.1,0.1-0.2,0.1-0.3,0.1h-1.2
			c-0.1,0-0.1,0-0.2-0.1l-0.1-0.1l-0.2-0.4c-0.2,0.2-0.5,0.4-0.8,0.5C84.1,11.5,83.7,11.5,83.4,11.5z M84.2,10
			c0.3,0,0.6-0.1,0.8-0.3c0.2-0.1,0.3-0.4,0.2-0.6V7.4c-0.2-0.1-0.3-0.1-0.5-0.1c-0.4,0-0.8,0.1-1,0.4c-0.3,0.3-0.4,0.8-0.3,1.2
			C83.3,9.6,83.6,10,84.2,10z"/>
		<path d="M88.8,13.6c-0.2,0-0.3,0-0.5-0.1c-0.1-0.1-0.1-0.3-0.1-0.4V6.6c0.4-0.3,0.8-0.5,1.3-0.6c0.5-0.2,1.1-0.2,1.6-0.2
			c2.3,0,3.4,0.9,3.4,2.9c0,0.8-0.2,1.5-0.7,2.1c-0.5,0.5-1.3,0.8-2.1,0.8c-0.2,0-0.5-0.1-0.7-0.1c-0.2,0-0.4-0.1-0.6-0.2v1.9
			c0,0.1,0,0.3-0.1,0.4c-0.1,0.1-0.2,0.1-0.5,0.1L88.8,13.6z M91.3,10c0.3,0,0.5-0.1,0.7-0.4c0.2-0.3,0.3-0.6,0.2-1
			c0-0.4,0-0.7-0.2-1.1c-0.2-0.2-0.6-0.3-0.9-0.3c-0.2,0-0.4,0-0.6,0.1v1.8c0,0.2,0.1,0.4,0.2,0.6C90.9,9.9,91.1,10,91.3,10z"/>
		<path class="st0" d="M2.7,2.3C2.5,1.2,3.2,0.2,4.3,0c0.1,0,0.1,0,0.2,0c1.1,0,2,0.9,2,2v2.3h1.5V2c0-1.1,0.8-2,1.9-2
			c1.1,0,2,1,1.9,2.1c0,0.1,0,0.1,0,0.2l-0.5,2.8c1.8,0.8,3.1,2.1,3.1,3.8v1c-0.1,1.4-0.9,2.7-2.2,3.4c-1.5,0.9-3.2,1.3-5,1.3
			c-1.8,0-3.5-0.4-5-1.3C1,12.7,0.1,11.4,0,9.9v-1c0-1.7,1.4-3.1,3.1-3.9L2.7,2.3z M10.8,5.5l0.6-3.3c0.1-0.7-0.3-1.4-1-1.6
			c-0.1,0-0.2,0-0.3,0C9.3,0.7,8.7,1.3,8.7,2v3C8.5,5,8.3,5,8.1,5H7.3C7.1,5,6.8,5,6.5,5C6.3,5,6.1,5.1,5.9,5.1v-3
			c0-0.7-0.6-1.3-1.3-1.3c-0.7,0-1.3,0.6-1.3,1.3c0,0.1,0,0.2,0,0.2l0.6,3.3C2,6.3,0.6,7.6,0.6,9.1v1c0,2.3,3,4.1,6.6,4.1
			s6.6-1.8,6.6-4.1v-1C13.9,7.5,12.6,6.2,10.8,5.5z"/>
		<path class="st1" d="M13.9,10c0,2.3-2.9,4.1-6.6,4.1S0.7,12.2,0.7,10V9H14L13.9,10L13.9,10z"/>
		<path class="st2" d="M3.3,2.2C3.1,1.5,3.6,0.8,4.3,0.6S5.8,1,5.9,1.7c0,0.1,0,0.2,0,0.3v3c0.5-0.1,0.9-0.1,1.4-0.1
			C7.8,4.9,8.3,5,8.7,5V2c0-0.7,0.5-1.4,1.3-1.4c0,0,0,0,0.1,0c0.7,0,1.3,0.6,1.3,1.3c0,0.1,0,0.2,0,0.3l-0.6,3.3
			c1.9,0.7,3.3,2,3.3,3.5c0,2.3-2.9,4.1-6.6,4.1s-6.6-1.8-6.6-4.1c0-1.5,1.3-2.8,3.2-3.5L3.3,2.2z"/>
		<path class="st0" d="M5.5,8.7c0,0.6-0.3,1.1-0.7,1.1S4.1,9.3,4.1,8.7s0.3-1.1,0.7-1.1S5.5,8,5.5,8.7z"/>
		<path class="st0" d="M10.6,8.7c0,0.6-0.4,1.1-0.7,1.1S9.2,9.3,9.2,8.7s0.4-1.1,0.7-1.1S10.6,8,10.6,8.7z"/>
	</g>
</g>
</svg>
