<svg xmlns="http://www.w3.org/2000/svg" viewBox="0 0 90.31 24.5"><defs><style>.cls-1{fill:#fff;}</style></defs><title>logo probit</title><g id="Capa_2" data-name="Capa 2"><g id="Capa_1-2" data-name="Capa 1"><path class="cls-1" d="M21,5.68,11.41.14a1.31,1.31,0,0,0-1.19,0L.6,5.68a1.32,1.32,0,0,0-.6,1V17.79a1.35,1.35,0,0,0,.6,1l9.62,5.53a1.31,1.31,0,0,0,1.19,0L21,18.83a1.32,1.32,0,0,0,.6-1V6.72A1.31,1.31,0,0,0,21,5.68ZM16.74,8.25l-5.48,3.23a1.31,1.31,0,0,1-1.19,0L6.59,9.42c-.43-.25-.79-.06-.79.45V16A.49.49,0,0,1,5,16.5l-.59-.3a1.35,1.35,0,0,1-.62-1V8.47a1.32,1.32,0,0,1,.6-1l5.65-3.28a1.31,1.31,0,0,1,1.19,0l5.48,3.17A.49.49,0,0,1,16.74,8.25Z"/><path class="cls-1" d="M33,20.05c0-.07,0-.15.13-.17h.36a.19.19,0,0,1,.19.16h0v1.72a.17.17,0,0,1-.12.17l0,0A3,3,0,0,1,30,17.18a2.87,2.87,0,0,1,1.74-.56,2.92,2.92,0,0,1,1,.2c.27.1.8.34.8.53,0,0,0,.06,0,.08l-.17.28c0,.06-.08.08-.13.1a.19.19,0,0,1-.15-.06,2.38,2.38,0,0,0-1.36-.45,2.28,2.28,0,1,0-.1,4.55h.1a2.18,2.18,0,0,0,1.2-.34Z"/><path class="cls-1" d="M39,21.77a.16.16,0,0,1,.17.15v.33a.18.18,0,0,1-.17.17H35.67a.15.15,0,0,1-.17-.14V16.84a.17.17,0,0,1,.15-.17H36a.16.16,0,0,1,.17.15v4.93H39Z"/><path class="cls-1" d="M46,19.58a3,3,0,1,1-3-3,3,3,0,0,1,3,3S46,19.56,46,19.58Zm-3,2.27a2.29,2.29,0,1,0-2.29-2.31A2.31,2.31,0,0,0,43,21.85Z"/><path class="cls-1" d="M51.24,19.35a1.65,1.65,0,0,1,.83,1.42,1.62,1.62,0,0,1-1.59,1.66H47.93a.18.18,0,0,1-.19-.15v-5.4a.16.16,0,0,1,.13-.19H50.2a1.52,1.52,0,0,1,1,2.66Zm-1-2H48.4v1.78h1.8a.9.9,0,0,0,.88-.95.8.8,0,0,0-.88-.83Zm-1.8,2.44v2h2.06a1,1,0,0,0,.93-1,1,1,0,0,0-.93-1H48.4Z"/><path class="cls-1" d="M54,22.26a.21.21,0,0,1-.21.16h-.34c-.11,0-.17,0-.17-.14a.13.13,0,0,1,0-.09c2.23-5.37,2.25-5.37,2.25-5.37a.16.16,0,0,1,.19-.13H56a.2.2,0,0,1,.19.13l2.22,5.39a.15.15,0,0,1,0,.09c0,.08-.07.13-.17.13h-.34a.2.2,0,0,1-.2-.15l-.46-1.11H54.45Zm.72-1.73H57l-1.14-2.84Z"/><path class="cls-1" d="M63.52,21.77a.17.17,0,0,1,.17.15v.33a.18.18,0,0,1-.17.17H60.25a.15.15,0,0,1-.17-.12V16.84a.17.17,0,0,1,.15-.17h.34a.16.16,0,0,1,.17.15v4.93h2.78Z"/><path class="cls-1" d="M28.7,2.45a.28.28,0,0,1,.24-.32h4.65A3.41,3.41,0,0,1,36.9,5.6,3.37,3.37,0,0,1,33.63,9H31.44v3.38a.29.29,0,0,1-.32.32H29c-.21,0-.3-.09-.3-.32Zm2.74,1.92V6.75H33a1.12,1.12,0,0,0,1.09-1.19A1.17,1.17,0,0,0,33,4.35H31.44Z"/><path class="cls-1" d="M39.43,2.45a.29.29,0,0,1,.28-.32h4.76a3.48,3.48,0,0,1,3.38,3.55,3.64,3.64,0,0,1-1.73,2.93l2,3.79c.09.15,0,.32-.17.32H45.42c-.21,0-.27-.05-.38-.3l-1.7-3.23H42.19V12.4a.29.29,0,0,1-.33.32H39.73c-.21,0-.3-.09-.3-.32V2.45Zm2.76,1.87V6.91h1.58A1.29,1.29,0,0,0,45,5.62a1.32,1.32,0,0,0-1.27-1.3Z"/><path class="cls-1" d="M55.56,2A5.46,5.46,0,1,1,50.1,7.45,5.45,5.45,0,0,1,55.56,2Zm0,8.28a2.71,2.71,0,0,0,2.7-2.83,2.7,2.7,0,1,0-5.4,0A2.7,2.7,0,0,0,55.56,10.25Z"/><path class="cls-1" d="M63.89,2.45a.29.29,0,0,1,.32-.32h4.54A3.06,3.06,0,0,1,71.81,5.2,2.74,2.74,0,0,1,71.17,7a3.47,3.47,0,0,1,1.11,2.49,3.19,3.19,0,0,1-3.12,3.19h-5a.28.28,0,0,1-.32-.3ZM68,4.22H66.67V6.3H68a1,1,0,0,0,1.09-1,1,1,0,0,0-1-1s0,0,0,0Zm.36,4H66.67v2.38h1.66a1.17,1.17,0,0,0,1.1-1.21,1.15,1.15,0,0,0-1.08-1.17Z"/><path class="cls-1" d="M75.59,2.45c0-.21.09-.32.3-.32H78c.21,0,.33.09.33.32v10a.29.29,0,0,1-.33.32H75.89c-.21,0-.3-.09-.3-.32Z"/><path class="cls-1" d="M81.92,2.45c0-.21.09-.32.32-.32H90c.21,0,.32.09.32.32V4.26a.29.29,0,0,1-.26.32H87.45v7.84a.29.29,0,0,1-.32.32H85.07c-.21,0-.32-.09-.32-.32V4.58H82.24a.29.29,0,0,1-.32-.32V2.45Z"/></g></g></svg>