<svg xmlns="http://www.w3.org/2000/svg" viewBox="0 0 181.84 49.34"><defs><style>.cls-1{fill:#4231c8;}</style></defs><title>Recurso 1</title><g id="Capa_2" data-name="Capa 2"><g id="Capa_1-2" data-name="Capa 1"><path class="cls-1" d="M42.34,11.43,23,.28a2.66,2.66,0,0,0-2.4,0L1.22,11.43A2.64,2.64,0,0,0,0,13.52V35.81a2.64,2.64,0,0,0,1.22,2.09L20.58,49.05a2.65,2.65,0,0,0,2.4,0L42.34,37.91a2.65,2.65,0,0,0,1.22-2.09V13.52a2.69,2.69,0,0,0-1.22-2.09M33.7,16.6l-11,6.51a2.66,2.66,0,0,1-2.4,0l-7-4.15c-.87-.49-1.6-.11-1.6.91v12.4c0,1-.72,1.41-1.6,1L8.9,32.62a2.72,2.72,0,0,1-1.26-2.05V17.06A2.64,2.64,0,0,1,8.86,15L20.24,8.35a2.66,2.66,0,0,1,2.4,0l11,6.39a1,1,0,0,1,0,1.86"/><path class="cls-1" d="M66.42,40.38c0-.15.11-.3.27-.34h.72a.37.37,0,0,1,.38.31v3.5a.37.37,0,0,1-.23.34l0,0a6,6,0,1,1-7-9.62A5.84,5.84,0,0,1,64,33.45a5.91,5.91,0,0,1,2.13.42c.53.19,1.6.69,1.6,1.07,0,.08,0,.11,0,.15l-.34.57c0,.11-.15.15-.27.19a.43.43,0,0,1-.3-.11A4.73,4.73,0,0,0,64,34.82,4.58,4.58,0,1,0,63.83,44H64a4.52,4.52,0,0,0,2.43-.68Z"/><path class="cls-1" d="M78.44,43.84a.31.31,0,0,1,.34.3v.65a.34.34,0,0,1-.34.34H71.82a.3.3,0,0,1-.34-.27v-11a.33.33,0,0,1,.3-.34h.68a.31.31,0,0,1,.34.3V43.8h5.63Z"/><path class="cls-1" d="M92.63,39.43a6,6,0,1,1-6-6,6,6,0,0,1,6,6s0,0,0,0m-6,4.56a4.6,4.6,0,1,0-4.6-4.64A4.65,4.65,0,0,0,86.66,44"/><path class="cls-1" d="M103.17,39a3.32,3.32,0,0,1-1.52,6.2H96.51a.37.37,0,0,1-.38-.3V34a.31.31,0,0,1,.27-.38h4.68a3,3,0,0,1,3.12,3,3,3,0,0,1-1,2.36m-2.09-4H97.46v3.58h3.61a1.81,1.81,0,0,0,1.79-1.9,1.63,1.63,0,0,0-1.79-1.67m-3.61,4.91v4h4.15a2,2,0,0,0,1.86-2,2,2,0,0,0-1.86-2H97.46Z"/><path class="cls-1" d="M108.8,44.83a.41.41,0,0,1-.42.31h-.68c-.23,0-.34-.08-.34-.27a.28.28,0,0,1,0-.19c4.49-10.8,4.53-10.8,4.53-10.8a.31.31,0,0,1,.38-.27h.46a.38.38,0,0,1,.38.27l4.49,10.84a.34.34,0,0,1,0,.19c0,.15-.15.27-.34.27h-.68a.44.44,0,0,1-.42-.31l-.91-2.24h-5.67Zm1.45-3.5h4.56l-2.28-5.71Z"/><path class="cls-1" d="M127.89,43.84a.34.34,0,0,1,.34.3v.65a.34.34,0,0,1-.34.34h-6.58a.3.3,0,0,1-.34-.23v-11a.34.34,0,0,1,.3-.34H122a.31.31,0,0,1,.34.3V43.8h5.59Z"/><path class="cls-1" d="M57.78,4.92a.59.59,0,0,1,.5-.65h9.36a6.88,6.88,0,0,1,6.66,7,6.77,6.77,0,0,1-6.58,6.92H63.3V25a.58.58,0,0,1-.65.65H58.39c-.42,0-.61-.19-.61-.65ZM63.3,8.81V13.6h3.12a2.25,2.25,0,0,0,2.21-2.4,2.35,2.35,0,0,0-2.21-2.43H63.3Z"/><path class="cls-1" d="M79.39,4.92A.6.6,0,0,1,80,4.28h9.59a7,7,0,0,1,6.81,7.15,7.28,7.28,0,0,1-3.5,5.9L97,25c.19.3.08.65-.34.65H91.45c-.42,0-.53-.12-.76-.61l-3.42-6.5H84.94V25a.58.58,0,0,1-.65.65H80c-.42,0-.61-.19-.61-.65Zm5.55,3.77V13.9h3.19a2.58,2.58,0,0,0,2.55-2.59,2.66,2.66,0,0,0-2.55-2.63Z"/><path class="cls-1" d="M111.88,4a11,11,0,1,1-11,11,11,11,0,0,1,11-11m0,16.66a5.45,5.45,0,0,0,5.44-5.71,5.45,5.45,0,1,0-10.88,0,5.43,5.43,0,0,0,5.44,5.71"/><path class="cls-1" d="M128.65,4.92a.58.58,0,0,1,.65-.65h9.13a6.17,6.17,0,0,1,6.16,6.2,5.48,5.48,0,0,1-1.29,3.69,7,7,0,0,1,2.24,5,6.44,6.44,0,0,1-6.28,6.43h-10a.57.57,0,0,1-.65-.61Zm8.26,3.58h-2.66v4.18h2.59A2,2,0,0,0,139,10.63,2.08,2.08,0,0,0,137,8.54s0,0-.08,0m.72,8.06h-3.39v4.79h3.35a2.36,2.36,0,0,0,2.21-2.44,2.33,2.33,0,0,0-2.17-2.36"/><path class="cls-1" d="M152.2,4.92c0-.42.19-.65.61-.65h4.3a.57.57,0,0,1,.65.65V25a.58.58,0,0,1-.65.65h-4.3c-.42,0-.61-.19-.61-.65Z"/><path class="cls-1" d="M164.94,4.92a.57.57,0,0,1,.65-.65h15.6a.57.57,0,0,1,.65.65V8.58a.59.59,0,0,1-.53.65h-5.21V25a.58.58,0,0,1-.65.65H171.3a.57.57,0,0,1-.65-.65V9.22h-5.06a.58.58,0,0,1-.65-.65Z"/></g></g></svg>