<svg xmlns="http://www.w3.org/2000/svg" viewBox="0 0 87.06 17.56"><defs><style>.cls-1{fill:#fff;}.cls-2{fill:#00aeff;}.cls-3{fill:#145eef;}</style></defs><title>token largo</title><g id="Capa_2" data-name="Capa 2"><g id="Capa_1-2" data-name="Capa 1"><path class="cls-1" d="M24.67,8v5.3H23V8H20.83V6.56h6V8Z"/><path class="cls-1" d="M32.07,10.78a2.78,2.78,0,1,1-2.76-2.66A2.65,2.65,0,0,1,32.07,10.78Zm-1.55,0a1.23,1.23,0,1,0-2.46,0,1.23,1.23,0,1,0,2.46,0Z"/><path class="cls-1" d="M36.46,13.31l-1.65-1.83h-.29v1.83H32.91V6.06h1.61V10h.22l1.61-1.72h1.94l-2.22,2.41,2.45,2.65Z"/><path class="cls-1" d="M43.7,11.19H40a1.11,1.11,0,0,0,1.09,1,1.14,1.14,0,0,0,1.08-.58l1.43.29a2.53,2.53,0,0,1-2.51,1.58,2.61,2.61,0,0,1-2.67-2.68A2.62,2.62,0,0,1,41.09,8.1a2.57,2.57,0,0,1,2.61,2.68Zm-3.68-1h2.09a1,1,0,0,0-1-.8A1.11,1.11,0,0,0,40,10.21Z"/><path class="cls-1" d="M49.66,10.21v3.1h-1.6V10.55a.89.89,0,0,0-.87-1c-.63,0-1,.43-1,1.41v2.35H44.53V8.25h1.61v.48A2.12,2.12,0,0,1,47.7,8.1,1.93,1.93,0,0,1,49.66,10.21Z"/><path class="cls-1" d="M56.42,6.56a2.25,2.25,0,0,1,2.47,2.33,2.29,2.29,0,0,1-2.54,2.35H54.76v2.07H53.09V6.56Zm-.19,3.29a.94.94,0,1,0,0-1.87H54.76V9.85Z"/><path class="cls-1" d="M65,10.78a2.79,2.79,0,1,1-2.77-2.66A2.66,2.66,0,0,1,65,10.78Zm-1.55,0a1.24,1.24,0,1,0-1.22,1.31A1.26,1.26,0,0,0,63.47,10.78Z"/><path class="cls-1" d="M69.38,11.16l1.48.32a2.54,2.54,0,0,1-2.58,2,2.68,2.68,0,1,1,0-5.36A2.58,2.58,0,0,1,70.86,10l-1.51.37a1,1,0,0,0-1.07-.9,1.19,1.19,0,0,0-1.21,1.27,1.19,1.19,0,0,0,1.21,1.27A1.09,1.09,0,0,0,69.38,11.16Z"/><path class="cls-1" d="M75.24,13.31,73.6,11.48h-.29v1.83H71.7V6.06h1.61V10h.22l1.6-1.72h1.94l-2.21,2.41,2.44,2.65Z"/><path class="cls-1" d="M82.48,11.19h-3.7a1.11,1.11,0,0,0,1.08,1,1.12,1.12,0,0,0,1.08-.58l1.43.29a2.52,2.52,0,0,1-2.51,1.58,2.6,2.6,0,0,1-2.66-2.68A2.61,2.61,0,0,1,79.87,8.1a2.57,2.57,0,0,1,2.61,2.68Zm-3.67-1h2.08a1,1,0,0,0-1-.8A1.1,1.1,0,0,0,78.81,10.21Z"/><path class="cls-1" d="M87.06,13.09a2.73,2.73,0,0,1-1.37.37,1.83,1.83,0,0,1-2-2V9.53h-.92V8.25h.92V6.76h1.61V8.25h1.49V9.53H85.28v1.75c0,.53.25.74.68.74a1.63,1.63,0,0,0,.73-.2Z"/><polyline class="cls-2" points="5.61 1.25 0 1.25 0 7.26 2.98 7.26 2.98 17.56 7.94 17.56 7.94 16.31"/><path class="cls-3" d="M10.66,16.26h-5V0h8a6.52,6.52,0,0,1,4.79,7,6.06,6.06,0,0,1-5,5.05H10.61Z"/></g></g></svg>