<svg xmlns="http://www.w3.org/2000/svg" viewBox="0 0 87.06 24.5"><defs><style>.cls-1{fill:#fff;}</style></defs><title>trust largo</title><g id="Capa_2" data-name="Capa 2"><g id="Capa_1-2" data-name="Capa 1"><path class="cls-1" d="M20.9,4.91c-.08,1.89-.12,3.78-.25,5.67A36.32,36.32,0,0,1,20,15.77a8,8,0,0,1-4.32,5.8,37.37,37.37,0,0,0-4.6,2.73,1,1,0,0,1-1.21,0,34.38,34.38,0,0,0-4.6-2.73A8.19,8.19,0,0,1,.85,15.41,41,41,0,0,1,.27,10.6C.14,8.66.07,6.73.05,4.79a4.21,4.21,0,0,0,0-.5A1.12,1.12,0,0,1,1.16,3a15.72,15.72,0,0,0,4.48-.55,11.38,11.38,0,0,0,4-2.05,1.12,1.12,0,0,1,1.67,0,11.63,11.63,0,0,0,6.09,2.48A20.56,20.56,0,0,0,19.72,3a1.06,1.06,0,0,1,1.16,1.18v.75ZM2.22,6.05c.1,1.74.12,3.47.27,5.2a34.14,34.14,0,0,0,.59,4.16A5.75,5.75,0,0,0,6,19.49,49.44,49.44,0,0,1,10.28,22a.3.3,0,0,0,.36,0c1.43-1,3-1.73,4.48-2.59A5.31,5.31,0,0,0,17.66,16a27.8,27.8,0,0,0,.84-5.81c.11-1.57.13-3.16.2-4.74,0-.21-.05-.32-.3-.33-.42,0-.85-.08-1.27-.13a13.66,13.66,0,0,1-6.4-2.34.44.44,0,0,0-.57,0A14.36,14.36,0,0,1,3,5.09c-1,.07-.78-.13-.8.82Z"/><path class="cls-1" d="M29.75,11.35v5.4H28.06v-5.4H25.83V9.87H32v1.48Z"/><path class="cls-1" d="M36.36,11.56l-.07,1.65H36c-1.15,0-1.77.59-1.77,1.93v1.61H32.57V11.59h1.65v1A2,2,0,0,1,36,11.52,1.4,1.4,0,0,1,36.36,11.56Z"/><path class="cls-1" d="M42.22,16.75H40.58v-.5A2.11,2.11,0,0,1,39,16.9a2,2,0,0,1-2-2.14V11.59h1.63v2.82a.91.91,0,0,0,.89,1c.64,0,1.07-.44,1.07-1.43v-2.4h1.64Z"/><path class="cls-1" d="M44.64,15.07c.07.45.47.61.91.61s.67-.18.67-.41-.14-.31-.52-.38l-1-.21c-1-.17-1.5-.68-1.5-1.5,0-1,.91-1.74,2.21-1.74a2.15,2.15,0,0,1,2.35,1.48l-1.5.3a.8.8,0,0,0-.87-.61c-.44,0-.58.22-.58.4s.06.29.39.36l1.21.25a1.55,1.55,0,0,1,1.43,1.55c0,1.14-1,1.73-2.34,1.73s-2.25-.44-2.43-1.5Z"/><path class="cls-1" d="M52.5,16.52a2.81,2.81,0,0,1-1.41.38,1.86,1.86,0,0,1-2.06-2V12.9H48.1V11.59H49V10.07h1.65v1.52H52.2V12.9H50.68v1.78c0,.54.25.75.69.75a1.75,1.75,0,0,0,.75-.2Z"/><path class="cls-1" d="M62.88,16.75H61.06L59.91,12.5l-1.16,4.25H57L55,9.87h1.74l1.2,4.33L59.1,9.87h1.61L61.9,14.2l1.2-4.33h1.74Z"/><path class="cls-1" d="M70.47,16.75H68.82v-.41a2.31,2.31,0,0,1-1.6.56,2.58,2.58,0,0,1-2.52-2.73,2.58,2.58,0,0,1,2.52-2.73,2.31,2.31,0,0,1,1.6.56v-.41h1.65Zm-1.65-2.58a1.28,1.28,0,0,0-1.26-1.33,1.23,1.23,0,0,0-1.24,1.33,1.24,1.24,0,0,0,1.24,1.34A1.28,1.28,0,0,0,68.82,14.17Z"/><path class="cls-1" d="M71.66,16.75V9.35H73.3v7.4Z"/><path class="cls-1" d="M74.5,16.75V9.35h1.64v7.4Z"/><path class="cls-1" d="M82.39,14.59H78.61a1.13,1.13,0,0,0,1.11,1,1.12,1.12,0,0,0,1.09-.6l1.46.3a2.55,2.55,0,0,1-2.55,1.61,2.73,2.73,0,1,1,0-5.46,2.63,2.63,0,0,1,2.66,2.73Zm-3.75-1h2.12a1,1,0,0,0-1-.81A1.12,1.12,0,0,0,78.64,13.58Z"/><path class="cls-1" d="M87.06,16.52a2.75,2.75,0,0,1-1.41.38,1.86,1.86,0,0,1-2.05-2V12.9h-.93V11.59h.93V10.07h1.64v1.52h1.52V12.9H85.24v1.78c0,.54.26.75.69.75a1.68,1.68,0,0,0,.75-.2Z"/></g></g></svg>