<svg xmlns="http://www.w3.org/2000/svg" viewBox="0 0 44.91 44.9"><title>wallet</title><g id="Capa_2" data-name="Capa 2"><g id="Capa_1-2" data-name="Capa 1"><path d="M20.11,16.25H4.67a7.28,7.28,0,0,1-1.8-.12c-.63-.16-.93.12-.92.76,0,.2,0,.4,0,.6V40.27c0,2,.62,2.67,2.67,2.68H7.81c.64,0,1.18.2,1.21.93s-.55,1-1.22,1c-1.32,0-2.65,0-4,0A3.85,3.85,0,0,1,0,41Q0,26.67,0,12.35A3.72,3.72,0,0,1,3.75,8.61c1.61,0,3.22,0,4.83,0a1.28,1.28,0,0,0,1.24-.73C11,5.76,12.26,3.64,13.48,1.53Q15-1.06,17.41.74C20.69,3.17,24,5.6,27.23,8.06a2.64,2.64,0,0,0,1.67.55c2.53,0,5.06,0,7.59,0,2.19-.05,4.49,1.54,4,4.83a.9.9,0,0,1-1.77.17,3.19,3.19,0,0,1-.14-1.19,1.67,1.67,0,0,0-1.74-1.83c-1.52-.05-3,0-4.57,0-.26,0-.54,0-.65.31s.1.49.3.65l3.46,2.57a1.91,1.91,0,0,0,1.17.23,4,4,0,0,1,4.09,4.11c0,1.55,0,3.11,0,4.66,0,1.17.06,1.23,1.2,1.24.63,0,1.27,0,1.9,0a1.11,1.11,0,0,1,1.19,1.2q0,4,0,8.1a1.12,1.12,0,0,1-1.23,1.24,18.87,18.87,0,0,1-2,0c-.84,0-1.11.32-1.09,1.12,0,1.47,0,2.94,0,4.4,0,2.89-1.61,4.5-4.49,4.5H13.34a5.14,5.14,0,0,1-1.11-.08.88.88,0,0,1-.76-.92.87.87,0,0,1,.79-.89,5.83,5.83,0,0,1,1,0H36c2,0,2.67-.71,2.68-2.71,0-1.41,0-2.82,0-4.23,0-1-.1-1.11-1.15-1.12H35.43a5.3,5.3,0,0,1-5.38-5.17,5.37,5.37,0,0,1,5.29-5.38c.8,0,1.61,0,2.42,0,.6,0,.9-.24.9-.86,0-1.7,0-3.4,0-5.09,0-1.41-.86-2.11-2.39-2.11H20.11M23,14.31h7.68c.26,0,.54,0,.66-.3s-.09-.48-.28-.66a2.88,2.88,0,0,0-.34-.27Q23.49,7.69,16.27,2.29c-.62-.46-1-.31-1.3.28-.53,1-1.07,1.9-1.61,2.85L9,13.16c-.48.86-.32,1.12.67,1.15a10.46,10.46,0,0,1,1.12,0,1.52,1.52,0,0,0,1.65-.94c1-1.72,2-3.41,3.05-5.11A1.43,1.43,0,0,1,17.6,7.6c2,1.25,3.88,2.56,5.79,3.9a.9.9,0,0,1-.11,1.61,1.22,1.22,0,0,1-1.21-.23L17.91,10.1c-.79-.53-1-.48-1.49.35s-1,1.73-1.53,2.6c-.17.29-.48.57-.31.94s.64.31,1,.31H23m15.6,12c-1.06,0-2.13,0-3.19,0a3.32,3.32,0,1,0,0,6.64c2.19,0,4.37,0,6.56,0,.69,0,1-.27,1-1q0-2.37,0-4.74c0-.71-.32-1-1-1-1.13,0-2.25,0-3.37,0M5.49,10.55v0c-.63,0-1.27-.05-1.89,0A1.71,1.71,0,0,0,2,11.87a1.77,1.77,0,0,0,.54,2,5.15,5.15,0,0,0,3.47.36.86.86,0,0,0,.3-.3c.48-.81,1-1.63,1.42-2.45.32-.6,0-.86-.57-.88s-1.14,0-1.71,0"/><path d="M35.24,28.3a1.29,1.29,0,0,1,1.25,1.36,1.31,1.31,0,0,1-1.29,1.25,1.31,1.31,0,1,1,0-2.61"/></g></g></svg>