<svg xmlns="http://www.w3.org/2000/svg" xmlns:xlink="http://www.w3.org/1999/xlink" viewBox="0 0 33.53 21.17"><defs><style>.cls-1{fill:#fff;}.cls-2{fill:#0c98bc;fill-rule:evenodd;}.cls-3{fill:url(#Degradado_sin_nombre_10);}.cls-4{fill:url(#Degradado_sin_nombre_10-2);}</style><radialGradient id="Degradado_sin_nombre_10" cx="-212.18" cy="1396.3" r="11.72" gradientTransform="translate(589.16 -3822.98) scale(2.74)" gradientUnits="userSpaceOnUse"><stop offset="0" stop-color="#00b8e9"/><stop offset="0.43" stop-color="#009aca"/><stop offset="0.51" stop-color="#0090bd"/><stop offset="0.83" stop-color="#006d8e"/><stop offset="1" stop-color="#00607e"/></radialGradient><radialGradient id="Degradado_sin_nombre_10-2" cx="160.59" cy="909.01" r="11.72" gradientTransform="matrix(1, 0, 0, -1, 0, 7.74)" xlink:href="#Degradado_sin_nombre_10"/></defs><title>Recurso 3</title><g id="Capa_2" data-name="Capa 2"><g id="Capa_1-2" data-name="Capa 1"><g id="Capa_1-2-2" data-name="Capa 1-2"><path class="cls-1" d="M30,10.62h0l.14-.08h0Z"/><path class="cls-2" d="M32,0H1.44A1.73,1.73,0,0,0,.27.29,1.72,1.72,0,0,0,0,1.39V19.74a1.26,1.26,0,0,0,1.1,1.42.91.91,0,0,0,.33,0H32c1,0,1.49-.49,1.49-1.42V1.38C33.53.46,33,0,32,0Z"/><path class="cls-1" d="M29.41,11.11H28.34a2.18,2.18,0,0,0-.76.14v-.14H25.42a2.11,2.11,0,0,0-.74.14v-.14H20.87v.13a1.93,1.93,0,0,0-.79-.13h-2.6v.11a2.08,2.08,0,0,0-.74-.11H13.86l-.69.74-.68-.74H8.61v4.48h4l.61-.66.61.66h2.42v-1h.2a3.11,3.11,0,0,0,1.09-.17v1.22h2V14.47h.14V15.6H26a2.11,2.11,0,0,0,.74-.14v.14h2.18a1.85,1.85,0,0,0,.83-.2l.13-.06h0a1.56,1.56,0,0,0,.41-.4V11.12h-.9Z"/><path class="cls-1" d="M4.83,9.39h.7l.29.68H8.47v0H9.92v0h6.35V8.94h.14v1.13h3.35V9.78a1.72,1.72,0,0,0,.69.27h1.8l.28-.68h.7l.3.68h2.64V9.47l.35.58h2.1V5.6h-2v.56l-.34-.56H24.15v.53l-.22-.53H20.78a2,2,0,0,0-1,.3V5.63H17.72v.12a1.82,1.82,0,0,0-.8-.12H9.76s-.35.77-.51,1.14c-.17-.37-.51-1.14-.51-1.14H6.43v.56l-.24-.56h-2L3.28,7.79v2.32H4.53Z"/><path id="SVGID" class="cls-3" d="M17.1,9.47v-.6a.53.53,0,0,0-.55-.5h-.79v1.1h-.83V6.21h2a.91.91,0,0,1,1,.81.6.6,0,0,1,0,.19.82.82,0,0,1-.46.76.8.8,0,0,1,.4.74v.8h-.81m-1.3-1.94h.85c.25,0,.45-.13.45-.3S16.86,7,16.61,7h-.85v.61h0"/><path id="SVGID-2" class="cls-4" d="M26.85,9.47,25.54,7.29V9.47H23.92l-.3-.69H22.11l-.29.69H20.53a1.42,1.42,0,0,1-1.12-1.54c0-1.81,1.27-1.74,1.31-1.75h1v.74h-.84s-.54,0-.62.71v.23a.7.7,0,0,0,.57.81.64.64,0,0,0,.43-.06l1-2.43h1.16l1.23,3V6.21h1.19l1.3,2.14V6.21H28V9.47H26.82M22.44,8h.81l-.4-1-.41,1h0"/><path id="SVGID-3" class="cls-4" d="M10.62,9.47V7.22l-1,2.25H9L8,7.23V9.47H6.31L6,8.78H4.51l-.29.69h-.9L4.69,6.21H5.76L7,9.21v-3h1.3l.91,2,.9-2h1.31V9.47h-.83M4.76,8h.8l-.4-1-.4,1h0"/><polyline id="SVGID-4" class="cls-4" points="11.91 9.46 11.91 6.21 14.49 6.21 14.49 6.97 12.74 6.97 12.74 7.47 14.45 7.47 14.45 8.21 12.74 8.21 12.74 8.76 14.49 8.76 14.49 9.46 11.91 9.46"/><polyline id="SVGID-5" class="cls-4" points="18.31 9.48 18.31 6.21 19.15 6.21 19.15 9.48 18.31 9.48"/><path id="SVGID-6" class="cls-4" d="M20.29,15v-.63a.54.54,0,0,0-.53-.48H19V15h-.83V11.72h2a.91.91,0,0,1,1,.76.65.65,0,0,1,0,.24.82.82,0,0,1-.46.76.8.8,0,0,1,.4.74V15h-.81M19,13.13h.8c.25,0,.45-.14.45-.31s-.2-.3-.45-.3h-.85v.61h0"/><path id="SVGID-7" class="cls-4" d="M14.76,15H14l-.88-1-.88,1H9.2V11.72h3l1,1,1-1h2.56a.91.91,0,0,1,1,.81.6.6,0,0,1,0,.19c0,1-.34,1.26-1.41,1.26h-.81v1h-.78m-1-1.6,1,1.13V12.25l-1,1.13h0m-3.68.9h1.68l.82-.9-.82-.9h-1.7V13h1.7v.74h-1.7v.55h0m5.54-1.19h.85c.25,0,.45-.14.45-.31s-.2-.31-.45-.31H15.6v.62h0"/><path id="SVGID-8" class="cls-4" d="M25.93,15H24.46v-.76h1.3s.46.06.46-.25-.7-.27-.7-.27-1.14.1-1.14-1a1,1,0,0,1,1-1H27v.75h-1.2s-.44-.09-.44.23.6.23.6.23,1.26-.09,1.26.89A1,1,0,0,1,26.35,15a1.22,1.22,0,0,1-.27,0H26"/><polyline id="SVGID-9" class="cls-4" points="21.5 14.98 21.5 11.73 24.08 11.73 24.08 12.48 22.33 12.48 22.33 12.99 24.04 12.99 24.04 13.73 22.33 13.73 22.33 14.28 24.08 14.28 24.08 14.98 21.5 14.98"/><path id="SVGID-10" class="cls-4" d="M28.84,15H27.37v-.76h1.28s.47.06.47-.25-.7-.27-.7-.27-1.14.1-1.14-1a1,1,0,0,1,1-1h1.59v.75H28.59s-.44-.09-.44.23.6.23.6.23S30,12.82,30,13.8A1,1,0,0,1,29.19,15a1.22,1.22,0,0,1-.27,0h-.11"/><path class="cls-1" d="M29.76,15.4h0l.14-.07h0Z"/></g></g></g></svg>