<svg xmlns="http://www.w3.org/2000/svg" viewBox="0 0 36.17 22.82"><defs><style>.cls-1{fill:#003473;}.cls-1,.cls-2,.cls-3,.cls-4{fill-rule:evenodd;}.cls-2{fill:#009ddd;}.cls-3{fill:#ed1b2e;}.cls-4{fill:#fff;}</style></defs><title>Recurso 4</title><g id="Capa_2" data-name="Capa 2"><g id="Capa_1-2" data-name="Capa 1"><g id="Capa_1-2-2" data-name="Capa 1-2"><path class="cls-1" d="M34.56,0h-33A1.93,1.93,0,0,0,.3.31,1.89,1.89,0,0,0,0,1.49V21.27A1.39,1.39,0,0,0,1.2,22.81a1.45,1.45,0,0,0,.36,0h33c1.08,0,1.61-.52,1.61-1.53V1.48C36.19.49,35.64,0,34.56,0Z"/><path class="cls-2" d="M18.11,17.22a7.85,7.85,0,1,0-5.25,2A7.77,7.77,0,0,0,18.11,17.22Z"/><path class="cls-2" d="M18.11,17.22a7.84,7.84,0,0,0,.56-11.07c-.18-.19-.36-.38-.56-.56Z"/><path class="cls-3" d="M23.38,3.56a7.88,7.88,0,0,0-5.27,2,8.71,8.71,0,0,0-.78.83h1.58c.21.26.41.55.6.84H16.73c-.17.27-.32.55-.46.83H20a8.51,8.51,0,0,1,.34.83H15.94c-.09.28-.17.57-.23.85h4.8a8.5,8.5,0,0,1,.17,1.66,7.77,7.77,0,0,1-.4,2.49H15.94a7.5,7.5,0,0,0,.32.83h3.68c-.14.27-.27.57-.44.83H16.72a7,7,0,0,0,.6.83H18.9a7.94,7.94,0,0,1-.8.84A7.85,7.85,0,1,0,23.38,3.53Z"/><path class="cls-3" d="M30.19,15.77a.24.24,0,0,1,.24-.24h0a.23.23,0,0,1,.24.22v0a.24.24,0,0,1-.24.26h0A.26.26,0,0,1,30.19,15.77Zm.25.21a.2.2,0,0,0,.2-.2.19.19,0,0,0-.2-.18h0a.18.18,0,0,0-.2.16v0A.21.21,0,0,0,30.44,16Zm0-.1h-.06v-.19h.15a.06.06,0,0,1,0,.06v.1h-.06v-.08h0v.07Zm0-.12h.06v.06Z"/><polygon class="cls-1" points="11.62 13.59 10.64 13.59 11.23 10.54 9.9 13.59 9.06 13.59 8.89 10.55 8.25 13.59 7.35 13.59 8.11 9.61 9.66 9.61 9.68 12.07 10.75 9.61 12.39 9.61 11.62 13.59"/><path class="cls-1" d="M22.53,13.55a2.09,2.09,0,0,1-.7.11c-.5,0-.77-.25-.77-.71a1.4,1.4,0,0,1,0-.29l.06-.32v-.25l.44-2.47h1l-.14.73h.49l-.12.79h-.5L22,12.49v.14a.37.37,0,0,0,.34.24.57.57,0,0,0,.26,0l-.13.71Z"/><path class="cls-1" d="M18.66,11.38c0,.41.23.69.73.89s.48.21.48.37-.18.29-.57.29a3,3,0,0,1-.89-.14l-.14.75h.18a.57.57,0,0,0,.26,0h.54c1,0,1.52-.34,1.52-1.08a.91.91,0,0,0-.69-.9c-.42-.15-.46-.2-.46-.35s.17-.26.47-.26h.72l.14-.74a6.38,6.38,0,0,0-.87-.07c-1.1,0-1.49.5-1.47,1.1Z"/><path class="cls-1" d="M14.79,13.59H14v-.34a1.29,1.29,0,0,1-1,.38.83.83,0,0,1-.88-.77v-.1c0-.78.62-1.24,1.72-1.24h.4a.67.67,0,0,0,0-.2c0-.21-.17-.31-.63-.31a4.27,4.27,0,0,0-.8.1h-.23l.14-.72a4.19,4.19,0,0,1,1.16-.18c.85,0,1.3.33,1.3.95a2.76,2.76,0,0,1-.1.64l-.19,1.14v.58Zm-.66-1.44H13.9c-.55,0-.84.17-.84.49a.32.32,0,0,0,.31.34h.05a.75.75,0,0,0,.71-.78v0Z"/><path class="cls-1" d="M18,13.51a3.37,3.37,0,0,1-1,.15c-1.09,0-1.65-.51-1.65-1.47a1.76,1.76,0,0,1,1.6-1.9H17a1.17,1.17,0,0,1,1.31,1,1,1,0,0,1,0,.17,2.72,2.72,0,0,1-.12.8H16.31v.1c0,.37.28.57.86.57a2.42,2.42,0,0,0,1-.21l-.18.81Zm-.47-1.91v-.17c0-.27-.17-.42-.46-.42s-.53.2-.62.59Z"/><path class="cls-1" d="M28.4,12.12a1.7,1.7,0,0,1-1.83,1.58h-.06A1.38,1.38,0,0,1,25,12.49a1.41,1.41,0,0,1,0-.29,1.82,1.82,0,0,1,1.72-1.92h.2a1.41,1.41,0,0,1,1.55,1.26.76.76,0,0,1,0,.15,1.34,1.34,0,0,1,0,.4Zm-1-.38c0-.34-.15-.67-.54-.67s-.81.6-.81,1.11.21.73.57.73a1,1,0,0,0,.75-.79v-.38Z"/><path class="cls-4" d="M28.51,13.11a.25.25,0,0,1,.25-.25h0a.24.24,0,0,1,.25.23v0a.26.26,0,0,1-.25.26A.27.27,0,0,1,28.51,13.11Zm.26.19a.18.18,0,0,0,.18-.18h0a.18.18,0,0,0-.17-.19h0a.2.2,0,0,0-.19.19A.19.19,0,0,0,28.77,13.3Zm0-.09H28.7V13h.16v.16h-.07v-.08h0v.07Zm0-.13Z"/><polygon class="cls-4" points="11.87 13.37 10.89 13.37 11.47 10.3 10.13 13.37 9.25 13.37 9.09 10.32 8.51 13.37 7.62 13.37 8.37 9.39 9.91 9.39 9.99 11.84 11.06 9.39 12.64 9.39 11.87 13.37"/><path class="cls-4" d="M22.78,13.32a2.44,2.44,0,0,1-.71.1c-.49,0-.76-.24-.76-.7v-.29l.07-.33v-.24l.44-2.47h1l-.14.73h.5L23,10.9h-.5l-.25,1.36a.33.33,0,0,0,0,.14c0,.17.11.25.34.25h.26l-.12.7Z"/><path class="cls-1" d="M25.28,11.06V11l.19-.51h-.28c-.32,0-.55.14-.86.52l.11-.59h-1l-.59,3.24h1c.14-.75.2-1.16.28-1.52.12-.58.55-.84.87-.78h.17l.16-.27Z"/><path class="cls-4" d="M25.62,10.16h-.29c-.33,0-.55.14-.85.52l.09-.49h-.89l-.6,3.24h1c.36-2,.5-2.34,1-2.34h.22l.36-.91Z"/><path class="cls-4" d="M18.91,11.15c0,.4.23.69.75.89s.46.21.46.37-.18.29-.57.29a2.73,2.73,0,0,1-.89-.15l-.12.76h.05l.17,0H19a2.53,2.53,0,0,0,.55,0c1,0,1.52-.34,1.52-1.07,0-.45-.19-.71-.7-.9s-.46-.2-.46-.36.17-.26.49-.26.48,0,.71.05l.14-.73a6.11,6.11,0,0,0-.86-.07c-1.12,0-1.5.49-1.5,1.09Z"/><path class="cls-4" d="M15,13.37h-.8V13a1.34,1.34,0,0,1-1,.38.84.84,0,0,1-.89-.78v-.1c0-.78.62-1.24,1.72-1.24h.4a.67.67,0,0,0,0-.2c0-.21-.17-.29-.63-.29a4.26,4.26,0,0,0-.8.08h-.23l.14-.72A5.17,5.17,0,0,1,14.12,10c.84,0,1.27.33,1.27.94a2.73,2.73,0,0,1-.07.64l-.2,1.15v.57Zm-.71-1.45h-.21c-.55,0-.83.16-.83.49a.32.32,0,0,0,.3.34h0a.76.76,0,0,0,.7-.82Z"/><path class="cls-4" d="M18.25,13.29a3.72,3.72,0,0,1-1,.14c-1.09,0-1.65-.51-1.65-1.46a1.77,1.77,0,0,1,1.59-1.91h.11a1.16,1.16,0,0,1,1.3,1,.92.92,0,0,1,0,.16,3.09,3.09,0,0,1-.11.8H16.56v.11c0,.36.27.57.84.57a2.48,2.48,0,0,0,1-.2l-.17.8Zm-.52-1.92V11.2a.41.41,0,0,0-.4-.42h-.06c-.31,0-.52.22-.62.59Z"/><path class="cls-4" d="M28.66,11.89a1.73,1.73,0,0,1-1.91,1.55,1.37,1.37,0,0,1-1.55-1.18,1.51,1.51,0,0,1,0-.3A1.82,1.82,0,0,1,26.91,10h.2a1.41,1.41,0,0,1,1.55,1.25,1.48,1.48,0,0,1,0,.21,1.28,1.28,0,0,1,0,.39Zm-1-.41c0-.34-.14-.65-.54-.65s-.79.59-.79,1.11.21.72.55.72a1,1,0,0,0,.75-.78,1.34,1.34,0,0,0,0-.4Z"/></g></g></g></svg>