<svg xmlns="http://www.w3.org/2000/svg" viewBox="0 0 30.26 23.52"><defs><style>.cls-1{fill:#231f20;}.cls-2{fill:#f79410;}.cls-3{fill:#ff5f00;}.cls-4{fill:#eb001b;}.cls-5{fill:#f79e1b;}</style></defs><title>Recurso 2</title><g id="Capa_2" data-name="Capa 2"><g id="Capa_1-2" data-name="Capa 1"><g id="Capa_1-2-2" data-name="Capa 1-2"><path class="cls-1" d="M29.66,23.21v.06h0Zm.06,0h.06v.06h-.06l.08.08h-.05l-.07-.08h0v.08h0v-.23Zm0,.31h.07a.38.38,0,0,0,.11-.11.19.19,0,0,0,0-.15V23.2h-.27a.22.22,0,0,0,0,.22v.06h.14m0-.44a.27.27,0,0,1,.18.08v.07a.23.23,0,0,1,0,.2v.07l-.08.06h-.2a.19.19,0,0,1-.12-.07.11.11,0,0,1,0-.08.21.21,0,0,1,0-.19.11.11,0,0,1,0-.08h.18m-23.18-1A.75.75,0,1,1,8,22.23a.74.74,0,0,1-.73.71.75.75,0,0,1-.77-.71.22.22,0,0,1,0-.08m2,0V20.91H8v.3a1,1,0,0,0-.78-.36,1.3,1.3,0,1,0,0,2.6A.92.92,0,0,0,8,23.09v.3h.54Zm18.23,0a.67.67,0,1,1,0,.07.15.15,0,0,1,0-.07m2,0V19.91h-.54v1.3a1,1,0,0,0-.78-.36,1.3,1.3,0,1,0,0,2.6.92.92,0,0,0,.78-.36v.3h.54Zm-13.54-.82a.64.64,0,0,1,.63.6H14.6a.63.63,0,0,1,.65-.6h0m0-.48a1.3,1.3,0,1,0,0,2.6,1.48,1.48,0,0,0,1-.35L16,22.71a1.19,1.19,0,0,1-.72.25.7.7,0,0,1-.75-.6h1.85v-.21a1.2,1.2,0,0,0-1.1-1.29H15.2m6.51,1.3a.67.67,0,1,1,0,.07.15.15,0,0,1,0-.07m2,0V20.91h-.46v.3a1,1,0,0,0-.78-.36,1.3,1.3,0,1,0,0,2.6.91.91,0,0,0,.78-.4v.3h.54v-1.2Zm-5,0a1.24,1.24,0,0,0,1.19,1.3.29.29,0,0,0,.13,0,1.26,1.26,0,0,0,.89-.29l-.26-.44a1,1,0,0,1-.65.22.79.79,0,0,1,0-1.58,1.11,1.11,0,0,1,.65.22l.26-.44a1.36,1.36,0,0,0-.89-.29A1.25,1.25,0,0,0,18.71,22a.24.24,0,0,0,0,.12m7-1.3a.71.71,0,0,0-.65.36v-.3h-.51v2.48h.54V22.05c0-.41.18-.64.53-.64a1,1,0,0,1,.34.06l.16-.51a1.26,1.26,0,0,0-.38-.06m-14.46.26a1.87,1.87,0,0,0-1-.26c-.63,0-1,.3-1,.79s.3.66.86.73h.25c.3,0,.44.12.44.26s-.2.3-.57.3a1.26,1.26,0,0,1-.82-.26l-.25.42a1.69,1.69,0,0,0,1.07.32c.72,0,1.13-.33,1.13-.81s-.33-.66-.87-.74h-.25c-.23,0-.42-.07-.42-.24s.18-.29.47-.29a1.78,1.78,0,0,1,.78.21l.23-.43Zm7-.26a.71.71,0,0,0-.65.36V21h-.54v2.48h.46V22.05c0-.41.18-.64.53-.64a1,1,0,0,1,.34.06l.16-.51a1.76,1.76,0,0,0-.38-.06M13.6,21h-.89v-.75h-.54V21h-.5v.49h.5v1.13c0,.58.22.92.86.92a1.27,1.27,0,0,0,.68-.19l-.16-.51a.92.92,0,0,1-.48.14c-.27,0-.36-.17-.36-.42V21.4h.84Zm-8,2.43V21.83a.93.93,0,0,0-.84-1H4.55a1,1,0,0,0-.87.44.93.93,0,0,0-.82-.44.85.85,0,0,0-.73.37v-.31H1.55v2.48H2.1V22.05a.56.56,0,0,1,.48-.64h.13c.36,0,.54.23.54.65v1.38h.54V22.05a.58.58,0,0,1,.51-.65h.1c.37,0,.54.24.54.66v1.38Z"/><path class="cls-2" d="M30,15.14v-.36h-.1l-.11.24-.11-.24h-.1v.36h.07v-.28l.1.24h.07l.1-.24v.28Zm-.6,0v-.3h.12v-.06h-.31v.06h.12v.3Z"/><path class="cls-3" d="M19.23,16.69H11.05V2.05h8.18Z"/><path class="cls-4" d="M11.55,9.35a9.29,9.29,0,0,1,3.59-7.3,9.35,9.35,0,1,0,0,14.69,9.27,9.27,0,0,1-3.59-7.39"/><path class="cls-5" d="M30.26,9.35a9.35,9.35,0,0,1-9.35,9.34,9.15,9.15,0,0,1-5.77-2A9.37,9.37,0,0,0,15.14,2,9.35,9.35,0,0,1,30.26,9.35"/></g></g></g></svg>