<svg xmlns="http://www.w3.org/2000/svg" viewBox="0 0 32.55 21.91"><defs><style>.cls-1{fill:#1d5b99;}.cls-2{fill:#fff;}.cls-3{fill:#e7a83a;}</style></defs><title>Recurso 1</title><g id="Capa_2" data-name="Capa 2"><g id="Capa_1-2" data-name="Capa 1"><g id="Capa_1-2-2" data-name="Capa 1-2"><path class="cls-1" d="M32,21.91H0V0H32.55V21.91Z"/><path class="cls-2" d="M32,21.35H.55V.56H32Z"/><path class="cls-1" d="M11.93,14.33l2-6.73h1.82l-2,6.73ZM11.12,7.6,9.48,10.46a6.71,6.71,0,0,0-.78,1.59h0c0-.6,0-1.33-.06-1.75L8.46,7.6H5.37v.18A1.29,1.29,0,0,1,6.76,8.94V9l.59,5.34H9.24L13.06,7.6Zm14.16,6.73v-1H23l-.46,1H20.55l3.59-6.72h2.41l.61,6.72Zm-.21-4a13.88,13.88,0,0,1,0-1.58h0c-.11.33-.59,1.34-.8,1.83l-.72,1.51h1.59ZM17.7,14.49A5,5,0,0,1,15,13.72l.86-1.32a3.42,3.42,0,0,0,2,.66.85.85,0,0,0,.8-.39c.25-.44-.06-.67-.77-1.07l-.36-.23c-1-.72-1.51-1.41-1-2.6A2.52,2.52,0,0,1,19,7.42a4.14,4.14,0,0,1,2.37.82l-1,1.17A2.2,2.2,0,0,0,19,8.79a.86.86,0,0,0-.78.35c-.19.37.06.63.62,1l.41.27c1.28.81,1.59,1.65,1.27,2.45a2.65,2.65,0,0,1-2.77,1.66Zm10-6h-.15V8h.19c.11,0,.17,0,.17.14s0,.12-.12.13l.13.21h-.09l-.12-.2h-.08v.2Zm.09-.27c.06,0,.11,0,.11-.07s0-.07-.1-.07h-.1v.16Zm0,.46a.44.44,0,0,1-.37-.5.45.45,0,0,1,.37-.37.44.44,0,0,1,.37.5A.45.45,0,0,1,27.79,8.68Zm0-.79a.33.33,0,0,0-.33.33v0a.33.33,0,1,0,.66,0h0a.33.33,0,0,0-.32-.34h0Z"/><path class="cls-3" d="M31.23,16.42H1.4v4H31.23Z"/><path class="cls-1" d="M31.17,1.55H1.34v4H31.17Zm-.68,18.58h-.08v-.48h.14c.12,0,.18,0,.18.14a.13.13,0,0,1-.13.13h0l.14.21h-.09l-.1-.21h-.07v.21Zm.09-.27c.06,0,.11,0,.11-.08s-.06-.06-.1-.06h-.1v.14Zm0,.45a.41.41,0,0,1-.43-.39v0a.43.43,0,1,1,.43.43Zm0-.79a.34.34,0,0,0-.34.34v0a.35.35,0,0,0,.31.36.36.36,0,0,0,0-.72Z"/></g></g></g></svg>