<svg xmlns="http://www.w3.org/2000/svg" viewBox="0 0 45.97 45.97"><defs><style>.cls-1{fill:#020000;}</style></defs><title>Recurso 3</title><g id="Capa_2" data-name="Capa 2"><g id="Capa_1-2" data-name="Capa 1"><path class="cls-1" d="M22.91,0A23,23,0,1,0,46,23.29,23,23,0,0,0,22.91,0Zm7.45,33.57c-3.65-1.11-2.13-3.79-1.16-6.49a53,53,0,0,0,2.88-12.22C32.65,9.29,28.74,5.6,23,5.49s-9,3.17-9,8.9v3l-.66.32c1.14,3.15,1.9,6.5,3.5,9.4,2,3.68,1.4,5.72-2.47,7.29-6.94,2.82-8.62,2.17-11.12-4.88A21,21,0,0,1,38,7.81a21.18,21.18,0,0,1,2.87,25.77C37.23,39.63,33.67,34.59,30.36,33.57Z"/></g></g></svg>