<svg xmlns="http://www.w3.org/2000/svg" xmlns:xlink="http://www.w3.org/1999/xlink" viewBox="0 0 127.89 147.67"><defs><style>.cls-1{isolation:isolate;}.cls-2{fill:url(#Degradado_sin_nombre_159);}.cls-3{fill:url(#Degradado_sin_nombre_182);}.cls-4{fill:url(#Degradado_sin_nombre_150);}.cls-5{fill:url(#Degradado_sin_nombre_150-2);}.cls-6{opacity:0.49;mix-blend-mode:multiply;}.cls-11,.cls-7{fill:#211915;}.cls-8{fill:#403f41;}.cls-9{fill:#211c1e;}.cls-10{fill:#040006;}.cls-11{font-size:23px;font-family:ErasITC-Bold, Eras Bold ITC;letter-spacing:0.07em;}</style><linearGradient id="Degradado_sin_nombre_159" x1="96.69" y1="60.07" x2="113.87" y2="60.07" gradientUnits="userSpaceOnUse"><stop offset="0" stop-color="#c5c3c8"/><stop offset="0.86" stop-color="#c5c3c8"/><stop offset="1" stop-color="#c5c3c8"/></linearGradient><linearGradient id="Degradado_sin_nombre_182" x1="9.83" y1="60.02" x2="27.46" y2="60.02" gradientUnits="userSpaceOnUse"><stop offset="0" stop-color="#c5c3c8"/><stop offset="0.53" stop-color="#c7c5ca"/><stop offset="0.72" stop-color="#cdccd0"/><stop offset="0.86" stop-color="#d8d7db"/><stop offset="0.97" stop-color="#e8e8eb"/><stop offset="1" stop-color="#edeef0"/></linearGradient><linearGradient id="Degradado_sin_nombre_150" x1="61.85" y1="89.85" x2="113.87" y2="89.85" gradientUnits="userSpaceOnUse"><stop offset="0" stop-color="#87868a"/><stop offset="0.1" stop-color="#8c8c90"/><stop offset="0.34" stop-color="#929297"/><stop offset="1" stop-color="#939499"/></linearGradient><linearGradient id="Degradado_sin_nombre_150-2" x1="9.83" y1="90.24" x2="61.85" y2="90.24" xlink:href="#Degradado_sin_nombre_150"/></defs><title>Recurso 5</title><g class="cls-1"><g id="Capa_2" data-name="Capa 2"><g id="Capa_10" data-name="Capa 10"><polygon class="cls-2" points="96.69 60.34 113.87 90.1 113.68 30.03 96.69 60.34"/><polygon class="cls-3" points="9.98 29.95 9.83 90.1 27.46 60.34 9.98 29.95"/><polygon class="cls-4" points="61.85 120.14 113.87 90.1 96.69 59.57 61.85 120.14"/><polygon class="cls-5" points="27.46 60.34 61.85 120.14 9.83 90.1 27.46 60.34"/><g class="cls-6"><polygon class="cls-7" points="61.85 120.56 113.68 30.46 61.85 0.42 9.98 30.37 61.85 120.56"/></g><polygon class="cls-8" points="61.85 120.14 113.68 30.03 61.85 0 9.98 29.95 61.85 120.14"/><g class="cls-6"><path class="cls-7" d="M87,76.16c2.91-2.42,6.12-7.74,8.74-11.18,4.42-5.8,7.81-12.84,11-19.78,3.42-7.44,12.21-22.41,21-28" transform="translate(-0.26)"/><path class="cls-7" d="M87.94,74.15a16.73,16.73,0,0,1,2.18-2.78,16.68,16.68,0,0,1-2.27,2.86c.46-.39.9-.81,1.34-1.24-1.43,2.09-2.2,2.82-2.24,3.06s.59-.12,1.47-.75c.27-.19.92-.8.78-.61-.8,1.12.4,0,.33.29,1.13-1.29,1.92-2.37,2.7-3.44l2.39-2.68a26.26,26.26,0,0,0,2.46-3c.57-.73,1.3-1.79,1.29-1.56.5-.78,1-1.57,1.45-2.36l.24-.24c-.52.84-1.07,1.69-1.64,2.52,0,.32,1.42-1.75,1.13-1.06,1.69-2.56,3-4.92,4.2-6.9,1.41-3,2.89-5.64,4.23-8.49a26.41,26.41,0,0,1,1.24-2.35,37.44,37.44,0,0,0,1.93-3.7c.52-1.07,1.19-2.38,1.86-3.51,1.15-1.95,2.58-4,3.09-5.19,0-.07.45-.7.62-.93a13.11,13.11,0,0,0,1.56-2.4,24.13,24.13,0,0,1,2-3c1.47-2,3.39-4.16,3.84-4.92-.57.41-2,2.08-1.73,1.58a35.49,35.49,0,0,1,4.64-4.64c1.56-1.23,1.48-1.22-.48,0-.51.45-1,.92-1.69,1.59a4.32,4.32,0,0,0-1.28.7c-1.2.94-1.4,1-1.2.58s-1.36.52-2.22,1.33-2.35,2.37-2.58,2.43c-.42.11-1.88,1.85-3.07,3.34s-2.86,3.88-3.73,4.88c-.21.24-.76,1.06-1.17,1.72-1.47,2.36-2.85,4.8-4.13,7.29L102.33,49a17,17,0,0,0-1.49,3.12c-.11.21-.26.5-.34.61a24,24,0,0,0-1.34,2.48c-.46.94-1,2-1.61,3-.91,1.49-1.45,2.39-1.85,3.19s-.83,1.56-1.39,2.54c-.86,1.14-1.66,2.28-2.44,3.4l1-1a31.92,31.92,0,0,0-2.54,3.79c-.45.76-.72,1.31-1.17,2A14.37,14.37,0,0,1,86.8,75c.49-.34.82-.61,1.14-.88m.93-.29c.84-1.13,1.31-1.88,1.86-2.72,0,.16.68-.46-.56,1.27a18.84,18.84,0,0,1-1.29,1.45m7.94-8.64c-1.06,1.37-2,2.75-3,4.16l0-.1c1-1.42,2-2.8,3-4.16v.1M106.72,50l1-2.28a7.52,7.52,0,0,1-1,2.28" transform="translate(-0.26)"/></g><path class="cls-9" d="M87,75.73c2.91-2.42,6.12-7.74,8.74-11.18,4.42-5.8,7.81-12.84,11-19.78,3.42-7.44,12.21-22.41,21-28" transform="translate(-0.26)"/><path class="cls-10" d="M87.94,73.73a16.73,16.73,0,0,1,2.18-2.78,16.68,16.68,0,0,1-2.27,2.86c.46-.39.9-.81,1.34-1.24-1.43,2.09-2.2,2.82-2.24,3.06s.59-.12,1.47-.75c.27-.19.92-.8.78-.61-.8,1.12.4,0,.33.29,1.13-1.29,1.92-2.37,2.7-3.44l2.39-2.68a26.26,26.26,0,0,0,2.46-3c.57-.73,1.3-1.79,1.29-1.56.5-.78,1-1.57,1.45-2.36l.24-.24c-.52.84-1.07,1.69-1.64,2.52,0,.32,1.42-1.75,1.13-1.06,1.69-2.56,3-4.92,4.2-6.9,1.41-3,2.89-5.64,4.23-8.49a26.41,26.41,0,0,1,1.24-2.35,37.44,37.44,0,0,0,1.93-3.7c.52-1.07,1.19-2.38,1.86-3.51,1.15-1.95,2.58-4,3.09-5.19,0-.07.45-.7.62-.93a13.11,13.11,0,0,0,1.56-2.4,24.13,24.13,0,0,1,2-3c1.47-2,3.39-4.16,3.84-4.92-.57.41-2,2.08-1.73,1.58a35.49,35.49,0,0,1,4.64-4.64c1.56-1.23,1.48-1.22-.48,0-.51.45-1,.92-1.69,1.59a4.32,4.32,0,0,0-1.28.7c-1.2.94-1.4,1-1.2.58s-1.36.52-2.22,1.33-2.35,2.37-2.58,2.43c-.42.11-1.88,1.85-3.07,3.34s-2.86,3.88-3.73,4.88c-.21.24-.76,1.06-1.17,1.72-1.47,2.36-2.85,4.8-4.13,7.29l-3.15,6.39a17,17,0,0,0-1.49,3.12c-.11.21-.26.5-.34.61a24,24,0,0,0-1.34,2.48c-.46.94-1,2-1.61,3-.91,1.49-1.45,2.39-1.85,3.19s-.83,1.56-1.39,2.54c-.86,1.14-1.66,2.28-2.44,3.4l1-1a31.92,31.92,0,0,0-2.54,3.79c-.45.76-.72,1.31-1.17,2a14.37,14.37,0,0,1-2.36,2.9c.49-.34.82-.61,1.14-.88m.93-.29c.84-1.13,1.31-1.88,1.86-2.72,0,.16.68-.46-.56,1.27a18.84,18.84,0,0,1-1.29,1.45M96.8,64.8c-1.06,1.37-2,2.75-3,4.16l0-.1c1-1.42,2-2.8,3-4.16v.1m9.92-15.21,1-2.28a7.52,7.52,0,0,1-1,2.28" transform="translate(-0.26)"/><g class="cls-6"><path class="cls-7" d="M39.17,77.18c-1.42,0-4.76-8.11-6.91-11.43a172,172,0,0,1-11-19C17.84,39.53,9,25.12.26,19.75" transform="translate(-0.26)"/><path class="cls-7" d="M37.09,76.21c-.72-.8-.76-.8-1.83-3.08.6.87,1.17,2.07,1.89,3.19-.3-.57-.55-1.13-.79-1.69a12.78,12.78,0,0,0,1.75,2.19c.46.44.9.55,1,.46s-.07-.11-.24-.31a4.43,4.43,0,0,1-.59-1c-.13-.27-.5-1-.36-.84.81,1,.11-.36.37-.23-.81-1.31-1.38-2.45-2-3.57l-1.21-3.26a13.9,13.9,0,0,0-1.7-3.53c-.46-.74-1.12-1.74-.92-1.66L31,60.76l-.1-.3,1.54,2.37c.26.15-1-1.87-.47-1.37C30.47,59,29.12,56.9,28.15,55a72.31,72.31,0,0,1-4.21-7.86c-.2-.4-.39-.86-.57-1.27S23,45,22.91,44.72a20.8,20.8,0,0,0-2-3.81l-2.13-3.42a29.91,29.91,0,0,0-3.46-5c-.05-.05-.5-.67-.66-.92a11.52,11.52,0,0,0-1.82-2.27c-.58-.49-1.53-1.69-2.51-2.72a25.65,25.65,0,0,0-4.75-4.32c.51.52,2.12,2.11,1.63,1.76a34.46,34.46,0,0,0-5.31-4.17c-1.79-1.07-1.71-1,.14.46.59.37,1.12.76,1.95,1.32a4.52,4.52,0,0,0,.81,1.22c1,1.1,1,1.38.6,1.16s.5,1.29,1.15,2.2a18.56,18.56,0,0,1,1.88,2.75,28.1,28.1,0,0,0,2.26,3.6,44.67,44.67,0,0,1,2.94,4.92c.12.27.57,1.08.95,1.69,1.32,2.22,2.6,4.51,3.74,6.81.49,1,.95,2,1.46,3.09s1,2.11,1.54,3.15a13.89,13.89,0,0,0,1.7,3c.11.21.27.49.33.62a17.33,17.33,0,0,0,1.41,2.46c.57.88,1.26,1.92,1.84,2.87a26.59,26.59,0,0,0,2.11,3.07l1.87,2.25c.68,1,1.27,2.16,1.88,3.33l-.4-1.27a30.52,30.52,0,0,0,2.12,3.86c.48.74.85,1.22,1.34,1.93l.87,1.29.61.89a6.84,6.84,0,0,0,1,1.14,6.07,6.07,0,0,1-.92-1.43m0-1c-.79-1.15-1.23-1.89-1.75-2.73.16,0-.12-.78.89,1,.23.4.5,1,.86,1.71M32.71,64.6a44.51,44.51,0,0,1,2.49,4.46l-.1,0a44,44,0,0,0-2.49-4.46l.09,0M24.82,49.31l-1.11-2.08a7.29,7.29,0,0,1,1.11,2.08" transform="translate(-0.26)"/></g><path class="cls-9" d="M39.17,76.75c-1.42,0-4.76-8.11-6.91-11.43a172,172,0,0,1-11-19C17.84,39.11,9,24.7.26,19.32" transform="translate(-0.26)"/><path class="cls-10" d="M37.09,75.79c-.72-.8-.76-.8-1.83-3.08.6.87,1.17,2.07,1.89,3.19-.3-.57-.55-1.13-.79-1.69a12.78,12.78,0,0,0,1.75,2.19c.46.44.9.55,1,.46s-.07-.11-.24-.31a4.43,4.43,0,0,1-.59-1c-.13-.27-.5-1-.36-.84.81,1,.11-.36.37-.23-.81-1.31-1.38-2.45-2-3.57l-1.21-3.26a13.9,13.9,0,0,0-1.7-3.53c-.46-.74-1.12-1.74-.92-1.66L31,60.33l-.1-.3,1.54,2.37c.26.15-1-1.87-.47-1.37-1.53-2.41-2.87-4.55-3.85-6.5a72.31,72.31,0,0,1-4.21-7.86c-.2-.4-.39-.86-.57-1.27s-.35-.84-.45-1.11a20.8,20.8,0,0,0-2-3.81l-2.13-3.42a29.91,29.91,0,0,0-3.46-5c-.05-.05-.5-.67-.66-.92a11.52,11.52,0,0,0-1.82-2.27c-.58-.49-1.53-1.69-2.51-2.72A25.65,25.65,0,0,0,5.62,21.8c.51.52,2.12,2.11,1.63,1.76a34.46,34.46,0,0,0-5.31-4.17c-1.79-1.07-1.71-1,.14.46.59.37,1.12.76,1.95,1.32a4.52,4.52,0,0,0,.81,1.22c1,1.1,1,1.38.6,1.16s.5,1.29,1.15,2.2A18.56,18.56,0,0,1,8.47,28.5a28.1,28.1,0,0,0,2.26,3.6A44.67,44.67,0,0,1,13.67,37c.12.27.57,1.08.95,1.69,1.32,2.22,2.6,4.51,3.74,6.81.49,1,.95,2,1.46,3.09s1,2.11,1.54,3.15a13.89,13.89,0,0,0,1.7,3c.11.21.27.49.33.62a17.33,17.33,0,0,0,1.41,2.46c.57.88,1.26,1.92,1.84,2.87a26.59,26.59,0,0,0,2.11,3.07L30.61,66c.68,1,1.27,2.16,1.88,3.33l-.4-1.27A30.52,30.52,0,0,0,34.21,72c.48.74.85,1.22,1.34,1.93l.87,1.29.61.89a6.84,6.84,0,0,0,1,1.14,6.07,6.07,0,0,1-.92-1.43m0-1c-.79-1.15-1.23-1.89-1.75-2.73.16,0-.12-.78.89,1,.23.4.5,1,.86,1.71M32.71,64.17a44.51,44.51,0,0,1,2.49,4.46l-.1,0a44,44,0,0,0-2.49-4.46l.09,0M24.82,48.89l-1.11-2.08a7.29,7.29,0,0,1,1.11,2.08" transform="translate(-0.26)"/><text class="cls-11" transform="translate(12.71 140.34)">FERTCH</text></g></g></g></svg>
