<svg xmlns="http://www.w3.org/2000/svg" xmlns:xlink="http://www.w3.org/1999/xlink" viewBox="0 0 131.86 120.56"><defs><style>.cls-1{fill:url(#Degradado_sin_nombre_3);}.cls-2{fill:url(#Degradado_sin_nombre_2);}.cls-3{fill:url(#Degradado_sin_nombre_4);}.cls-4{fill:url(#Degradado_sin_nombre_4-2);}.cls-5{opacity:0.49;}.cls-6{fill:#201813;}.cls-7{fill:#403f41;}.cls-8{fill:#201b1d;}.cls-9{fill:#0a080b;}</style><linearGradient id="Degradado_sin_nombre_3" x1="100.69" y1="-784.46" x2="117.87" y2="-784.46" gradientTransform="matrix(1, 0, 0, -1, 0, -724.39)" gradientUnits="userSpaceOnUse"><stop offset="0" stop-color="#c5c3c7"/><stop offset="0.86" stop-color="#c5c3c7"/><stop offset="1" stop-color="#c5c3c7"/></linearGradient><linearGradient id="Degradado_sin_nombre_2" x1="13.83" y1="-784.42" x2="31.46" y2="-784.42" gradientTransform="matrix(1, 0, 0, -1, 0, -724.39)" gradientUnits="userSpaceOnUse"><stop offset="0" stop-color="#c5c3c7"/><stop offset="0.53" stop-color="#c7c4c9"/><stop offset="0.72" stop-color="#cdccd0"/><stop offset="0.86" stop-color="#d7d7da"/><stop offset="0.97" stop-color="#e8e8ea"/><stop offset="1" stop-color="#edeeef"/></linearGradient><linearGradient id="Degradado_sin_nombre_4" x1="65.85" y1="-814.25" x2="117.87" y2="-814.25" gradientTransform="matrix(1, 0, 0, -1, 0, -724.39)" gradientUnits="userSpaceOnUse"><stop offset="0" stop-color="#878589"/><stop offset="0.1" stop-color="#8c8c90"/><stop offset="0.34" stop-color="#929297"/><stop offset="1" stop-color="#939499"/></linearGradient><linearGradient id="Degradado_sin_nombre_4-2" x1="13.83" y1="-814.63" x2="65.85" y2="-814.63" xlink:href="#Degradado_sin_nombre_4"/></defs><title>Recurso 20</title><g id="Capa_2" data-name="Capa 2"><g id="Capa_10" data-name="Capa 10"><g id="Capa_2-2" data-name="Capa 2"><g id="Capa_10-2" data-name="Capa 10"><polygon class="cls-1" points="100.69 60.34 117.87 90.1 117.68 30.03 100.69 60.34"/><polygon class="cls-2" points="13.98 29.95 13.83 90.1 31.46 60.34 13.98 29.95"/><polygon class="cls-3" points="65.85 120.14 117.87 90.1 100.69 59.57 65.85 120.14"/><polygon class="cls-4" points="31.46 60.34 65.85 120.14 13.83 90.1 31.46 60.34"/><g class="cls-5"><polygon class="cls-6" points="65.85 120.56 117.68 30.46 65.85 0.42 13.98 30.37 65.85 120.56"/></g><polygon class="cls-7" points="65.85 120.14 117.68 30.03 65.85 0 13.98 29.95 65.85 120.14"/><g class="cls-5"><path class="cls-6" d="M90.74,76.42c2.91-2.42,6.12-7.74,8.74-11.18,4.42-5.8,7.81-12.84,11-19.78,3.42-7.44,12.21-22.41,21-28"/><path class="cls-6" d="M91.68,74.41a16.81,16.81,0,0,1,2.18-2.78,16.89,16.89,0,0,1-2.27,2.86c.46-.39.9-.81,1.34-1.24-1.43,2.09-2.2,2.82-2.24,3.06s.59-.12,1.47-.75c.27-.19.92-.8.78-.61-.8,1.12.4,0,.33.29C94.4,74,95.19,72.87,96,71.8l2.39-2.68a26.16,26.16,0,0,0,2.46-3c.57-.73,1.3-1.79,1.29-1.56.5-.78,1-1.57,1.45-2.36l.24-.24c-.52.84-1.07,1.69-1.64,2.52,0,.32,1.42-1.75,1.13-1.06,1.69-2.56,3-4.92,4.2-6.9,1.41-3,2.89-5.64,4.23-8.49A25,25,0,0,1,113,45.68a38.25,38.25,0,0,0,1.93-3.7c.52-1.07,1.19-2.38,1.86-3.51,1.15-1.95,2.58-4,3.09-5.19a7.73,7.73,0,0,1,.62-.93A13,13,0,0,0,122,30a24.07,24.07,0,0,1,2-3c1.47-2,3.39-4.16,3.84-4.92-.57.41-2,2.08-1.73,1.58A35.07,35.07,0,0,1,130.77,19c1.56-1.23,1.48-1.22-.48,0-.51.45-1,.92-1.69,1.59a4.21,4.21,0,0,0-1.28.7c-1.2.94-1.4,1-1.2.58s-1.36.52-2.22,1.33a35.19,35.19,0,0,1-2.58,2.43c-.42.11-1.88,1.85-3.07,3.34s-2.86,3.88-3.73,4.88a19.81,19.81,0,0,0-1.17,1.72c-1.47,2.36-2.85,4.8-4.13,7.29l-3.15,6.43a16.86,16.86,0,0,0-1.49,3.12c-.11.21-.26.5-.34.61a24.61,24.61,0,0,0-1.34,2.48c-.46.94-1,2-1.61,3-.91,1.49-1.45,2.39-1.85,3.19s-.83,1.56-1.39,2.54c-.86,1.14-1.66,2.28-2.44,3.4l1-1a31.31,31.31,0,0,0-2.54,3.79c-.45.76-.72,1.31-1.17,2a14.44,14.44,0,0,1-2.36,2.87,14.15,14.15,0,0,0,1.14-.88m.93-.29c.84-1.13,1.31-1.88,1.86-2.72,0,.16.68-.46-.56,1.27-.4.5-.84,1-1.29,1.45m7.94-8.64c-1.06,1.37-2,2.75-3,4.16v-.1c1-1.42,2-2.8,3-4.16v.1m9.9-15.19,1-2.28a7.37,7.37,0,0,1-1,2.28"/></g><path class="cls-8" d="M90.74,76c2.91-2.42,6.12-7.74,8.74-11.18C103.9,59,107.29,52,110.48,45c3.42-7.44,12.21-22.41,21-28"/><path class="cls-9" d="M91.68,75a16.81,16.81,0,0,1,2.18-2.78,16.89,16.89,0,0,1-2.27,2.86c.46-.39.9-.81,1.34-1.24-1.43,2.09-2.2,2.82-2.24,3.06s.59-.12,1.47-.75c.27-.19.92-.8.78-.61-.8,1.12.4,0,.33.29,1.13-1.29,1.92-2.37,2.7-3.44l2.39-2.68a26.16,26.16,0,0,0,2.46-3c.57-.73,1.3-1.79,1.29-1.56.5-.78,1-1.57,1.45-2.36l.24-.24c-.52.84-1.07,1.69-1.64,2.52,0,.32,1.42-1.75,1.13-1.06,1.69-2.56,3-4.92,4.2-6.9,1.41-3,2.89-5.64,4.23-8.49A25,25,0,0,1,113,46.26a38.25,38.25,0,0,0,1.93-3.7c.52-1.07,1.19-2.38,1.86-3.51,1.15-1.95,2.58-4,3.09-5.19a7.73,7.73,0,0,1,.62-.93,13,13,0,0,0,1.56-2.4,24.07,24.07,0,0,1,2-3c1.47-2,3.39-4.16,3.84-4.92-.57.41-2,2.08-1.73,1.58a35.07,35.07,0,0,1,4.64-4.64c1.56-1.23,1.48-1.22-.48,0-.51.45-1,.92-1.69,1.59a4.21,4.21,0,0,0-1.28.7c-1.2.94-1.4,1-1.2.58s-1.36.52-2.22,1.33a35.19,35.19,0,0,1-2.58,2.43c-.42.11-1.88,1.85-3.07,3.34s-2.86,3.88-3.73,4.88a19.81,19.81,0,0,0-1.17,1.72c-1.47,2.36-2.85,4.8-4.13,7.29l-3.15,6.39a16.86,16.86,0,0,0-1.49,3.12c-.11.21-.26.5-.34.61A24.61,24.61,0,0,0,102.9,56c-.46.94-1,2-1.61,3-.91,1.49-1.45,2.39-1.85,3.19s-.83,1.56-1.39,2.54c-.86,1.14-1.66,2.28-2.44,3.4l1-1a31.31,31.31,0,0,0-2.54,3.79c-.45.76-.72,1.31-1.17,2a14.62,14.62,0,0,1-2.36,2.9A14.15,14.15,0,0,0,91.68,75m.93-.29c.84-1.13,1.31-1.88,1.86-2.72,0,.16.68-.46-.56,1.27-.4.5-.84,1-1.29,1.45m7.92-8.6c-1.06,1.37-2,2.75-3,4.16v-.1c1-1.42,2-2.8,3-4.16v.1m9.92-15.21,1-2.28a7.37,7.37,0,0,1-1,2.28"/><g class="cls-5"><path class="cls-6" d="M.38,17.73c8.79,5.59,17.58,20.56,21,28,3.19,6.94,6.58,14,11,19.78C35,69,38.21,74.27,41.12,76.69"/><path class="cls-6" d="M40.18,74.65a14.15,14.15,0,0,0,1.14.88A14.44,14.44,0,0,1,39,72.66c-.45-.69-.72-1.24-1.17-2a33.39,33.39,0,0,0-2.54-3.79l1,1c-.78-1.12-1.58-2.26-2.44-3.4-.56-1-1-1.74-1.39-2.54s-.94-1.7-1.85-3.19c-.61-1-1.15-2.06-1.61-3a25.75,25.75,0,0,0-1.34-2.48c-.08-.11-.23-.4-.34-.61a17.18,17.18,0,0,0-1.49-3.12L22.64,43.1c-1.28-2.49-2.66-4.93-4.13-7.29a19.81,19.81,0,0,0-1.17-1.72c-.87-1-2.54-3.39-3.73-4.88S11,26,10.54,25.87A35.19,35.19,0,0,1,8,23.44c-.86-.81-2.42-1.75-2.22-1.33s0,.36-1.2-.58a4.33,4.33,0,0,0-1.28-.7c-.69-.67-1.18-1.14-1.69-1.59-2-1.22-2-1.23-.48,0a35.07,35.07,0,0,1,4.64,4.64C6,24.38,4.57,22.71,4,22.3c.45.76,2.37,2.92,3.84,4.92a24.07,24.07,0,0,1,2,3,13,13,0,0,0,1.56,2.4,7.73,7.73,0,0,1,.62.93c.51,1.19,1.94,3.24,3.09,5.19.67,1.13,1.34,2.44,1.86,3.51A37.12,37.12,0,0,0,18.9,46c.45.76.86,1.55,1.24,2.35,1.34,2.85,2.82,5.49,4.23,8.49,1.2,2,2.51,4.34,4.2,6.9-.29-.69,1.13,1.38,1.13,1.06-.57-.83-1.12-1.68-1.64-2.52l.24.24c.45.79.95,1.58,1.45,2.36,0-.23.72.83,1.29,1.56a26.16,26.16,0,0,0,2.46,3l2.39,2.68c.78,1.07,1.57,2.15,2.7,3.44-.07-.29,1.13.83.33-.29-.14-.19.51.42.78.61.88.63,1.51,1,1.47.75s-.81-1-2.24-3.06c.44.43.88.85,1.34,1.24A16.89,16.89,0,0,1,38,71.9a17.23,17.23,0,0,1,2.18,2.78m-.94-.32A17.59,17.59,0,0,1,38,72.91c-1.24-1.73-.56-1.11-.56-1.27.55.84,1,1.59,1.86,2.72M31.3,65.72v-.1c1,1.36,2,2.74,3,4.16v.1c-1-1.41-1.94-2.79-3-4.16M21.4,50.53a7.37,7.37,0,0,1-1-2.28l1,2.28"/></g><path class="cls-8" d="M.38,17.3c8.79,5.59,17.58,20.56,21,28,3.19,6.94,6.58,14,11,19.78,2.62,3.44,5.83,8.76,8.74,11.18"/><path class="cls-9" d="M40.18,74.22a14.15,14.15,0,0,0,1.14.88A14.62,14.62,0,0,1,39,72.2c-.45-.69-.72-1.24-1.17-2a33.39,33.39,0,0,0-2.54-3.79l1,1c-.78-1.12-1.58-2.26-2.44-3.4-.56-1-1-1.74-1.39-2.54s-.94-1.7-1.85-3.19c-.61-1-1.15-2.06-1.61-3a25.75,25.75,0,0,0-1.34-2.48c-.08-.11-.23-.4-.34-.61a17.18,17.18,0,0,0-1.49-3.12l-3.15-6.39c-1.28-2.49-2.66-4.93-4.13-7.29a19.81,19.81,0,0,0-1.17-1.72c-.87-1-2.54-3.39-3.73-4.88S11,25.56,10.54,25.45A35.19,35.19,0,0,1,8,23c-.86-.81-2.42-1.75-2.22-1.33s0,.36-1.2-.58a4.33,4.33,0,0,0-1.28-.7c-.69-.67-1.18-1.14-1.69-1.59-2-1.22-2-1.23-.48,0a35.07,35.07,0,0,1,4.64,4.64C6,24,4.57,22.29,4,21.88c.45.76,2.37,2.92,3.84,4.92a24.07,24.07,0,0,1,2,3,13,13,0,0,0,1.56,2.4,7.73,7.73,0,0,1,.62.93c.51,1.19,1.94,3.24,3.09,5.19.67,1.13,1.34,2.44,1.86,3.51a37.12,37.12,0,0,0,1.93,3.7c.45.76.86,1.55,1.24,2.35,1.34,2.85,2.82,5.49,4.23,8.49,1.2,2,2.51,4.34,4.2,6.9-.29-.69,1.13,1.38,1.13,1.06-.57-.83-1.12-1.68-1.64-2.52l.24.24c.45.79.95,1.58,1.45,2.36,0-.23.72.83,1.29,1.56a26.16,26.16,0,0,0,2.46,3l2.39,2.68c.78,1.07,1.57,2.15,2.7,3.44-.07-.29,1.13.83.33-.29-.14-.19.51.42.78.61.88.63,1.51,1,1.47.75s-.81-1-2.24-3.06c.44.43.88.85,1.34,1.24A16.89,16.89,0,0,1,38,71.48a17.23,17.23,0,0,1,2.18,2.78m-.94-.33A17.59,17.59,0,0,1,38,72.48c-1.24-1.73-.56-1.11-.56-1.27.55.84,1,1.59,1.86,2.72m-7.93-8.6v-.1c1,1.36,2,2.74,3,4.16v.1c-1-1.41-1.94-2.79-3-4.16M21.4,50.12a7.37,7.37,0,0,1-1-2.28l1,2.28"/></g></g></g></g></svg>