<svg xmlns="http://www.w3.org/2000/svg" viewBox="0 0 129.66 147.67"><defs><style>.cls-1{fill:none;stroke:#211915;stroke-miterlimit:10;}.cls-2{fill:#c57635;}.cls-3{fill:#a6532e;}.cls-4{fill:#cd9143;}.cls-5{fill:#fff;}.cls-6{fill:#040006;}.cls-7{font-size:23px;fill:#211915;font-family:ErasITC-Bold, Eras Bold ITC;letter-spacing:0.07em;}</style></defs><title>Recurso 8</title><g id="Capa_2" data-name="Capa 2"><g id="Capa_5" data-name="Capa 5"><path class="cls-1" d="M66.17,118.67" transform="translate(-0.65)"/><polygon class="cls-2" points="63.93 120.27 116.08 30.03 116.08 37.04 63.93 120.27"/><polygon class="cls-2" points="63.93 120.27 12.19 30.03 12.19 37.79 63.93 120.27"/><path class="cls-3" d="M29.32,61.3,12.69,30l52-30,52,30L99.68,61.3S89.6,82.35,64.8,83.12C64.8,83.12,42.6,84.6,29.32,61.3Z" transform="translate(-0.65)"/><path class="cls-4" d="M12.92,32.75,12.69,90.1l52,30-29-50.59S26.16,61.25,12.92,32.75Z" transform="translate(-0.65)"/><polygon class="cls-4" points="64.06 120.14 99.03 61.3 116.08 30.03 116.08 90.1 64.06 120.14"/><path class="cls-3" d="M34,67l30.69,53.16L94.78,68.48S80.34,83,65.25,82.42,37,71.47,34,67Z" transform="translate(-0.65)"/><path class="cls-5" d="M30.46,60.79S25.05,68.17,29.78,74s10.86,4.22,12.7,7.5" transform="translate(-0.65)"/><path class="cls-5" d="M99.68,61.22s1.45,9.52-.82,12a12.5,12.5,0,0,1-4.21,4C93.4,77.94,92.18,78.4,91,79a24,24,0,0,0-3.83,2.28" transform="translate(-0.65)"/><path class="cls-6" d="M38.93,74.22c-.84-.65-.9-.64-2.38-2.71.74.76,1.55,1.84,2.46,2.81-.39-.5-.74-1-1.09-1.52,1.79,1.82,2.79,2.35,3,2.37s-.25-.53-.82-1.37c-.17-.26-.68-.92-.51-.78,1,.81,0-.37.32-.3-1-1.15-1.82-2.16-2.58-3.17l-1.71-3a17.34,17.34,0,0,0-2.09-3.25c-.52-.68-1.23-1.61-1-1.55-.53-.66-1.05-1.34-1.56-2l-.11-.3c.51.76,1,1.52,1.61,2.26.26.13-1-1.78-.52-1.32a46.79,46.79,0,0,1-3.83-6.41,81.31,81.31,0,0,1-4.06-8c-.39-.82-.81-1.86-1-2.42a20.67,20.67,0,0,0-2-3.84L18.9,36.2a30.16,30.16,0,0,0-3.47-5.07c-.05-.05-.5-.68-.66-.93a11.79,11.79,0,0,0-1.83-2.29c-.59-.5-1.53-1.7-2.53-2.74a25.86,25.86,0,0,0-4.77-4.36c.51.53,2.13,2.12,1.64,1.77A34.66,34.66,0,0,0,2,18.4c-1.8-1.07-1.72-1,.14.46.59.37,1.13.76,2,1.33a4.56,4.56,0,0,0,.81,1.23c1,1.11,1,1.38.61,1.16s.51,1.3,1.16,2.21a18.85,18.85,0,0,1,1.89,2.77,28.63,28.63,0,0,0,2.27,3.62,45.24,45.24,0,0,1,3,5c.12.28.58,1.08,1,1.7,1.33,2.24,2.61,4.54,3.75,6.85l.72,1.52.73,1.59L21.37,51A14.13,14.13,0,0,0,23,54c.11.21.26.51.32.63a16.81,16.81,0,0,0,1.37,2.52l1.86,3a21.52,21.52,0,0,0,2.25,3.11c.63.69,1.26,1.37,2.09,2.2.79,1,1.57,2.08,2.36,3.16l-.6-1.23a26,26,0,0,0,2.74,3.55c.61.66,1.06,1.07,1.68,1.69s1.36,1.45,2.84,2.8c-.44-.5-.71-.86-1-1.21m-.2-1c-1-1-1.57-1.65-2.23-2.39.17,0-.26-.75,1.06.86.3.36.69.93,1.16,1.53M32.8,63.39c1,1.34,2,2.74,3,4.1l-.1,0c-1-1.37-2-2.76-3-4.09h.09M24.9,48.17,23.81,46a7.33,7.33,0,0,1,1.09,2.13" transform="translate(-0.65)"/><path class="cls-6" d="M90.1,73.73a16.73,16.73,0,0,1,2.18-2.78A16.68,16.68,0,0,1,90,73.81c.46-.39.9-.81,1.34-1.24-1.43,2.09-2.2,2.82-2.24,3.06s.59-.12,1.47-.75c.27-.19.92-.8.78-.61-.8,1.12.4,0,.33.29,1.13-1.29,1.92-2.37,2.7-3.44l2.39-2.68a26.27,26.27,0,0,0,2.46-3c.57-.73,1.3-1.79,1.29-1.56.5-.78,1-1.57,1.45-2.36l.24-.24c-.52.84-1.07,1.69-1.64,2.52,0,.32,1.42-1.75,1.13-1.06,1.69-2.56,3-4.92,4.2-6.9,1.41-3,2.89-5.64,4.23-8.49a26.4,26.4,0,0,1,1.24-2.35,37.46,37.46,0,0,0,1.93-3.7c.52-1.07,1.19-2.38,1.86-3.51,1.15-1.95,2.58-4,3.09-5.19,0-.07.45-.7.62-.93a13.12,13.12,0,0,0,1.56-2.4,24.12,24.12,0,0,1,2-3c1.47-2,3.39-4.16,3.84-4.92-.57.41-2,2.08-1.73,1.58a35.49,35.49,0,0,1,4.64-4.64c1.56-1.23,1.48-1.22-.48,0-.51.45-1,.92-1.69,1.59a4.32,4.32,0,0,0-1.28.7c-1.2.94-1.4,1-1.2.58s-1.36.52-2.22,1.33-2.35,2.37-2.58,2.43c-.42.11-1.88,1.85-3.07,3.34s-2.86,3.88-3.73,4.88c-.21.24-.76,1.06-1.17,1.72-1.47,2.36-2.85,4.8-4.13,7.29l-3.15,6.39A17,17,0,0,0,103,51.68c-.11.21-.26.5-.34.61a24,24,0,0,0-1.34,2.48c-.46.94-1,2-1.61,3-.91,1.49-1.45,2.39-1.85,3.19s-.83,1.56-1.39,2.54c-.86,1.14-1.66,2.28-2.44,3.4l1-1a31.92,31.92,0,0,0-2.54,3.79c-.45.76-.72,1.31-1.17,2A14.37,14.37,0,0,1,89,74.61c.49-.34.82-.61,1.14-.88m.93-.29c.84-1.13,1.31-1.88,1.86-2.72,0,.16.68-.46-.56,1.27A18.83,18.83,0,0,1,91,73.44M99,64.8c-1.06,1.37-2,2.75-3,4.16l0-.1c1-1.42,2-2.8,3-4.16v.1m9.92-15.21,1-2.28a7.52,7.52,0,0,1-1,2.28" transform="translate(-0.65)"/><text class="cls-7" transform="translate(13.11 140.34)">FERTCH</text></g></g></svg>